<svg width="79" height="79" viewBox="0 0 79 79" fill="none" xmlns="http://www.w3.org/2000/svg">
<g clip-path="url(#clip0_2_2514)">
<path d="M66.6908 21.2267C65.5214 19.496 64.1783 17.8693 62.6994 16.3897C62.0578 15.748 61.3881 15.1322 60.695 14.5445L75.2395 -6.10352e-05H32.8663L16.5115 16.3555H16.5137C16.5023 16.3671 16.4907 16.3785 16.4789 16.3896C15 17.8693 13.6576 19.4961 12.4882 21.2267C11.3081 22.9741 10.2941 24.842 9.47506 26.7782C7.77017 30.8076 6.90635 35.088 6.90635 39.5003C6.90635 43.9127 7.77017 48.1923 9.47506 52.2217C10.2941 54.1579 11.3081 56.0258 12.4882 57.7732C13.6576 59.5038 15 61.1321 16.4789 62.6102C17.1232 63.2545 17.7942 63.8717 18.4901 64.4599L3.95013 78.9999H46.3112L62.732 62.5784H62.7305C64.1972 61.1078 65.5297 59.4924 66.6908 57.7732C67.8709 56.0258 68.8849 54.1579 69.7039 52.2217C71.4081 48.1923 72.2711 43.9127 72.2711 39.5003C72.2711 35.088 71.4081 30.8076 69.7039 26.7782C68.8849 24.842 67.8709 22.9741 66.6908 21.2267Z" fill="black"/>
<path d="M60.7844 18.2693C60.1435 17.6285 59.4814 17.0225 58.7997 16.4522L41.0152 34.2359C41.8912 34.4823 42.7178 34.9495 43.4072 35.6366L43.4117 35.642C45.5595 37.7897 45.5595 41.2715 43.4117 43.4193L10.4708 76.3603H14.3302L45.3419 45.3487C48.5461 42.1452 48.5552 36.957 45.3707 33.7406L47.3001 31.8113C51.5501 36.0924 51.541 43.009 47.2713 47.278L18.1882 76.3603H22.0485L49.2014 49.2074C54.5367 43.8728 54.5458 35.2286 49.2302 29.8819L51.1603 27.9518C57.5422 34.3648 57.5316 44.7366 51.1307 51.1375L25.908 76.3603H29.7682L53.0601 53.0676C60.5273 45.6012 60.5371 33.5002 53.0897 26.0217L55.0198 24.0923C63.5336 32.6364 63.5237 46.465 54.9902 54.9978L33.6277 76.3603H37.4872L56.9203 56.9271C66.5194 47.3296 66.5285 31.7726 56.9491 22.1622L58.8914 20.2192C69.5439 30.9027 69.534 48.198 58.8633 58.8701L41.3717 76.3603H45.2319L60.7935 60.8003L60.7844 60.7912C72.5266 49.0489 72.5266 30.0108 60.7844 18.2693Z" fill="white"/>
<path d="M18.4115 60.7581C19.0523 61.399 19.7144 62.0049 20.3962 62.5752L38.1806 44.7908C37.3054 44.5443 36.4788 44.0779 35.7894 43.3908L35.7841 43.3855C33.6363 41.2377 33.6363 37.7552 35.7841 35.6082L68.7706 2.62164H64.9111L33.854 33.678C30.6505 36.8823 30.6406 42.0704 33.8259 45.2868L31.8965 47.2162C27.6465 42.9343 27.6548 36.0177 31.9246 31.7494L61.0524 2.62164H57.1921L29.9945 29.8193C24.6599 35.1539 24.6508 43.7988 29.9664 49.1448L28.0371 51.0749C21.6544 44.6619 21.6642 34.2901 28.0651 27.8892L53.3327 2.62164H49.4732L26.1357 25.959C18.6686 33.4262 18.6587 45.5265 26.1069 53.005L24.1768 54.9352C15.663 46.3911 15.6721 32.5617 24.2056 24.0289L45.6129 2.62164H41.7534L22.2755 22.0996C12.6765 31.6986 12.6674 47.2541 22.2467 56.8653L20.3044 58.8075C9.65198 48.1247 9.66184 30.8287 20.3332 20.1573L37.8689 2.62164H34.0087L18.4032 18.2272L18.4115 18.2355C6.66923 29.9778 6.66923 49.0159 18.4115 60.7581" fill="#E03A3E"/>
</g>
<defs>
<clipPath id="clip0_2_2514">
<rect width="79" height="79" fill="white"/>
</clipPath>
</defs>
</svg>
