<svg width="95" height="95" viewBox="0 0 95 95" fill="none" xmlns="http://www.w3.org/2000/svg">
<g clip-path="url(#clip0_6_312)">
<path d="M30.5454 81.4128C30.1211 81.0639 29.9437 80.4995 30.0928 79.971L35.1051 62.1891C35.1331 62.0853 35.1736 61.9854 35.226 61.8915L32.9243 58.2151C32.7134 57.879 32.6594 57.4711 32.77 57.0914L33.0914 56.0113L29.9385 55.8086C26.9733 55.5905 25.9164 55.2005 25.2117 54.8131C22.2388 53.1738 21.4622 48.4685 21.2924 47.0652L21.1047 45.4848C21.0121 44.8434 21.1793 44.2174 21.565 43.7659C21.8659 43.4169 22.28 43.1937 22.7274 43.1424C15.8713 36.9543 9.67343 29.2653 11.8388 18.4284C14.2279 6.4601 23.9233 2.85292 24.3347 2.70412C24.4891 2.64769 24.6485 2.62201 24.8028 2.62201C25.3017 2.62201 25.7775 2.8914 26.0244 3.35321C26.1967 3.67646 26.2301 4.03821 26.1401 4.36915C29.3419 1.65994 32.4022 0.47721 33.6855 0.0667314C33.8244 0.0205465 33.9684 1.52588e-05 34.1073 1.52588e-05C34.6396 1.52588e-05 35.1385 0.305318 35.37 0.810749C35.6606 1.44701 35.4266 2.20383 34.8248 2.56559C31.9008 4.32813 29.3548 6.72691 27.4337 9.48746C29.7688 8.94357 31.335 8.88454 31.8827 8.88454C32.0705 8.88454 32.1656 8.89224 32.1656 8.89224C32.8497 8.93329 33.4052 9.46949 33.4644 10.1494C33.5261 10.8292 33.0837 11.4527 32.4177 11.6143C32.3816 11.6246 28.5704 12.5866 24.363 15.5986C23.5684 18.0154 23.1672 20.5399 23.1672 23.1029C23.1672 27.962 24.7257 32.952 27.444 36.7901C28.092 37.706 28.7324 38.5039 29.4036 39.2325C29.1439 34.2425 30.5763 26.4458 39.6159 22.8284C39.7856 22.7591 39.9605 22.7283 40.1328 22.7283C40.642 22.7283 41.1306 23.0105 41.3698 23.4928C41.6938 24.1342 41.4675 24.9167 40.8529 25.2913L40.786 25.3298C39.3922 26.2354 38.2194 27.4053 37.3245 28.7599C38.3069 28.4572 39.153 28.3571 39.7239 28.2904L39.8319 28.2776C39.8859 28.2699 39.9425 28.2673 39.9965 28.2673C40.5751 28.2673 41.1023 28.6291 41.3003 29.1858C41.5189 29.7938 41.2824 30.4711 40.7372 30.8175L40.6909 30.8457C40.6721 30.8592 40.6523 30.8712 40.6317 30.8816C37.7385 32.5467 36.1286 34.4837 35.8483 36.6439C35.5397 39.0042 36.8487 41.2259 37.7874 42.4805C40.2202 39.6738 41.8044 34.8788 42.2467 33.0726C42.401 32.4466 42.9617 32.0182 43.5917 32.0182C43.6458 32.0182 43.6998 32.0207 43.7538 32.0284C44.4481 32.108 44.9753 32.6929 44.9779 33.3907C45.0139 39.2838 43.4272 43.3092 41.8018 45.8799C44.2373 47.1113 46.6238 47.1832 47.1407 47.1832C47.1998 47.1832 47.2822 47.1806 47.3002 47.1806C47.3156 47.1806 47.403 47.1832 47.4648 47.1832C47.9817 47.1832 50.3682 47.1113 52.8036 45.8799C51.1783 43.3092 49.5915 39.2838 49.6275 33.3907C49.6301 32.6929 50.1548 32.108 50.8491 32.0284C50.9057 32.0207 50.9597 32.0182 51.0137 32.0182C51.6438 32.0182 52.2044 32.4466 52.3562 33.0726C52.8011 34.8788 54.3852 39.6738 56.8181 42.4805C57.7542 41.2285 59.0632 39.0042 58.7571 36.6439C58.4768 34.4837 56.8669 32.5467 53.9737 30.8816C53.9557 30.8714 53.8863 30.8278 53.8863 30.8278C53.3385 30.4814 53.0968 29.799 53.3128 29.1909C53.5108 28.6342 54.0303 28.2673 54.6115 28.2673C54.6655 28.2673 54.7195 28.2699 54.7735 28.2776L54.8816 28.2904C55.4499 28.3571 56.2986 28.4572 57.281 28.7599C56.386 27.4053 55.2133 26.2354 53.8195 25.3323L53.7552 25.2913C53.138 24.9167 52.9116 24.1342 53.2331 23.4928C53.4748 23.0105 53.9635 22.7283 54.4727 22.7283C54.645 22.7283 54.8199 22.7591 54.9896 22.8283C64.0291 26.4458 65.4616 34.2425 65.1993 39.2325C65.8731 38.5039 66.5134 37.706 67.1615 36.7901C69.8798 32.9521 71.4383 27.962 71.4383 23.1029C71.4383 20.5373 71.0371 18.0154 70.2398 15.5986C66.0094 12.5636 62.2264 11.6246 62.1878 11.6143C61.5217 11.4527 61.0794 10.8292 61.1386 10.1494C61.2003 9.46951 61.7558 8.93329 62.4373 8.89224C62.4373 8.89224 62.535 8.88454 62.7227 8.88454C63.2679 8.88454 64.8367 8.94355 67.1692 9.48746C65.2507 6.72691 62.7047 4.32813 59.7807 2.56556C59.1789 2.20383 58.9449 1.44957 59.2355 0.810749C59.3457 0.569054 59.5231 0.364139 59.7465 0.220403C59.97 0.0766681 60.23 0.000169049 60.4956 1.52588e-05C60.6371 1.52588e-05 60.7785 0.0205465 60.92 0.0667314C62.2032 0.47721 65.2636 1.65994 68.4654 4.36917C68.3753 4.03821 68.4062 3.67646 68.5785 3.35321C68.8254 2.8914 69.3037 2.62201 69.8026 2.62201C69.9569 2.62201 70.1164 2.64767 70.2707 2.70412C70.6822 2.85292 80.375 6.4601 82.7666 18.4284C84.932 29.2653 78.7342 36.9543 71.878 43.1424C72.3255 43.1937 72.7395 43.4144 73.0379 43.7659C73.4262 44.2174 73.5933 44.8434 73.5008 45.4848L73.3104 47.0652C73.1433 48.4685 72.3666 53.1737 69.3937 54.8131C68.6891 55.2005 67.6295 55.5905 64.6798 55.8086L61.514 56.0113L61.8355 57.0913C61.9461 57.4711 61.8895 57.879 61.6812 58.2151L59.3795 61.8915C59.4309 61.9839 59.4721 62.0839 59.5004 62.1891L64.5126 79.971C64.6618 80.4995 64.4843 81.0639 64.06 81.4128L47.3027 95L30.5454 81.4128V81.4128Z" fill="#EEE1C6"/>
<path d="M19.7527 32.8827C19.7527 32.8827 17.7236 23.7057 19.2306 18.2744C18.8294 18.708 18.4205 19.1544 18.0451 19.6419C14.3675 24.3882 19.7527 32.8827 19.7527 32.8827ZM74.8516 32.8827C74.8516 32.8827 80.2393 24.3882 76.5618 19.6419C76.1838 19.1544 75.7749 18.708 75.3737 18.2744C76.8833 23.7057 74.8516 32.8827 74.8516 32.8827V32.8827ZM13.1974 18.6977C15.4631 7.35796 24.8035 4.00477 24.8035 4.00477C21.3831 6.52415 17.8933 11.2653 16.4506 17.9204C17.8547 16.1809 19.156 14.8776 20.6862 13.836C24.4743 5.69803 30.937 2.39617 34.108 1.38279C29.9958 3.86367 26.5549 7.5555 24.464 11.8067C29.2191 10.1134 32.0917 10.2699 32.0917 10.2699C32.0917 10.2699 27.8381 11.3012 23.1911 14.7391C22.2807 17.3585 21.7817 20.1729 21.7817 23.1002C21.7817 28.2544 23.4456 33.5369 26.3131 37.5879C27.9256 39.8661 29.4866 41.4414 31.4257 42.8755C30.7827 41.2644 28.3422 28.8291 40.1309 24.111L40.0486 24.1598C37.2634 25.9608 35.2112 28.7624 34.378 32.0617C36.5305 30.0041 38.8013 29.7912 39.9972 29.6475C39.9766 29.6603 39.9586 29.6732 39.9406 29.6834C28.9954 35.9819 37.6981 44.5098 37.6981 44.5098C41.1493 41.6261 43.1604 35.166 43.5924 33.3984C43.6362 40.2253 41.3602 44.3122 39.812 46.3083C43.3404 48.725 47.2983 48.5634 47.2983 48.5634H47.306C47.3086 48.5634 51.2639 48.725 54.7923 46.3083C53.2441 44.3122 50.9707 40.2253 51.0118 33.3984C51.4439 35.166 53.4575 41.6261 56.9062 44.5098C56.9062 44.5098 65.6114 35.9819 54.6662 29.6834C54.6457 29.6732 54.6277 29.6603 54.6097 29.6475C55.8029 29.7912 58.0737 30.0041 60.2263 32.0617C59.393 28.7624 57.3408 25.9608 54.5557 24.1598L54.4734 24.1111C66.2621 28.8291 63.8215 41.2644 63.1786 42.8755C65.1203 41.4414 66.6787 39.8661 68.2912 37.5879C71.1612 33.5369 72.8251 28.2544 72.8251 23.1002C72.8251 20.1729 72.3262 17.3585 71.4132 14.7391C66.7662 11.3012 62.5151 10.2699 62.5151 10.2699C62.5151 10.2699 65.3851 10.1134 70.1402 11.8066C68.0494 7.5555 64.6111 3.86367 60.4963 1.38277C63.6672 2.39617 70.13 5.69805 73.9181 13.836C75.4483 14.8776 76.7521 16.1809 78.1563 17.9204C76.7135 11.2653 73.2211 6.52415 69.8008 4.00479C69.8008 4.00479 79.1438 7.35796 81.4069 18.6977C84.0455 31.8975 73.4783 40.1406 64.9557 47.201L71.4621 44.556C71.9019 44.3687 72.2079 44.792 72.1256 45.3L71.9353 46.9009C71.8298 47.7834 71.1818 52.2501 68.7232 53.6021C68.1909 53.8972 67.2754 54.2307 64.5776 54.4308L59.6939 54.7438L60.5066 57.4838L55.7129 65.142L58.1663 62.561L63.1786 80.3455L49.4277 91.6314L53.7173 72.2152L47.3034 79.9991L40.887 72.2152L45.1766 91.6314L31.4257 80.3455L36.4379 62.561L38.8939 65.142L34.1002 57.4838L34.9103 54.7438L30.0267 54.4308C27.3289 54.2307 26.4134 53.8972 25.8811 53.6021C23.4225 52.2501 22.7744 47.7834 22.669 46.9009L22.4787 45.3C22.3964 44.792 22.7024 44.3687 23.1422 44.556L29.6486 47.201C21.1285 40.1406 10.5614 31.8975 13.1974 18.6977" fill="#00471B"/>
<path d="M24.8043 46.8715C24.8043 46.8715 25.2775 50.8533 26.9543 51.7769C28.0833 52.3977 30.8453 52.3387 33.2575 52.5234C30.5855 51.4895 26.6508 48.67 24.8043 46.8715V46.8715ZM39.5994 55.2891C41.0601 56.4128 42.2971 55.7868 42.9606 55.1377C43.1792 54.9274 43.1123 54.5631 42.8372 54.4374C42.1402 54.1192 40.8235 53.5163 39.5145 52.916C39.2522 52.798 38.9513 52.9596 38.905 53.2444C38.8124 53.8088 38.8253 54.6913 39.5994 55.2891ZM42.2534 63.0166L41.4664 66.4749L43.4004 69.079H45.4526L43.5521 66.2876L43.853 64.5662C44.7145 65.4846 45.9412 66.0593 47.3016 66.0644C48.6647 66.0593 49.8888 65.4846 50.7529 64.5662L51.0538 66.2876L49.1507 69.079H51.2055L53.1394 66.4749L52.3525 63.0166C50.506 61.839 50.0791 60.1688 50.0791 60.1688L48.7907 55.9613L47.3016 56.6822L45.8126 55.9613L44.5268 60.1688C44.5268 60.1688 44.0999 61.839 42.2534 63.0166V63.0166ZM51.6427 55.1378C52.3062 55.7868 53.5458 56.4128 55.0039 55.2891C55.778 54.6913 55.7935 53.8088 55.7009 53.2444C55.652 52.9596 55.3511 52.798 55.0888 52.916C53.7798 53.5163 52.4657 54.1192 51.7687 54.4373C51.4936 54.5631 51.4267 54.9274 51.6427 55.1378ZM50.0894 70.6825H44.5139L45.8538 72.4963H48.7521L50.0894 70.6825ZM61.3484 52.5234C63.7606 52.3387 66.5226 52.3977 67.6516 51.7769C69.3258 50.8533 69.8016 46.8715 69.8016 46.8715C67.9525 48.67 64.0178 51.4895 61.3484 52.5234Z" fill="#FEFEFE"/>
</g>
<defs>
<clipPath id="clip0_6_312">
<rect width="95" height="95" fill="white"/>
</clipPath>
</defs>
</svg>
