<svg width="95" height="95" viewBox="0 0 95 95" fill="none" xmlns="http://www.w3.org/2000/svg">
<g clip-path="url(#clip0_6_318)">
<mask id="mask0_6_318" style="mask-type:alpha" maskUnits="userSpaceOnUse" x="0" y="0" width="95" height="95">
<path d="M94.4098 0H0V95H94.4098V0Z" fill="white"/>
</mask>
<g mask="url(#mask0_6_318)">
<path d="M86.9385 46.8074L83.1749 45.5455C88.9255 43.2183 94.9277 38.5707 94.3743 28.8549C93.9925 22.1315 91.0611 16.2563 89.3074 12.7403L82.9371 0L84.2038 13.7279C84.5971 18.0303 84.4553 23.6998 82.8365 26.7768C80.6757 31.269 73.5097 30.7752 70.9442 30.6037C66.4124 30.3019 51.6528 29.799 47.1758 29.799C41.1943 29.8242 34.6319 30.3066 29.2929 30.6998C26.7525 30.8872 24.5598 31.0495 23.0849 31.1044C22.9317 31.109 22.7099 31.1295 22.4127 31.157C13.0539 32.0211 11.4625 27.6364 10.9366 26.1939C9.96707 23.5352 9.99223 17.5753 10.0037 15.0081L10.0448 3.8223L5.13337 12.9026C3.67456 15.6025 0.960455 20.6227 0.0366686 29.1017C-0.587529 41.0419 6.93057 44.519 9.40002 45.6598C9.73387 45.8152 10.0677 45.9593 10.4015 46.0941C10.198 46.1582 10.006 46.2199 9.82304 46.2839C8.21331 46.8325 6.54185 47.5961 6.03656 47.8316L3.23096 49.1666L5.06248 51.7133C5.29341 52.0265 5.90393 52.8312 6.57616 53.4919C8.27275 55.1607 12.5531 57.8103 17.787 57.161C19.6185 56.9347 21.0659 56.6055 22.184 56.2695C22.3784 56.8364 22.5933 57.4308 22.8128 57.9749C24.4179 61.9618 28.0649 69.5516 29.4369 72.1897C30.34 73.9271 31.241 75.5114 31.9383 76.7162L31.8766 76.7687C31.7234 76.9059 31.5908 77.0248 31.4056 77.2123L30.7836 77.9529L30.7448 78.8285C30.7059 79.6538 30.5184 87.0401 35.6288 92.5404L36.0541 92.9519L36.5457 93.1393C38.9465 94.0583 42.0745 95.0002 47.082 95.0002C52.2427 95.0002 56.5665 93.7611 58.2266 92.9222L58.709 92.6638L59.0246 92.2912C62.4932 88.1877 64.0183 82.1753 64.0869 79.6652L64.1418 79.5943L64.0892 79.5532L64.0206 78.545L63.0603 77.5711C62.8499 77.37 62.6899 77.2168 62.5595 77.0065C62.9185 76.2978 63.3575 75.3857 63.8354 74.3866L63.9337 74.1809C64.215 73.5957 64.4528 73.0973 64.5922 72.8253C65.9184 70.2443 69.7872 61.9458 71.3215 58.0252C71.6462 57.1999 71.9183 56.5187 72.1492 55.9609C73.2536 56.2946 74.7078 56.6147 76.5691 56.8067C81.7984 57.3508 86.751 54.1183 88.4636 51.7636C88.5551 51.6402 88.6831 51.4847 88.7723 51.3773L91.1297 48.6111L87.9194 47.1617C87.876 47.1434 87.677 47.0589 86.9385 46.8074" fill="#FEFEFE"/>
</g>
<path d="M92.0921 28.9843C91.7354 22.725 88.9321 17.1104 87.2584 13.7545L87.0594 13.3544L86.33 11.8982L86.4787 13.5213C86.6845 15.7639 87.1806 23.4269 84.8964 27.7681C82.0657 33.6571 73.7381 33.0878 71.0012 32.8981L70.7931 32.8844C66.2955 32.5849 51.6663 32.066 47.1847 32.0842C41.258 32.1094 34.7185 32.5917 29.4618 32.9781C26.8894 33.1678 24.6646 33.3324 23.167 33.3896C23.0458 33.3942 22.8674 33.4102 22.6251 33.433C15.2556 34.1189 10.6002 31.9471 8.787 26.9771C7.67574 23.9275 7.70545 17.8991 7.7169 15.0027L7.71918 14.1362L7.72375 12.9201L7.14527 13.9899C5.75962 16.5503 3.185 21.3168 2.3184 29.2221C1.83366 38.5401 6.67423 41.8824 10.3601 43.5855C14.2084 45.3664 18.1412 45.6224 19.4331 45.707L19.5268 45.7138L19.4902 45.7092C19.7555 45.7573 20.0596 45.771 20.3797 45.7847C20.7776 45.803 21.2074 45.8258 21.6487 45.9081C20.9513 46.043 20.0344 46.2008 19.2296 46.3379C18.3721 46.4842 17.5627 46.6237 17.142 46.7128C16.2685 46.898 12.5598 47.7644 10.5613 48.4457C8.86474 49.0263 7.03779 49.8882 7.01949 49.8951L6.68566 50.0528L6.90289 50.3523C6.92804 50.3866 7.54081 51.237 8.17878 51.8634C9.48439 53.1482 13.1177 55.4388 17.5055 54.8924C21.0131 54.4581 22.8926 53.6442 23.6174 53.2602C23.8438 54.0146 24.388 55.7611 24.9344 57.1214C26.5144 61.0488 30.1111 68.5312 31.4648 71.1327C32.56 73.2382 33.6461 75.1082 34.3664 76.345L34.6248 76.7908C34.3892 77.5978 33.8268 78.1007 33.4061 78.4687C33.294 78.567 33.198 78.6516 33.1157 78.7362L33.0333 78.8185L33.0288 78.9351C32.9945 79.6598 32.8253 86.1637 37.2497 90.9279L37.2977 90.9805L37.364 91.0056C39.5682 91.8492 42.447 92.7156 47.0818 92.7156C51.8103 92.7156 55.7866 91.5931 57.1814 90.889L57.2385 90.8615L57.2797 90.8136C60.3665 87.1627 61.7704 81.6715 61.8047 79.6758V79.5478L61.7156 79.4563C61.6401 79.3786 61.5601 79.3009 61.4755 79.2208C60.9953 78.7591 60.4008 78.1875 60.0601 76.8365C60.4374 76.1918 61.1737 74.6533 61.7727 73.4005C62.1088 72.6987 62.3969 72.0929 62.557 71.782C63.8649 69.2376 67.6788 61.058 69.1925 57.1922C70.1506 54.7484 70.6879 53.5253 70.9211 53.0201C71.5911 53.3813 73.3951 54.1815 76.8044 54.5335C81.2265 54.9907 85.4429 52.0302 86.6159 50.4186C86.8125 50.1465 87.1486 49.7556 87.1509 49.7533L87.4162 49.4424L87.0457 49.2755C87.0206 49.2641 86.8697 49.2001 86.2112 48.9738L83.7646 48.1554L81.3248 47.3369C80.6595 47.1106 77.6732 46.4637 75.4965 45.9904L73.8456 45.6315L74.3852 45.5332C79.4339 44.6394 92.8467 42.2641 92.0921 28.9843" fill="black"/>
<path d="M3.46287 26.2941C4.19914 22.4878 5.41557 18.9284 7.07558 15.5107L7.09388 15.4695H7.1739V15.5427V15.4695H7.24707L7.24479 15.545C7.19906 16.5669 7.16935 17.6185 7.16935 18.6792C7.16935 21.2007 7.34312 23.7657 7.9056 26.0701L7.96048 26.2941L7.789 26.141C7.055 25.4848 6.32561 24.7327 5.56648 24.0812C4.8988 24.8287 4.25858 25.6403 3.58405 26.3558L3.41486 26.5364L3.46287 26.2941V26.2941ZM90.7936 24.7327L90.7251 24.7487L90.7914 24.7281C89.8173 21.5139 88.9461 18.2585 87.3524 15.3095L87.2175 15.3461C87.2815 16.368 87.3135 17.383 87.3135 18.3911C87.3135 20.8578 87.1215 23.2765 86.7213 25.6243L86.6985 25.7615L86.8242 25.6997C87.6062 25.3225 88.3471 24.815 89.1474 24.4744L91.0726 25.8666L90.7936 24.7327V24.7327ZM59.3173 59.1107L59.1687 59.177C58.0734 59.6594 56.9507 60.1395 55.764 60.375C54.9957 60.5716 54.216 60.6744 53.4455 60.6744C51.0378 60.6721 48.7375 59.6777 47.3153 57.4991L47.2695 57.4282L47.2078 57.4853C46.922 57.7368 46.7483 58.05 46.451 58.3175C44.935 60.0618 42.7354 60.7316 40.4877 60.7316C38.7431 60.7316 36.971 60.327 35.4894 59.7097L35.3362 59.648L35.3933 59.8034C36.532 62.8142 37.2294 66.1564 37.2294 69.5147C37.2294 71.0212 37.0899 72.5277 36.7858 74.0114C36.5778 75.0516 36.2302 76.1306 35.9535 77.1456L35.9078 77.3033L36.0541 77.2279C39.2621 75.5294 43.179 74.6675 47.0844 74.6675C50.7817 74.6675 54.4698 75.4379 57.5384 76.9947C58.0437 77.2028 58.517 77.5548 58.9789 77.7034L59.1161 77.7469L59.0703 77.612C58.1763 74.9624 57.6481 72.1483 57.6481 69.2015V69.0758C57.6436 68.8891 57.6413 68.7024 57.6413 68.5157C57.6413 65.2946 58.3158 62.1238 59.2647 59.2639L59.3173 59.1107V59.1107ZM27.9497 62.2255C27.6068 61.8003 27.3278 61.3362 27.2249 60.7945L27.1929 60.6298L27.3347 60.719C27.9109 61.0916 28.5443 61.2448 29.1936 61.2448C30.5335 61.2448 31.942 60.5864 32.9961 59.8457L33.0442 59.8114L33.0853 59.8549L33.1219 59.8892L33.0693 59.9395L33.1219 59.8892L33.1448 59.912L33.1425 59.9463C32.9961 61.3157 32.5091 62.8816 31.0572 63.4189C30.8399 63.4737 30.6296 63.4989 30.4238 63.4989C29.4497 63.4989 28.6037 62.9319 27.9498 62.2255H27.9497ZM62.0287 61.7045C61.7177 61.2405 61.5462 60.7398 61.4456 60.1751L61.4113 59.9877L61.5599 60.1043C62.2802 60.6735 63.1879 60.9204 64.1163 60.9204C65.2069 60.9204 66.3228 60.5798 67.1802 60.0266L67.3517 59.9168L67.2877 60.1111C66.8624 61.3502 65.7877 62.6167 64.4821 62.9001C64.37 62.9162 64.2557 62.9253 64.1437 62.9253C63.2885 62.9253 62.518 62.4635 62.0287 61.7045Z" fill="#CE1141"/>
<path d="M63.6979 63.5226C63.8671 63.5592 64.0386 63.5729 64.2101 63.5729C64.7017 63.5729 65.1955 63.4426 65.678 63.2917L65.8221 63.246L65.7649 63.3854C63.9654 67.8844 61.7932 72.2348 59.5501 76.5532L59.4747 76.6972L59.4198 76.5441C58.967 75.3027 58.839 73.9837 58.839 72.6349C58.839 71.645 58.9076 70.6391 58.9716 69.6333C59.294 66.7322 59.9937 63.9387 60.8603 61.2525L60.9129 61.0879L60.9929 61.2411C61.5257 62.279 62.5363 63.3488 63.6933 63.5226H63.6979ZM35.2816 76.5702C32.5675 72.4301 30.505 68.0522 28.5135 63.6104L28.4266 63.4183L28.6118 63.5166C29.1514 63.807 29.8762 64.0356 30.5645 64.0356C31.0309 64.0356 31.4768 63.9327 31.8495 63.679C32.7207 63.0686 33.2328 62.1084 33.5781 61.1391L33.633 60.9791L33.7084 61.1323C35.2061 64.159 35.9241 67.8259 35.9241 71.4516C35.9241 73.1685 35.7618 74.8784 35.4462 76.5084L35.4416 76.529L35.4279 76.545L35.3296 76.6433L35.2816 76.5702V76.5702ZM37.6671 90.432L37.6534 90.4251L37.642 90.4137C34.8775 87.3801 33.8349 83.48 33.684 79.3537V79.3148L33.716 79.292C37.3516 76.6447 42.2127 75.2456 47.0053 75.2456C50.1516 75.2456 53.2704 75.8491 55.9936 77.0996C57.7337 77.8769 59.4097 78.7273 60.9463 79.9618L60.9028 80.0189L60.9463 79.9618L60.9783 79.9869L60.9737 80.0258C60.5073 83.9098 59.1193 87.3709 56.6682 90.3726L56.6567 90.3886L56.6407 90.3954C53.7231 91.5316 50.2842 92.1466 46.8612 92.1466C43.635 92.1466 40.4224 91.6025 37.6671 90.432H37.6671ZM86.3013 49.6356C86.3013 49.6356 84.591 48.9795 84.152 48.8149C79.4646 47.05 73.4373 45.9733 68.3155 45.8498C67.8262 40.1461 67.17 36.5798 66.0587 33.3564L66.0427 33.313L65.997 33.3084C63.3561 33.1552 51.6444 32.6843 47.1171 32.6843C42.5875 32.6843 31.0863 33.3976 28.4476 33.5507L28.4019 33.553L28.3859 33.5988C27.3226 36.6712 26.1131 40.5004 25.5506 46.1402C20.3739 46.4579 13.4068 47.9393 8.71715 49.7042C8.37645 49.8322 8.12951 49.9533 7.9603 50.0425C7.87798 50.0882 7.81397 50.1248 7.76823 50.1499C7.7568 50.1545 7.74765 50.1614 7.73852 50.1659L7.59674 50.0037L7.64705 50.262C7.64885 50.2759 7.6553 50.2888 7.66536 50.2986C8.38332 51.1124 11.0243 54.2786 15.9288 54.3884C16.0089 54.3906 16.0912 54.3906 16.1781 54.3906C17.7809 54.3906 20.4951 54.0797 22.3106 53.2864C22.7519 53.0898 23.6093 52.7378 23.8425 52.6441C23.9294 52.8087 24.1878 53.3093 24.3158 53.6682C24.8417 55.129 25.4683 57.2276 25.9301 58.1444C26.6115 59.5046 27.7228 60.5973 29.5246 60.6385H29.5954C31.2234 60.6339 32.3461 59.3354 32.5428 59.0588L32.6182 58.9536L32.4879 58.9468C27.9537 58.7182 26.0993 56.3109 25.7907 52.6738L25.7861 52.6189L25.7335 52.6098C25.1984 52.5137 24.8577 52.4383 24.6474 52.324C24.437 52.2097 24.3433 52.068 24.2724 51.7891C24.2427 51.6656 24.229 51.5422 24.229 51.4164C24.229 50.9707 24.4096 50.486 24.7457 49.9259C25.0956 49.4573 25.6123 48.9955 26.6413 48.9932C27.0665 48.9932 27.5787 49.0732 28.2029 49.2721C29.6137 49.7179 30.7456 50.6277 31.5321 51.3181C32.4742 52.1411 35.2089 54.9919 36.8666 55.9886C37.8407 56.5715 39.3201 57.1156 40.8269 57.1156C42.0319 57.1156 43.2552 56.7659 44.2361 55.8034C46.3443 53.7368 46.6004 51.9582 46.877 50.8586L46.8976 50.7718L46.8084 50.7695C43.1706 50.6666 39.7247 50.31 36.5511 49.8711C36.1829 49.8185 36.0732 49.663 36.0732 49.5327C36.0755 49.3727 36.2515 49.1829 36.5442 49.1829C36.5991 49.1829 36.6585 49.1898 36.7225 49.2058C36.7317 49.2081 42.7224 50.0014 46.9182 50.0265H46.9845L46.9891 49.9602C47.0234 49.471 47.0302 48.6137 47.0599 47.649L47.0622 47.5758L46.9891 47.5735C44.5036 47.5187 40.3261 47.2558 36.3681 46.4579C36.0252 46.3871 35.8903 46.1813 35.8903 46.0099C35.8948 45.843 36.0069 45.6967 36.2538 45.6944C36.3087 45.6944 36.3704 45.7013 36.439 45.7195C37.029 45.875 43.4747 46.7871 46.9845 46.7871H47.0119L47.0851 46.7894V46.7185C47.1011 45.9687 47.108 44.9126 47.1126 43.8975V43.8267H46.8198C44.5516 43.8267 41.2682 43.5981 36.599 42.8871C36.2172 42.8276 36.0823 42.6425 36.0823 42.5007C36.0823 42.3544 36.2195 42.1967 36.5122 42.1944C36.5373 42.1944 36.5625 42.1967 36.5922 42.199C36.5899 42.199 42.2902 43.0471 46.7352 43.0471C46.8381 43.0471 46.9387 43.0471 47.0416 43.0448H47.1125V42.974C47.1125 42.2859 47.1079 41.4834 47.1011 40.6742V40.6604C47.1034 40.2238 47.2977 40.0478 47.4395 40.0478C47.5721 40.0478 47.7436 40.2009 47.7459 40.6033C47.7459 40.9096 47.7642 41.7806 47.7642 42.8688V43.0037L47.8374 43.0014C52.1337 42.8711 55.9134 42.3682 57.6877 42.0504C57.7906 42.0321 57.8798 42.0229 57.9575 42.0229C58.3097 42.0298 58.4011 42.1716 58.4057 42.3087C58.4057 42.4481 58.2868 42.6105 58.1084 42.6425C57.5277 42.7476 52.5476 43.7101 47.8099 43.813H47.739L47.7413 43.8838C47.7413 44.7205 47.7733 45.8064 47.787 46.6911L47.7893 46.7643L47.8602 46.762C51.0453 46.6477 54.7335 46.5288 57.9004 45.8293C58.049 45.7973 58.177 45.7813 58.2891 45.7813C58.6572 45.7858 58.7944 45.9322 58.7944 46.0556C58.8012 46.1996 58.6092 46.4191 58.1565 46.4945C55.0514 47.0112 50.5743 47.5438 47.8831 47.5644H47.8099L47.8122 47.6376C47.8305 48.4125 47.8374 49.3521 47.8762 49.9671L47.8808 50.0356H47.9494C53.0301 49.9145 57.8409 49.1921 58.6595 49.0504C58.7189 49.0412 58.7738 49.0366 58.8264 49.0366C59.1443 49.0389 59.2906 49.2104 59.2906 49.3704C59.2906 49.5281 59.1511 49.7202 58.767 49.775C57.8729 49.8985 51.9119 50.6666 48.0957 50.7626L48.002 50.7649L48.0271 50.8541C48.4044 52.1457 48.4776 54.0271 50.3525 55.6388C51.2694 56.4275 52.5019 56.7819 53.7732 56.7819C55.0262 56.7819 56.3181 56.4367 57.3882 55.8194C59.0642 54.8501 61.712 51.9491 62.6518 51.1261C63.4338 50.4403 65.2173 48.792 67.5998 48.792C67.6341 48.792 67.6661 48.792 67.7004 48.7943C68.9237 48.8195 69.5205 49.1418 69.8338 49.4916C70.1493 49.8436 70.1836 50.2323 70.2591 50.4426C70.3139 50.5912 70.3597 50.7923 70.3597 50.9958C70.3574 51.293 70.2659 51.5856 69.9687 51.7685C69.5525 52.0268 69.1592 51.9582 68.7179 52.1594L68.6836 52.1754L68.6768 52.212C68.3658 54.2009 67.7416 56.4618 66.1822 57.6437C65.3407 58.2838 64.2546 58.6427 63.3789 58.8416C62.5054 59.0405 61.8446 59.0748 61.8446 59.0748L61.6937 59.0839L61.7943 59.196C61.7943 59.196 62.1647 59.6006 62.2882 59.7195C62.5649 59.9801 63.3492 60.3596 64.3758 60.3619C64.4856 60.3619 64.5976 60.3573 64.7119 60.3504C65.8346 60.2544 67.1288 59.4017 67.6798 58.8348C68.5144 57.7512 69.2804 55.5017 69.8475 54.0546C70.0464 53.5379 70.5014 52.6441 70.6866 52.1846C71.1485 52.4017 71.4183 52.5458 72.3009 52.9024C74.1347 53.6362 76.4601 53.9586 78.0218 53.9586C78.111 53.9586 78.1979 53.9586 78.2825 53.9563C80.8342 53.89 83.7199 52.3469 85.4599 50.7352C85.764 50.4517 86.3288 49.7499 86.3311 49.7476L86.3928 49.6699L86.3013 49.6356H86.3013Z" fill="#CE1141"/>
<path d="M49.8255 80.9719C49.5557 81.4246 49.4368 81.9435 49.4368 82.4716C49.4368 83.3266 49.7523 84.2022 50.2462 84.84C50.2759 84.8811 50.3171 84.8994 50.3651 84.9017C50.42 84.9017 50.4817 84.872 50.5275 84.8217V84.7759C50.532 84.2707 50.2051 83.8318 50.2005 83.2763C50.2005 83.1483 50.2188 83.0111 50.2668 82.8717L50.3148 82.7231L50.3948 82.8557C50.8933 83.6786 51.6936 84.1976 52.5305 84.4765C52.8574 84.5611 53.1844 84.6045 53.5022 84.6045C54.6181 84.6022 55.6539 84.0993 56.3856 83.1986C56.7331 82.7116 56.9983 82.0944 56.9983 81.4909C56.9983 81.2074 56.9412 80.9262 56.804 80.6587C56.2781 79.6346 55.2103 79.0425 54.1379 78.8664C53.955 78.8459 53.7721 78.8367 53.5891 78.8367C52.0366 78.8367 50.5846 79.5317 49.8255 80.9719V80.9719ZM43.7454 85.2453C43.8346 85.2499 43.942 85.147 44.0152 85.0213C44.4222 84.3812 44.6989 83.549 44.6989 82.7375C44.6989 82.2048 44.58 81.6813 44.3056 81.2241L44.3673 81.1875L44.3033 81.2195C43.8757 80.4011 43.0023 79.7404 42.17 79.4615C41.6944 79.3083 41.1913 79.2283 40.6929 79.2283C39.4993 79.2283 38.3332 79.6855 37.5969 80.6686C37.3134 81.0412 37.1716 81.5213 37.1716 81.9991C37.1716 82.2482 37.2105 82.4974 37.2905 82.7306C37.6815 83.8233 38.7196 84.6875 39.8194 84.8955C40.0664 84.939 40.3087 84.9618 40.5443 84.9618C41.8247 84.9618 42.952 84.3354 43.7523 83.2358L43.8323 83.1261L43.878 83.2541C43.9123 83.3501 43.926 83.453 43.926 83.5536C43.9237 83.7799 43.8666 84.0085 43.8437 84.1914C43.8048 84.5137 43.551 84.7629 43.5602 84.9847C43.5602 85.0578 43.5808 85.1287 43.6448 85.2133C43.6837 85.2362 43.7157 85.2453 43.7454 85.2453V85.2453ZM37.9566 89.4649C40.7507 88.2922 44.0914 87.6132 47.4091 87.6132C49.9129 87.6132 52.4006 87.9996 54.6345 88.8545C55.1947 89.0923 55.7869 89.2866 56.3517 89.4626C56.4935 89.2775 56.5621 89.2363 56.6581 89.074C53.9326 87.7367 50.7314 87.1148 47.5143 87.1148C44.0822 87.1148 40.6318 87.8235 37.7234 89.1175C37.7805 89.2638 37.8537 89.3575 37.9566 89.4649V89.4649ZM40.3936 68.8077C42.065 70.8903 44.5619 71.8116 47.1137 71.8139C48.0512 71.8139 48.9955 71.6882 49.9078 71.4504C54.163 70.2708 56.7308 65.6346 57.6088 61.5791C57.4854 61.4648 57.3756 61.4397 57.2156 61.3917C56.6828 63.7783 55.6653 66.1216 54.1585 68.0945C52.3567 70.2891 49.6975 71.3978 47.0794 71.3978C46.1488 71.3978 45.2227 71.2584 44.3401 70.9772C40.4462 69.7633 38.4226 65.4929 38.0453 61.6271C37.8853 61.6294 37.7778 61.6386 37.652 61.7254C37.9173 64.3887 38.7153 66.7617 40.3936 68.8077" fill="black"/>
<path d="M8.74608 28.7434C10.9777 33.0481 15.4776 34.4358 20.0552 34.2163C22.6161 34.1935 25.0765 33.9283 27.6054 33.766L27.6031 33.942C26.3158 37.5677 25.4835 41.2597 24.9507 45.0615C18.3243 45.3038 11.5311 44.7803 6.63561 40.3567C3.32014 36.9848 2.47414 32.36 3.19439 27.7925C3.98552 26.8552 4.79723 26.0688 5.62265 25.1315C6.70878 26.2539 8.44653 27.1706 8.74608 28.7435V28.7434ZM91.1507 26.8111C91.3177 27.4763 91.3497 28.105 91.4137 28.8022C91.7292 33.9002 89.5273 38.6003 85.1761 41.195C80.4132 44.0664 74.9095 45.0494 69.0697 45.1934C68.9714 44.6699 68.9074 44.0046 68.8411 43.4125C68.3792 40.0588 67.7481 36.6686 66.8083 33.4521C73.0597 33.3812 80.6647 35.0295 84.7919 29.2914C85.343 28.4913 85.894 27.7598 86.3765 26.8911C87.3002 26.4773 88.1897 25.8875 89.0814 25.4028C89.8314 25.7915 90.4008 26.3881 91.1507 26.811V26.8111ZM67.3935 52.6186C67.4186 54.5732 66.7944 56.5941 65.0452 57.5268C64.2243 57.9771 63.2686 58.1463 62.3448 58.1052C62.3128 57.9337 62.2442 57.7211 62.3151 57.5131C63.7488 57.5565 65.1184 57.0399 65.8752 55.8579C66.392 54.9869 66.6001 54.0108 66.6069 52.9295C66.847 52.79 67.1191 52.6872 67.3935 52.6186H67.3935ZM32.1135 57.9262C31.8551 57.9696 31.7316 58.0359 31.2469 57.9285C28.9466 57.9285 26.5412 56.0859 26.6807 52.9631C26.9528 52.8579 27.2592 52.8991 27.5404 52.9905C27.5404 54.7622 28.2561 57.1832 32.0197 57.1832C32.2758 57.5947 32.0289 57.6358 32.1135 57.9262" fill="#FEFEFE"/>
</g>
<defs>
<clipPath id="clip0_6_318">
<rect width="95" height="95" fill="white"/>
</clipPath>
</defs>
</svg>
