<svg width="100" height="100" viewBox="0 0 100 100" fill="none" xmlns="http://www.w3.org/2000/svg">
<path d="M100 24.1321V16.7895L98.2083 14.9743C75.1499 -6.95986 25.7658 21.8368 9.00774 35.714L0.72826 48.5958L11.022 46.0428C-4.7992 65.8457 0.857078 78.8563 1.52459 80.203C3.18751 84.8873 6.99349 88.6347 13.1533 91.094C17.8376 92.9677 23.1426 93.1902 27.698 92.9794C47.3603 92.0659 70.6061 79.8048 85.6192 66.724L85.9706 66.4195L89.0036 51.3829L83.1483 54.6268C71.2218 59.8849 59.0211 64.4978 46.5991 68.4454C35.9307 71.7713 31.0356 72.31 27.5458 71.5019L27.0891 71.4083C26.7708 71.304 26.4902 71.1086 26.282 70.8463C26.0738 70.584 25.9472 70.2663 25.918 69.9327C25.7541 63.2576 37.2306 48.8534 43.0157 42.7053C48.4026 36.9202 56.8694 30.573 64.0364 27.5516C68.8378 25.5374 71.9294 24.7293 73.405 24.8816C72.8714 26.4951 72.2056 28.0619 71.4141 29.5659C71.4141 29.5659 65.8398 40.5622 63.9895 44.1925C63.9555 44.2638 63.9448 44.3441 63.959 44.4218C63.9733 44.4995 64.0117 44.5707 64.0689 44.6253C64.126 44.6798 64.199 44.7149 64.2773 44.7255C64.3555 44.7361 64.4352 44.7218 64.5048 44.6844L100 24.1321Z" fill="#B4975A"/>
<path d="M54.4686 23.0551C47.852 26.5684 40.2752 33.5948 37.8979 36.0892C18.5635 56.6883 5.01422 84.2085 47.3602 71.0222C59.9002 67.0408 72.2146 62.3808 84.2489 57.0631C26.4097 105.92 -28.1857 85.4615 25.5431 34.1218C20.648 35.2343 15.7178 36.3 10.8813 37.635C28.1078 23.3948 75.2668 -3.14173 96.3344 16.907L73.7795 30.7022C83.4409 11.766 66.0388 16.2161 54.4217 23.0551" fill="#72253D"/>
</svg>
