<svg width="98" height="98" viewBox="0 0 98 98" fill="none" xmlns="http://www.w3.org/2000/svg">
<g clip-path="url(#clip0_5_244)">
<path d="M93.5888 46.2254C93.5888 34.3886 88.9758 23.2588 80.5997 14.8838C73.5377 7.82489 64.6334 3.46679 54.8055 2.24651C54.6621 2.13782 54.5146 2.03461 54.3634 1.93712C50.0255 -0.854513 46.2231 1.01888 44.1843 2.02798L43.7397 2.24404C40.7012 2.62217 37.7069 3.31699 34.8084 4.3163C34.6659 4.1616 34.5186 4.00693 34.3687 3.85717C31.8804 1.3675 28.5742 -6.10352e-05 25.0543 -6.10352e-05C17.7908 -6.10352e-05 11.8809 5.90733 11.8809 13.1676C11.8809 15.5418 12.4925 17.8007 13.6666 19.7993C8.00227 27.4107 4.8999 36.7235 4.8999 46.2255C4.8999 58.0648 9.51293 69.1971 17.8891 77.5696C21.5367 81.2157 25.7101 84.1571 30.3084 86.3275C30.3108 87.1378 30.3894 87.8891 30.5417 88.5619C30.3575 88.854 30.1978 89.1879 30.0824 89.5734C28.9918 91.572 30.0136 93.7793 33.2462 96.2371C35.2137 97.7421 36.744 97.9999 38.009 97.9999C38.3505 97.9999 38.6747 97.9803 38.9817 97.9631L39.4411 97.9385C41.6616 97.8477 43.4744 96.3353 44.845 94.7393L46.987 94.4177C47.8614 94.2876 48.9447 94.0739 50.3596 93.4773C52.5113 92.5713 53.3882 91.3437 53.7223 90.3272C58.8855 89.819 63.8277 88.4317 68.4702 86.1925C68.6004 86.907 68.7355 87.9038 68.846 89.1904C68.9959 90.9459 69.3005 92.149 70.0816 94.6607C70.7448 96.7968 71.8575 97.779 73.4124 97.5899C74.1247 97.5015 75.7975 96.9785 75.9572 93.8874C75.9989 93.0501 76.1095 90.8232 76.0137 89.129C75.8785 86.8235 75.9817 85.2448 76.0972 84.8617C76.3281 84.1276 76.5319 82.8386 75.8024 81.7288C77.4998 80.457 79.1062 79.0624 80.5997 77.5695C88.9758 69.1946 93.5888 58.0648 93.5888 46.2255" fill="#FEFEFE"/>
<path d="M90.6438 46.0898C90.6438 34.9947 86.3217 24.5638 78.4759 16.718C71.7002 9.94053 62.9957 5.79694 53.6003 4.79347C53.3827 4.57679 53.1385 4.37697 52.8614 4.19937C49.5357 2.06009 46.7597 3.64879 44.8353 4.5839C44.6968 4.65139 44.5352 4.7313 44.3531 4.82455C40.7308 5.23838 37.2497 6.12197 33.9693 7.40961C33.5773 6.8226 33.1285 6.2756 32.6293 5.77653C30.6223 3.76955 27.9538 2.66396 25.1147 2.66396C19.2546 2.66396 14.4876 7.43182 14.4876 13.292C14.4876 15.7474 15.3161 18.0758 16.8391 19.9584C11.0429 27.1009 7.56448 36.1953 7.56448 46.0898C7.56448 57.1858 11.8856 67.6176 19.7306 75.4634C23.5624 79.2943 28.0142 82.2835 32.8548 84.3411C32.5849 86.5363 32.941 88.0255 33.3424 88.6365C32.7314 89.1507 32.4748 89.4712 32.3779 90.0485C31.4153 91.3654 33.7589 93.0349 34.7215 93.7729C36.7 95.2896 37.7399 95.0259 39.2807 94.962C41.1828 94.882 42.9722 92.6486 44.0015 91.2047C46.0555 90.9161 46.4409 91.2367 46.5048 91.4933C47.1469 91.3974 48.0456 91.2367 49.2657 90.7225C52.04 89.5547 51.2558 88.1232 50.9681 87.8657C50.8926 87.8 50.8322 87.7067 50.7736 87.5948C57.3593 87.3355 63.6715 85.5497 69.3043 82.406C69.5023 82.628 69.7083 82.882 69.9099 83.1786C70.52 84.0782 70.8406 86.9989 70.9693 88.5077C71.0981 90.0165 71.3547 91.0457 72.0927 93.4194C72.8307 95.7958 73.1202 94.0624 73.153 93.4194C73.185 92.7783 73.3129 90.4667 73.217 88.7963C73.1202 87.1268 73.0882 84.7193 73.4096 83.6919C73.7311 82.6653 73.153 82.4078 72.9923 82.216C72.8307 82.0224 72.9923 81.9585 72.574 80.6424C72.5509 80.5696 72.5323 80.4923 72.5172 80.4142C74.6298 78.9649 76.6261 77.314 78.4759 75.4634C86.3217 67.6176 90.6438 57.1858 90.6438 46.0898Z" fill="white"/>
<path d="M90.6438 46.0898C90.6438 34.9947 86.3217 24.5638 78.4759 16.718C71.7002 9.94053 62.9957 5.79694 53.6003 4.79347C53.3827 4.57679 53.1385 4.37697 52.8614 4.19937C49.5357 2.06009 46.7597 3.64879 44.8353 4.5839C44.6968 4.65139 44.5352 4.7313 44.3531 4.82455C40.7308 5.23838 37.2497 6.12197 33.9693 7.40961C33.5773 6.8226 33.1285 6.2756 32.6293 5.77653C30.6223 3.76955 27.9538 2.66396 25.1147 2.66396C19.2546 2.66396 14.4876 7.43182 14.4876 13.292C14.4876 15.7474 15.3161 18.0758 16.8391 19.9584C11.0429 27.1009 7.56448 36.1953 7.56448 46.0898C7.56448 57.1858 11.8856 67.6176 19.7306 75.4634C23.5624 79.2943 28.0142 82.2835 32.8548 84.3411C32.5849 86.5363 32.941 88.0255 33.3424 88.6365C32.7314 89.1507 32.4748 89.4712 32.3779 90.0485C31.4153 91.3654 33.7589 93.0349 34.7215 93.7729C36.7 95.2896 37.7399 95.0259 39.2807 94.962C41.1828 94.882 42.9722 92.6486 44.0015 91.2047C46.0555 90.9161 46.4409 91.2367 46.5048 91.4933C47.1469 91.3974 48.0456 91.2367 49.2657 90.7225C52.04 89.5547 51.2558 88.1232 50.9681 87.8657C50.8926 87.8 50.8322 87.7067 50.7736 87.5948C57.3593 87.3355 63.6715 85.5497 69.3043 82.406C69.5023 82.628 69.7083 82.882 69.9099 83.1786C70.52 84.0782 70.8406 86.9989 70.9693 88.5077C71.0981 90.0165 71.3547 91.0457 72.0927 93.4194C72.8307 95.7958 73.1202 94.0624 73.153 93.4194C73.185 92.7783 73.3129 90.4667 73.217 88.7963C73.1202 87.1268 73.0882 84.7193 73.4096 83.6919C73.7311 82.6653 73.153 82.4078 72.9923 82.216C72.8307 82.0224 72.9923 81.9585 72.574 80.6424C72.5509 80.5696 72.5323 80.4923 72.5172 80.4142C74.6298 78.9649 76.6261 77.314 78.4759 75.4634C86.3217 67.6176 90.6438 57.1858 90.6438 46.0898Z" fill="#061922"/>
<path d="M39.2801 84.8482C40.8226 84.7834 42.9725 84.3029 43.952 83.8847C44.0808 83.9175 44.2895 84.0454 44.611 84.1733C44.7379 83.1467 44.0808 81.0119 43.7114 80.0315C43.4663 79.3823 43.2292 78.941 42.9406 78.2669C42.0738 78.1053 40.9984 77.6409 40.2276 77.3194C40.2276 77.9295 40.3404 79.5191 40.4692 80.5776C40.1486 80.6105 39.6983 80.6424 39.1513 80.6424C39.2161 81.7978 39.3458 83.8847 39.2801 84.8482ZM68.3368 81.4452C68.0473 81.1557 68.6893 80.2561 68.9788 78.5875C69.2666 76.918 69.2985 74.1243 68.0793 72.5507C67.4852 71.7852 67.1974 71.303 67.0971 70.9584C63.2945 73.7246 58.9378 75.5611 54.3058 76.3488C54.2508 76.4465 54.1957 76.5317 54.146 76.5965C53.4711 77.4642 52.155 78.7163 51.1906 79.2296C50.228 79.7429 49.1046 80.1291 48.4945 80.3219C48.3666 81.3484 48.1997 83.6414 48.4634 84.4299C48.5602 84.7194 49.7466 85.4263 50.164 86.1971C50.2075 86.2761 50.2466 86.3543 50.2848 86.4324C56.8358 86.2433 63.0015 84.4867 68.4167 81.5216C68.3892 81.4958 68.3599 81.4674 68.3368 81.4452L68.3368 81.4452ZM77.6429 17.5504C71.3139 11.2214 63.2515 7.25545 54.5274 6.09122C55.2263 7.4739 55.3346 9.0626 55.3977 10.075C56.6498 9.52881 57.6124 9.23932 58.1266 8.40544C58.6408 7.56981 59.3467 7.73055 59.7961 8.34063C60.2463 8.94981 60.2463 9.72151 59.0581 10.4595C57.87 11.1983 57.0041 11.5517 56.7466 11.6805C56.4891 11.8075 56.7146 12.0331 57.0041 12.5144C57.2918 12.9957 58.0271 14.1857 58.1594 16.6882C58.1603 16.7121 58.1621 16.737 58.1621 16.761C62.882 18.2138 67.2076 20.8051 70.798 24.3954C76.5951 30.1916 79.7876 37.8998 79.7876 46.0972C79.7876 50.8047 78.7317 55.3506 76.738 59.4666C77.0036 59.6034 77.3641 60.5358 77.4867 61.7639C77.5506 62.406 77.5177 63.1129 77.3268 63.5613C77.1341 64.0116 75.6182 66.2849 74.8536 66.9652C74.565 67.2227 73.8892 67.1907 73.6015 66.7734C73.3129 66.3551 73.2809 66.5798 73.0554 66.8035C72.8307 67.0291 72.0599 68.1525 71.869 68.442C71.6754 68.7315 71.0333 69.0192 71.4498 70.1754C71.869 71.3325 72.3485 72.1984 72.1895 72.8404C72.0279 73.4834 71.9639 73.6761 72.8307 74.4149C73.6992 75.152 73.6663 76.0507 73.2809 76.6288C73.0394 76.9911 72.6602 77.9564 72.5128 78.9519C82.7669 71.6256 89.4654 59.6247 89.4654 46.0901C89.4654 35.3094 85.2658 25.1733 77.6429 17.5504ZM31.286 75.8898C31.1732 74.8019 31.008 72.8367 31.7682 71.4345C30.2194 70.3688 28.7542 69.1567 27.3955 67.798C21.5993 62 18.4068 54.2945 18.4068 46.097C18.4068 37.3188 22.1117 29.3904 28.0384 23.7923C28.0944 23.6733 28.1654 23.5596 28.2525 23.4495C27.249 23.7585 26.1949 23.9193 25.1141 23.9193C22.2866 23.9193 19.6279 22.8208 17.6236 20.8289C11.87 27.9696 8.74231 36.7896 8.74231 46.0899C8.74231 56.8707 12.9401 67.0067 20.5638 74.6296C24.2181 78.2839 28.4514 81.1496 33.0549 83.1441C33.2325 82.2845 33.4989 81.3441 33.887 80.322C34.2405 79.3895 33.6943 77.2396 32.7948 76.1153C32.3134 75.9857 31.7043 75.9226 31.286 75.8898L31.286 75.8898ZM41.9884 6.35194C39.4524 6.79984 36.9655 7.49187 34.5627 8.41839C35.3317 9.90763 35.742 11.5674 35.742 13.292C35.742 15.5778 35.0244 17.7534 33.6968 19.5615C35.9178 18.2676 38.3146 17.2428 40.842 16.536C41.0062 16.3752 41.1705 16.2207 41.3357 16.0786C40.4042 14.5361 39.152 12.0647 40.2443 8.72479C40.5516 7.78437 41.2282 6.99312 41.9884 6.35194Z" fill="#008348"/>
<path d="M58.127 18.5177C59.0257 18.967 60.031 19.9447 59.6349 21.7599C59.4751 22.4987 58.8579 23.2092 58.8019 23.4951C58.7051 23.9755 57.6936 24.7943 57.3722 25.4364C57.0534 26.0731 57.0037 26.6157 57.0969 26.8901C57.0978 26.8936 57.0996 26.8954 57.1005 26.8972C57.6128 27.3794 58.7691 28.0214 59.4102 28.2452C59.9129 28.421 59.8773 28.5569 59.6669 28.8882C60.0212 28.9201 60.2024 29.1377 60.5354 29.5302C60.887 29.9485 61.8186 29.6909 62.3967 29.4014C62.9748 29.1128 63.7128 29.016 64.2918 29.7229C64.869 30.4289 65.7366 31.7458 66.1531 32.966C66.5713 34.1853 67.0207 35.1808 67.1495 35.3726C67.2773 35.5662 66.6992 39.0979 66.5376 40.5108C66.3778 41.9228 66.249 42.5328 66.217 42.7575C66.1851 42.9822 67.1166 41.9556 67.1495 43.1749C67.1734 44.1482 67.6281 47.2687 68.1538 49.5803C68.2871 50.1682 68.4247 50.7028 68.5614 51.137C68.9477 51.2018 69.2665 51.9726 69.4921 53.1599C69.7168 54.3481 70.1981 55.087 70.2309 55.6642C70.2629 56.2414 70.4237 56.3382 70.6155 56.4341C70.8082 56.5318 70.7442 56.8204 70.167 57.4936C70.2949 57.5904 70.4876 57.7839 70.6155 57.9101C70.7771 57.7502 71.2255 57.2387 71.2255 57.2387C71.2255 57.2387 72.9918 57.9438 73.3773 58.0717C73.7627 58.2004 74.2209 57.2493 75.3673 57.7502C75.6817 57.8878 76.0289 58.3221 76.2758 58.751C78.0732 54.904 79.0811 50.6166 79.0811 46.0965C79.0811 38.0882 75.9615 30.5585 70.2984 24.8956C66.8422 21.4402 62.6924 18.9342 58.1625 17.5027C58.1492 17.944 58.127 18.3623 58.127 18.5177ZM67.4046 69.0196C66.9561 68.7949 66.6631 69.1208 66.442 67.3509C66.378 66.8377 65.9615 66.1619 65.6401 65.8422C65.3186 65.5207 65.2795 64.9195 65.4465 64.3964C65.7031 63.5937 65.7688 62.8566 65.7369 62.2145C65.7031 61.5716 65.8319 60.7697 66.7306 60.3825C66.41 60.0309 66.2493 59.5806 66.1534 59.2281C64.8373 58.7938 64.5744 58.7565 64.3071 58.1198C63.8587 57.0506 63.5816 55.4894 63.4484 54.6387C63.3827 54.2187 63.3383 53.8306 63.3285 53.4807C62.9067 52.6833 61.9707 50.9116 61.2461 49.5804C61.0251 49.1653 60.799 48.7529 60.5676 48.3434C59.9247 47.22 60.5676 45.7433 60.8873 44.8765C61.2088 44.0098 61.4663 43.239 61.1768 42.3723C60.8873 41.5055 60.8873 41.312 60.8242 40.9594C60.7603 40.606 60.4699 40.1566 60.0863 41.3777C59.7 42.5969 58.962 44.3952 58.5438 46.2574C58.3076 47.3151 58.1424 48.466 58.1975 49.5804C58.2392 50.4294 58.4088 51.2553 58.7684 52.0039C59.6032 53.7374 60.5987 55.3429 60.4699 56.3064C60.342 57.2691 60.1316 57.3028 60.1174 57.4618C59.9566 59.324 59.1539 62.8886 58.7365 63.9151C58.3191 64.9417 56.6824 68.6661 56.329 70.2397C56.059 71.4448 55.3167 74.0254 54.6817 75.5555C59.486 74.647 63.8906 72.5903 67.5946 69.6794C67.703 69.4094 67.6834 69.159 67.4046 69.0196V69.0196ZM31.7236 26.8899C32.0779 27.3517 32.5423 27.7753 33.148 28.0861C34.7216 28.888 35.0431 29.4661 35.0431 30.8461C35.0431 32.2261 35.2997 35.0527 35.7499 35.534C36.0377 35.2454 36.36 34.8272 36.4231 34.6993C36.8724 35.534 37.7782 37.0792 39.216 38.0383C39.3127 38.1031 39.2692 38.4566 39.5054 38.5196C39.9868 38.6484 43.1011 39.1297 43.1979 39.7726C43.8408 39.1297 44.8674 37.525 45.0601 36.978C45.2519 36.4336 46.3762 34.6993 47.2109 33.7366C47.2109 33.3504 47.2109 33.1257 47.2438 33.0298C47.0182 33.2225 46.6657 33.7038 46.1515 33.9285C45.6373 34.1531 43.8408 34.924 42.5559 35.566C42.1065 35.7907 41.3037 36.0482 40.9823 33.7038C40.6608 31.3603 40.9823 30.1401 41.2069 29.5949C41.4316 29.0487 41.849 28.5665 42.6526 28.7921C43.4545 29.0167 44.7378 29.4981 45.0921 29.4981C45.156 29.2414 45.3816 28.7592 44.5149 28.6633C43.8977 28.594 42.2886 28.1358 41.3774 26.8899C41.0089 26.3908 40.7531 25.7585 40.7256 24.9709C38.8963 25.2603 34.6896 25.8065 33.759 26.0303C32.8283 26.2559 32.0389 26.4459 31.7369 24.3288C31.6081 23.4301 31.3835 22.178 32.0255 22.6273C32.5388 22.2419 33.2501 21.789 34.4969 21.9862C34.7252 22.0217 35.0102 22.2126 35.0999 22.3911C35.1683 22.7028 35.0351 23.2116 34.8823 23.6867C34.6062 24.5473 34.0644 25.1636 35.8139 24.7622C37.645 24.3421 39.9708 23.9922 40.5809 23.8635C40.6608 23.2383 41.1749 22.2739 41.785 21.5679C42.3969 20.8584 42.4919 20.2838 42.5239 20.0591C42.5559 19.8345 42.3445 19.7847 42.0426 20.0591C41.6891 20.3797 40.6288 21.0226 39.6333 20.7651C39.2488 20.6665 38.7675 19.9304 38.5108 19.5139C38.7213 19.0725 39.2532 18.3106 39.9086 17.5424C36.4897 18.6383 33.2901 20.3495 30.4457 22.6184C30.4271 22.9745 30.4741 23.8022 30.7086 24.7142C30.8657 25.3261 31.1579 26.1546 31.7236 26.8899H31.7236ZM33.9519 70.7531C35.2671 70.2398 36.3052 70.2638 37.3229 71.6207C37.6115 72.0052 37.8362 73.1304 40.3085 72.134C38.9924 70.5613 38.203 68.6973 37.4837 66.1939C36.3461 62.243 33.7752 57.7496 34.7219 55.6965C34.1766 55.1814 33.5346 53.1922 32.8597 53.4169C32.4067 53.5678 31.7692 53.5767 32.2815 52.0679C32.5133 51.3895 32.8943 50.568 33.6145 49.5805C34.4936 48.3773 35.8825 46.9289 38.1248 45.1972C38.3184 45.0365 38.3504 44.9095 38.2216 44.7798C37.997 44.556 37.7723 44.2994 37.5476 44.1706C37.3229 44.0419 37.0974 44.1058 36.9047 44.2994C36.712 44.4921 36.3914 44.7168 36.1987 44.8447C36.006 44.9725 34.4652 43.4638 33.6624 42.3724C32.8596 41.281 32.0258 40.9284 31.7691 40.7996C32.0897 40.4462 32.8144 39.6798 32.5391 39.7722C32.0578 39.932 31.2141 40.0395 30.3554 39.1292C29.296 38.0068 29.7142 37.4278 29.4887 37.2679C29.264 37.1072 28.1078 37.3638 27.2419 36.0158C26.3743 34.6669 26.0271 34.0799 26.7269 33.1252C27.0812 32.6439 27.2091 32.4193 27.1132 31.8092C27.0164 31.1991 27.1132 30.8146 27.916 30.0438C28.7187 29.2738 29.2001 28.567 29.5526 28.6309C29.8332 28.6824 29.0216 27.662 28.5305 26.8895C28.4017 26.6834 28.296 26.4978 28.2356 26.3513C28.1096 26.0405 27.908 25.5059 27.8618 24.9305C22.2201 30.5899 19.1137 38.1045 19.1137 46.0968C19.1137 54.1042 22.2325 61.6338 27.8955 67.2969C29.2091 68.6107 30.6407 69.801 32.1723 70.8526C32.8303 70.1386 33.6127 70.4147 33.9519 70.7531Z" fill="white"/>
<path d="M16.8906 7.43389C19.5228 8.10791 21.496 10.2356 22.3609 11.4229C22.5829 11.7258 22.8112 11.6805 22.9071 11.4558C23.1113 10.9789 23.4852 9.43284 23.4852 8.24466C23.4852 5.54857 23.8546 4.48117 24.5295 3.22991C21.3796 3.4022 18.6161 5.02198 16.8906 7.43387V7.43389ZM15.3014 15.6946C20.2451 16.1439 21.7831 13.3821 22.1046 12.9638C22.4243 12.5474 22.0398 12.2898 21.8791 12.0652C21.0248 10.8681 19.1111 8.751 16.478 8.07701C15.5554 9.59908 15.0146 11.3787 15.0146 13.2898C15.0146 14.1192 15.1122 14.9238 15.3014 15.6946Z" fill="#A73832"/>
<path d="M34.9185 15.5013C32.8316 14.6338 30.3558 15.4356 28.5903 16.9773C26.824 18.518 25.9262 19.7018 25.3161 23.3622C25.2407 23.364 25.1652 23.364 25.0906 23.364C22.4744 23.364 20.0998 22.3685 18.3078 20.7328C21.3271 19.962 23.8713 18.5828 26.7272 15.8859C29.5858 13.1889 30.9978 10.0426 31.3832 8.5658C31.7686 7.08899 31.2216 7.95572 30.9339 8.62883C30.4863 9.67229 29.0068 12.482 26.0861 15.211C23.1636 17.9408 20.9177 19.287 17.8691 20.3145C16.8505 19.2693 16.0664 18.0012 15.578 16.5928C16.6054 16.6567 19.8423 16.2837 21.4621 14.9543C23.5925 13.2076 23.8385 11.134 24.1271 8.1795C24.4157 5.22677 24.8499 4.34764 25.5559 3.22427C30.9037 3.46758 35.1653 7.88024 35.1653 13.2893C35.1653 14.0494 35.0783 14.7891 34.9185 15.5013Z" fill="#A73832"/>
<path d="M34.6397 16.5107C34.1575 15.8367 32.4409 15.5126 29.7138 17.2167C29.4571 17.3783 29.2795 17.4902 29.5859 17.7948C30.1631 18.3738 31.0316 19.467 31.6417 20.9438C33.0048 19.7751 34.0527 18.2495 34.6397 16.5107V16.5107ZM30.8365 21.5666C30.2593 20.1537 29.778 19.1271 29.2327 18.4212C28.9379 18.0402 28.8793 17.8759 28.3332 18.3572C26.8155 19.6964 26.2303 21.7264 25.9088 23.3311C27.7311 23.1846 29.4174 22.5541 30.8365 21.5666Z" fill="#A73832"/>
<path d="M28.0765 32.8374C27.6591 32.7086 27.3376 33.189 27.1449 33.5753C26.9522 33.9616 26.7267 34.3782 27.3376 35.2449C27.9477 36.1125 28.3269 36.6284 29.3925 36.5609C29.9067 36.529 30.3552 36.1436 30.5159 35.9198C30.6766 35.6942 30.7086 36.0796 30.452 36.465C30.1953 36.8495 30.0027 37.7491 30.4839 38.3592C30.9662 38.9693 31.9608 39.4826 33.2768 38.7126C34.5929 37.9427 35.1399 37.0112 35.3637 36.5929C35.5884 36.1764 35.5884 35.9837 35.3637 35.7271C35.1399 35.4695 34.4011 34.2476 34.2403 31.8419C34.1444 30.3962 34.4011 29.4664 33.5015 28.9522C32.6028 28.4381 30.5461 27.2232 30.2912 24.8424C30.1953 23.9437 30.2593 22.5637 29.3606 23.3017C28.461 24.0405 28.461 24.5538 28.3651 25.0991C28.2683 25.6461 28.7185 26.3831 29.1039 26.8973C29.4885 27.4115 29.9378 28.5349 30.2912 28.8235C30.6447 29.113 30.8694 29.3377 31.1589 29.3696C31.4466 29.4016 32.6028 29.4016 32.8914 29.4984C33.1809 29.5952 33.3417 29.9486 32.6348 29.9486C31.9288 29.9486 30.8374 30.1396 30.3552 30.2044C29.8748 30.2683 29.4254 30.3003 29.1998 31.2638C28.9752 32.2264 28.6537 33.3507 28.6217 33.7041C28.5898 34.0567 28.3971 34.2494 28.3971 34.4421C28.3971 34.6348 28.7825 35.5663 29.6492 34.6348C30.5159 33.7041 30.8694 32.7734 31.0301 32.3232C31.1899 31.8739 31.3835 31.9378 31.2219 32.6447C31.0621 33.3507 31.0141 35.117 31.3507 35.7271C31.7139 36.3824 32.4456 37.0573 33.3736 36.5929C33.5663 36.497 33.8869 36.3363 34.1444 36.3682C34.4011 36.4002 34.0956 36.8495 33.8709 37.0431C33.6462 37.2358 32.9083 38.0528 31.6082 36.8824C31.2858 36.5929 30.8409 35.9509 30.7406 35.149C30.7086 34.8914 30.3552 34.7955 30.1953 35.0202C30.0346 35.2448 29.1679 36.0476 28.5578 35.4695C27.9477 34.8914 27.6946 34.5717 28.0445 33.3507C28.1076 33.126 28.2328 32.8854 28.0765 32.8374Z" fill="#FAB383"/>
<path d="M28.7186 31.0383C28.58 31.453 28.461 32.0009 28.3971 32.1945C28.3323 32.3872 28.0445 32.8046 27.787 32.2593C27.5313 31.7132 27.5437 31.2825 27.9478 30.8785C28.0765 30.7497 28.2683 30.493 28.3971 30.6209C28.5259 30.7497 28.7505 30.9424 28.7186 31.0383ZM30.163 29.5618C29.8983 29.6941 29.3335 29.6933 29.1355 30.1391C29.0067 30.4286 28.4935 30.1089 28.7501 29.7546C29.0067 29.4011 29.2003 29.4331 29.3602 29.3372C29.5209 29.2413 29.5857 28.9518 29.9063 29.1125C30.2269 29.2732 30.2908 29.4979 30.163 29.5618ZM51.3201 13.6695C50.4215 13.7655 49.5867 14.3125 48.752 14.8897C47.9163 15.4669 44.8996 18.0041 44.1928 18.5173C44.9307 18.9028 45.1234 19.6736 44.8668 20.9577C44.8091 21.2427 44.8668 21.3431 45.0604 21.1504C45.2522 20.9577 46.1509 19.995 46.1198 19.2242C46.0869 18.4534 45.7344 18.0041 45.6696 17.9073C45.6056 17.8113 45.9271 17.4259 46.2805 18.2287C46.6331 19.0315 46.5363 20.1549 45.4777 21.407C44.4183 22.6591 43.5827 22.6263 43.1333 22.8518C42.684 23.0765 42.2355 23.4291 42.6529 24.104C43.0694 24.7789 43.8722 24.5214 44.1928 24.2967C44.5142 24.0711 44.9636 23.8145 45.991 23.9113C47.0176 24.0072 47.3604 23.3545 46.6651 22.6591C46.4404 22.4345 45.8623 21.9203 46.5683 21.9203C46.9865 21.9203 47.4998 22.8518 47.7884 23.1085C48.0779 23.3651 48.72 23.461 49.5867 23.5259C50.4534 23.5898 51.8024 23.9104 51.8024 24.746C51.8024 25.2593 51.5253 25.4094 51.1594 25.0035C51.0156 24.8419 50.8095 25.0959 50.6461 25.2593C50.1 25.8063 48.7031 27.2823 47.7085 27.5389C46.7139 27.7955 46.3436 27.5069 45.0275 26.8009C43.7114 26.095 42.4913 25.3881 42.1387 25.1634C41.7853 24.9387 41.0464 24.4245 41.3999 25.4529C41.7533 26.4795 42.62 27.5389 44.3535 28.1179C46.0869 28.6942 46.3436 28.8878 46.729 29.0805C47.1144 29.2732 46.8906 29.4659 46.3764 29.4011C45.9298 29.346 45.4449 28.9517 45.8312 29.8194C46.2148 30.6861 46.7938 31.6159 48.5601 31.3921C50.3247 31.1674 50.3771 30.7936 51.4809 28.9518C51.6727 28.6303 51.8672 28.8559 51.7384 29.6906C52.6042 29.2732 53.0855 29.1445 53.5988 29.0157C54.1139 28.8878 55.4486 28.434 56.3296 26.8009C56.778 25.9662 57.0205 25.6794 56.9387 24.8108C56.9077 24.4867 57.3881 23.8473 57.8703 23.3971C58.3516 22.9486 59.6668 21.2463 58.9946 20.0261C58.3187 18.8059 57.1954 19.4169 56.6501 20.3156C56.104 21.2152 55.4939 22.2098 55.462 23.7506C55.0765 23.6226 54.6831 23.7639 54.4993 24.0711C54.4025 24.2327 52.9897 24.04 52.5074 24.1679C52.027 24.2967 51.8672 24.0072 52.3796 23.3331C52.8937 22.6591 54.7027 20.2161 54.5952 18.3886C54.5632 17.8433 54.6361 17.7421 54.7231 17.33C54.8359 16.7999 54.8856 16.7919 54.2258 16.4305C53.7969 16.196 53.7711 15.5273 53.6965 15.0176C53.6157 14.4723 53.5118 14.4697 52.8937 14.6002C52.4364 14.697 51.6727 14.2468 51.3201 13.6696" fill="#FAB383"/>
<path d="M47.5644 23.7191C47.3885 24.1204 46.9028 24.505 45.7821 24.3771C45.2209 24.3131 44.6721 24.3061 44.5788 24.7465C44.5148 25.052 44.2591 25.0342 43.9048 25.02C43.5345 25.004 43.134 24.9072 43.1171 25.036C43.1011 25.1639 44.6916 26.1105 45.2209 26.3512C45.751 26.5927 46.5227 27.1664 47.147 27.106C47.9818 27.0261 48.7091 26.6132 49.9408 25.3077C50.4487 24.7705 50.8554 24.4899 50.3741 24.2643C50.0464 24.1125 49.7152 24.0716 49.2827 24.0716C48.8485 24.0716 47.9169 24.0076 47.5644 23.719V23.7191ZM41.5762 23.7355C41.1428 23.7186 41.0949 23.398 41.3835 22.9167C41.6721 22.4345 41.9465 21.9861 42.331 21.6965C42.395 21.9052 42.5237 22.1619 42.7164 22.2738C42.4598 22.5473 42.1206 22.8892 42.1845 23.5641L41.5762 23.7355Z" fill="#FAB383"/>
<path d="M51.3498 21.7416C50.7983 21.7416 49.9795 21.5622 49.3934 21.1617C48.8002 20.7568 48.6022 20.5614 48.707 19.962C48.7709 19.5917 48.8038 19.3919 48.8269 19.2552C48.8428 19.1557 48.8544 19.09 48.8677 19.0154C48.9174 18.733 48.9014 18.5474 48.8171 18.4479C48.7727 18.3938 48.7087 18.3662 48.6341 18.3662C48.5116 18.3662 48.3491 18.4444 48.1404 18.6042C47.8012 18.3502 47.4806 18.0652 47.2426 17.8547C47.0579 17.6904 46.9247 17.5723 46.8412 17.5173C46.7746 17.4729 46.6938 17.4018 46.6849 17.3148C46.6778 17.2482 46.7133 17.1772 46.7888 17.1008C46.835 17.0546 46.8954 17.0448 46.9771 17.0448L47.0144 17.0457H47.0526C47.1103 17.0457 47.2177 17.0457 47.2879 16.964C47.3572 16.885 47.374 16.7518 47.3429 16.5324C47.3438 16.52 47.3678 16.496 47.5126 16.496C47.5516 16.496 47.5925 16.4969 47.6316 16.4987C47.6742 16.5005 47.7141 16.5022 47.7497 16.5022C47.8331 16.5022 47.8847 16.4934 47.9228 16.4747C47.9948 16.4392 48.0134 16.369 48.0258 16.3184C48.0445 16.2474 48.0525 16.2181 48.1626 16.2181C48.2248 16.2181 48.3082 16.2314 48.4104 16.2571C48.4278 16.2617 48.4457 16.2641 48.4637 16.2642C48.5684 16.2642 48.619 16.1817 48.6555 16.1213L48.675 16.0911C48.7159 16.028 48.7549 15.9943 48.8446 15.9943C48.8659 15.9943 48.889 15.9961 48.9148 16.0005C49.0018 16.0147 49.0791 16.0343 49.1474 16.0502C49.2407 16.0733 49.3206 16.0929 49.3916 16.0929C49.5808 16.0929 49.6403 15.9508 49.6678 15.8424C49.7256 15.6257 49.77 15.5601 49.8579 15.5601C49.9351 15.5601 50.0506 15.6071 50.2007 15.7003C50.3321 15.782 50.4431 15.8211 50.5408 15.8211C50.6882 15.8211 50.793 15.7287 50.8258 15.5654C50.8267 15.5618 50.8294 15.5511 50.8702 15.5511C50.9652 15.5511 51.1349 15.6151 51.3098 15.7181L51.3969 15.767C51.6979 15.9383 52.3239 16.2944 53.0379 17.1283C53.2013 17.3183 53.2484 17.464 53.236 17.4968C53.2333 17.4959 53.2288 17.4959 53.2253 17.4959C53.2129 17.4959 53.1969 17.4986 53.1809 17.5013C53.0717 17.5181 52.9083 17.543 52.8745 17.8174C52.855 17.9684 52.8079 18.0572 52.7848 18.0714C52.7848 18.067 52.7618 18.0492 52.728 17.9826C52.6845 17.8965 52.6268 17.8085 52.5291 17.8085C52.5123 17.8086 52.4955 17.811 52.4793 17.8156C52.4731 17.8032 52.4598 17.781 52.4429 17.7348C52.4278 17.6922 52.3799 17.5634 52.26 17.5634C52.2032 17.5634 52.1561 17.5963 52.1223 17.6194C52.1158 17.6233 52.1096 17.6278 52.1037 17.6327C52.0851 17.5847 52.0344 17.4666 51.9199 17.4666C51.8897 17.4666 51.8648 17.4738 51.8453 17.48C51.8375 17.4827 51.8294 17.4847 51.8213 17.4862C51.8213 17.4835 51.8124 17.472 51.7991 17.4418C51.7769 17.3903 51.7299 17.361 51.6677 17.361C51.6233 17.361 51.5744 17.3761 51.5229 17.392C51.4679 17.4089 51.4217 17.4222 51.388 17.4222C51.3595 17.4222 51.3524 17.4143 51.3462 17.4027C51.3018 17.321 51.2361 17.3086 51.2006 17.3086C51.1438 17.3086 51.0914 17.337 51.0407 17.3636C51.0008 17.3841 50.9564 17.4089 50.9253 17.4089C50.9173 17.4089 50.8995 17.4089 50.8747 17.3752C50.8569 17.353 50.8045 17.2846 50.7272 17.2846C50.6509 17.2846 50.6047 17.3468 50.5674 17.3965L50.5523 17.4178C50.515 17.4666 50.4893 17.4853 50.4608 17.4853C50.4484 17.4853 50.4351 17.4817 50.42 17.4755C50.3774 17.4604 50.341 17.4533 50.3072 17.4533C50.1962 17.4533 50.1465 17.5341 50.1189 17.5777C50.0923 17.6203 50.0879 17.6221 50.0781 17.6221C50.071 17.6221 50.0532 17.6203 50.0213 17.607C49.9822 17.5892 49.9458 17.5803 49.9111 17.5803C49.7824 17.5803 49.7282 17.6922 49.6927 17.7659C49.6554 17.8423 49.6394 17.8627 49.6154 17.8627C49.6076 17.8626 49.5998 17.8614 49.5923 17.8592C49.5391 17.845 49.4982 17.8387 49.4618 17.8387C49.2798 17.8387 49.2558 17.9924 49.2291 18.1558C49.2247 18.1842 49.2203 18.2135 49.214 18.2455C49.1687 18.5056 49.0524 19.5802 49.0702 19.8563C49.0862 20.1139 49.4218 20.1139 49.5488 20.1139C49.7868 20.1139 50.1118 20.0704 50.515 20.0144C51.3053 19.9043 52.7591 19.4656 53.5095 18.8396C53.7013 18.6797 53.8505 18.6619 53.9055 18.6619C53.9526 18.6619 53.9748 18.6735 53.9792 18.6779C53.9855 18.7161 53.8949 18.9204 53.7057 19.0793C53.688 19.0962 53.6658 19.1139 53.6427 19.1353C53.4082 19.3413 52.8603 19.8253 51.7538 20.0402C50.6953 20.2462 49.7176 20.4318 49.389 20.4318C49.3464 20.4318 49.325 20.4282 49.3162 20.4265C49.2966 20.422 49.2798 20.4194 49.2629 20.4194C49.2087 20.4194 49.1661 20.4469 49.1492 20.4922C49.1279 20.5517 49.1608 20.6218 49.2407 20.6893C49.3464 20.7781 49.4947 20.8305 49.6368 20.8305C49.6803 20.8305 49.7229 20.8261 49.7646 20.8163C49.8019 20.8172 49.9183 20.9255 50.0026 21.0046C50.2308 21.2186 50.5763 21.5409 51.0319 21.5409C51.6046 21.5409 52.4332 20.9246 52.672 20.7364C52.7822 20.6503 53.0335 20.5215 53.1774 20.4806C53.1534 20.5108 53.117 20.5526 53.0592 20.6103L53.0175 20.652C52.49 21.1804 51.9448 21.7266 51.4146 21.7408C51.3933 21.7417 51.372 21.7416 51.3498 21.7416ZM58.1271 21.0227C57.755 21.2856 57.549 21.3761 57.517 21.8246C57.485 22.2739 57.3962 23.0412 57.2275 23.1096C57.0091 23.1984 57.0392 22.6931 56.9717 22.8529C56.875 23.0776 56.6014 22.9808 56.5224 22.773C56.486 22.6824 55.6877 22.6913 56.3297 21.7607C56.9105 20.9179 57.3563 20.4766 57.7736 20.2838C58.191 20.0911 58.8979 20.4766 58.1271 21.0227Z" fill="#061922"/>
<path d="M73.842 59.1804C73.6937 58.803 73.9547 58.168 74.7575 58.6174C75.5612 59.0676 76.1704 59.4539 75.5932 61.2184C75.0133 62.9838 74.5977 64.0113 74.3721 64.7501C74.1483 65.489 73.2807 66.4197 73.5693 65.1675C73.8597 63.9154 74.0116 62.4022 73.8899 61.6358C73.667 60.2238 74.1199 60.3073 73.9716 59.6617C73.9254 59.4628 73.897 59.3154 73.842 59.1804ZM76.8773 60.705C77.1082 61.3985 77.3586 62.9837 76.9732 63.6257C76.5878 64.2687 75.3996 66.0341 74.9511 66.4843C74.5009 66.9337 74.1483 66.7409 74.4361 66.2587C74.7256 65.7774 75.111 65.1354 75.111 64.9107C75.111 64.6861 75.0799 64.4294 75.4644 63.6906C75.8489 62.9526 76.5238 60.4794 76.5878 60.2876C76.6517 60.0949 76.8124 60.5123 76.8773 60.705ZM68.5927 66.6446C68.4009 66.0674 68.3041 65.2317 67.9835 64.7504C68.2401 64.0435 69.0865 62.1458 70.5197 61.5721C70.6796 61.5073 70.7773 61.3466 70.7124 61.2187C70.6467 61.0899 70.9051 60.9949 71.033 61.4443C71.1627 61.8918 71.3865 63.1768 71.3865 63.1768C71.4504 63.4663 71.3225 63.691 71.2586 64.0764C71.1937 64.4618 71.033 65.3285 71.1298 65.777C71.2257 66.2263 71.3865 66.5487 72.2843 66.356C72.7354 66.2583 72.7034 66.1313 72.8304 65.745C72.9592 65.3605 73.3126 64.2682 73.4414 63.6581C73.5693 63.0481 73.4582 61.5562 73.3295 61.1708C73.1998 60.7853 73.3774 59.4843 73.2806 59.2277C73.1847 58.9711 73.1199 58.5875 72.318 58.3299C71.5152 58.0724 71.2906 58.0076 70.7444 58.5537C70.1983 59.1007 70.0073 59.3245 69.7498 59.5812C69.4923 59.8378 68.8502 59.6122 69.3955 59.1008C69.9425 58.5875 70.4567 58.0724 70.6147 57.9108L70.4567 57.4934H70.1663C69.2987 58.3619 68.1434 58.8752 67.3725 59.035C67.083 59.0954 66.5378 59.1309 66.9232 59.6451C67.02 59.7748 67.052 60.1273 67.2775 59.9994C67.5013 59.8698 67.8539 59.2926 68.1753 59.5492C68.4977 59.805 68.1123 60.4168 67.726 60.7054C67.3424 60.9949 66.9232 61.2827 66.6355 61.4443C66.346 61.6041 66.1853 61.764 66.2172 62.2781C66.2492 62.7914 66.2812 63.7238 65.9916 64.4298C65.703 65.1358 65.8646 65.3285 66.1204 65.8099C66.3779 66.292 66.7953 66.7086 66.9232 67.4794C67.052 68.2493 67.1168 68.442 67.6301 68.378C68.1434 68.3141 68.337 68.0886 68.5297 67.768L68.5927 66.6446H68.5927Z" fill="#FAB383"/>
<path d="M68.7853 68.1207C68.5615 68.507 68.1752 69.1162 68.1752 69.6623C68.1752 70.2084 67.63 70.7866 67.6939 71.0432C67.7587 71.2989 68.4656 71.9739 68.8821 72.6807C69.2986 73.3867 69.8439 74.4453 69.8439 76.2116C69.8439 77.9788 69.2666 80.3853 69.2036 80.7068C69.1379 81.0274 68.9789 81.2849 69.4602 81.7343C69.9424 82.1845 70.7123 83.0184 71.0019 84.9116C71.2905 86.8067 71.4832 87.8022 71.6119 87.8981C71.7407 87.9949 71.7078 88.1548 71.7078 88.5082C71.7078 88.8608 72.0275 90.8846 72.254 91.2691C72.4778 91.6554 72.4458 89.0863 72.4129 88.3475C72.381 87.6095 72.4458 84.0787 72.5746 83.5654C72.7033 83.0503 72.8312 82.4722 72.381 81.8302C71.9334 81.1881 71.1626 80.0638 71.7407 78.2034C72.3188 76.3394 73.2486 76.3732 72.9591 75.6343C72.6705 74.8955 72.1572 74.3822 71.7727 73.9657C71.3873 73.5475 71.6927 72.5529 71.6759 72.1346C71.6439 71.3629 71.0329 71.2359 70.969 70.3683C70.905 69.5016 70.8402 68.7956 71.4832 67.9289C72.1252 67.063 71.2585 67.0941 70.969 66.548C70.6795 66.0027 70.5259 65.2728 70.7772 64.1405C70.9051 63.5615 70.8402 63.4026 70.6795 63.3377C70.5196 63.2738 69.8439 63.145 69.8439 63.145L68.8502 65.136C69.0118 65.5205 69.0748 66.0995 69.0748 66.484L68.7853 68.1207V68.1207Z" fill="#A73832"/>
<path d="M59.5077 29.0484C58.7165 30.1025 57.4857 32.7729 56.9067 34.4415C56.3294 36.1119 55.0125 40.0929 55.9449 42.7251C56.8747 45.3572 58.7058 43.6886 59.1214 42.6931C59.5397 41.6985 60.1826 39.9961 60.3753 39.5468C60.5671 39.0974 60.6639 38.8399 61.0165 39.8994C61.3699 40.9596 61.8832 43.4959 61.8832 43.7206C61.8832 43.9452 61.5289 44.5882 61.1453 45.5828C60.7599 46.5774 60.5352 47.2842 60.9197 47.8952C61.3051 48.5044 62.8148 51.1046 63.2961 52.2288C63.5847 52.9029 63.8413 53.0307 64.6122 52.838C65.3829 52.6462 67.2452 52.0033 67.7904 51.7466C68.3366 51.49 68.079 51.0397 67.9183 50.4954C67.675 49.6642 66.6999 45.0357 66.6999 44.4265C66.6999 43.8165 66.8624 43.0172 66.0561 43.9133C65.7693 44.2347 65.383 43.9133 65.4789 43.463C65.5757 43.0137 66.5374 36.753 66.6031 35.9831C66.0561 34.7949 64.4514 31.0385 64.003 30.3645C63.5527 29.6905 63.3929 29.6585 62.718 30.0119C62.0439 30.3645 60.5378 30.9062 59.989 29.6265C59.8931 29.401 59.7333 28.8877 60.1178 28.8238L59.8283 28.727C59.8283 28.727 59.6027 28.9197 59.5077 29.0484H59.5077ZM67.918 52.1318C67.3213 52.4745 65.2868 53.351 64.452 53.4807C63.5951 53.613 63.81 53.8341 63.9707 54.4771C64.1297 55.1173 64.6119 57.0435 64.8685 57.7184C65.126 58.3933 65.4786 58.3809 66.1535 58.3613C67.181 58.3294 68.9144 57.8791 70.1665 56.7229C69.8122 56.3055 69.1941 54.3048 69.0112 53.4478C68.8176 52.55 68.8176 51.6185 67.918 52.1318ZM49.5217 33.607C49.4577 33.7366 49.2331 34.1212 48.7207 34.1212C48.2074 34.1212 47.7891 33.9604 47.4676 34.4098C47.1471 34.8591 45.3816 37.0108 44.9953 38.326C45.3816 39.1288 45.8958 40.5736 46.2803 41.6011C47.5325 40.5425 51.5295 36.6414 52.2835 35.8866C52.5738 35.598 52.6049 35.3413 52.1875 35.0527C51.7702 34.7623 50.2285 33.7997 49.9719 33.6398C49.7153 33.4782 49.5865 33.4782 49.5217 33.607ZM39.4094 39.2578C39.1625 40.2471 38.6715 41.9868 37.8687 43.3357C38.1893 43.8489 38.4459 44.2992 38.8313 44.459C39.73 43.817 41.4315 42.2425 41.9128 41.6653C42.395 41.0881 43.0051 40.2204 43.0051 40.0286C43.0051 39.835 42.7804 39.772 42.4918 39.835C42.2023 39.8999 41.0141 39.4248 39.8588 39.1939C39.5382 39.1291 39.4414 39.1291 39.4094 39.2578V39.2578ZM38.704 38.2948C38.3505 38.2246 37.1304 36.9139 36.7121 36.2079C36.2956 35.501 36.2299 35.5658 36.0709 36.0791C35.9102 36.5924 35.3001 37.7166 34.8828 38.2628C34.4654 38.808 33.374 40.2209 33.0845 40.5424C32.795 40.8629 33.0845 40.9917 33.342 41.2483C33.5986 41.505 34.9147 43.1097 35.2033 43.4631C35.4928 43.8165 35.8143 44.4595 36.5833 43.7526C37.355 43.0457 38.2857 41.7617 38.704 40.4456C39.1205 39.1286 39.1515 38.4386 39.505 38.5185L39.5209 38.2459L39.4251 38.0861L39.2323 37.9253C39.2803 38.0372 39.2803 38.134 39.2013 38.2628C39.1204 38.3906 38.8638 38.3258 38.704 38.2947V38.2948ZM58.3518 8.75807C57.4868 9.77929 55.7498 10.6833 52.83 11.4222C49.9083 12.161 47.1146 14.2159 45.9272 15.2105C44.7382 16.206 41.7446 18.657 40.3087 19.2555C39.9241 19.4163 39.1045 19.9606 40.1479 20.0903C40.9187 20.1871 41.464 19.7377 43.1335 18.5176C44.8039 17.2974 46.0995 16.4174 47.3721 15.1785C48.5603 14.0223 50.7111 12.9309 53.0218 12.2889C55.3342 11.6459 58.3704 10.6371 59.2505 9.68784C59.6669 9.23938 59.7007 9.0138 59.3153 8.6284C58.9299 8.24388 58.7052 8.34069 58.3518 8.75807H58.3518ZM43.615 18.8547C43.3637 18.9932 43.2624 19.1433 42.9721 20.0748C42.6843 21.0055 42.7163 21.5507 42.957 21.7763C43.1319 21.9388 43.3894 21.953 43.5191 21.953C43.615 21.953 43.7118 21.9859 43.6967 21.7124C43.6789 21.4397 43.6612 20.2755 44.5306 19.7542C44.6913 19.6575 44.5092 18.9843 43.9365 19.0794C43.7438 19.1122 43.9365 18.6779 43.615 18.8547ZM33.6944 22.5309C34.1446 22.5309 34.4332 22.5309 34.4013 23.0441C34.3693 23.5583 34.1446 24.2643 34.1126 24.7465C34.0798 25.2278 34.0798 25.4196 34.3693 25.4196C34.657 25.4196 33.9519 25.7092 33.5656 25.774C33.1811 25.8379 32.5879 26.059 32.2815 24.4251C32.1856 23.9109 32.2176 23.109 32.1536 22.9163C32.571 22.7236 33.1447 22.5309 33.6944 22.5309H33.6944ZM42.2288 23.9019C42.3478 24.5493 42.5245 24.5369 42.3948 24.6336C42.2661 24.7304 42.132 24.3886 41.608 24.4738C41.1107 24.5537 37.0657 25.1798 36.7771 25.2126C35.8784 25.3077 35.8296 25.1629 36.6643 24.9871C37.4991 24.8104 40.553 24.2536 41.4642 24.0706L42.2288 23.9019ZM37.355 73.0006C37.7723 73.2572 38.7669 73.5468 40.4693 72.8399C42.1708 72.133 44.0649 72.6143 44.3536 73.8345C44.6431 75.0555 44.6528 76.6282 44.1289 77.3031C43.6795 77.8803 43.2622 77.8164 42.7489 77.6566C41.8182 77.3644 39.6665 76.3725 39.0564 76.083C38.4463 75.7935 37.4189 75.4729 36.68 75.4729C36.3914 74.8628 36.4234 73.8025 36.6161 73.418C36.8088 73.0326 36.8088 72.6472 36.9687 72.7439C37.1303 72.8399 37.3549 73.0006 37.3549 73.0006H37.355ZM44.0972 78.6826C44.5146 78.6826 45.2703 78.8584 45.5092 79.6151C45.701 80.2242 46.954 80.3841 47.5001 80.3521C48.0454 80.3219 47.9495 80.6096 47.9166 80.9311C47.8855 81.2517 47.7887 82.2161 47.7887 82.6006C47.7887 82.986 47.8855 84.3332 47.9495 84.5907C48.0134 84.8473 47.7887 84.9761 47.5001 85.104C47.2115 85.2327 46.1512 85.5533 45.4781 85.072C45.1229 84.8189 44.7064 84.4628 45.1238 84.43C45.5411 84.3989 44.6114 80.7704 44.3538 80.1283C44.0972 79.4854 43.3575 78.6826 44.0972 78.6826ZM33.0522 71.1065C33.2254 71.1634 33.3098 71.3321 33.4376 71.5559C33.5664 71.7805 33.6099 71.975 33.4057 72.1979C33.0522 72.5833 32.6349 74.3487 32.6997 75.6017C32.475 75.5369 31.9937 75.441 31.7371 75.5049C31.6403 74.7981 31.7042 72.5833 32.0257 71.8764C32.3471 71.1713 32.6668 70.9777 33.0522 71.1065ZM33.1164 90.6902C33.9165 91.5907 35.4279 92.9707 36.5513 93.452C37.6755 93.9333 38.4144 94.094 39.409 93.9981C40.2144 93.92 40.051 94.2547 39.409 94.3516C38.7669 94.4474 37.2901 94.4474 36.3284 93.9333C35.364 93.4191 33.8365 92.4698 32.8597 91.0765C32.635 90.7541 32.8597 90.4025 33.1164 90.6902ZM49.8429 88.4432C49.1911 88.7398 47.9816 89.3428 46.8263 89.6314C46.9542 90.2095 46.987 90.4661 46.987 90.626C47.6921 90.626 49.0535 90.1331 50.1644 89.4387C50.4219 89.2771 50.5179 89.0861 50.4219 88.8605C50.3243 88.6359 50.1964 88.2824 49.8429 88.4432ZM42.2352 85.8103C42.0745 85.6505 42.9883 85.4587 43.181 85.4587C43.4066 85.6025 43.816 85.964 43.9687 86.1167C44.0655 86.2117 44.0175 86.2757 43.9199 86.3414C43.8248 86.4044 43.2627 86.5501 43.0052 86.566C42.7166 86.3094 42.3152 85.8912 42.2352 85.8103ZM43.9367 72.4551C43.6792 72.2615 43.7121 72.1664 43.8408 71.9729C43.9687 71.7802 44.0975 71.6523 44.2253 71.5875C44.3532 71.5235 44.5468 71.4916 44.7706 71.8121C44.9952 72.1336 46.2154 74.1575 46.4721 74.7018C46.7296 75.2479 47.0511 74.8945 46.9223 74.5739C46.7944 74.2525 46.5369 73.7072 46.4401 73.5465C46.7944 72.4551 47.147 70.7856 47.147 69.6942C47.147 68.601 46.8903 67.5114 46.6967 67.1251C47.5643 67.157 49.4576 67.1251 50.1965 66.9004C50.9362 66.6748 50.3244 66.6118 50.0357 66.6438C49.7471 66.6749 47.6709 66.6678 46.1515 66.483C43.5194 66.1616 40.9334 64.6812 40.1164 63.6573C39.9867 63.4975 39.2159 63.5605 39.8589 64.0756C40.5018 64.5888 42.1394 66.1225 44.5468 66.5479C45.0921 66.6438 45.9579 66.8036 46.0875 68.7946C46.2154 70.7856 46.0236 72.0688 46.0236 72.2615C46.0236 72.4551 45.8957 72.519 45.7341 72.2935C45.5734 72.0688 45.0281 71.3317 44.7377 71.1719C44.45 71.0102 44.2582 71.0422 44.0007 71.2349C43.744 71.4276 43.3577 71.8121 43.1979 72.0048L43.9367 72.4551V72.4551ZM38.7672 78.7312C38.5265 78.7312 37.0817 78.8439 36.7771 78.7312C36.4716 78.6193 36.2745 78.2685 36.4885 78.1211C36.7443 77.9444 37.2424 78.1699 37.7397 78.1699C38.2379 78.1699 38.7672 78.0421 38.896 78.1211C39.0238 78.2019 39.2014 78.1699 39.2014 78.78L38.7672 78.7312ZM35.2676 87.5439C34.8502 87.2881 34.3671 86.0981 34.2721 83.7235C34.241 82.9207 34.5624 81.5718 34.8182 80.9316C35.0748 80.2886 34.6575 80.5453 34.5624 80.7699C34.4648 80.9946 34.1442 81.8942 34.0474 82.5673C33.9524 83.2422 33.7907 84.2368 34.0474 85.6817C34.3049 87.1265 34.4337 87.5758 34.4967 87.8334L35.2675 87.5439H35.2676Z" fill="white"/>
<path d="M49.9556 10.8773C50.3899 10.9252 50.8712 10.8932 50.9839 10.5886C51.0959 10.2841 50.999 10.0905 50.8552 10.0265C50.7104 9.96257 50.6465 9.97857 50.7104 9.68906C50.7744 9.40044 50.9839 9.43332 50.968 8.98309C50.9511 8.53373 50.6145 8.51776 50.3091 8.61542C50.0044 8.71046 49.8917 8.85432 49.6022 9.23972C49.3145 9.62512 49.4423 8.98309 49.4903 8.8703C49.5356 8.7664 49.651 8.02665 49.255 7.89345C49.0321 8.00534 48.8118 8.11636 48.6005 8.22559C48.5312 8.36678 48.477 8.53198 48.4149 8.69448C48.2541 9.11183 48.0588 8.79838 47.9167 8.59767C47.9167 8.59679 47.9149 8.59589 47.914 8.59501C47.486 8.83213 47.1112 9.05411 46.8262 9.23972C46.7951 9.26016 46.7613 9.28325 46.7303 9.30368C46.7684 9.55673 47.0731 9.87732 47.2435 9.99455C47.4522 10.1393 47.3226 10.4119 47.0668 10.4119C46.8093 10.4119 46.4887 10.2361 46.1672 10.6197C45.8458 11.006 46.0545 11.3754 46.3609 11.3754C46.6654 11.3754 46.9221 11.4873 47.0349 11.8399C47.1467 12.1933 47.2435 12.339 47.6609 12.386C48.0774 12.434 48.3181 12.1134 48.4308 11.9207C48.5436 11.728 48.6884 11.4554 48.8642 11.5202C49.1262 11.6152 49.0933 11.8905 49.0134 12.1835C49.3153 12.006 49.6235 11.839 49.9521 11.6792C49.8996 11.4074 49.738 11.157 49.619 11.038C49.4743 10.8932 49.5214 10.8293 49.9556 10.8773ZM53.5359 6.222C53.3876 6.25663 53.2295 6.29838 53.0715 6.34368C53.1478 6.71042 53.2961 7.18197 53.2153 7.24946C53.1185 7.32937 52.7491 7.39422 52.4605 7.47323C52.1719 7.55405 51.481 8.19698 51.8344 8.66144C52.187 9.12765 52.2998 9.40028 52.3646 9.64182C52.4276 9.88247 53.0058 10.1711 53.4063 9.6889C53.8085 9.20846 54.1131 8.67829 54.2108 9.01486C54.2916 9.29816 54.2694 9.98284 54.2135 10.3505C54.297 10.3336 54.3813 10.3159 54.4666 10.299C54.6273 8.50247 54.1797 7.21748 53.5359 6.222ZM44.7223 14.8423C44.4985 14.6664 44.4337 14.3929 44.7054 14.313C44.9799 14.2322 45.3493 14.1682 46.0233 13.8796C46.6964 13.5901 46.3439 13.0928 46.0402 12.9641C45.7347 12.8353 45.7009 12.5476 45.7347 12.2412C45.7667 11.9366 45.6858 11.4881 45.0917 11.7128C44.4985 11.9366 44.7055 12.5147 44.5305 12.7074C44.3529 12.9001 44.2579 12.8353 44.289 12.5476C44.3218 12.2581 44.0652 12.0654 43.9204 12.0005C43.8068 11.9517 43.5608 11.8931 43.3503 11.8762C42.7358 12.4303 42.1737 13.0102 41.7474 13.5857C41.8433 13.7837 42.068 14.0039 42.1861 14.0395C42.3477 14.0883 42.5884 14.2011 42.5706 14.5217C42.5573 14.7925 41.9463 14.8112 41.5449 14.8209C41.8282 15.5882 42.1169 16.1326 42.5191 16.5677C42.6088 16.5419 42.7287 16.5011 42.893 16.4318C43.3903 16.2232 43.5501 15.4683 43.6309 15.2437C43.7117 15.019 43.9204 15.0669 44.0652 15.3564C44.1664 15.5589 44.2028 15.7454 44.217 15.9274C44.5003 15.6442 44.7747 15.3795 45.0447 15.13C44.963 15.0492 44.8626 14.9533 44.7223 14.8423H44.7223ZM53.2462 34.0247C53.3421 34.0087 53.0855 32.8703 53.296 32.8214C53.5038 32.7735 53.5988 33.4475 54.049 33.3667C54.4992 33.2867 54.6111 32.8383 54.5472 32.3401C54.4833 31.8419 54.7719 32.1154 54.9974 31.762C55.2203 31.4094 54.739 30.9281 54.1929 31.2647C53.6476 31.6013 53.7444 31.1519 54.0339 30.9761C54.3234 30.7985 54.1138 30.1573 53.5038 30.3651C53.0624 30.517 52.8395 30.231 52.6282 30.1102C52.4648 30.1733 52.304 30.2417 52.1424 30.3136C52.1069 30.4379 52.1353 30.5889 52.1717 30.7505C52.2179 30.9565 52.3156 31.4894 51.979 31.2647C51.6851 31.0693 51.2881 30.9592 51.1762 31.3286C51.0634 31.698 51.2881 31.7309 51.2561 31.9547C51.2233 32.1794 50.6461 32.2273 50.9187 32.6926C51.1913 33.158 51.5936 32.9022 51.8671 32.7255C52.1397 32.5488 52.3964 32.7575 52.3005 32.9981C52.2241 33.1855 52.0731 33.8178 52.0625 34.2343C52.1903 34.3186 52.3244 34.4092 52.4648 34.5087C52.6255 34.3471 52.9283 34.0798 53.2462 34.0247ZM44.4985 32.9182C44.7383 32.8543 45.2045 33.3507 45.6219 33.0621C46.0402 32.7735 45.4452 32.4848 45.526 32.2433C45.6059 32.0027 45.7986 31.5373 45.5091 31.3126C45.2205 31.088 44.915 31.2967 44.6113 31.6341C44.3049 31.9707 44.4177 31.3277 44.5785 31.056C44.7872 30.7026 44.5785 30.461 44.225 30.3971C43.8716 30.3331 43.7597 30.8305 43.519 30.6058C43.1363 30.2497 42.5395 30.3971 42.6843 30.8953C42.8291 31.3935 42.988 31.5533 42.6843 31.6173C42.3797 31.6812 42.0902 30.8793 41.7376 31.5222C41.3833 32.1625 41.9454 32.3561 41.8975 32.8383C41.8495 33.3196 42.0422 33.8329 42.3309 33.8808C42.6203 33.9297 42.9241 33.6082 43.0848 33.4164C43.2464 33.2237 43.6309 33.079 43.583 33.4475C43.5492 33.7024 43.5324 34.2316 43.5226 34.5362C44.114 34.2485 44.7472 33.9483 45.0917 33.8329C45.1061 33.8279 45.1203 33.8225 45.1344 33.8169C44.9736 33.7521 44.7454 33.6455 44.5305 33.4955C44.209 33.2708 44.2579 32.983 44.4985 32.9182ZM37.3865 47.5421C38.1254 47.3175 38.1574 47.8956 38.0605 48.3769C37.9646 48.8582 37.9646 49.8857 37.9966 50.3989L39.2159 50.4647C39.1519 50.1423 39.2159 49.2107 39.2487 48.6664C39.2798 48.1194 39.8268 47.2846 40.0195 48.1194C40.2123 48.955 41.0461 48.987 41.6242 48.6335C42.2023 48.2801 42.6206 47.5102 43.2298 46.4179C43.8408 45.3265 43.038 45.037 42.5558 45.1018C42.0745 45.1657 41.5923 45.2297 42.6846 44.3319C43.6996 43.4954 41.991 43.0753 41.206 42.9181C39.9121 44.2768 38.3216 45.8158 36.9052 47.028C36.7241 47.1825 36.5553 47.3308 36.3937 47.4746C36.5633 47.5723 36.8964 47.6904 37.3865 47.5421ZM36.1022 55.6329C36.7122 55.4393 37.0976 56.7563 37.9964 55.9855C38.8959 55.2156 38.253 54.5735 38.2219 53.9315C38.1891 53.2876 38.9279 53.0319 38.7041 52.23C38.3604 51.0063 37.2255 52.1652 36.5195 52.8392C35.8135 53.5132 35.7816 52.967 36.4885 51.8774C37.1945 50.7851 36.0382 50.4317 35.3322 50.7212C34.7044 50.977 34.1281 50.7265 33.7595 50.3971C33.4878 50.8313 33.2889 51.2327 33.0846 51.6519C32.4745 52.904 32.8919 52.9351 33.3422 52.9351C33.7906 52.9351 34.7541 54.8302 34.882 55.1818C34.9273 55.3079 35.2567 55.7892 35.6937 56.4046C35.6679 56.1009 35.7265 55.751 36.1022 55.6329ZM53.6642 42.9828C53.0861 42.8549 52.3357 42.7581 52.2514 43.9463C52.2194 44.3956 52.6678 44.75 53.0861 44.9098C53.5035 45.0697 53.4387 45.3583 52.9893 45.1984C52.5409 45.0368 52.1874 44.9418 51.8677 45.8724C51.5445 46.8031 52.1235 46.9327 52.413 46.9967C52.7016 47.0606 52.9254 47.1246 52.8614 47.5109C52.7966 47.8963 52.6048 49.0187 53.3428 49.1156C54.0816 49.2115 54.7228 48.3127 54.9483 47.8634C55.1739 47.4141 55.4287 46.9638 55.4945 47.478C55.5584 47.9922 55.4616 48.2479 55.2058 48.826C54.9483 49.4042 54.9483 49.6617 55.3337 49.6297C55.7191 49.596 56.3612 49.6297 56.5539 49.1786C56.7466 48.7301 57.0361 47.8634 57.0681 47.2533C57.0867 46.8715 57.4215 46.8288 57.6693 46.8511C57.7419 46.2338 57.8305 45.6185 57.9348 45.0057C56.6747 45.194 55.6019 43.655 55.2289 42.3229C54.8 42.7892 54.1695 43.0956 53.6642 42.9828ZM47.6609 42.7585C47.4354 43.1431 46.7942 44.2353 47.0819 44.5888C47.3714 44.9413 47.692 44.2353 47.9495 44.4929C48.2071 44.7495 48.7843 45.0372 48.7843 44.8454C48.7843 44.6527 48.8482 44.2673 48.945 43.754C49.0418 43.2399 49.2656 42.9512 49.4903 43.3686C49.7149 43.7851 50.0355 44.1385 50.8383 43.9458C51.6411 43.754 51.5452 42.9184 51.3845 42.3092C51.2228 41.6991 51.8027 41.4096 52.0913 41.2498C52.3799 41.089 53.1188 40.5109 52.5735 39.9976C52.0274 39.4835 51.5452 40.2223 51.0639 40.3173C50.5817 40.415 50.7744 39.9976 51.7699 39.2268C52.6295 38.5617 51.9102 37.8965 51.3871 37.6665C50.0044 39.0572 47.5561 41.3146 47.018 41.8279C46.8253 42.0126 46.6592 42.2284 46.5038 42.4886C47.7959 41.8874 47.8732 42.3936 47.6609 42.7585ZM55.6224 55.665C56.0398 56.0513 57.0362 56.5965 57.7413 55.9536C58.4491 55.3116 57.5805 54.6047 57.4855 54.0923C57.3879 53.5772 57.9988 53.2558 57.6774 52.4228C57.1197 50.9691 56.2973 52.7114 55.8142 53.1927C55.3338 53.674 55.4137 52.8561 55.8471 52.4228C56.0727 52.1972 57.0682 51.5871 56.4892 50.9131C55.9111 50.2391 55.0772 50.6236 54.6598 50.9131C54.2415 51.2026 53.921 51.5552 53.2789 51.3625C52.6369 51.1698 52.0907 51.1058 51.7062 52.0373C51.3199 52.9671 52.0588 52.7114 52.6679 53.3845C53.2789 54.0585 52.8944 54.0923 52.4131 53.9315C51.93 53.7708 51.7062 53.1607 50.9993 53.2557C50.2924 53.3525 50.2924 54.4777 50.518 54.7663C50.7436 55.0549 51.1911 55.2156 50.8706 55.7609C50.5509 56.307 51.0313 56.9491 51.6085 57.2057C52.1875 57.4624 53.0525 56.4349 53.3757 56.0175C53.6963 55.6002 54.016 55.697 53.952 56.0175C53.8988 56.2937 53.7478 57.0201 53.7265 57.6267C54.2158 57.4704 54.6998 57.3256 55.1642 57.1986C55.1633 56.8612 55.0905 56.3186 54.9484 55.7946C54.7557 55.0878 55.2059 55.2796 55.6224 55.665ZM47.2754 59.1009C46.5046 59.3247 46.3759 58.9712 45.8626 58.7794C45.3493 58.5876 45.3155 59.0352 45.669 59.5813C46.0233 60.1274 46.4078 60.6407 45.9904 60.6407C45.5731 60.6407 45.2525 60.7056 45.1877 61.027C45.1237 61.3467 44.4497 60.9631 44.289 60.2882C44.1291 59.6124 43.9684 58.3301 43.615 58.9712C43.2624 59.6124 42.9409 60.6736 42.0422 60.1923C41.1427 59.711 41.7527 59.068 41.3034 58.6178C40.854 58.1684 40.4367 57.5912 40.886 56.7884C41.3362 55.9856 41.7208 56.6597 42.1381 56.6597C42.5555 56.6597 42.6204 56.2743 42.2349 55.9857C41.8495 55.6971 41.3673 54.3161 43.1336 54.4129C43.8139 54.4502 44.5465 54.2202 45.1237 53.8029C45.7009 53.3846 47.2115 53.6093 46.6014 54.6705C45.9904 55.729 46.184 55.9537 46.5366 55.5683C46.89 55.182 47.3394 54.4778 48.0134 54.6705C48.6883 54.8623 48.3988 55.3756 47.9814 55.9537C47.564 56.5318 47.8207 56.9172 48.1413 57.141C48.4627 57.3666 49.0542 58.5805 47.2754 59.1009ZM50.551 51.5231C49.972 51.5551 49.2651 51.3943 49.2651 51.3943C49.2011 52.0044 48.6088 52.8783 48.0138 53.7707C47.949 53.8675 47.5965 53.8675 47.4348 53.7379C47.2759 53.61 46.8265 53.3844 47.1782 52.999C47.5325 52.6154 48.1097 51.8117 48.0138 51.4592C47.917 51.1057 47.6613 50.7851 47.2759 51.2664C46.8905 51.7478 46.2804 52.7433 45.6064 52.7761C44.9306 52.8072 44.2583 52.1971 44.578 51.587C44.8995 50.9778 44.9954 50.6564 44.5461 50.1093C44.0967 49.5641 44.2645 48.8661 45.221 48.4407C45.5096 48.3128 46.0229 48.4407 46.3763 48.7293C46.7289 49.0189 46.9224 48.7293 46.4403 48.4407C45.958 48.1521 45.5735 47.7987 45.5096 47.1566C45.4483 46.5465 45.831 45.9054 46.6658 46.2579C47.4997 46.6105 48.0138 46.3219 48.3673 46.0333C48.7198 45.7438 50.2259 45.3832 50.0048 46.7082C49.8432 47.6699 49.3956 47.7028 49.2651 48.216C49.1381 48.7293 49.5217 48.4088 49.7473 48.0242C49.9719 47.638 50.4861 46.0617 51.5447 47.2525C51.8022 47.542 51.7063 48.0242 51.3839 48.5695C51.0633 49.1156 51.32 49.4362 51.5127 49.7248C51.7063 50.0143 52.153 51.4334 50.551 51.5231Z" fill="#008348"/>
<path d="M77.0341 25.9894L78.0145 25.2941L80.1396 28.4502L81.3908 27.563L79.2027 24.4709L80.1538 23.7986L82.4822 27.063L83.7353 26.175L80.2772 21.3281L74.5885 25.3598L77.7259 29.8204L78.978 28.9332L77.0341 25.9894ZM81.1456 36.9494L83.0061 36.0889L81.7246 33.3049L86.0822 31.4897L85.291 29.7456L79.136 32.423L81.1456 36.9494ZM82.254 39.8931L82.4476 41.6097L86.5787 41.1239L86.7404 42.9142L88.5893 42.7775L88.0751 36.7735L86.2244 36.9102L86.3843 39.4074L82.254 39.8931ZM82.4621 45.7486L82.4878 47.7947L88.5602 47.776L88.5353 45.7309L82.4621 45.7486ZM85.3144 50.6866C84.2967 50.4912 83.0917 50.659 82.248 51.2984C81.4906 51.8739 81.138 52.4511 80.9373 53.499C80.8112 54.1633 80.9133 55.0353 81.1336 55.799L82.7382 55.2609C82.5837 54.8914 82.5189 54.3302 82.6859 53.7618C83.0109 52.6642 83.9025 52.1696 84.9912 52.3303C86.1465 52.5 86.8046 53.5594 86.5959 54.8204C86.5151 55.323 86.2646 55.7581 85.6927 56.1L86.6865 57.2971C87.4955 56.8016 88.1082 55.8257 88.2396 55.1401C88.4625 53.9847 88.1872 53.1873 87.6517 52.2495C87.1305 51.3348 86.2486 50.8651 85.3145 50.6866H85.3144ZM84.201 59.1698C83.3529 58.9522 82.1975 59.8838 81.6407 60.4193C81.3193 60.7283 80.1977 61.8588 79.68 61.6839C79.2164 61.5284 79.3576 60.8207 79.5148 60.358C79.7421 59.6831 80.0911 59.1156 80.6337 58.7507L79.6284 58.3049C79.14 58.7133 78.5956 59.3723 78.3719 60.0357C78.1134 60.8011 78.0069 61.6972 78.1161 62.2673C78.2564 63.0017 78.5131 63.4697 79.3434 63.3942C79.9828 63.3347 81.5883 62.2922 82.5146 61.4174C82.9843 60.9752 83.3848 60.9272 83.5935 61.0436C83.9327 61.2309 83.9114 61.809 83.7898 62.1714C83.6264 62.6553 83.3937 63.3951 83.0083 63.6686L84.3803 64.5895C84.9407 64.0265 85.2311 63.1802 85.3953 62.3889C85.7941 60.4779 84.7586 59.3137 84.201 59.1698ZM76.5754 18.8647C76.4564 17.9243 75.9369 16.8426 75.4085 16.3853C74.5915 15.6758 73.6244 15.4857 72.5961 15.6189C71.5527 15.7557 70.582 16.4253 70.0341 17.2041C69.4373 18.0504 69.0946 19.2181 69.3317 20.2509C69.543 21.1771 69.9249 21.7366 70.7978 22.3502C71.3511 22.7401 72.1876 23.0047 72.9744 23.1175L73.144 21.4338C72.7435 21.4231 72.2045 21.2509 71.7569 20.8646C70.8893 20.116 70.8484 18.9331 71.399 18.1756C72.0846 17.2298 73.2808 17.0274 74.3446 17.736C74.7691 18.0166 74.9369 18.4713 75.0124 19.1356L76.5754 18.8647V18.8647ZM14.4667 53.8485C14.5102 53.3894 14.4845 52.5502 14.9818 52.4454C15.4613 52.3442 15.7774 52.8095 15.8787 53.2873C16.0261 53.9844 16.2223 54.527 15.9417 55.1184L17.2347 54.9825C17.4469 54.3831 17.3812 53.5812 17.2365 52.8974C17.0686 52.1053 16.8164 51.5494 16.2339 51.0325C15.6735 50.5353 15.2517 50.4056 14.4347 50.5779C13.9365 50.6835 13.0476 51.5742 13.0165 53.3654C13.0112 53.7055 12.9304 54.3547 12.6249 54.3698C12.236 54.3902 11.9491 53.9275 11.871 53.5537C11.7644 53.0537 11.9082 51.9588 12.0992 51.5272L10.7458 51.521C10.5496 52.29 10.4741 53.3681 10.641 54.1593C11.0096 55.9025 12.0663 56.4727 12.9242 56.3785C13.8415 56.2773 14.3228 55.32 14.4667 53.8485ZM11.7592 46.4936L16.5537 46.4341L16.5306 44.928L11.7361 44.9875L11.7165 42.9441L10.182 42.961L10.2433 48.6826L11.7778 48.6658L11.7592 46.4936ZM20.418 31.4443L16.7166 29.3094L16.7264 29.2917L21.6283 29.21L22.7979 27.4046L16.7575 23.9217L15.8446 25.3417L19.9659 27.9303L14.3456 28.0902L13.5614 29.6069L19.505 33.0569L20.418 31.4443ZM14.4229 34.9478C15.4894 34.9478 16.3561 35.8128 16.3561 36.8802C16.3561 37.9476 15.4894 38.8134 14.4229 38.8134C13.3546 38.8134 12.4897 37.9476 12.4897 36.8802C12.4897 35.8128 13.3546 34.9478 14.4229 34.9478ZM14.4229 40.5913C16.4725 40.5913 18.134 38.9298 18.134 36.8802C18.134 34.8315 16.4725 33.1691 14.4229 33.1691C12.3724 33.1691 10.7118 34.8315 10.7118 36.8802C10.7118 38.9298 12.3724 40.5913 14.4229 40.5913ZM16.8146 63.2301C15.7472 63.2301 14.8814 62.3634 14.8814 61.2959C14.8814 60.2285 15.7472 59.3636 16.8146 59.3636C17.8812 59.3636 18.747 60.2285 18.747 61.2959C18.747 62.3633 17.8812 63.2301 16.8146 63.2301V63.2301ZM20.5258 61.2959C20.5258 59.2463 18.8643 57.5857 16.8147 57.5857C14.7642 57.5857 13.1036 59.2464 13.1036 61.2959C13.1036 63.3464 14.7642 65.0079 16.8146 65.0079C18.8643 65.0079 20.5258 63.3464 20.5258 61.2959ZM23.7845 69.9493L23.6566 69.7957C23.2472 69.3046 21.8646 67.8411 22.4356 67.3039C22.9568 66.8137 24.2711 68.4823 24.6432 68.9272L24.8022 69.1208L23.7845 69.9493V69.9493ZM21.5049 72.0078C21.0147 71.4208 19.553 70.2717 20.1773 69.6838C20.7723 69.1243 22.2384 70.9119 22.4205 71.1304L21.5049 72.0078ZM21.2793 65.5349C20.7101 66.0402 20.4348 67.2399 20.9721 68.0525C20.3869 67.7674 19.2067 67.6697 18.665 68.1404C17.3294 69.3002 18.9491 70.9759 20.2794 72.3044L22.1336 74.1355L27.0614 70.0594L25.0659 67.739C24.3662 66.8598 22.432 64.5154 21.2794 65.5349H21.2793Z" fill="white"/>
<path d="M43.2139 84.7194C43.4226 84.6234 43.7121 84.4947 43.8408 84.5914C43.9687 84.6874 44.7378 85.2335 45.2209 85.6518C45.7013 86.0683 45.862 86.197 45.4775 86.4217C45.0921 86.6455 44.7378 86.8711 44.8035 86.6775C44.8674 86.4865 44.9633 86.197 44.7058 85.9404C44.45 85.6829 43.8195 85.1962 43.5505 84.9769C43.3746 84.8321 43.2139 84.7193 43.2139 84.7193V84.7194ZM41.3996 85.25C41.2389 85.3948 41.2069 85.6354 41.3996 85.8273C41.5923 86.02 42.6678 86.9187 42.8445 87.0962C43.0212 87.2721 43.2778 87.3378 43.5664 87.2721C43.8559 87.2073 43.2299 87.6255 42.9883 87.6735C42.7494 87.7205 42.4759 87.7206 42.2193 87.4808C41.9609 87.2401 40.5169 85.8752 40.2283 85.6026C39.9388 85.3299 40.3082 85.3299 40.5649 85.2989C40.8224 85.2669 41.0462 85.282 41.3996 85.25ZM48.415 8.69426C48.4754 8.53795 48.5269 8.36656 48.5935 8.22892C48.3677 8.34663 48.1433 8.46711 47.9204 8.59036C48.0625 8.79105 48.2552 9.10896 48.415 8.69426ZM54.2107 9.01473C54.1139 8.67817 53.8084 9.20833 53.407 9.68877C53.0065 10.171 52.4275 9.88235 52.3645 9.64169C52.3005 9.40016 52.1878 9.1275 51.8343 8.66131C51.4809 8.19686 52.1718 7.55392 52.4604 7.47311C52.749 7.39408 53.1193 7.32926 53.2152 7.24933C53.2969 7.18184 53.1513 6.70852 53.0731 6.34263C51.9187 6.67211 50.5112 7.27507 49.2688 7.88783C49.6471 8.03258 49.5352 8.76699 49.4908 8.86999C49.442 8.98278 49.3141 9.62481 49.6027 9.23941C49.8922 8.85401 50.005 8.71014 50.3087 8.61513C50.6142 8.51744 50.9507 8.53342 50.9685 8.98278C50.9836 9.43301 50.7749 9.40016 50.7109 9.68877C50.6461 9.97826 50.7109 9.96228 50.8557 10.0262C50.9996 10.0902 51.0955 10.2837 50.9836 10.5883C50.8708 10.8929 50.3895 10.9249 49.9552 10.8769C49.5219 10.829 49.4739 10.8929 49.6196 11.0377C49.7359 11.1558 49.894 11.4124 49.9508 11.6806C50.9951 11.1753 52.2588 10.7526 54.216 10.3503C54.2693 9.98004 54.2897 9.29448 54.2107 9.01473H54.2107ZM44.0651 15.3563C43.9203 15.0668 43.7116 15.0188 43.6317 15.2435C43.55 15.4682 43.3902 16.223 42.8929 16.4308C42.7703 16.4835 42.6446 16.5283 42.5163 16.5649C42.6886 16.7514 42.8805 16.9184 43.1016 17.0738C43.4941 16.659 43.8617 16.2807 44.2143 15.9282C44.201 15.7497 44.1636 15.5543 44.0651 15.3563ZM48.8638 11.5197C48.688 11.4558 48.5433 11.7284 48.4305 11.9202C48.3186 12.1129 48.0779 12.4344 47.6615 12.3864C47.2432 12.3385 47.1464 12.1937 47.0345 11.8403C46.9217 11.4877 46.6651 11.375 46.3605 11.375C46.055 11.375 45.8463 11.0055 46.1678 10.6201C46.4892 10.2356 46.8098 10.4115 47.0665 10.4115C47.3222 10.4115 47.4519 10.1388 47.2432 9.99407C47.0771 9.87951 46.7858 9.55183 46.7352 9.29963C45.8196 9.90172 44.5071 10.8333 43.3625 11.8652C43.5694 11.8829 43.8109 11.9522 43.9201 12.001C44.0649 12.065 44.3215 12.2577 44.2896 12.5472C44.2576 12.8349 44.3535 12.9006 44.5302 12.707C44.7061 12.5152 44.4983 11.9362 45.0915 11.7124C45.6865 11.4877 45.7673 11.9362 45.7344 12.2408C45.7007 12.5472 45.7344 12.8349 46.0399 12.9637C46.3436 13.0924 46.697 13.5897 46.023 13.8792C45.349 14.1678 44.9796 14.2327 44.7061 14.3135C44.4334 14.3925 44.4983 14.666 44.722 14.8418C44.8597 14.9502 44.9583 15.055 45.0382 15.1358C45.8872 14.3472 46.6899 13.7025 47.5966 13.0924C48.093 12.7594 48.5459 12.4584 49.0175 12.1813C49.0947 11.8927 49.1223 11.613 48.8638 11.5197ZM42.5708 14.5211C42.5885 14.2005 42.3479 14.0877 42.1863 14.0398C42.069 14.0034 41.8488 13.776 41.752 13.5807C41.5922 13.7947 41.451 14.0069 41.3355 14.2165C41.4057 14.4323 41.4758 14.6321 41.5442 14.8204C41.9465 14.8106 42.5575 14.7902 42.5708 14.5211H42.5708ZM56.1368 29.4985C55.0853 29.4319 53.8341 29.6451 52.6388 30.1059C52.8475 30.2303 53.0704 30.5136 53.5037 30.3653C54.1138 30.1566 54.3234 30.7986 54.0339 30.9762C53.7444 31.1521 53.6476 31.6005 54.1938 31.2639C54.739 30.9274 55.2203 31.4087 54.9974 31.7621C54.7719 32.1147 54.4832 31.8421 54.5472 32.3394C54.6111 32.8375 54.4992 33.2869 54.049 33.3668C53.5996 33.4476 53.5037 32.7736 53.2959 32.8216C53.0855 32.8695 53.343 34.0089 53.2462 34.0248C52.9327 34.0781 52.6335 34.3499 52.4718 34.5133C52.4852 34.5221 52.4958 34.5301 52.5074 34.539C54.2754 35.808 54.723 35.1171 54.9806 34.5071C55.2372 33.897 55.8082 32.0889 55.9752 31.1361C56.0728 30.5899 56.2007 30.0127 56.1368 29.4985ZM52.3002 32.9982C52.3961 32.7575 52.1395 32.5488 51.8677 32.7247C51.5933 32.9023 51.191 33.158 50.9184 32.6927C50.6466 32.2265 51.223 32.1794 51.2558 31.9547C51.2878 31.7301 51.0631 31.6981 51.1759 31.3287C51.2878 30.9593 51.6857 31.0694 51.9796 31.2638C52.3162 31.4894 52.2176 30.9566 52.1714 30.7506C52.1359 30.5943 52.111 30.4362 52.1395 30.3145C51.794 30.4717 51.4521 30.6484 51.128 30.8465C49.478 31.8562 49.4265 32.7087 49.811 33.0302C50.1565 33.317 50.8625 33.452 52.0622 34.2352C52.0746 33.8187 52.2256 33.1838 52.3002 32.9982H52.3002ZM47.0509 32.0342C46.368 31.6941 45.7011 30.9428 45.2527 30.0761C45.2527 30.0761 45.2846 29.9482 45.0919 29.9482C44.9001 29.9482 44.1923 29.8834 43.005 29.466C41.8168 29.0495 41.657 29.3062 41.4971 29.8195C41.3355 30.3327 41.2068 31.2643 41.1748 32.8059C41.1428 34.3467 41.8168 35.3093 42.2351 35.1486C42.4376 35.0695 42.9624 34.8093 43.5245 34.5358C43.5325 34.2294 43.5494 33.6993 43.5831 33.4471C43.6311 33.0785 43.2466 33.2233 43.085 33.416C42.9242 33.6078 42.6205 33.9293 42.331 33.8804C42.0424 33.8325 41.8497 33.3192 41.8976 32.8379C41.9456 32.3557 41.3835 32.163 41.7378 31.5218C42.0904 30.8789 42.3799 31.6817 42.6844 31.6169C42.9882 31.5529 42.8292 31.3931 42.6844 30.8949C42.5397 30.3967 43.1365 30.2493 43.5192 30.6054C43.7599 30.831 43.8718 30.3327 44.2252 30.3967C44.5786 30.4615 44.7873 30.7022 44.5786 31.0556C44.4179 31.3282 44.3051 31.9703 44.6115 31.6337C44.9152 31.2963 45.2207 31.0876 45.5093 31.3131C45.7988 31.5369 45.6061 32.0023 45.5261 32.2429C45.4453 32.4844 46.0403 32.774 45.6221 33.0617C45.2047 33.3503 44.7385 32.8539 44.4987 32.9178C44.2581 32.9827 44.2092 33.2713 44.5307 33.4959C44.7402 33.6424 44.9596 33.757 45.1212 33.8218C45.7899 33.5945 46.5723 33.1558 46.8262 32.9977L47.2436 33.0306C47.2756 32.4845 47.2436 32.131 47.0509 32.0342H47.0509ZM44.6747 39.0982C44.4181 38.5201 44.3284 38.9641 43.6153 40.0937C43.2547 40.6647 42.3436 41.7232 41.2034 42.9194C41.9937 43.0793 43.6961 43.4975 42.6846 44.3323C41.5923 45.2301 42.0745 45.1661 42.5559 45.1013C43.0381 45.0365 43.8408 45.326 43.2299 46.4183C42.6207 47.5106 42.2024 48.2796 41.6243 48.6339C41.0462 48.9865 40.2123 48.9545 40.0196 48.1197C39.8269 47.285 39.2799 48.1197 39.2488 48.6659C39.216 49.2111 39.152 50.1427 39.216 50.4642L37.9967 50.3993C37.9647 49.8852 37.9647 48.8577 38.0606 48.3764C38.1574 47.896 38.1255 47.317 37.3866 47.5416C36.9044 47.6891 36.5741 47.5647 36.4027 47.4661C34.9676 48.7432 34.2421 49.625 33.7554 50.4029C34.124 50.7297 34.7083 50.9757 35.3317 50.7208C36.0377 50.4313 37.1948 50.7848 36.4879 51.877C35.781 52.9667 35.8139 53.5128 36.519 52.8388C37.2259 52.1648 38.3608 51.0059 38.7035 52.2296C38.9274 53.0315 38.1894 53.2881 38.2214 53.9311C38.2533 54.5731 38.8962 55.2151 37.9967 55.986C37.098 56.7559 36.7126 55.4389 36.1025 55.6325C35.7349 55.7498 35.6603 56.0881 35.6807 56.3882C36.4799 57.5187 37.6432 59.1172 38.0606 59.8045C38.7035 60.8657 38.7035 62.1507 38.9593 61.9571C39.216 61.7635 39.8269 61.1854 40.0196 61.0265C40.2123 60.8657 40.4041 60.673 40.3082 60.3196C40.2123 59.967 39.8429 58.0728 39.9557 56.7559C40.0836 55.2471 40.7896 53.5936 41.3037 52.6469C41.7975 51.7358 43.2938 48.8257 43.6473 48.0549C44.0007 47.285 44.6427 46.3863 44.8035 45.6794C44.9633 44.9725 45.5734 43.3359 45.8309 42.5651C45.767 41.923 45.3523 40.6238 44.6747 39.0982V39.0982ZM49.4904 31.938C49.2977 32.4521 49.0419 33.0942 48.9131 33.4156C48.7844 33.7371 48.1929 33.6119 48.2382 33.3828C48.335 32.9015 47.6485 33.2203 47.7249 32.8375C47.7889 32.5161 47.661 32.0019 48.0136 32.0019C48.367 32.0019 49.0419 31.938 49.4904 31.938Z" fill="#BB9753"/>
<path d="M48.4152 8.69409C48.4756 8.53778 48.5271 8.36639 48.5937 8.22875C48.3678 8.34645 48.1434 8.46694 47.9206 8.59019C48.0626 8.79087 48.2553 9.10879 48.4152 8.69409ZM50.5512 51.5227C49.9722 51.5547 49.2653 51.3939 49.2653 51.3939C49.2014 52.004 48.609 52.8779 48.0141 53.7703C47.9492 53.8671 47.5967 53.8671 47.4351 53.7375C47.2761 53.6096 46.8268 53.384 47.1784 52.9986C47.5328 52.615 48.11 51.8113 48.0141 51.4588C47.9173 51.1053 47.6615 50.7847 47.2761 51.2661C46.8907 51.7474 46.2806 52.7429 45.6066 52.7757C44.9308 52.8068 44.2586 52.1967 44.5782 51.5866C44.8997 50.9774 44.9956 50.656 44.5463 50.109C44.0969 49.5637 44.2648 48.8657 45.2212 48.4403C45.5098 48.3124 46.0231 48.4403 46.3765 48.7289C46.7291 49.0185 46.9227 48.7289 46.4405 48.4403C45.9582 48.1517 45.5737 47.7983 45.5098 47.1562C45.4485 46.5461 45.8313 45.905 46.666 46.2575C47.4999 46.6101 48.0141 46.3215 48.3675 46.0329C48.7201 45.7434 50.2262 45.3828 50.005 46.7078C49.8434 47.6695 49.3958 47.7024 49.2653 48.2157C49.1383 48.7289 49.522 48.4084 49.7475 48.0238C49.9722 47.6376 50.4864 46.0613 51.5449 47.2521C51.8024 47.5416 51.7065 48.0238 51.3841 48.5691C51.0636 49.1152 51.3202 49.4358 51.5129 49.7244C51.7065 50.0139 52.1532 51.433 50.5512 51.5227ZM47.2761 59.1003C46.5044 59.3241 46.3765 58.9715 45.8624 58.7788C45.3491 58.587 45.3162 59.0346 45.6696 59.5807C46.0231 60.1269 46.4085 60.6411 45.9911 60.6411C45.5737 60.6411 45.2523 60.705 45.1883 61.0265C45.1244 61.347 44.4504 60.9625 44.2896 60.2876C44.1289 59.6118 43.9691 58.3295 43.6147 58.9715C43.2622 59.6118 42.9407 60.673 42.042 60.1917C41.1433 59.7104 41.7534 59.0675 41.3032 58.6172C40.8547 58.1679 40.4373 57.5907 40.8867 56.7879C41.336 55.9851 41.7214 56.6591 42.1388 56.6591C42.5562 56.6591 42.6201 56.2746 42.2356 55.9851C41.8493 55.6965 41.368 54.3164 43.1334 54.4124C43.8145 54.4497 44.5463 54.2197 45.1244 53.8023C45.7016 53.384 47.2113 53.6096 46.6012 54.6699C45.9911 55.7285 46.1838 55.9531 46.5364 55.5686C46.8907 55.1814 47.3392 54.4772 48.0141 54.6699C48.6881 54.8617 48.3995 55.375 47.9821 55.9531C47.5647 56.5321 47.8214 56.9166 48.1419 57.1404C48.4634 57.366 49.0539 58.5799 47.2761 59.1003ZM58.6732 53.3521C57.8384 51.9729 57.6777 51.4268 57.5489 50.0139C57.4681 49.1223 57.5409 47.9635 57.6697 46.8499C57.4228 46.8303 57.0871 46.8774 57.0685 47.2521C57.0365 47.8631 56.747 48.7289 56.5543 49.1783C56.3616 49.6294 55.7196 49.5957 55.3341 49.6294C54.9487 49.6614 54.9487 49.4038 55.2063 48.8257C55.462 48.2476 55.5588 47.991 55.494 47.4777C55.4292 46.9635 55.1743 47.4138 54.9487 47.8631C54.7232 48.3124 54.082 49.2103 53.3432 49.1152C52.6052 49.0184 52.797 47.896 52.8618 47.5097C52.9258 47.1243 52.702 47.0603 52.4134 46.9955C52.1239 46.9324 51.5449 46.8028 51.8673 45.8721C52.1878 44.9406 52.5413 45.0365 52.9897 45.1972C53.4391 45.3579 53.5039 45.0693 53.0856 44.9095C52.6683 44.7497 52.2198 44.3953 52.2518 43.946C52.3361 42.7569 53.0856 42.8546 53.6646 42.9825C54.1673 43.0935 54.8013 42.7915 55.232 42.3315C55.2231 42.3022 55.2125 42.2729 55.2063 42.2427C54.3493 38.9757 55.9753 34.9555 56.4247 33.8321C56.8749 32.7088 58.6083 29.5465 59.2024 28.599C58.8818 28.4382 58.0311 28.0057 57.5649 27.7642C57.1004 27.5244 56.8429 27.4116 56.7142 27.5884C56.5854 27.7642 56.4246 27.8601 56.2009 28.1816C55.7497 28.8254 56.1369 28.7277 56.2648 28.7277C56.3936 28.7277 56.9388 29.4337 57.0365 29.5953C57.1324 29.7552 57.0365 29.883 56.8109 30.3963C56.5161 31.0686 56.3296 32.6129 56.073 33.5435C55.2951 36.363 54.082 36.0798 53.5359 35.7272C52.9897 35.3729 52.8299 35.9199 52.2837 36.6898C52.1532 36.8728 51.8264 37.2235 51.3948 37.6578C51.9179 37.8913 52.6256 38.5645 51.7705 39.2261C50.775 39.9969 50.5814 40.4143 51.0636 40.3175C51.5449 40.2216 52.0271 39.4827 52.5732 39.9969C53.1194 40.5111 52.3805 41.0883 52.091 41.249C51.8024 41.4098 51.2234 41.6984 51.3841 42.3084C51.5449 42.9176 51.6417 43.7533 50.838 43.946C50.0361 44.1387 49.7155 43.7852 49.4909 43.3679C49.2653 42.9505 49.0415 43.2391 48.9447 43.7533C48.8488 44.2666 48.7849 44.652 48.7849 44.8447C48.7849 45.0365 48.2068 44.7497 47.9492 44.4921C47.6926 44.2346 47.372 44.9406 47.0816 44.588C46.7948 44.2346 47.4351 43.1423 47.6615 42.7578C47.8729 42.3946 47.784 41.8911 46.5079 42.4816C46.095 43.1734 45.7673 44.176 45.2523 45.7434C44.5463 47.896 42.9469 50.8256 42.2827 51.8921C40.5537 54.6717 40.2446 57.3021 40.5022 58.9396C40.757 60.5683 40.9826 60.4475 41.336 60.4475C41.6895 60.4475 42.5562 61.5389 43.1334 62.2147C43.7115 62.8887 43.9371 62.5992 44.2257 62.3736C45.1537 61.6525 47.0177 60.4475 49.6507 59.1962C50.7741 58.6625 52.2695 58.0933 53.7286 57.6262C53.7508 57.0214 53.8991 56.2923 53.9524 56.0179C54.0163 55.6965 53.6966 55.5997 53.376 56.0179C53.0528 56.4344 52.1878 57.4619 51.6088 57.2052C51.0316 56.9486 50.5512 56.3065 50.8709 55.7604C51.1914 55.2152 50.7439 55.0544 50.5183 54.7658C50.2928 54.4772 50.2928 53.3521 50.9996 53.2553C51.7065 53.1602 51.9303 53.7703 52.4134 53.9311C52.8947 54.0918 53.2792 54.0581 52.6683 53.384C52.0591 52.7109 51.3202 52.9666 51.7065 52.0369C52.091 51.1053 52.6372 51.1702 53.2792 51.362C53.9213 51.5547 54.2419 51.2021 54.6601 50.9126C55.0775 50.6231 55.9114 50.2386 56.4895 50.9126C57.0685 51.5866 56.073 52.1967 55.8474 52.4223C55.414 52.8557 55.3342 53.6735 55.8146 53.1922C56.2977 52.7109 57.1191 50.9686 57.6777 52.4223C57.9991 53.2553 57.3882 53.5767 57.4859 54.0918C57.5809 54.6042 58.4494 55.3111 57.7416 55.9531C57.0365 56.5961 56.0401 56.0508 55.6227 55.6645C55.2063 55.2791 54.756 55.0873 54.9487 55.7942C55.0899 56.3137 55.1618 56.8607 55.1636 57.1982C56.5685 56.8092 57.7922 56.573 58.4147 56.628C59.3321 56.7097 60.0212 56.9806 59.9892 56.1458C59.9572 55.3111 59.5079 54.7329 58.6732 53.3521ZM39.6476 78.9712C39.5064 78.9712 39.2001 78.9214 39.2001 78.7909L38.8297 78.7501C39.0535 78.7953 39.2578 79.052 39.0215 79.2127C38.7649 79.3921 37.9461 79.4889 37.0812 79.4383C36.2145 79.3921 36.0031 78.9214 35.988 78.5804C35.9774 78.3549 36.0031 78.1577 36.0031 77.8327C36.0031 77.5095 35.9259 77.2164 36.1177 77.0868C36.3086 76.958 36.2615 77.2803 36.3885 77.2803C36.9364 77.2803 38.8297 77.4597 39.28 77.5255C39.732 77.5885 39.7 77.3203 39.5996 77.0193C39.5695 76.9216 39.4425 76.958 39.3945 77.0868C39.3448 77.2164 38.9274 77.1685 38.9274 77.1685C38.9274 77.1685 38.0927 77.0868 37.5501 77.053C37.0022 77.0193 36.5812 76.958 36.2473 76.8923C35.9081 76.8248 35.4889 76.8434 35.5245 77.006C35.5511 77.1685 35.6506 79.1958 35.6692 79.4889C35.6834 79.7802 35.7003 79.8956 35.8441 79.8956C36.2145 79.8956 38.7054 79.9276 39.28 79.9276C39.859 79.9276 39.8288 79.8619 39.8421 79.5386C39.859 79.2127 39.7959 78.9712 39.6476 78.9712" fill="#BB9753"/>
</g>
<defs>
<clipPath id="clip0_5_244">
<rect width="98" height="98" fill="white"/>
</clipPath>
</defs>
</svg>
