<svg width="91" height="91" viewBox="0 0 91 91" fill="none" xmlns="http://www.w3.org/2000/svg">
<g clip-path="url(#clip0_2_2540)">
<path d="M0 45.5C0 20.371 20.371 0 45.5 0C70.629 0 91 20.371 91 45.5C91 70.629 70.629 91 45.5 91C20.371 91 0 70.629 0 45.5Z" fill="white"/>
<path d="M76.7703 69.5345C71.8136 63.106 68.9981 55.4639 68.6137 47.3955H84.9148C84.5294 55.4704 81.7186 63.1144 76.7703 69.5345H76.7703ZM47.3958 84.9135V73.61H43.6036V84.9135C33.3354 84.4251 23.8129 80.0218 16.7419 72.4902C22.5203 65.2743 25.7806 56.606 26.1798 47.3955V43.6033C25.7806 34.3928 22.5204 25.7245 16.7419 18.5086C23.8129 10.977 33.3354 6.57276 43.6036 6.08527V17.2876H47.3958V6.08525C57.664 6.57276 67.1874 10.977 74.2585 18.5086C68.4791 25.7245 65.2198 34.3928 64.8205 43.6033V47.3955C65.2198 56.606 68.479 65.2743 74.2585 72.4902C67.1874 80.0218 57.664 84.4251 47.3958 84.9135ZM14.2301 69.5345C9.28079 63.1144 6.47001 55.4704 6.08558 47.3955H22.3866C22.0022 55.4639 19.1859 63.107 14.2301 69.5345H14.2301ZM14.2301 21.4643C19.1868 27.8928 22.0022 35.5358 22.3866 43.6033H6.08558C6.47001 35.5284 9.28079 27.8853 14.2301 21.4643H14.2301ZM76.7703 21.4643C81.7186 27.8844 84.5294 35.5275 84.9148 43.6033H68.6137C68.9981 35.5358 71.8136 27.8928 76.7703 21.4643H76.7703ZM45.4997 2.24005C21.6466 2.24005 2.24036 21.6463 2.24036 45.4994C2.24036 69.3535 21.6466 88.7587 45.4997 88.7587C69.3538 88.7587 88.759 69.3535 88.759 45.4994C88.759 21.6463 69.3538 2.24005 45.4997 2.24005Z" fill="#061922"/>
<path d="M36.2441 27.4551V63.5459H55.5268V58.5836H41.4051V27.4551H36.2441Z" fill="#C8102E"/>
<path d="M62.082 39.5465V24.6754C62.082 22.4468 61.185 21.5378 58.9852 21.5378H32.7382C30.5672 21.5378 29.6804 22.4468 29.6804 24.6754V66.4723C29.6804 68.6999 30.5672 69.609 32.7382 69.609H58.9852C61.185 69.609 62.082 68.6999 62.082 66.4723V51.5845H56.8811V65.0451H34.8424V26.1017H56.8811V39.5465H62.082Z" fill="#1D428A"/>
<path d="M55.5189 57.1873H50.4886L50.5248 47.9178H47.974L47.8929 57.1873H42.8763L42.9974 27.4539H55.5267L55.5189 57.1873ZM47.976 32.4158V42.9734H50.4896V32.4158H47.976Z" fill="#C8102E"/>
</g>
<defs>
<clipPath id="clip0_2_2540">
<rect width="91" height="91" fill="white"/>
</clipPath>
</defs>
</svg>
