<svg width="93" height="93" viewBox="0 0 93 93" fill="none" xmlns="http://www.w3.org/2000/svg">
<path d="M86.1224 22.8869C87.2507 20.7576 87.7885 18.623 87.7885 16.5814C87.7885 11.9287 85.1933 7.76565 81.5461 5.2836C76.4741 1.8312 68.8525 1.35481 63.4655 7.79725C55.6008 6.72249 49.0066 8.88603 46.5 9.91608C43.9934 8.88605 37.3983 6.72249 29.5345 7.79725C24.1475 1.35481 16.5259 1.8312 11.4539 5.28362C7.80587 7.76565 5.21152 11.9287 5.21152 16.5814C5.21152 18.623 5.74934 20.7576 6.87761 22.8869C2.81282 28.7538 0 35.7113 0 42.7968C0 51.3309 3.64367 55.7238 5.01762 57.6137C5.01762 57.6137 5.60807 57.0232 6.11781 56.5143C9.97644 66.3364 16.5847 71.6216 24.5608 76.4391C24.5608 76.4391 24.7371 75.4679 24.895 74.5984C33.4826 82.0411 37.5746 80.2109 46.5 90.3067C55.3929 80.2486 59.5928 81.977 68.105 74.5984C68.2169 75.2119 68.3283 75.8255 68.4392 76.4391C71.9899 74.2949 82.0076 68.9219 86.8831 56.5143C87.3911 57.0232 87.9815 57.6137 87.9815 57.6137C88.8238 56.4564 93 51.7968 93 42.7968C93 35.713 90.1881 28.7547 86.1224 22.8869Z" fill="#707271"/>
<path d="M83.6651 23.0085C91.8571 10.435 73.2798 -2.65689 64.279 10.0087C55.187 8.39781 47.5276 11.7116 46.5002 12.1898C45.4737 11.7116 37.8126 8.39784 28.7206 10.0087C19.7197 -2.65689 1.14343 10.435 9.33445 23.0085C0.00111103 35.8249 0.941645 48.4624 5.26966 54.4074L7.05946 52.6167C7.05946 52.6167 9.60292 64.9699 23.0458 73.0837L23.5301 70.4192C31.8054 79.2586 39.3656 79.0594 46.5002 87.132C53.634 79.0594 61.1951 79.2586 69.4695 70.4192L69.9538 73.0837C83.3967 64.9699 85.941 52.6167 85.941 52.6167L87.7308 54.4074C92.0711 48.4448 93.0064 35.8355 83.6652 23.0085" fill="#12173F"/>
<path d="M46.583 70.0226C46.583 70.0226 40.1282 70.12 39.1746 70.7166C39.1746 70.7166 38.0656 72.6362 46.583 72.6003C54.6845 72.5634 53.4895 71.0868 53.5483 70.8684C53.5483 70.8684 50.8066 70.0226 46.583 70.0226ZM40.9868 62.5222C40.9868 62.5222 41.9932 59.6068 43.0679 60.5289C44.5603 61.8063 46.5002 64.4051 46.5002 64.6832V68.1549L44.1471 68.2777C42.7959 68.3163 38.4364 69.3577 38.4364 69.3577C32.4343 54.4953 35.7622 43.2484 37.3651 39.2354C31.4148 40.5251 30.455 33.3834 30.455 33.3834C31.0727 33.2571 31.9834 33.5273 33.0099 34.0186C34.6005 34.7793 36.471 36.0708 37.9626 37.2289H37.9635C38.3725 37.5469 38.7755 37.8724 39.1725 38.2054C43.2179 41.6095 46.5001 40.919 46.5001 40.919V55.4656C46.5001 55.4656 34.6962 54.5514 40.9868 62.5222H40.9868ZM52.0494 62.5248C59.5613 54.9032 47.3037 55.348 46.5281 55.4673C47.7863 55.5384 57.2889 55.591 52.0494 62.5248Z" fill="#5D76A9"/>
<path d="M57.0408 39.4664C63.8017 57.6725 55.2308 69.3869 55.1825 69.4519C60.5037 55.5194 57.0838 43.9321 54.7553 39.6287C53.5594 39.748 52.1241 39.6787 52.1241 39.6787C52.1241 39.6787 53.9209 38.5688 55.0852 37.5108C55.1659 37.4371 55.2571 37.3546 55.358 37.2651C56.3249 36.407 58.1708 34.8971 60.4116 34.0241C61.2302 33.7048 62.1031 33.4696 63.0042 33.3837C63.0042 33.3837 62.3593 39.3839 57.0408 39.4664Z" fill="#5D76A9"/>
<path d="M15.2043 21.7311C14.9604 19.4298 17.8679 17.1487 17.8679 17.1487C16.6686 15.9107 14.5761 16.9837 14.5761 16.9837C16.4756 13.269 20.7299 15.0851 20.7299 15.0851C19.1173 13.1093 15.7017 13.2339 15.7017 13.2339C19.928 9.04537 25.0298 15.4475 25.0298 15.4475C20.4868 16.4766 15.2043 21.7311 15.2043 21.7311ZM67.7449 15.9072C67.7449 15.9072 70.5033 9.01115 78.9549 10.6764C78.9549 10.6764 71.1955 5.57016 65.7962 14.8008C65.7962 14.8008 58.0501 11.1668 46.4996 16.1607C46.4996 16.1607 35.6449 12.346 27.3952 14.5061C27.3952 14.5061 22.5837 6.15798 15.807 9.59638C9.03204 13.033 12.5669 20.9871 13.747 23.0489C13.747 23.0489 2.51941 34.487 6.74037 48.6309L8.99958 45.8128C8.99958 45.8128 12.2247 61.2149 20.5465 66.0693L21.0457 62.2826C21.0457 62.2826 29.7333 72.7653 39.9493 77.217C40.9214 77.6724 46.3329 80.3623 46.4996 81.6898V74.3551C46.4996 74.3551 39.4132 74.9447 37.5435 71.6739C36.2731 69.4489 28.1251 54.9137 32.1513 39.6906C32.1513 39.6906 28.2313 39.1046 27.4925 32.4919C27.4925 32.4919 24.57 31.0688 20.9369 31.3636C20.9369 31.3636 27.4346 29.3238 33.5244 31.6821C39.6124 34.0387 41.2434 40.0398 45.3687 37.3876L46.4996 20.4817L47.7446 37.3876C51.8699 40.0398 53.5018 34.0387 59.5898 31.6821C65.6795 29.3238 72.179 31.3636 72.179 31.3636C72.179 31.3636 69.5794 29.5308 65.4023 28.6956C61.9157 27.9981 56.791 30.2388 56.791 30.2388C56.791 30.2388 57.4999 25.4423 59.8258 22.8857C61.8236 20.687 66.3472 20.2019 67.7449 15.9072Z" fill="#5D76A9"/>
<path d="M37.9622 37.2288C37.3095 37.0253 36.2321 37.6991 35.6311 38.8686C33.6141 38.286 32.9236 36.1075 33.0087 34.0194L33.0096 34.0186C34.6002 34.7792 36.4707 36.0707 37.9623 37.2288L37.9622 37.2288ZM57.789 38.8691C57.1564 37.6382 55.9948 36.9521 55.3578 37.2653C56.3247 36.4073 58.1715 34.8973 60.4114 34.0244C60.5027 36.1125 59.7946 38.2901 57.789 38.8691Z" fill="#FFBB22"/>
</svg>
