<svg width="90" height="90" viewBox="0 0 90 90" fill="none" xmlns="http://www.w3.org/2000/svg">
<path d="M78.0529 14.1672C69.6264 5.16306 57.3582 0 44.3887 0C43.2805 0 42.1662 0.0356664 41.0639 0.112893C20.1374 1.5329 10.0204 16.3982 8.97153 18.0351C7.42946 19.9957 -5.85199 37.9268 3.04391 62.7053L3.21029 63.24C3.29646 63.5074 11.9576 90 42.9239 90H42.9298C44.5878 90 46.3141 89.9227 48.0523 89.7683C71.1774 87.7393 88.3809 70.6519 89.8903 48.2291C90.749 35.3453 86.5447 23.2486 78.0529 14.1672" fill="#FEFEFE"/>
<path d="M68.9415 55.1657C72.0821 48.2618 70.5014 40.7549 65.2096 34.8314C63.7389 33.1886 61.9056 32.0686 60.1318 30.9843C58.9789 30.2802 57.7845 29.5524 56.7149 28.688C56.2127 28.281 55.7997 27.7344 55.3629 27.1521C54.8192 26.4302 54.2042 25.6103 53.3217 24.9716C48.4162 21.4246 42.646 20.1265 36.9472 18.4421C34.2552 17.6489 31.6346 17.0607 29.1685 16.1843C32.211 14.0692 36.1271 12.7027 40.3968 12.2868C41.7398 12.1561 43.0798 12.0878 44.3872 12.0878C56.9763 12.0878 67.9699 18.4272 73.7995 29.0444C79.635 39.6825 79.2517 52.5901 72.7893 62.735C66.1515 73.1562 54.3765 78.6995 41.0505 77.6003C33.0786 76.9468 24.5838 72.7165 21.9692 68.2397C23.5885 67.2445 38.1446 59.5296 48.1042 62.637C50.9596 62.6459 46.3928 69.5587 46.3928 69.5587C46.3928 69.5587 63.0139 68.1862 68.9415 55.1657V55.1657ZM75.8407 16.1635C67.1647 6.89499 54.3171 2.13596 41.205 3.02419C20.3914 4.44122 11.1598 19.9155 11.1598 19.9155C11.1598 19.9155 27.6502 24.9122 29.9232 25.6163C31.4653 26.0975 41.7606 28.6404 46.4017 31.1952C47.3703 31.727 48.3211 32.7934 49.257 33.7886C49.9523 34.5254 50.606 35.2235 51.2864 35.782C52.5046 36.7801 53.699 37.6446 54.8519 38.4794C57.7132 40.547 60.1823 42.3294 61.3292 45.0446C62.3246 47.4033 62.3632 49.8482 61.4391 52.1208C60.6369 54.0992 59.1275 55.8608 57.2527 57.0669C57.4428 56.0658 57.6983 54.634 56.3464 53.7427C55.77 53.3655 52.6561 52.6317 50.5733 52.4238C49.5779 52.3198 38.4358 51.7999 22.9645 60.1505C27.6056 53.9655 30.9275 52.9347 30.9275 52.9347C30.8027 52.1891 5.9007 62.2746 5.9007 62.2746C5.9007 62.2746 14.4906 89.7861 47.7387 86.8629C69.3694 84.9588 85.4854 69.1428 86.8997 48.0301C87.7079 35.9691 83.7799 24.6508 75.8407 16.1635" fill="#C8102E"/>
<path d="M44.3038 34.2417C38.9585 34.4526 34.0441 28.03 29.92 32.2365C30.7193 32.4385 32.3445 31.8177 32.5971 32.5692C30.4786 40.8723 44.2117 43.0112 44.3038 34.2417Z" fill="#C8102E"/>
</svg>
