<svg width="98" height="98" viewBox="0 0 98 98" fill="none" xmlns="http://www.w3.org/2000/svg">
<path d="M17.0495 39.8456C17.0248 39.8319 16.9973 39.8181 16.9698 39.8043C15.2868 38.8785 14.8056 38.1593 14.7699 38.0215C14.8991 36.5336 22.8931 32.4995 40.0717 31.4332C39.068 32.8109 38.2293 34.5882 37.9185 36.8394L37.7315 38.1951C37.6298 38.895 37.4978 39.7051 37.2118 40.4574C36.7525 41.6587 35.4271 42.9152 33.3674 44.1028C26.1654 43.1632 20.3824 41.6532 17.0495 39.8456V39.8456ZM72.7268 34.9161C73.2272 34.7342 73.571 34.2824 73.6232 33.7671C78.3943 34.9464 81.8977 36.4344 83.1984 37.87C83.4239 38.1207 83.4816 38.2668 83.4926 38.2695C83.4348 38.4707 82.9014 39.2147 81.1414 40.1377C78.4713 41.5458 74.3684 42.7334 69.2756 43.5986C70.0978 42.5736 70.6698 41.1876 70.7331 39.2367C70.7853 37.4759 70.9063 36.9386 70.9695 36.7898C71.338 36.0569 72.24 35.0925 72.7268 34.9161ZM93.285 31.1962C89.9219 27.4791 82.9481 24.3627 73.5352 22.3511C73.6837 22.2437 73.8597 22.1197 74.0659 21.9764C74.7122 21.53 75.5151 20.9707 76.3181 20.2074C79.5987 17.0855 77.4868 12.6271 75.7214 10.4889L73.6699 7.98138C73.2767 7.50193 72.6112 7.34212 72.0475 7.59559C71.481 7.84913 71.1538 8.44981 71.2473 9.06428L71.7395 12.2716C71.8908 13.2581 71.855 13.6962 70.8706 14.5256C70.8156 13.7238 70.6973 12.8641 70.4691 11.9217C69.8833 9.49139 68.6459 8.4195 68.5084 8.30379C68.1097 7.98412 67.5734 7.89873 67.1032 8.09986C66.941 8.16598 66.7952 8.26518 66.6715 8.38367L66.622 8.09986C66.2122 5.71363 66.7732 4.39102 66.776 4.31384C66.9134 4.23119 67.0372 4.12649 67.1362 4.00249C67.6092 3.42383 68.5496 2.47043 68.5551 2.46216C68.8714 2.13703 69.0116 1.67963 68.9264 1.23873C68.8411 0.795092 68.5469 0.420367 68.1344 0.23574C67.8677 0.120028 67.0675 -0.130721 65.379 0.0841961C62.1974 0.525066 59.0322 2.38503 59.134 5.54556C59.1752 6.904 59.6015 8.15774 59.948 9.17449C60.0882 9.59334 60.2862 10.1775 60.3522 10.5329C60.1762 10.6101 59.8599 10.7176 59.3265 10.814C54.4042 11.7095 50.6066 14.0655 48.6294 17.4409C48.1619 18.24 47.8016 19.0859 47.5514 19.9677C36.6068 20.0862 26.2094 21.5135 18.1605 24.01C8.3516 27.0492 2.93154 31.3615 2.48056 36.4702C2.24131 39.1402 3.29727 43.053 9.60279 46.6765C9.71554 46.7949 9.84753 46.8941 10.0015 46.9658L12.5754 48.1975C12.6442 48.2333 12.7184 48.2608 12.7927 48.2801C14.7589 49.1481 16.9615 49.9362 19.3732 50.6388C19.0047 50.9254 18.6527 51.2147 18.3172 51.5123C12.2482 56.508 8.76682 63.8899 8.76682 71.765C8.76682 78.7749 11.4892 85.366 16.4336 90.3176C21.3779 95.2719 27.9529 97.9999 34.9459 97.9999C47.3149 97.9999 58.1 89.2044 60.5474 77.2401C62.6319 70.9962 62.3899 64.3721 62.2991 61.8839C62.1341 57.2382 64.2543 54.5792 65.7227 53.3006C73.5435 52.2783 80.3577 50.5534 85.4698 48.2994C85.544 48.2801 85.6183 48.2526 85.687 48.2168L86.4955 47.831C86.5065 47.8255 86.5175 47.8227 86.5285 47.8172L88.3159 46.963C88.4617 46.8941 88.5909 46.7922 88.6982 46.6765C93.043 44.1552 95.4877 41.0994 95.7792 37.8231C95.9854 35.4865 95.1467 33.2573 93.285 31.1962" fill="#FEFEFE"/>
<path d="M13.3998 37.9011C13.6775 34.7295 25.0841 30.5412 43.5194 29.8882C41.809 31.1722 39.7796 33.4179 39.2791 37.0303L39.0921 38.3971C38.9683 39.2402 38.8198 40.0999 38.4954 40.9514C37.7859 42.8168 35.7839 44.3544 33.6418 45.5282C26.2198 44.5913 20.016 43.0262 16.3944 41.0588H16.3889C14.4062 39.9814 13.3173 38.8324 13.3998 37.9011V37.9011ZM84.2179 36.9477C84.9219 37.7247 84.8752 38.2262 84.8614 38.3943C84.7844 39.2898 83.6625 40.37 81.787 41.3592H81.7815C77.8382 43.4368 71.0624 45.0074 62.9942 45.8341C63.3462 45.6054 63.734 45.4042 64.1519 45.2334L64.2839 45.181C66.6021 44.2359 69.231 43.1668 69.3547 39.3256C69.374 38.7167 69.407 36.8402 69.7425 36.1706C70.1742 35.3109 71.2824 33.9773 72.2586 33.6246C72.2724 33.6163 70.6279 33.2967 70.6279 33.2967C70.5399 33.2884 70.4574 33.2829 70.3722 33.2829C70.9249 32.8806 71.3182 32.4011 71.6069 31.8969C78.1599 33.2636 82.568 35.1263 84.2179 36.9477V36.9477ZM92.2669 32.1228C88.802 28.2955 81.1628 25.1901 71.3209 23.3108C71.3649 22.1784 72.0524 21.6989 73.2788 20.8502C73.9196 20.4066 74.6428 19.9023 75.3715 19.2107C78.5476 16.188 74.8188 11.5587 74.6593 11.3631L72.6079 8.85565L73.1001 12.063C73.4356 14.2591 72.6326 15.0362 70.2512 16.7032C69.946 16.9126 69.6875 17.1469 69.4592 17.3949C69.5582 15.9289 69.6269 14.295 69.1347 12.2476C68.6398 10.1976 67.636 9.36815 67.636 9.36815L67.3748 12.3413C67.3721 12.3579 67.1438 14.6614 64.0749 17.4472C64.3389 17.1496 64.5864 16.841 64.8064 16.5186C66.3106 14.3253 65.8761 11.8288 65.3729 8.94109L65.2684 8.33212C64.7514 5.32039 65.5544 3.44115 66.0714 3.13255C66.5746 2.51809 67.5756 1.49582 67.5756 1.49582C67.5756 1.49582 67.0448 1.25883 65.5681 1.45172C63.6487 1.71623 60.4231 2.86802 60.5083 5.4995C60.5441 6.65679 60.9181 7.75624 61.2453 8.72615C61.5973 9.76221 61.93 10.7459 61.6358 11.2502C61.3993 11.6497 60.6871 11.9666 59.5734 12.1705C55.0498 12.9944 51.5849 15.1161 49.8167 18.1416C49.231 19.1418 48.8405 20.2137 48.6453 21.3379C37.4257 21.371 26.8028 22.7735 18.5669 25.3279C9.33543 28.1908 4.24812 32.087 3.8494 36.595C3.63767 38.9674 4.70736 42.3898 10.6334 45.6798L10.5921 45.7239L12.2751 46.5285C12.2765 46.53 12.2785 46.531 12.2806 46.5312L13.166 46.9583L13.1798 46.9445C15.9104 48.168 19.1141 49.2261 22.6834 50.0968C21.413 50.816 20.2415 51.6426 19.1911 52.5795C13.4493 57.3024 10.1412 64.304 10.1412 71.7658C10.1412 78.4065 12.7206 84.6504 17.4064 89.3457C22.0922 94.041 28.3208 96.6257 34.948 96.6257C46.6763 96.6257 56.884 88.2959 59.2434 76.8056C61.2453 70.8014 61.0143 64.3619 60.9263 61.9343C60.7283 56.4151 63.4315 53.362 65.1502 51.987C72.9874 50.9923 79.9226 49.2729 85.0869 46.9666L85.0952 46.9748L85.9311 46.5781L85.9367 46.5726L87.7241 45.7211L87.6746 45.6743C91.8297 43.3487 94.1506 40.6152 94.4091 37.7027C94.5796 35.7628 93.8591 33.8864 92.2669 32.1229" fill="#2D2925"/>
<path d="M11.0973 73.5233C11.7463 76.794 13.6134 80.7123 17.3231 83.3272C18.445 84.1153 19.666 84.7546 20.9612 85.2478C20.1582 83.8783 19.226 82.4978 18.2773 81.0925C16.5008 78.4721 14.6666 75.758 13.5034 72.8427C12.299 69.8254 11.969 66.6704 12.4942 63.4989C11.5483 66.0752 11.0258 68.8583 11.0258 71.7653C11.0258 72.3577 11.0533 72.9446 11.0973 73.5233" fill="#8B2231"/>
<path d="M15.0941 72.2026C16.1913 74.9498 17.9733 77.5813 19.6947 80.1301C21.0284 82.0975 22.3291 84.0236 23.319 85.969C24.408 86.2252 25.5382 86.3878 26.6904 86.4567C25.4997 84.7565 24.4658 82.8222 23.5803 80.6096C20.1374 72.0345 20.6352 61.4343 24.903 55.3006C27.1112 52.1373 29.7483 49.9853 33.1445 48.1308C36.0648 46.5299 37.8935 46.0532 39.7525 44.9428C41.7736 43.7359 42.8543 41.7161 41.5261 37.1861C41.1357 35.8635 41.0669 34.8191 41.1467 34.0063C40.6847 34.9018 40.3244 35.9406 40.1567 37.1503L40.1677 37.1393C39.9587 38.4206 39.8707 39.8286 39.3262 41.2642C37.5388 45.954 28.8848 48.5579 27.7436 48.9051C24.4603 49.8971 21.8286 51.4126 19.7799 53.2422C13.8539 58.5245 12.7952 66.4492 15.0941 72.2026" fill="#8B2231"/>
<path d="M51.19 29.8226C51.278 30.1119 51.3495 30.3985 51.3853 30.6796C51.6108 32.3191 51.1158 33.6417 49.1111 33.9641C47.0459 34.2975 46.342 32.4982 46.1825 31.0295C46.1659 30.5197 46.2045 30.1119 46.2457 29.8171C45.8992 29.8226 45.5555 29.8281 45.2117 29.8392C44.549 30.2167 43.6883 30.8063 42.8606 31.6523C42.4481 32.5395 41.9504 33.7657 42.7148 36.6424C44.0623 41.7152 43.4903 44.7765 39.4259 46.529C34.2424 48.7637 30.9315 50.0753 26.4877 55.6744C24.373 58.339 23.218 62.7533 23.0283 67.1978C22.844 71.5101 23.7295 76.1173 25.2447 79.8923C26.2594 82.419 27.4446 84.6152 28.8361 86.4806C30.2248 86.4282 31.63 86.2491 33.0352 85.9405C31.4925 84.1274 30.6043 81.9231 30.4448 79.4486C29.9141 71.2236 34.3359 67.7627 41.1391 62.2986L44.1833 59.7388C56.3323 49.4002 52.7877 38.8854 54.1242 29.908C53.1644 29.8695 52.1855 29.8419 51.19 29.8226" fill="#8B2231"/>
<path d="M56.057 29.9951C55.6858 31.7889 55.5181 33.6598 55.3998 35.5969C54.9186 43.4169 55.1524 52.2703 45.2747 61.063L42.2855 63.485C35.6748 68.7976 31.8937 72.1152 32.1549 79.34C32.2402 81.7235 33.2439 83.8094 34.9186 85.4489C36.7665 84.8923 38.5952 84.1153 40.3524 83.1123C48.9458 78.2268 54.3521 70.9221 56.4173 61.5507C57.7262 55.6264 57.6987 50.8071 57.6768 46.9329C57.6657 44.9738 57.9187 41.1327 57.9187 41.1327C58.1937 38.7079 58.5842 35.3076 61.3918 30.852C61.4826 30.7087 61.5816 30.5627 61.6751 30.4166C59.8849 30.2403 58.0122 30.0998 56.057 29.9951Z" fill="#8B2231"/>
<path d="M58.9491 55.1357V55.1055C58.9491 55.1192 58.9463 55.1358 58.9463 55.1496C58.6768 56.5521 58.6081 58.1282 58.4376 59.6988C58.3551 60.2995 58.2754 60.8809 58.1874 61.4458C58.1571 61.6056 58.1268 61.7654 58.0911 61.9225C55.9214 71.7898 50.3061 79.4721 41.2755 84.6083C39.7245 85.4901 38.1488 86.2147 36.5676 86.7769C39.2158 88.5376 42.3039 89.0804 44.4268 88.7608C52.5363 87.5401 56.4879 82.2386 58.3908 76.5678C60.3433 70.7483 60.1343 64.5374 60.0408 61.9666C59.7328 53.3778 66.3628 50.209 66.3628 50.209C61.2067 49.9279 59.5155 52.1792 58.9491 55.1358" fill="#8B2231"/>
<path d="M53.5338 86.815C50.2174 89.5926 46.6425 90.2015 45.0173 90.4523C41.8247 90.9428 38.0436 90.1822 34.6997 87.5397C34.6447 87.4957 34.5925 87.4488 34.5402 87.4047C33.1075 87.7877 31.6721 88.044 30.2421 88.1625C33.5145 91.684 37.8236 93.6845 43.6011 94.0785C43.6259 94.0785 43.6534 94.0812 43.6754 94.0812H43.6809C47.6132 92.5354 51.0396 89.9783 53.6383 86.7241C53.6025 86.7572 53.5695 86.7848 53.5338 86.815V86.815ZM23.355 92.7302C23.4182 90.9199 22.9095 89.1398 22.079 87.3598C20.0964 86.7867 18.1522 85.9325 16.2823 84.7945C15.229 84.1525 14.2803 83.1715 13.4416 82.2594C13.4389 82.2539 13.4333 82.2539 13.4306 82.2484C15.5865 86.682 19.0651 90.3495 23.355 92.733V92.7302V92.7302ZM39.8923 95.1983C36.6585 94.4488 33.8921 93.2998 31.4639 91.4564C30.2237 90.5112 29.0935 89.4476 28.065 88.2407C26.7561 88.2242 25.4554 88.0975 24.1684 87.855C24.8834 89.7039 25.2436 91.5886 25.0126 93.5671V93.5698C28.0403 94.9558 31.4007 95.7356 34.948 95.7356C36.6557 95.7356 38.3221 95.5538 39.9281 95.2121C39.9143 95.2093 39.9034 95.2011 39.8924 95.1983L39.8923 95.1983ZM67.6837 36.3301C67.1254 38.1984 65.2913 37.9779 64.7605 36.9694C63.9163 35.3768 64.2353 34.1451 65.1153 33.3046C65.9925 32.4642 67.4307 32.0151 68.8249 31.3841C68.831 31.38 68.8374 31.3763 68.8441 31.373C67.2327 31.0975 65.5167 30.8495 63.7018 30.6346C63.6771 30.6649 63.6523 30.6924 63.6276 30.72C63.4653 30.9046 63.3058 31.0865 63.1491 31.2766C60.2644 35.6247 59.9042 38.8459 59.621 41.3231L59.533 42.0863C59.3735 43.3869 59.3817 45.0264 59.39 46.9222C59.3927 47.1812 59.3955 47.4512 59.3955 47.7268C59.3735 48.3881 59.3487 49.0411 59.3185 49.6776C59.335 49.6832 59.3459 49.6859 59.3597 49.6887C59.3817 49.4241 59.3927 49.3222 59.39 49.4572C60.2067 46.8533 61.7054 45.2689 63.8173 44.4092C66.1052 43.4806 68.3629 42.6236 68.4674 39.295C68.5141 37.9063 68.6159 36.5148 68.9321 35.8066C69.5096 34.5198 70.5436 34.1781 70.5436 34.1781C69.4326 34.0707 68.2199 34.5363 67.6837 36.3301" fill="#8B2231"/>
<path d="M70.4523 23.1468C70.6201 20.9204 72.7238 20.5043 74.7587 18.5645C77.3738 16.079 73.975 11.9265 73.975 11.9265C74.404 14.7178 73.1142 15.7842 70.7548 17.4292C70.0068 17.9527 69.4624 18.6857 69.3881 19.6088C69.3056 20.6448 69.2369 21.7636 69.0114 22.8961C69.4981 22.976 69.9766 23.0614 70.4523 23.1468V23.1468ZM63.2542 19.2668C62.6245 19.7353 62.036 20.2175 61.486 20.7107C61.0955 21.0854 60.7133 21.4602 60.3613 21.8184C62.6575 22.0168 64.8904 22.2758 67.0436 22.5899C68.4185 20.0824 69.0757 17.236 68.259 12.3919C68.259 12.3919 68.0693 15.6737 63.2542 19.2668ZM50.4188 21.3414C53.0449 21.3662 55.6216 21.4737 58.135 21.6445C58.2202 21.5619 58.2972 21.4764 58.3852 21.3938C60.0737 19.5807 62.6806 18.0486 64.0775 16.0151C65.4717 13.9788 64.9107 11.4934 64.3938 8.48163C63.5055 3.29032 65.689 2.32867 65.689 2.32867C65.689 2.32867 61.3111 2.93212 61.3936 5.4699C61.5064 8.87568 65.0097 12.0803 59.7327 13.0419C53.9414 14.0973 50.3418 17.2358 49.5498 21.3386C49.8385 21.3414 50.1273 21.3386 50.4188 21.3414" fill="#F9A11A"/>
<path d="M50.4039 22.7016C26.1443 22.4619 5.90501 28.7361 5.20104 36.7159C4.92057 39.893 7.78321 42.8634 12.8623 45.302C16.0027 46.8092 19.9873 48.1098 24.5988 49.1348C25.5201 48.7243 26.4853 48.3578 27.5027 48.0492C28.3057 47.8067 29.7879 47.319 31.4213 46.6081C24.6291 45.6133 19.1293 44.0868 15.7469 42.2544C13.25 40.8987 11.9053 39.3777 12.0483 37.7795C12.5213 32.4229 29.5047 28.2428 49.9859 28.444C70.4644 28.6479 86.6861 33.1531 86.2131 38.5125C86.0839 39.9701 84.7309 41.3424 82.4155 42.563C78.1366 44.8143 70.5799 46.5474 61.4008 47.3548C61.0845 47.7902 60.804 48.2724 60.5758 48.8207C64.7501 47.2335 69.5597 49.5785 69.5597 49.5785C69.5597 49.5785 69.8815 49.7024 70.1069 49.8568C76.198 48.7684 81.431 47.2198 85.3524 45.346C89.9915 43.1334 92.8046 40.4689 93.0576 37.5811C93.7616 29.604 74.6663 22.9386 50.4039 22.7016" fill="#FEFEFE"/>
</svg>
