<svg width="105" height="105" viewBox="0 0 105 105" fill="none" xmlns="http://www.w3.org/2000/svg">
<path d="M102.598 18.0083C100.238 24.2216 97.1481 30.7161 95.6029 33.3871C92.9904 37.8574 87.7931 40.5284 84.7595 41.5685C84.7595 41.5685 83.2707 45.1672 81.7256 47.1354H87.9339V55.5697L93.8894 58.4093L87.9339 61.3894V68.5307L82.1751 72.0732C82.1751 72.0732 77.5959 71.5109 75.3486 71.2579L57.1449 81.8009C53.5491 98.3042 52.6221 103.055 52.6221 103.055C52.6221 103.055 51.7512 98.5292 48.0994 81.8009L29.8937 71.2594C27.6744 71.5124 23.0672 72.0747 23.0672 72.0747L17.3084 68.5323V61.391L11.3529 58.439L17.3084 55.5994V47.1087H23.5167C21.9997 45.225 20.4547 41.4858 20.4547 41.4858C18.6568 40.8672 16.8589 40.0519 15.3137 39.0679C12.8416 37.5216 10.847 35.4692 9.55491 33.3606C7.25136 28.9467 4.30158 22.3957 2.72842 17.9818C1.66092 15.3109 0.368683 11.2343 0.368683 11.2343C0.368683 11.2343 3.76781 12.8368 4.77905 13.3429C3.17782 8.4508 1.7451 1.98465 1.7451 1.98465C1.7451 1.98465 25.0334 17.3634 41.3813 30.4366L41.6341 30.2398V29.3682C41.6341 29.1714 41.6341 28.8621 41.7465 28.4404C41.9431 27.8781 42.3645 27.2596 43.2916 26.6411C42.1117 25.7133 39.8924 24.2795 39.6958 24.0265C38.1507 22.6489 37.8417 21.1026 37.9541 20.3716L38.2069 18.6285L47.056 25.2071C51.8879 23.8295 55.2869 24.4761 57.8434 25.2071L66.6925 18.6285L66.9454 20.3716C67.0577 21.1869 66.833 22.677 65.2036 24.0265C65.007 24.2233 62.8439 25.7133 61.6078 26.6411C62.5911 27.2596 62.9843 27.8781 63.1529 28.4404C63.2653 28.8622 63.2653 29.1714 63.2653 29.3682V30.2398L63.5181 30.4366C80.2891 17.054 103.213 2.01267 103.213 2.01267C103.213 2.01267 102.033 7.35462 100.179 13.3709C101.106 12.9492 104.589 11.2623 104.589 11.2623C103.971 14.5236 102.594 18.0098 102.594 18.0098L102.598 18.0083Z" fill="#A1A1A4"/>
<path d="M25.85 48.1183H18.4057V56.1873L13.939 58.3521L18.4057 60.7137V67.855L23.3499 70.8914C25.1478 70.6383 27.4512 70.3291 30.1764 70.0761L49.1947 81.0409L52.6781 96.982C52.6781 96.9257 56.2178 81.0409 56.2178 81.0409L75.2361 70.0761C77.9048 70.3853 80.2646 70.6383 82.0625 70.8914L86.9508 67.855V60.7137L91.4175 58.4083L86.9508 56.1873V48.1183H79.5065C79.5065 48.1183 80.6863 46.9937 82.119 44.5196C82.737 43.4794 83.2989 42.158 83.9731 40.668C89.3668 39.0654 93.3277 35.5793 95.0696 32.2336C99.7047 23.7992 103.188 13.3967 103.188 13.3967C103.188 13.3967 101.194 14.3807 98.7777 15.5615C100.688 9.60118 101.924 4.51255 101.924 4.51255C101.924 4.51255 80.602 18.6543 63.9435 31.9243L62.5108 31.0527C62.5108 30.9403 62.5669 29.7595 62.5669 29.6189C62.5669 29.6189 62.7636 28.2413 60.2634 27.3978C60.0667 27.3416 59.9544 27.2854 59.842 27.2854C61.0218 26.3576 62.9321 24.98 64.2524 24.0522C66.4154 22.5621 66.1626 20.9033 66.1626 20.9033L58.2408 26.8072C52.1729 24.811 47.0883 26.8072 47.0883 26.8072L39.1665 20.9033C39.1665 20.9033 38.9137 22.5058 41.0768 24.0522C42.4533 24.9799 44.3636 26.3576 45.5436 27.2854C45.4312 27.3416 45.2345 27.3978 45.1222 27.3978C42.65 28.2694 42.8186 29.6189 42.8186 29.6189C42.8186 29.7313 42.8748 30.9122 42.8748 31.0527L41.4421 31.7837C24.7761 18.5452 3.48246 4.43188 3.48246 4.43188C3.48246 4.43188 4.66233 9.52052 6.62879 15.4808C4.01623 14.2438 2.21841 13.316 2.21841 13.316C2.21841 13.316 5.67373 23.7466 10.281 32.1529C11.9665 35.5548 15.9838 38.9849 21.3775 40.5873C21.3775 40.5873 22.3045 42.6959 23.063 44.1859C24.0462 46.0977 25.8441 48.122 25.8441 48.122L25.85 48.1183Z" fill="#1D1160"/>
<path d="M97.7376 10.3326C82.3987 19.7227 68.7201 30.2661 61.5814 36.0295C61.5269 36.2824 61.387 36.5357 61.3286 36.7042C68.8328 31.8125 81.8388 23.3213 96.4467 13.8188C96.4467 13.8188 96.4467 14.1282 97.7376 10.3326ZM7.50446 10.3606C8.74051 14.0717 8.79689 13.8468 8.79689 13.8468C23.4048 23.2653 36.4956 31.8405 43.9978 36.7326C43.8578 36.5357 43.7995 36.2824 43.7451 36.0295C36.6923 30.2661 22.9829 19.7227 7.50446 10.3606ZM52.8563 27.6305C51.647 27.6235 50.3756 27.7636 49.1081 28.073C50.43 29.9283 50.2356 32.5433 50.2356 32.5433C49.7263 30.1817 48.1827 29.0851 47.2573 28.5788C46.8918 28.6913 46.468 28.8042 45.9625 29.0007C46.9462 29.3945 48.1282 30.3786 48.9409 32.2339C49.3336 33.1616 49.5591 36.7046 51.5537 37.5763C49.8974 39.1223 47.8444 38.7005 46.3008 37.323C48.2099 41.4839 51.441 43.0871 52.6774 43.593C53.7739 42.7486 54.3338 40.1908 53.8011 37.5763C55.7957 36.7046 56.0485 33.1616 56.414 32.2339C57.2305 30.2941 58.4086 29.4225 59.3923 29.0007C58.9724 28.8882 58.5214 28.6913 58.1014 28.5788C57.1722 29.0571 55.6286 30.2377 55.1231 32.5433C55.1231 32.5433 54.952 29.9283 56.2468 28.073C55.2203 27.7916 54.0694 27.6375 52.8563 27.6305ZM80.8551 41.0909L79.4204 41.5111C74.5912 42.803 65.489 44.0405 65.489 44.0405C69.871 44.0988 73.662 44.4646 75.7694 44.7176C76.2204 44.1533 76.7531 43.5346 76.9514 42.9743C76.9514 42.9743 76.7531 44.632 76.3876 45.7021C75.9715 47.0718 75.3844 48.2275 75.1667 48.4843C75.54 48.2081 78.9149 45.6048 80.8551 41.0909ZM75.1667 48.4843C75.1473 48.4999 75.0967 48.5388 75.0967 48.5388C75.1084 48.5427 75.1356 48.5232 75.1667 48.4843ZM24.4181 41.1181C26.5251 45.955 30.1773 48.5699 30.1773 48.5699C30.1773 48.5699 29.4467 47.2741 28.8848 45.7293C28.5197 44.6903 28.323 43.0015 28.323 43.0015C28.5197 43.5074 29.0816 44.1845 29.503 44.7448C31.6101 44.4919 35.3742 44.1845 39.7854 44.0716C39.7854 44.0716 30.6267 42.7758 25.8509 41.5384L24.4181 41.1181ZM31.9748 65.8589C31.3006 65.9173 30.6831 65.9718 30.0649 66.0574L43.0164 73.5637C42.3127 72.8049 41.7528 72.0733 41.2745 71.2561L31.9748 65.8589ZM73.3567 65.8589L64.0562 71.2561C63.6363 72.0733 63.0725 72.8049 62.3143 73.5637L75.2658 66.0574C74.6476 65.9718 74.0294 65.9173 73.3567 65.8589ZM51.8667 66.3103C49.2539 66.3648 47.2864 66.6761 45.91 67.038C46.2172 67.4038 46.5827 67.7151 46.8937 68.0225C48.4374 69.5128 49.8138 70.1899 49.8138 72.2406C49.8138 72.8593 49.5066 73.4236 49.0828 73.8438C48.8301 74.2096 48.3246 74.4626 47.9047 74.7155C47.7919 74.8011 47.5936 74.8556 47.4847 74.9101C49.2228 75.9802 50.4592 76.4004 50.9647 76.5989C50.9647 76.5989 49.9848 76.7662 48.8028 76.6533C49.1955 77.2721 49.561 77.8363 49.9265 78.5095C50.2376 78.3966 51.2174 77.8363 52.5938 77.8363C54.0286 77.8363 54.9539 78.3966 55.1522 78.5095C55.4594 77.8363 55.9104 77.2721 56.2759 76.6533C55.1522 76.8518 54.1141 76.5989 54.1141 76.5989C54.6196 76.4004 55.9104 76.0346 57.594 74.9101C57.4852 74.8283 57.2869 74.77 57.1741 74.7155C56.8086 74.517 56.3615 74.2096 55.996 73.8438C55.5722 73.4236 55.265 72.9177 55.265 72.2406C55.265 70.2444 56.6414 69.5128 58.185 68.0225C58.4961 67.7151 58.8033 67.3493 59.1687 67.038C57.7379 66.6761 55.8249 66.3648 53.212 66.3103L52.5394 74.9412H52.4811L51.8667 66.3103ZM45.1246 67.182C43.8298 67.6878 43.0717 68.1665 42.6517 68.4739C43.5771 69.3455 45.319 70.4701 48.4101 71.1433C48.0719 70.2172 47.0881 69.2054 46.05 68.1081L45.1246 67.182ZM60.1797 67.2364L59.2543 68.1626C58.2434 69.2054 57.2596 70.2172 56.8942 71.2017C60.0397 70.5246 61.7272 69.4 62.6526 68.5283C62.2871 68.1665 61.4705 67.6567 60.1797 67.2364ZM42.7062 69.6257C43.5771 71.3145 44.8136 72.8593 46.3572 73.8438C46.4155 73.8711 48.1574 73.3107 48.5229 72.5519C44.4208 71.6219 42.7062 69.6257 42.7062 69.6257ZM62.6526 69.6529C62.6526 69.6529 60.9651 71.7075 56.8358 72.5792C57.2013 73.3107 59.0016 73.8711 59.0016 73.8711C60.5452 72.7465 61.8399 71.3417 62.6526 69.6529Z" fill="#00788C"/>
<path d="M96.5867 13.7907C81.9788 23.2652 68.9417 31.7844 61.4725 36.6761C61.1615 37.4913 60.8543 38.1661 60.4888 38.8408L89.9846 22.7877L67.0054 39.4031L68.1291 39.2062L80.2641 38.0252C80.2641 38.0252 88.4954 37.21 93.1029 31.0808C95.2648 27.7351 98.9158 18.1205 98.9158 18.1205L93.4956 20.8471C95.2375 16.7426 96.5867 13.7907 96.5867 13.7907ZM8.79925 13.8467C8.79925 13.8467 10.0913 16.7426 11.8892 20.8471L6.58026 18.1765C6.58026 18.1765 10.232 27.7915 12.367 31.1373C16.9742 37.266 25.2047 38.0813 25.2047 38.0813L37.3409 39.2626L38.4642 39.4592L15.485 22.8438L44.8983 38.8969C44.5329 38.2221 44.2218 37.5478 43.9146 36.7325C36.4419 31.8404 23.4072 23.3212 8.79925 13.8467ZM48.1283 34.6235C48.1555 34.6235 46.1608 37.9696 49.8702 37.7727C49.8702 37.7727 48.381 36.7882 48.1283 34.6235ZM57.3122 34.6235C57.0594 36.7882 55.5703 37.7727 55.5703 37.7727C59.2251 37.9696 57.3122 34.6235 57.3122 34.6235ZM32.7042 46.4607V49.6944L33.1541 50.1147H35.3731V48.9356H34.5025V49.2975H33.6595V47.3324H34.5025V47.5853H35.3731V46.4607H32.7042ZM37.4241 46.4607V50.1147H38.295V48.9356H39.3332V50.1147H40.2041V46.4607H39.3332V48.1184H38.295V46.4607H37.4241ZM42.1988 46.4607V50.0602H43.1281V48.8772H44.1934V50.0602H45.0372V46.881L44.6172 46.4607H42.1988ZM45.0372 50.0602V50.1147L45.0644 50.0602H45.0372ZM52.2303 46.4607V50.1147H54.4777V49.2975H53.1557V46.4607H52.2303ZM56.274 46.4607V49.6944L56.6939 50.1147H59.1124V46.881L58.6886 46.4607H56.274ZM61.107 46.4607V47.3324H61.9197V50.1147H62.9034V47.3324L63.6344 47.274V46.4607H61.107ZM65.489 46.4607V47.3324H66.3016V50.1147H67.2854V47.3324L67.9619 47.274V46.4607H65.489ZM70.0654 46.4607V50.1147H72.7366V49.2975H70.9364V48.7371H72.7366V47.8927H70.9364V47.3324H72.7366V46.4607H70.0654ZM47.1445 46.5425V50.1419H48.0699V48.8772H48.7465L49.3064 50.1147H50.2357L49.6447 48.8772H50.0101V46.9666L49.5863 46.5425H47.1445ZM43.1281 47.2468H44.1934V48.1184H43.1281V47.2468ZM48.0699 47.274H49.1392V48.0056H48.0699V47.274ZM57.145 47.3052H58.1831V49.2975H57.145V47.3052ZM75.9677 50.0602L76.9514 51.1848V57.0878L82.0916 59.3098V62.5979C82.0916 62.5979 80.9096 62.4851 79.4204 62.2321V61.1932L76.9514 60.8818V64.2283C79.6731 64.5358 82.2043 64.9015 84.5606 65.3529C84.5061 63.4968 84.5061 60.769 84.5061 59.4187C85.3227 59.0568 86.0498 58.6911 86.8118 58.298C84.3389 57.1151 81.8661 56.1306 79.3076 55.1461V52.3093H81.9788V53.3483H84.5061V50.0602H75.9677ZM20.6543 50.1147V57.4264C20.6543 57.4264 18.6033 58.407 18.6033 58.4654L20.6543 59.5316V65.493C21.4689 65.3802 22.2555 65.1856 23.1264 65.0728V59.3642L25.9633 58.1852V64.5669C26.7782 64.454 27.5644 64.314 28.4354 64.2556V50.1147H25.9633V55.2045L23.1264 56.3835V50.1147H20.6543ZM39.0816 52.2237L40.0653 53.4028V63.1894C40.9363 63.131 41.6673 63.131 42.5382 63.0765V59.2786H42.511C43.1292 59.2786 43.6891 59.2242 44.3657 59.2242C44.8711 60.4032 45.2911 61.7535 45.7382 62.9364C46.6092 62.9364 47.3401 62.8781 48.2111 62.8781C47.7056 61.699 47.2857 60.3487 46.8347 59.1658H47.8184V53.3483L46.6947 52.2237H39.0816ZM29.3907 52.2782L30.318 53.4028V62.7107L31.3014 63.8898C33.4644 63.6369 35.8241 63.4695 38.1838 63.3295V53.4612L37.0038 52.2782H29.3907ZM68.467 52.2782V54.5857H70.6288V63.5824C71.5542 63.6369 72.4252 63.6952 73.3544 63.8353V54.5857H75.5163V52.2782H68.467ZM48.7461 52.3093L49.7259 53.4884V62.9637H52.2571C52.2299 62.8781 52.2299 54.5857 52.2299 54.5857H55.0644V62.9053C55.9354 62.9053 56.8063 62.9053 57.6773 62.9637V53.4884L56.4991 52.3093H48.7461ZM58.661 52.3638L59.5864 53.5429V63.1038C62.1176 63.1582 64.6721 63.3022 67.0867 63.4695V60.9402H67.0322V60.9091C65.4303 60.8546 63.8012 60.7145 62.1992 60.6562V58.9129C63.8012 58.9712 65.4303 59.0257 67.0322 59.1113V56.6365C65.4303 56.582 63.8012 56.582 62.1992 56.5236V54.6714H67.0322V52.3638H58.661ZM32.7882 54.5857H35.6254V61.0219C34.6421 61.0803 33.7715 61.1348 32.7882 61.2204V54.5857ZM42.5094 54.5857H45.3439V56.8077C44.3641 56.8077 43.4893 56.8077 42.5094 56.8621V54.5857ZM52.6226 80.3655C51.4406 80.3655 51.1334 80.6768 50.768 80.9297L52.6771 88.6034L54.4773 80.9842C54.2245 80.6768 53.8007 80.3655 52.6226 80.3655Z" fill="white"/>
</svg>
