<svg width="105" height="105" viewBox="0 0 105 105" fill="none" xmlns="http://www.w3.org/2000/svg">
<g clip-path="url(#clip0_2_2498)">
<mask id="mask0_2_2498" style="mask-type:alpha" maskUnits="userSpaceOnUse" x="4" y="19" width="98" height="66">
<path d="M101.241 84.1995V19.6119H4.0387V84.1995L101.241 84.1995Z" fill="white"/>
</mask>
<g mask="url(#mask0_2_2498)">
<path d="M39.2569 54.7959L54.6053 19.6107H101.241L92.791 38.9895H53.4009C51.6907 42.9019 43.2216 62.3289 42.2413 64.5818V65.4864C42.2413 73.6392 35.3595 84.1994 23.1352 84.1994C12.6066 84.1994 4.0387 75.6147 4.0387 65.0739C4.0387 54.5258 12.6066 45.9508 23.1352 45.9508C29.7833 45.9508 36.0099 49.54 39.2569 54.796" fill="#FEFEFE"/>
</g>
<path d="M5.18164 65.9263C5.40325 70.6684 7.4555 74.9161 10.6326 78.0108C14.0145 75.0199 16.2281 70.7312 16.4642 65.9263H5.18164Z" fill="#0B223E"/>
<path d="M18.0487 65.9263C17.8126 71.1364 15.4544 75.799 11.8245 79.0674C14.7174 81.4216 18.3618 82.9026 22.3531 83.0763V65.9263H18.0487Z" fill="#F9A11A"/>
<path d="M5.17468 64.3502H16.4692C16.2669 59.4898 14.0509 55.1456 10.6329 52.1378C7.42685 55.259 5.36738 59.5622 5.17468 64.3502Z" fill="#0B223E"/>
<path d="M11.8247 51.0815C15.4884 54.374 17.849 59.0848 18.0489 64.3504H22.3533V47.0654C18.362 47.239 14.7224 48.7201 11.8247 51.0815" fill="#F9A11A"/>
<path d="M41.0976 65.9263H29.8175C30.0535 70.7312 32.2648 75.0199 35.6466 78.0108C38.8286 74.9161 40.876 70.6684 41.0976 65.9263Z" fill="#0B223E"/>
<path d="M28.2364 65.9262H23.9296V83.0762C27.9184 82.9026 31.5604 81.4215 34.4606 79.0673C30.8306 75.7989 28.47 71.1364 28.2364 65.9262H28.2364ZM34.4606 51.0815C31.5604 48.7201 27.9185 47.239 23.9296 47.0654V64.3504H28.2316C28.4315 59.0848 30.7993 54.374 34.4606 51.0815" fill="#2B5134"/>
<path d="M55.3489 20.749L39.379 57.3766C38.4468 55.4083 37.1846 53.6354 35.6479 52.1399C32.2323 55.1478 30.0138 59.492 29.8139 64.3524H41.1037L52.6511 37.8531H86.3879L93.8429 20.749H55.3489H55.3489Z" fill="#0B223E"/>
<path d="M92.0479 37.8515L99.5054 20.7473H96.3258L88.8708 37.8515H92.0479Z" fill="#2B5134"/>
</g>
<defs>
<clipPath id="clip0_2_2498">
<rect width="105" height="105" fill="white"/>
</clipPath>
</defs>
</svg>
