<svg width="89" height="89" viewBox="0 0 89 89" fill="none" xmlns="http://www.w3.org/2000/svg">
<mask id="mask0_2_2558" style="mask-type:luminance" maskUnits="userSpaceOnUse" x="5" y="0" width="79" height="89">
<path d="M83.5063 0H5.49377V89H83.5063V0Z" fill="white"/>
</mask>
<g mask="url(#mask0_2_2558)">
<path d="M83.5059 0L72.3412 11.2086L63.0103 1.88952L53.6366 11.2099L44.3213 1.88952L35.0094 11.2086L25.6913 1.88952L16.3812 11.2135L5.49347 0.223399V49.8533C5.49347 71.4378 22.8097 89 44.3816 89C54.7575 88.9857 64.704 84.856 72.0387 77.517C79.3735 70.1781 83.4975 60.2292 83.5059 49.8533V0Z" fill="white"/>
</g>
<mask id="mask1_2_2558" style="mask-type:luminance" maskUnits="userSpaceOnUse" x="5" y="0" width="79" height="89">
<path d="M83.5063 0H5.49377V89H83.5063V0Z" fill="white"/>
</mask>
<g mask="url(#mask1_2_2558)">
<path d="M8.97614 56.6504C9.89657 61.3246 11.7433 65.7673 14.4074 69.7167C16.0297 66.8716 19.2755 63.3372 25.6502 61.8355C25.1605 60.1986 24.7243 58.4584 24.3542 56.6501L8.97614 56.6504Z" fill="#63727A"/>
</g>
<mask id="mask2_2_2558" style="mask-type:luminance" maskUnits="userSpaceOnUse" x="5" y="0" width="79" height="89">
<path d="M83.5063 0H5.49377V89H83.5063V0Z" fill="white"/>
</mask>
<g mask="url(#mask2_2_2558)">
<path d="M16.951 73.0804C20.3087 77.0482 24.4826 80.2453 29.1881 82.4537C33.8935 84.6621 39.0199 85.8297 44.2176 85.8771C43.2314 85.3734 42.2665 84.8189 41.3383 84.222C36.9052 81.3566 30.8106 75.7801 26.8754 65.442C20.6818 66.7919 18.06 70.3029 16.951 73.0804Z" fill="#63727A"/>
</g>
<mask id="mask3_2_2558" style="mask-type:luminance" maskUnits="userSpaceOnUse" x="5" y="0" width="79" height="89">
<path d="M83.5063 0H5.49377V89H83.5063V0Z" fill="white"/>
</mask>
<g mask="url(#mask3_2_2558)">
<path d="M30.6912 64.8995C33.4843 71.9213 37.7042 77.3169 43.243 80.9387C46.1343 82.8359 49.3495 84.1858 52.7285 84.9212C58.5403 83.5585 63.9253 80.7806 68.4043 76.8345C64.8723 76.4477 61.2507 74.4151 57.4278 72.2714C51.4589 68.9209 44.0255 64.7518 33.9898 64.7518C32.9062 64.7518 31.7989 64.8041 30.6912 64.8995Z" fill="#63727A"/>
</g>
<mask id="mask4_2_2558" style="mask-type:luminance" maskUnits="userSpaceOnUse" x="5" y="0" width="79" height="89">
<path d="M83.5063 0H5.49377V89H83.5063V0Z" fill="white"/>
</mask>
<g mask="url(#mask4_2_2558)">
<path d="M45.7815 38.3868H32.8763V53.7515H38.2376V41.4269H42.2651V53.7517H47.3746V40.5389C47.3743 39.3683 46.659 38.3868 45.7815 38.3868Z" fill="#5A2D81"/>
</g>
<mask id="mask5_2_2558" style="mask-type:luminance" maskUnits="userSpaceOnUse" x="5" y="0" width="79" height="89">
<path d="M83.5063 0H5.49377V89H83.5063V0Z" fill="white"/>
</mask>
<g mask="url(#mask5_2_2558)">
<path d="M49.6334 38.3868V51.5675C49.6334 52.7407 50.3429 53.7517 51.2177 53.7517H64.1102V44.4231L58.9628 44.4172V50.7078H54.937V41.3523H64.1104V38.3868L49.6334 38.3868Z" fill="#5A2D81"/>
</g>
<mask id="mask6_2_2558" style="mask-type:luminance" maskUnits="userSpaceOnUse" x="5" y="0" width="79" height="89">
<path d="M83.5063 0H5.49377V89H83.5063V0Z" fill="white"/>
</mask>
<g mask="url(#mask6_2_2558)">
<path d="M18.6082 38.3868L15.6921 44.5915H14.0079V38.3868H8.67139V53.7515H14.0079V47.5692H15.6921L18.6082 53.7515H23.9396L20.1793 46.0802L23.9396 38.3868H18.6082Z" fill="#5A2D81"/>
</g>
<mask id="mask7_2_2558" style="mask-type:luminance" maskUnits="userSpaceOnUse" x="5" y="0" width="79" height="89">
<path d="M83.5063 0H5.49377V89H83.5063V0Z" fill="white"/>
</mask>
<g mask="url(#mask7_2_2558)">
<path d="M30.8843 38.3868H25.3596V53.7515H30.8843V38.3868Z" fill="#5A2D81"/>
</g>
<mask id="mask8_2_2558" style="mask-type:luminance" maskUnits="userSpaceOnUse" x="5" y="0" width="79" height="89">
<path d="M83.5063 0H5.49377V89H83.5063V0Z" fill="white"/>
</mask>
<g mask="url(#mask8_2_2558)">
<path d="M80.3427 42.5421V38.3868H66.1776V45.4063C66.1776 46.5766 66.8883 47.5274 67.7613 47.5274H74.9788V50.876H66.1778V53.7517H80.3498V46.6987C80.3498 45.6074 79.7471 44.5819 78.9356 44.5819H71.4942V41.3646H75.2168V42.5423L80.3427 42.5421Z" fill="#5A2D81"/>
</g>
<mask id="mask9_2_2558" style="mask-type:luminance" maskUnits="userSpaceOnUse" x="5" y="0" width="79" height="89">
<path d="M83.5063 0H5.49377V89H83.5063V0Z" fill="white"/>
</mask>
<g mask="url(#mask9_2_2558)">
<path d="M65.2735 22.8048H60.7501L70.0794 13.4713L63.0104 6.41492L53.6364 15.7335L44.3214 6.41492L27.944 22.8048H23.4211L32.7342 13.4572L25.6912 6.41492L16.3812 15.7335L8.67169 8.0806V23.3724V35.5683H80.3415V23.7401V7.7258L65.2735 22.8048Z" fill="#5A2D81"/>
</g>
<mask id="mask10_2_2558" style="mask-type:luminance" maskUnits="userSpaceOnUse" x="5" y="0" width="79" height="89">
<path d="M83.5063 0H5.49377V89H83.5063V0Z" fill="white"/>
</mask>
<g mask="url(#mask10_2_2558)">
<path d="M24.3284 32.6147C24.3286 32.8062 24.4046 32.9898 24.5397 33.1255C24.6748 33.2612 24.8582 33.338 25.0497 33.339H29.0772V32.2569H25.7947V28.7471H29.0772V27.6676H24.3284V32.6147Z" fill="white"/>
</g>
<mask id="mask11_2_2558" style="mask-type:luminance" maskUnits="userSpaceOnUse" x="5" y="0" width="79" height="89">
<path d="M83.5063 0H5.49377V89H83.5063V0Z" fill="white"/>
</mask>
<g mask="url(#mask11_2_2558)">
<path d="M17.7625 27.667V33.3383H19.2275V31.8546H21.0447V33.3383H22.511V28.3897C22.509 28.2883 22.4862 28.1883 22.4439 28.096C22.4017 28.0037 22.3409 27.9211 22.2654 27.8533C22.1898 27.7855 22.1012 27.734 22.0049 27.702C21.9086 27.6699 21.8067 27.658 21.7056 27.667H17.7625ZM21.0449 30.7758H19.2275V28.7478H21.0449V30.7758Z" fill="white"/>
</g>
<mask id="mask12_2_2558" style="mask-type:luminance" maskUnits="userSpaceOnUse" x="5" y="0" width="79" height="89">
<path d="M83.5063 0H5.49377V89H83.5063V0Z" fill="white"/>
</mask>
<g mask="url(#mask12_2_2558)">
<path d="M76.9606 27.6669H73.6379C73.4475 27.6672 73.2649 27.7429 73.1302 27.8775C72.9955 28.012 72.9195 28.1944 72.9189 28.3848V32.6145C72.9193 32.8055 72.995 32.9886 73.1296 33.1241C73.2642 33.2596 73.4469 33.3365 73.6379 33.3381H76.9606C77.1519 33.3361 77.3347 33.2588 77.4693 33.1229C77.6039 32.987 77.6794 32.8035 77.6795 32.6122V28.3848C77.6791 28.1944 77.6032 28.0118 77.4685 27.8773C77.3337 27.7427 77.1511 27.6671 76.9606 27.6669ZM76.2073 32.248H74.3963V28.7454H76.2073V32.248Z" fill="white"/>
</g>
<mask id="mask13_2_2558" style="mask-type:luminance" maskUnits="userSpaceOnUse" x="5" y="0" width="79" height="89">
<path d="M83.5063 0H5.49377V89H83.5063V0Z" fill="white"/>
</mask>
<g mask="url(#mask13_2_2558)">
<path d="M11.1911 30.3205C11.1917 30.5118 11.268 30.6951 11.4034 30.8303C11.5387 30.9655 11.7221 31.0416 11.9134 31.042H14.4733V32.2559H11.1911V33.3381H15.9399V30.6824C15.9404 30.5043 15.8747 30.3323 15.7555 30.1999C15.6364 30.0675 15.4723 29.9841 15.2951 29.9658L15.2551 29.9622H12.6549V28.7465H15.9399V27.6669H11.1911V30.3205Z" fill="white"/>
</g>
<mask id="mask14_2_2558" style="mask-type:luminance" maskUnits="userSpaceOnUse" x="5" y="0" width="79" height="89">
<path d="M83.5063 0H5.49377V89H83.5063V0Z" fill="white"/>
</mask>
<g mask="url(#mask14_2_2558)">
<path d="M41.3669 27.6669H37.3419V33.3383H38.8082V31.8545H40.6256V33.3383H42.0929V28.3897C42.0919 28.1978 42.015 28.014 41.8789 27.8786C41.7429 27.7432 41.5588 27.6671 41.3669 27.6669ZM40.6253 30.7758H38.8079V28.7478H40.6254L40.6253 30.7758Z" fill="white"/>
</g>
<mask id="mask15_2_2558" style="mask-type:luminance" maskUnits="userSpaceOnUse" x="5" y="0" width="79" height="89">
<path d="M83.5063 0H5.49377V89H83.5063V0Z" fill="white"/>
</mask>
<g mask="url(#mask15_2_2558)">
<path d="M66.5305 28.7451H68.1746V33.3379H69.6377V28.7451H71.2798V27.6669H66.5305V28.7451Z" fill="white"/>
</g>
<mask id="mask16_2_2558" style="mask-type:luminance" maskUnits="userSpaceOnUse" x="5" y="0" width="79" height="89">
<path d="M83.5063 0H5.49377V89H83.5063V0Z" fill="white"/>
</mask>
<g mask="url(#mask16_2_2558)">
<path d="M51.329 27.6669H44.038V33.3386H45.504V28.7472H47.3017V33.3386H48.7875V28.7472H50.584V33.3386H52.0505V28.3887C52.0497 28.1976 51.9734 28.0145 51.8383 27.8793C51.7032 27.7442 51.5202 27.6678 51.329 27.6669Z" fill="white"/>
</g>
<mask id="mask17_2_2558" style="mask-type:luminance" maskUnits="userSpaceOnUse" x="5" y="0" width="79" height="89">
<path d="M83.5063 0H5.49377V89H83.5063V0Z" fill="white"/>
</mask>
<g mask="url(#mask17_2_2558)">
<path d="M64.3223 27.6669H60.2968V33.3386H61.7621V28.7472H63.5796V33.3386H65.0459V28.3887C65.045 28.1972 64.9685 28.0139 64.8329 27.8786C64.6973 27.7434 64.5138 27.6673 64.3223 27.6669Z" fill="white"/>
</g>
<mask id="mask18_2_2558" style="mask-type:luminance" maskUnits="userSpaceOnUse" x="5" y="0" width="79" height="89">
<path d="M83.5063 0H5.49377V89H83.5063V0Z" fill="white"/>
</mask>
<g mask="url(#mask18_2_2558)">
<path d="M54.0468 32.6147C54.0466 32.8063 54.1224 32.9902 54.2577 33.126C54.393 33.2618 54.5766 33.3384 54.7683 33.339H58.792V32.2569H55.5131V31.0411H58.792V29.9639H55.5131V28.7471H58.792V27.6676H54.0468L54.0468 32.6147Z" fill="white"/>
</g>
<mask id="mask19_2_2558" style="mask-type:luminance" maskUnits="userSpaceOnUse" x="5" y="0" width="79" height="89">
<path d="M83.5063 0H5.49377V89H83.5063V0Z" fill="white"/>
</mask>
<g mask="url(#mask19_2_2558)">
<path d="M34.7295 31.2746H35.5136V28.3881C35.5109 28.2869 35.4876 28.1874 35.4451 28.0955C35.4026 28.0036 35.3417 27.9214 35.2663 27.8539C35.191 27.7863 35.1026 27.7349 35.0066 27.7027C34.9106 27.6705 34.8091 27.6582 34.7082 27.6666H30.7645V33.338H32.2296V31.2749H33.2927L34.1701 33.338H35.5982L34.7295 31.2746ZM34.047 30.1961H32.2298V28.7464H34.047V30.1961Z" fill="white"/>
</g>
<mask id="mask20_2_2558" style="mask-type:luminance" maskUnits="userSpaceOnUse" x="5" y="0" width="79" height="89">
<path d="M83.5063 0H5.49377V89H83.5063V0Z" fill="white"/>
</mask>
<g mask="url(#mask20_2_2558)">
<path d="M33.2078 61.0022C40.8436 60.847 48.3947 62.7589 58.0303 68.2497C65.1524 72.3078 68.2815 73.5386 70.4169 73.0131C72.3847 72.5291 74.2098 71.3667 77.4302 64.5604C78.5842 62.0333 79.437 59.3793 79.9712 56.653H28.1689C28.5295 58.2222 28.8837 59.7829 29.3574 61.2187C30.6359 61.0753 31.9213 61.003 33.2078 61.0022Z" fill="#63727A"/>
</g>
</svg>
