<svg width="109" height="89" viewBox="0 0 109 89" fill="none" xmlns="http://www.w3.org/2000/svg">
<path d="M54.3181 88.3397L47.0947 78.9604C37.9032 75.9299 31.5062 67.6274 30.9146 57.9674L26.4328 52.1502C22.172 53.9865 17.9042 56.8951 17.9042 56.8951L4.4634 43.4105L10.1284 30.996L0 17.8452H16.1157L19.2347 11.0523L27.2154 7.83304L28.0994 5.42839L34.5678 8.38072L36.1054 3.00761L37.1597 2.65784C42.2768 0.95271 48.1697 0.0368729 54.2054 0.00234951C54.378 -0.00915059 56.2955 0.0253726 56.3415 0.0253726C56.5671 0.0253726 57.5086 0.0760053 57.5086 0.0760053C62.6119 0.322209 67.4091 1.17133 71.7643 2.60262L72.8347 2.9547L74.2481 8.07697L76.5776 6.3189L89.6478 10.9649L92.8038 17.8475H109L98.7611 31.0513L104.341 43.2863L90.6906 57.3369C90.6906 57.3369 85.6862 53.6873 82.2541 52.3274L78.1406 57.6314C77.671 67.5216 70.9402 76.1968 61.4771 79.1077L54.3181 88.3397Z" fill="#FEFEFE"/>
<path d="M54.3304 81.8408L100.896 21.8231L8.07355 21.8208L54.3304 81.8408Z" fill="#B3B1B1"/>
<path d="M100.896 21.8217L54.3304 81.8393L8.07352 21.8194L100.896 21.8217ZM4.24774 19.9371L54.3258 84.9159L104.738 19.9394L4.24774 19.9371Z" fill="#006BB6"/>
<path d="M94.1729 25.9966L94.1568 25.9575L94.12 25.9345L91.1413 23.9325L92.2508 21.8132L92.2831 21.7488L92.2531 21.6821L88.1534 12.6962L88.1258 12.641L88.0683 12.6203L77.0145 8.68537L76.9362 8.65776L76.8718 8.70609L73.9414 10.9428L73.9092 10.9681L73.8931 11.0049L73.3913 12.2337C73.3913 12.2337 68.8082 11.0831 62.0774 10.4112C61.3914 10.3422 59.5591 10.1926 56.6357 9.9625L56.3526 9.93948L56.0579 9.91878L55.9889 9.91187L55.9405 9.9602L53.756 12.1371L53.7583 9.90267C53.7583 9.90267 47.5616 10.2524 43.5033 10.8047C39.4451 11.3547 35.4558 12.3603 35.4558 12.3603L34.7215 10.7886L34.6985 10.7403L34.6479 10.715L29.4317 8.3287L29.2844 8.26427L29.2292 8.41384L28.6238 10.066L28.4857 9.73469L28.4281 9.59892L28.2923 9.65414L20.8272 12.6456L20.772 12.6686L20.7466 12.7238L6.97662 42.9651L18.2813 54.2842L18.8084 53.9828C19.1491 53.7895 19.6325 53.5064 20.1758 53.1843C21.5431 52.3789 23.4169 51.2767 24.3123 50.8441L24.4941 50.7566C25.652 50.1974 26.2344 49.9144 31.7291 47.565L32.1871 47.3924C32.194 47.3924 32.8063 47.1531 33.9366 46.778C36.9544 45.777 44.7947 43.4437 52.3933 43.4437H52.4785C52.7823 43.4437 53.0839 43.4483 53.3877 43.4575C58.5486 43.6002 64.5796 44.6955 68.7299 45.5883C72.7261 46.4489 75.73 47.2773 76.5841 47.5166L77.1595 47.6938C80.9392 49.155 85.5592 51.5643 89.8407 54.3049L90.384 54.6547L101.827 42.873L94.1729 25.9967V25.9966Z" fill="#006BB6"/>
<path d="M92.9429 27.0453L81.9444 19.7071L80.0315 14.3386L83.4383 15.549L84.8149 18.904L89.9918 20.5631L86.9717 13.8899L77.2001 10.4198L75.4069 11.8073L78.6549 22.3602L89.1125 29.7491L91.7942 36.427L87.4459 34.4664L85.952 30.3106L80.6162 28.7389L83.4682 38.1321C84.3476 38.4565 85.2223 38.7902 86.0878 39.14C88.4611 40.1018 90.7883 41.1649 93.0603 42.3293C94.6348 43.1324 96.184 43.9884 97.7055 44.8881L99.9798 42.5548L92.9429 27.0453H92.9429ZM18.7694 32.0208L22.434 28.7486L23.3088 29.768L19.6902 40.1713C21.6718 39.2974 23.6859 38.4991 25.7281 37.7782L28.35 29.1996L26.0872 25.4626L30.7739 21.01L33.5131 11.8861L30.1477 10.3742L27.123 18.9758L22.2752 23.1477L26.6949 11.9988L21.9437 13.8926L8.85278 42.6013L10.9015 44.6539C12.1169 43.9475 13.3484 43.2663 14.596 42.6174L18.7694 32.0208ZM51.942 11.549L47.9275 11.7607L46.0399 33.2945C47.7456 33.1334 49.4651 33.0229 51.1962 32.9631L51.942 11.5489L51.942 11.549ZM63.8532 28.825L59.1918 28.5466L58.4437 15.3589L62.3938 15.5499L61.9311 11.9164L56.6206 11.539L54.2427 13.9092L54.2381 30.4036L56.7311 32.9555C59.3046 33.0338 61.8528 33.227 64.3688 33.5308L63.8532 28.825V28.825ZM37.4402 20.0488L39.1229 28.2362L38.0341 34.4399C39.6638 34.127 41.3051 33.8578 42.9625 33.6392L42.974 33.6368L45.5682 12.0432L41.8414 12.5863L40.6168 19.6553L39.2311 13.0005L34.8482 14.0981L28.7505 36.771C30.5131 36.2199 32.2934 35.7272 34.0886 35.2937L37.4402 20.0488V20.0488ZM69.8372 27.6335L71.1493 25.8616L73.0645 27.4402L74.8278 35.4688C76.6785 35.9336 78.5085 36.4582 80.3132 37.0427L77.0238 25.2656L73.6308 22.4928L75.5621 19.9178L73.9577 13.9396L69.8626 13.0283L71.4739 19.048L68.9234 22.456L67.0404 12.5566L63.2492 12.0757C63.2492 12.0757 65.1506 26.5957 66.0483 33.7475C67.7655 33.9915 69.4666 34.2883 71.1516 34.6312L69.8372 27.6335Z" fill="#F58426"/>
<path d="M46.629 37.3842C46.629 37.3842 48.2081 36.4591 51.3686 36.1094L51.2673 33.6219C49.534 33.6794 47.8121 33.7875 46.1041 33.9486C46.2537 34.922 46.477 36.3717 46.629 37.3842ZM56.6717 35.9586C57.9562 36.1082 59.3304 36.5293 60.539 36.8699C61.6301 37.1322 62.8063 37.6016 63.7685 38.0296L64.3003 34.1983C61.7589 33.8853 59.3581 33.6967 56.7592 33.6161C56.7224 34.3593 56.7201 35.4087 56.6717 35.9586ZM40.0441 42.0294C41.515 40.9364 42.399 39.8112 43.9482 38.8677C43.6535 37.4778 43.2622 35.6761 42.9767 34.3C41.2918 34.5232 39.6229 34.8016 37.9701 35.1215C38.6031 37.1833 39.4111 39.9469 40.0441 42.0294H40.0441ZM65.0514 38.8008C66.4855 39.6314 67.6042 40.5703 68.8864 41.8152L69.1396 42.0085L71.1606 35.3238C69.4204 34.9625 67.7285 34.6495 65.9514 34.3987L65.0514 38.8007V38.8008ZM71.4286 44.609L76.2465 45.7434L80.3001 37.731C78.431 37.1211 76.6286 36.6195 74.7111 36.1386L71.4286 44.609ZM32.6697 45.7425C33.9266 45.28 35.6829 44.6449 37.3219 44.2077L34.1936 35.9398C32.3037 36.3977 30.6556 36.8786 28.814 37.4608C29.9788 40.2313 31.284 43.0847 32.6697 45.7425V45.7425ZM25.4028 48.7185C25.6814 48.4792 28.416 47.2987 30.2875 46.5072C28.8649 43.9345 27.1546 41.0949 25.7274 38.4763C23.6879 39.2034 21.8303 39.9582 19.8575 40.8349L25.4028 48.7185ZM18.5802 52.3361C19.4503 51.8138 20.3734 51.2776 21.3885 50.6908L14.9961 43.1524C13.7807 43.7829 12.5814 44.4433 11.3983 45.129L18.5802 52.3361ZM78.7974 46.7341C82.6347 48.2229 88.0005 51.2304 90.1344 52.6617C91.1196 51.7206 96.4577 46.1174 97.192 45.3488C92.7539 42.7462 88.0903 40.5326 83.2378 38.7492L78.7974 46.7341ZM55.9337 35.8332L54.1014 35.7688L54.0692 31.3184L55.9752 33.2951L55.9337 35.8332Z" fill="#B3B1B1"/>
<path d="M54.5195 34.9521C42.6094 34.9521 32.9575 44.6029 32.9552 56.5089C32.9575 68.4125 42.6094 78.0634 54.5195 78.0634C66.4273 78.0634 76.0838 68.4125 76.0838 56.5089C76.0838 44.603 66.4273 34.9521 54.5195 34.9521" fill="#006BB6"/>
<path d="M55.8455 36.5656C54.1904 37.1432 52.5975 37.9831 51.0184 38.7149C49.9411 38.0706 49.3242 37.9072 48.5967 37.4378C50.8641 36.614 53.3042 36.4897 55.8455 36.5656ZM71.2929 45.7172C66.2126 40.5995 58.591 40.97 52.1249 39.159C52.1249 39.159 55.9299 37.348 57.8935 36.8464C63.1764 37.7461 68.2912 40.9078 71.2929 45.7172ZM42.7317 46.4865C37.8517 53.972 37.191 63.1948 41.0766 71.2763C36.0539 67.0584 33.0614 58.8917 35.315 50.9621C37.1611 48.3825 39.5367 46.1022 42.7317 46.4864" fill="#F58426"/>
<path d="M47.9568 51.8167C50.5879 59.6359 51.1703 68.2903 57.9816 76.1648C52.6711 77.2417 47.409 75.6516 43.2149 72.9938C38.0172 65.414 38.5075 54.1063 43.7029 46.7565C46.235 47.486 47.6138 50.795 47.9568 51.8167Z" fill="#F58426"/>
<path d="M44.3059 45.9309C45.0955 44.8172 45.9863 43.7656 46.9876 42.7853C58.0345 45.9033 68.568 57.3537 70.3727 68.6061C69.8456 69.4552 68.5841 70.6403 67.7371 71.4871C64.9909 73.9539 61.9662 75.231 59.0634 75.9236C53.9049 70.5735 52.2061 63.6288 50.383 56.783C48.9857 51.5295 48.0143 47.567 44.3105 45.9585L44.3059 45.9309Z" fill="#F58426"/>
<path d="M70.1164 45.8816C64.7805 41.1759 57.3476 41.7787 51.1118 39.5858C49.9079 40.3244 48.7293 41.1966 47.7234 42.0986C58.7702 45.5618 68.7951 56.3586 71.1821 67.5167C72.9132 65.0154 73.9605 62.1114 74.3818 59.0302C74.6511 54.2991 74.6051 49.9937 70.1164 45.8816V45.8816ZM46.0773 42.4403C45.0115 43.4643 44.2127 44.4722 43.3817 45.6481L43.3564 45.6411C40.433 44.9876 38.1265 46.4995 36.2734 48.3841C37.1574 46.152 39.0104 43.5034 40.9717 41.773C42.7809 41.8512 44.0976 41.8236 46.0773 42.4403ZM46.8606 41.7557C47.9057 40.8261 48.9185 40.0138 50.1754 39.259L47.3417 37.8553C45.4564 38.6262 43.4377 39.6295 42.0519 40.8974C44.195 41.1482 45.1112 41.2794 46.8606 41.7557Z" fill="#F58426"/>
<path d="M51.4653 8.52666L50.5928 9.39417L49.0989 9.48394L48.5418 9.0007L47.8397 9.59668L46.2123 9.74855L45.4964 9.06742L46.4356 2.69795L47.6671 2.52995L47.0019 8.15389L47.8858 8.05723L48.5717 2.42181L49.7895 2.30216L49.2807 7.89847L50.1463 7.81792L50.5905 2.24924C51.1084 2.194 51.3755 2.19861 51.8289 2.17328L51.4653 8.52666H51.4653ZM55.4609 2.08677L55.4724 6.0953L56.2574 6.09069L56.209 2.10518C56.209 2.10518 57.0354 2.13049 57.406 2.1627L57.5648 6.65678L56.8075 7.41385L56.5589 7.42537L56.5958 9.34907L55.2584 9.30996L55.2422 7.38393L54.9752 7.36322L54.1649 6.53712L54.2156 2.06607C54.6483 2.06607 55.4609 2.08677 55.4609 2.08677ZM45.5392 2.82957L45.3297 4.14581L43.8404 4.42652L43.5711 5.96599C44.1166 5.86703 44.4504 5.81411 45.0996 5.72668C45.0098 6.29965 44.9822 6.49755 44.8832 7.03831L43.3869 7.25232L43.1061 8.72502L44.6392 8.5041C44.6392 8.5041 44.4872 9.4959 44.409 9.9377C43.3363 10.0712 42.2567 10.2253 41.2277 10.4048C41.2277 10.4048 42.381 5.06165 42.6664 3.41405L45.5392 2.82957ZM39.9244 10.6405L38.3706 10.9465L39.0842 8.03331L38.6008 6.9886L37.3808 11.1812L35.8638 11.5264C36.4946 9.25748 37.1414 6.98629 37.7721 4.71741C38.2947 4.54251 38.6837 4.42288 39.1441 4.28709C39.3121 4.66908 39.7218 5.43996 39.7218 5.43996L40.0901 4.01786C40.0901 4.01786 41.0523 3.76474 41.5357 3.65428L39.9244 10.6405ZM59.719 3.62967L60.108 7.97876L60.8791 8.04089L60.4694 3.7125L59.719 3.62967ZM61.7654 3.32131C61.9196 5.14612 62.2211 6.89263 62.4053 8.59546L61.7262 9.63097L59.5302 9.48601L58.7384 8.62309C58.5979 6.76148 58.5013 4.88378 58.3862 3.01528C58.5887 2.74833 58.8972 2.54124 59.1389 2.28121L60.9689 2.45839L61.7654 3.32131ZM68.8606 3.97345C69.1345 5.01814 69.6685 7.172 69.6685 7.172L70.1888 7.27785L70.442 6.93038L69.7905 4.25418C69.7905 4.25418 70.4351 4.43366 71.1256 4.64308L71.8162 7.23413L71.4916 7.70126L72.0948 8.36398L73.0063 11.5211L71.5054 11.1851L70.9161 8.97148L69.9816 8.76206L70.4926 10.9665L68.971 10.6674C68.4393 8.29265 67.4771 3.61679 67.4771 3.61679C67.4771 3.61679 68.2505 3.77786 68.8606 3.97345ZM64.3732 4.31931L64.6333 6.13259L65.4597 6.22464L65.1098 4.45277L64.3732 4.31933V4.31931ZM66.4841 4.22726L66.9859 6.83211L66.6958 7.23252L67.2069 7.84233L67.6488 10.4288L66.1871 10.1733L65.7889 8.01951L64.9096 7.92285L65.2203 10.0238L63.7609 9.83968L62.7918 2.69473L65.5817 3.18716L66.4841 4.22726Z" fill="#006BB6"/>
</svg>
