<svg width="89" height="89" viewBox="0 0 89 89" fill="none" xmlns="http://www.w3.org/2000/svg">
<path fill-rule="evenodd" clip-rule="evenodd" d="M40.3057 19.4197C39.4264 18.2881 38.4094 17.8465 38.3605 15.836C38.3235 14.3576 41.1262 9.16402 43.6641 8.07762C45.7905 7.16654 50.6123 7.56598 54.1997 7.56598H65.5929C71.9397 7.56598 85.8999 6.62375 85.0446 10.5983C84.6364 12.4927 83.9342 14.1831 83.1842 15.4291C82.6207 16.3658 81.3182 18.9061 80.3206 19.144C76.0885 20.153 69.1087 17.3232 67.816 22.7277C74.2378 27.5188 78.4969 39.2181 75.0789 50.2622C75.1298 50.4971 76.644 48.7301 76.9894 48.4674C78.9821 47.0554 89.0044 46.4514 89 50.7954C88.9978 53.5799 86.6002 56.3991 85.0446 58.8402C81.8304 63.883 79.2091 68.6493 75.5966 74.2776C74.4665 76.0372 71.7941 80.8829 70.039 81.1693C66.9053 81.6798 57.1564 81.4449 51.6988 81.4449H15.0184C8.55017 81.4449 0.557456 82.3753 0.0128077 78.1369C-0.2748 75.9004 4.35888 69.3092 6.12065 68.3466C8.45458 67.0702 12.1496 68.7471 15.0184 67.9372C16.9005 67.4052 18.3889 64.0908 19.7424 61.8725C21.2891 59.3355 23.6403 55.9685 23.6403 55.0842C23.6403 53.9493 22.3592 51.0151 22.2889 48.2099C21.9166 33.4294 30.126 23.8778 40.3057 19.4197Z" fill="#552583"/>
<path fill-rule="evenodd" clip-rule="evenodd" d="M63.3698 62.3542C66.5535 59.1725 70.3636 56.4048 71.7063 51.558C71.2547 51.2134 70.8043 50.9595 70.433 50.6847C69.1587 55.0264 65.6396 59.2993 63.3698 62.3542ZM71.7063 45.6074H73.3736C73.4169 47.5804 72.7222 48.8209 72.2621 50.2938C71.6596 49.9492 71.22 49.6391 70.8727 49.4668C71.3589 47.9851 71.4979 47.2843 71.7063 45.6074Z" fill="#FDB927"/>
<path fill-rule="evenodd" clip-rule="evenodd" d="M47.2527 24.6567C47.8084 23.5369 50.8304 18.9539 51.0649 16.6816C50.7676 14.7952 45.5431 15.7849 42.5284 15.5596C43.1536 13.9745 43.8606 12.4702 45.0293 11.4246H80.5982C81.3571 12.1505 79.0462 14.4322 78.3751 15.5596C75.7475 15.5822 71.741 15.5478 70.6067 15.6167C66.0792 16.49 64.2576 20.8514 62.2008 24.6222C57.2911 24.6222 52.1623 24.6567 47.2527 24.6567ZM86.6218 50.6728C85.5937 48.9736 81.7784 49.7209 78.9312 49.7424C73.7609 54.9986 69.7611 59.2069 64.2035 63.8478C54.5243 71.5202 50.7651 70.1882 36.4153 70.1418C37.2456 68.7616 38.0359 66.8801 38.824 66.2825C44.6128 68.4418 52.5519 68.2629 57.3031 65.6396C62.1227 62.9778 67.9126 55.0794 69.2401 50.2422C59.7782 55.0998 53.6373 65.3576 39.472 64.6285C39.7215 64.1601 39.8279 63.614 40.3056 63.5721C41.3477 63.4795 43.3351 63.4473 44.4739 63.2502C54.1366 61.5757 59.7248 53.8096 66.9823 49.4668C68.1405 49.077 68.5865 48.8542 69.7611 48.9154C69.9695 48.1747 70.4558 47.141 70.3168 45.6074C64.0178 45.4244 56.388 45.7797 51.1202 45.6193C51.5565 45.1942 51.7585 44.5111 52.1156 44.4477C53.5278 44.1949 57.7371 44.2294 60.3131 44.2294H70.5947V40.0943C66.9203 39.7861 64.3479 38.6071 61.9976 37.1309C60.8255 36.3943 59.0626 34.8908 58.4374 34.1501C58.6458 33.8055 58.9757 33.5125 59.2016 33.1679C61.8067 35.3562 64.8526 38.6234 70.5947 38.716C69.8611 32.4594 67.1712 28.1447 64.4813 23.8299C66.4612 20.0737 68.0938 18.1903 71.0343 17.271C72.5171 17.0642 76.2685 17.3978 79.487 17.2136C80.2283 14.8933 82.7293 13.136 82.5437 10.5976C82.5317 9.34554 76.9457 9.73616 73.6287 9.73616C67.194 9.73616 60.6746 9.77062 54.1997 9.77062C50.7217 9.77062 45.2825 9.51673 44.4739 9.77062C42.8346 10.2856 39.8702 16.0465 40.5835 16.6623C41.4541 18.141 49.695 16.5708 49.4757 17.4893C49.0253 18.3293 48.6346 19.2288 48.0863 19.9703C42.1966 20.6512 37.9197 22.9329 34.4701 26.035H61.1468C60.352 27.6366 59.5642 29.2441 58.3679 30.4457H43.6402C44.3316 29.3863 44.9893 28.2922 45.5854 27.1377H33.0807C31.5068 28.4245 30.1151 29.8935 29.1904 31.824C38.5461 32.0082 48.6421 31.4568 57.5343 32.0997C56.5898 33.461 56.0471 35.2194 54.7555 36.2347H40.3056C40.1656 34.9942 42.6393 33.714 41.4172 33.2024H28.0788C27.373 34.6152 26.7458 36.1079 26.1337 37.6131H54.1997C53.022 39.293 52.1578 41.285 50.8651 42.8507H36.1374C36.3653 41.5479 38.7814 39.6731 37.8047 38.9914C33.7287 38.9914 29.9556 39.0035 25.8808 39.0035C25.6701 39.7175 25.1013 42.1252 25.0221 44.2294H50.0315C45.1077 53.4036 38.7045 61.1118 34.4701 70.9691C34.748 71.2911 34.9717 71.5387 35.4427 71.5668C41.5561 71.934 49.0339 72.1297 52.8103 71.5205C56.2947 70.9581 61.6906 67.885 66.3343 64.3068C69.2826 62.0345 71.7366 59.5998 73.9293 57.4614C76.7081 54.751 79.2091 51.5001 79.2091 51.5001C79.2091 51.5001 83.6552 51.4656 85.0446 51.3967C79.8018 60.4386 74.1497 69.0747 68.3717 77.5852C46.9748 77.401 24.8365 77.9523 3.90312 77.3095C5.35755 75.6285 6.41795 73.5565 7.79346 71.7961C10.4397 71.8714 14.2445 71.8885 15.7381 71.7347C18.8793 71.4083 20.6149 67.7397 22.5212 64.6288C26.431 58.2462 31.18 51.0984 34.4701 45.332C31.2278 45.332 28.2536 45.3362 25.011 45.3362C25.1222 48.9932 25.6201 51.9974 26.6894 54.7047C23.3668 59.165 19.6382 68.6949 15.4972 70.0225C14.3062 70.1592 9.36961 70.1766 6.95982 70.1421C5.60737 72.0781 1.60309 76.4273 2.51371 78.4122C3.00111 79.7657 7.53086 79.2392 10.0165 79.2392H69.2053C74.0997 72.5531 78.7161 64.999 83.0994 58.0127C84.9707 55.03 87.3382 52.4335 86.6218 50.6731" fill="#FDB927"/>
<path fill-rule="evenodd" clip-rule="evenodd" d="M73.5592 38.9458C74.0216 40.1174 73.7676 42.4606 73.6514 44.2295H71.9841V39.8189C72.4704 39.681 73.1423 39.2675 73.5592 38.9455M68.3717 27.4138C69.9011 28.7599 72.8589 33.7026 73.3508 37.9118C72.8645 38.2112 72.4476 38.4179 71.9147 38.5558C70.8532 34.6468 70.0651 30.6962 68.3717 27.4138Z" fill="#FDB927"/>
</svg>
