<svg width="96" height="96" viewBox="0 0 96 96" fill="none" xmlns="http://www.w3.org/2000/svg">
<g clip-path="url(#clip0_6_373)">
<path d="M83.2124 33.6926C83.9195 33.3815 84.7475 33.0247 85.5101 32.7056L87.976 31.6731L79.8927 29.051L77.9497 19.9659L73.0612 27.2772L64.7739 25.1665L67.5588 28.7854C57.1224 27.4595 45.5313 28.4386 35.1206 31.5383L35.8079 29.378L34.0292 29.8893C19.8532 33.9542 7.446 44.9935 1.64649 58.6983L0.000488281 62.5908L3.2033 59.8359C10.1318 53.8843 17.2823 47.7404 27.6612 44.4504L24.7693 51.177L27.2908 49.7956C29.5686 48.547 32.1396 47.5878 34.8829 46.9258L38.5868 48.1982C44.3864 50.186 49.4194 51.9083 54.3632 55.0714C54.3256 60.4662 56.5143 65.8173 60.4183 69.8346C64.251 73.7767 69.2523 75.9389 74.5171 75.9389H74.6735C86.7599 75.8478 93.8865 66.947 95.5879 58.1711C97.1171 50.2812 94.6907 39.4064 83.2124 33.6926" fill="#FEFEFE"/>
<path d="M37.3632 46.7323C44.2323 45.6779 51.0875 45.9871 57.0891 48.5219L57.82 46.9126C48.1105 43.7852 35.9053 43.9457 26.8139 48.9263L29.4027 42.9052C17.9759 45.995 10.2868 52.4441 2.55798 59.0855C8.19313 45.7651 20.4459 34.8151 34.303 30.8413L33.5978 33.0512C45.7317 29.0893 59.05 28.3382 69.8331 30.1199L67.3077 26.832L73.4934 28.4096L77.4727 22.4638L79.0454 29.8167L85.1282 31.7907C85.1282 31.7907 80.6973 33.6477 80.9092 33.7349C103.947 43.2303 96.5728 74.7802 74.666 74.9487C63.5859 75.0398 54.9896 65.0213 55.3639 54.541C49.7308 50.8309 44.0778 49.0452 37.3632 46.7323" fill="#C4CDD3"/>
<path d="M78.6307 33.7438C79.8984 33.1909 82.2653 32.1583 82.2653 32.1583L82.4416 32.081L82.2574 32.0196C82.2574 32.0196 78.4505 30.767 77.6324 30.5015C77.5096 29.6393 76.9075 25.4971 76.9075 25.4971L76.8798 25.297L75.4953 27.5504C75.4953 27.5504 74.701 28.8287 74.2731 29.5263C73.3719 29.2964 69.4382 28.2936 69.4382 28.2936L69.2302 28.2421L69.361 28.4105C69.3649 28.4145 70.9634 30.4737 71.9319 31.7262C67.9725 30.8661 63.4049 30.3845 58.1679 30.3845C56.4487 30.3845 54.6581 30.436 52.7962 30.5431C45.6557 30.9513 38.6341 32.2832 31.8957 34.7189L32.6662 32.4259L32.5295 32.4675C21.9842 35.7634 10.4524 45.6551 5.35406 55.4358L5.46896 55.523C12.6768 48.7588 22.4318 43.3561 31.1767 41.39L28.879 46.7471L29.0573 46.6619C33.1257 44.6958 38.4677 43.8258 43.8592 43.8258C49.3735 43.8258 54.9393 44.7375 59.2415 46.3051L57.5915 49.9023C53.6697 48.1027 47.997 46.8898 43.2907 46.8898C42.4529 46.8898 41.6448 46.9275 40.8822 47.0087L40.8703 47.1534C46.4282 48.7231 52.1842 50.4969 56.7458 54.1555C56.7181 54.5427 56.7042 54.9307 56.7042 55.3189C56.7062 64.947 65.0133 73.6614 74.7604 73.6634C74.8258 73.6634 74.8931 73.6614 74.9585 73.6614C85.7019 73.5345 93.6624 63.6785 93.6644 53.4024C93.6663 45.8335 89.3365 38.0327 78.6307 33.7438" fill="#120C0D"/>
<path d="M72.7702 51.3801C68.8028 51.3801 64.8335 49.9254 60.8463 48.4588C59.7965 50.6825 59.2617 53.0132 59.2617 55.3835C59.2617 56.644 59.4122 57.9184 59.7192 59.1908C60.0481 59.1987 60.3788 59.2027 60.7096 59.2027C68.4067 59.2027 76.5752 57.0622 83.1729 53.1479C82.4124 51.7329 81.4695 50.4109 80.4911 49.1385C77.9221 50.7637 75.3471 51.3801 72.7702 51.3801" fill="#C4CDD3"/>
<path d="M60.4324 60.6981H60.1729C62.5795 66.9272 68.0998 71.0556 74.8322 71.1487C76.9873 65.8372 79.378 60.0342 84.8428 57.3209C84.5575 56.3637 84.207 55.4322 83.8207 54.5146C76.7832 58.629 68.5672 60.6981 60.4324 60.6981V60.6981ZM77.0695 41.1496C74.6767 40.2359 73.1516 39.9525 73.009 39.9267C72.3395 40.0179 71.4303 40.1071 70.6955 40.2538C74.7639 41.875 77.7667 43.841 80.7853 47.2083C82.3362 45.9815 83.6989 44.5922 84.6437 42.8857C81.8766 40.1923 76.6654 36.8925 63.6679 35.8698C69.1565 37.1759 74.2033 38.9378 77.1368 41.0208L77.0695 41.1496V41.1496ZM40.628 39.3455C41.4342 39.3276 42.3037 39.3177 43.2247 39.3177C52.4588 39.3217 66.7101 40.4078 72.2363 46.9738L72.1432 47.0848C70.2318 46.0185 66.407 44.2527 64.0223 44.2546C63.945 44.2546 63.8698 44.2566 63.7965 44.2606C62.9764 45.1663 62.2515 46.1692 61.6018 47.2077C65.2959 48.5692 69.0355 49.9229 72.7414 49.9209C75.0687 49.9209 77.3822 49.3898 79.6739 47.9925C73.2683 41.0083 62.4278 37.9621 52.2013 37.9621C48.1409 37.9621 44.1755 38.4417 40.628 39.3454V39.3455ZM84.3244 52.4173C86.111 51.2004 87.654 49.93 89.0544 48.2969C88.173 46.6202 86.6498 44.7374 85.5564 43.7683C84.5383 45.5639 83.235 47.0463 81.6504 48.3504C82.5834 49.5951 83.5698 51.0478 84.3244 52.4173" fill="#C4CDD3"/>
<path d="M76.3983 71.0839C79.6427 70.6875 82.6257 69.5796 85.1333 67.449C85.5195 66.0122 85.6839 64.5257 85.6839 63.0353C85.6839 61.6123 85.5334 60.1834 85.2779 58.7941C80.3835 61.1466 78.3513 66.3134 76.3983 71.0839H76.3983ZM87.1287 63.9924C87.1287 64.4839 87.1168 64.9754 87.093 65.4669C88.9965 62.8904 90.0165 60.6529 90.5811 57.3609C89.1926 57.4838 87.816 57.7177 86.5067 58.1517C86.9345 60.092 87.1287 62.0343 87.1287 63.9924V63.9924ZM84.9984 53.7796C85.4262 54.7627 85.8085 55.7596 86.1413 56.7802C87.6664 56.2828 89.1401 56.0271 90.7306 55.93C90.7326 55.8171 90.7326 55.7061 90.7326 55.5931C90.7326 53.4863 90.4216 51.8651 89.7363 49.8495C88.2765 51.3439 86.7355 52.6163 84.9984 53.7796Z" fill="#C4CDD3"/>
<path d="M90.7304 55.9311C89.1398 56.0282 87.6682 56.2838 86.141 56.7813C85.8083 55.7586 85.428 54.7637 84.9982 53.7807C86.7352 52.6153 88.2782 51.3429 89.736 49.8486C90.4214 51.8662 90.7323 53.4874 90.7323 55.5941C90.7323 55.7051 90.7323 55.8181 90.7304 55.9311" fill="#C4CDD3"/>
<path d="M90.7304 55.9312C89.1398 56.0283 87.6682 56.2839 86.141 56.7814C85.8083 55.7587 85.428 54.7638 84.9982 53.7808C86.7352 52.6154 88.2782 51.343 89.736 49.8487C90.4214 51.8663 90.7323 53.4875 90.7323 55.5942C90.7323 55.7052 90.7323 55.8182 90.7304 55.9312V55.9312ZM85.5559 43.7682C86.6493 44.7374 88.1744 46.6222 89.0559 48.2969C87.6535 49.93 86.1105 51.2023 84.3239 52.4172C83.5693 51.0477 82.5829 49.595 81.65 48.3504C83.2345 47.0463 84.5378 45.5638 85.556 43.7682" fill="#C4CDD3"/>
<path d="M85.5558 43.7685C86.6491 44.7376 88.1743 46.6224 89.0557 48.2971C87.6533 49.9302 86.1104 51.2026 84.3238 52.4175C83.5691 51.048 82.5827 49.5953 81.6498 48.3506C83.2344 47.0465 84.5377 45.5641 85.5558 43.7685L85.5558 43.7685ZM63.6671 35.8698C76.6645 36.8944 81.8758 40.1943 84.6448 42.8857C83.698 44.5922 82.3353 45.9815 80.7864 47.2083C77.7678 43.843 74.763 41.875 70.6966 40.2538C71.4295 40.1091 72.3386 40.0179 73.0081 39.9267C73.1507 39.9525 74.6759 40.2359 77.0686 41.1496L77.1379 41.0208C74.2025 38.9378 69.1556 37.1779 63.6671 35.8698" fill="#C4CDD3"/>
<path d="M63.6672 35.8698C76.6647 36.8944 81.876 40.1943 84.645 42.8857C83.6982 44.5922 82.3355 45.9815 80.7866 47.2083C77.7679 43.843 74.7632 41.875 70.6968 40.2538C71.4297 40.1091 72.3388 40.0179 73.0083 39.9267C73.1509 39.9525 74.6761 40.2359 77.0688 41.1496L77.1381 41.0208C74.2027 38.9378 69.1558 37.1779 63.6672 35.8698V35.8698ZM60.7096 59.2036C60.3788 59.2036 60.0481 59.1996 59.7193 59.1917C59.4123 57.9173 59.2617 56.6449 59.2617 55.3844C59.2617 53.0121 59.7965 50.6814 60.8483 48.4596C64.8335 49.9243 68.8028 51.381 72.7702 51.381C75.3471 51.381 77.922 50.7646 80.491 49.1375C81.4695 50.4118 82.4123 51.7338 83.1729 53.1488C76.5752 57.0631 68.4067 59.2036 60.7096 59.2036" fill="#C4CDD3"/>
<path d="M60.7096 59.2027C60.3788 59.2027 60.0481 59.1987 59.7193 59.1908C59.4123 57.9164 59.2617 56.644 59.2617 55.3835C59.2617 53.0112 59.7965 50.6805 60.8483 48.4588C64.8335 49.9234 68.8028 51.3801 72.7702 51.3801C75.3471 51.3801 77.922 50.7637 80.491 49.1366C81.4695 50.4109 82.4123 51.7329 83.1729 53.148C76.5752 57.0622 68.4067 59.2027 60.7096 59.2027" fill="#C4CDD3"/>
<path d="M74.8323 71.1479C68.0999 71.0548 62.5796 66.9265 60.173 60.6973H60.4325C68.5673 60.6973 76.7833 58.6282 83.8208 54.5138C84.2071 55.4334 84.5577 56.3629 84.8429 57.3202C79.3781 60.0334 76.9873 65.8364 74.8323 71.1479" fill="#C4CDD3"/>
<path d="M74.8323 71.1479C68.0999 71.0548 62.5796 66.9265 60.173 60.6973H60.4325C68.5673 60.6973 76.7833 58.6282 83.8208 54.5138C84.2071 55.4334 84.5577 56.3629 84.8429 57.3202C79.3781 60.0334 76.9873 65.8364 74.8323 71.1479V71.1479ZM87.093 65.4674C87.1167 64.9739 87.1286 64.4824 87.1286 63.9928C87.1286 62.0347 86.9345 60.0905 86.5067 58.1502C87.8159 57.7162 89.1925 57.4843 90.581 57.3594C90.0165 60.6533 88.9965 62.8909 87.093 65.4674" fill="#C4CDD3"/>
<path d="M87.0932 65.4674C87.1169 64.974 87.1288 64.4824 87.1288 63.9929C87.1288 62.0348 86.9347 60.0905 86.5069 58.1503C87.8161 57.7162 89.1927 57.4843 90.5812 57.3595C90.0167 60.6534 88.9966 62.891 87.0932 65.4674V65.4674ZM79.6732 47.9914C77.3815 49.3886 75.07 49.9218 72.7407 49.9218C69.0348 49.9218 65.2952 48.5701 61.6011 47.2066C62.2508 46.1681 62.9758 45.1672 63.7958 44.2595C63.8691 44.2575 63.9443 44.2535 64.0216 44.2535C66.4064 44.2515 70.2311 46.0194 72.1425 47.0857L72.2356 46.9727C66.7114 40.4066 52.4581 39.3206 43.224 39.3166C42.305 39.3166 41.4335 39.3285 40.6273 39.3443C44.1767 38.4426 48.1402 37.963 52.2026 37.963C62.4291 37.961 73.2695 41.0072 79.6732 47.9914" fill="#C4CDD3"/>
<path d="M79.6732 47.9914C77.3815 49.3886 75.07 49.9218 72.7407 49.9218C69.0348 49.9218 65.2952 48.5701 61.6011 47.2066C62.2508 46.168 62.9758 45.1672 63.7958 44.2595C63.8691 44.2575 63.9443 44.2535 64.0216 44.2535C66.4064 44.2515 70.2311 46.0194 72.1425 47.0857L72.2356 46.9727C66.7114 40.4066 52.4581 39.3206 43.224 39.3166C42.305 39.3166 41.4335 39.3285 40.6273 39.3443C44.1767 38.4426 48.1402 37.963 52.2026 37.963C62.4291 37.961 73.2695 41.0072 79.6732 47.9914H79.6732ZM85.1333 67.4482C82.6257 69.5787 79.6427 70.6886 76.3983 71.083C78.3513 66.3125 80.3835 61.1477 85.2778 58.7932C85.5334 60.1825 85.6839 61.6114 85.6839 63.0345C85.6839 64.5249 85.5195 66.0113 85.1333 67.4482" fill="#C4CDD3"/>
<path d="M85.1332 67.4485C82.6256 69.579 79.6426 70.6889 76.3982 71.0833C78.3512 66.3128 80.3834 61.148 85.2778 58.7935C85.5333 60.1828 85.6838 61.6118 85.6838 63.0348C85.6838 64.5252 85.5194 66.0116 85.1332 67.4485V67.4485ZM72.292 35.1343L75.1185 34.1453L77.2636 36.5811L77.014 33.4021L79.7514 32.2071L76.7724 31.23L76.3109 28.055L74.7204 30.6334L71.7037 29.8624L73.7043 32.435L72.292 35.1343Z" fill="#C4CDD3"/>
<path d="M57.2341 37.4244L59.197 36.4553L60.833 37.91L60.5141 35.7458L62.4038 34.6458L60.2467 34.2772L59.7813 32.1427L58.7691 34.083L56.5884 33.861L58.1195 35.4247L57.2341 37.4244ZM35.1618 41.7688L36.4552 41.1306L37.5287 42.0879L37.3188 40.6649L38.5607 39.9395L37.1425 39.6957L36.8355 38.2925L36.168 39.5629L34.7359 39.4222L35.7421 40.4508L35.1618 41.7688Z" fill="#FEFEFE"/>
<path d="M84.0303 61.3014L84.0284 61.0378L82.2061 64.0919L82.729 61.4025L82.6003 61.341C79.9303 64.5814 78.9102 66.9102 78.0803 69.78L78.0407 69.9167L78.1753 69.8712C81.1722 68.8306 82.7191 67.6276 83.3529 67.1242L83.3668 67.1123L83.3747 67.0965C83.8204 66.1293 84.0303 64.1692 84.0323 61.7671C84.0323 61.6125 84.0303 61.4579 84.0303 61.3014V61.3014ZM77.9378 54.2293C75.0222 54.8219 71.6194 55.1707 68.5017 55.1707C68.0323 55.1707 67.5708 55.1628 67.1192 55.147L73.808 53.1671L73.7902 53.0224C69.3732 52.8143 65.9644 52.731 61.6484 50.7075L61.587 50.6778L61.5534 50.7372C60.9116 51.8907 60.5452 53.5059 60.5452 55.143C60.5452 56.0725 60.664 57.01 60.9175 57.8701L60.9334 57.9217L60.9849 57.9236C60.9888 57.9236 61.1414 57.9276 61.4246 57.9276C63.3538 57.9276 71.2787 57.7155 77.9854 54.3681L77.9378 54.2293V54.2293ZM79.4131 59.6582C76.0399 62.1653 73.5006 64.1928 68.5271 65.1302C73.1322 62.7361 76.2221 61.0891 79.1259 58.146L79.0367 58.031C73.8869 61.0316 67.1802 62.3159 62.4482 62.4943L62.3195 62.4983L62.3888 62.6073C66.2849 68.775 71.2129 69.3279 72.8153 69.3279H72.8252C73.158 69.3279 73.3442 69.3061 73.3481 69.3061L73.3818 69.3001L73.3996 69.2724C75.4913 65.9646 76.8203 62.7797 79.5121 59.7672L79.4131 59.6582H79.4131Z" fill="#0077C0"/>
<path d="M75.9595 39.1052C75.7159 38.9764 75.4663 38.8555 75.2068 38.7386C79.1901 39.9218 81.8759 41.4597 83.3773 42.6291C83.1456 42.9719 82.888 43.3029 82.6246 43.624C80.7806 41.7114 78.5285 40.1537 75.9595 39.1052H75.9595ZM88.2301 61.4235L88.2162 61.1638C88.4321 60.0916 88.5529 59.0154 88.5905 57.9532C88.8718 57.8778 89.161 57.8204 89.4502 57.7669C89.1412 59.0848 88.7569 60.2839 88.2301 61.4235V61.4235ZM89.8939 54.4313C89.3749 54.5007 88.8936 54.576 88.4182 54.679C88.3113 53.9081 88.1568 53.1451 87.9607 52.3939C88.4776 51.9599 88.9728 51.5179 89.474 51.0462C89.7611 52.1541 89.882 53.1946 89.8939 54.4313ZM88.1172 47.887C87.6755 48.3627 87.2476 48.7849 86.8138 49.1793C86.3306 48.1407 85.766 47.1438 85.1124 46.2024C85.4531 45.7922 85.7819 45.3681 86.0909 44.9241C86.9228 45.8457 87.6457 46.9239 88.1172 47.887" fill="#FEFEFE"/>
</g>
<defs>
<clipPath id="clip0_6_373">
<rect width="96" height="96" fill="white"/>
</clipPath>
</defs>
</svg>
