<svg width="90" height="90" viewBox="0 0 90 90" fill="none" xmlns="http://www.w3.org/2000/svg">
<g clip-path="url(#clip0_2_2687)">
<path d="M3.12053 60.2364C2.40004 59.1658 -3.05176e-05 55.0941 -3.05176e-05 48.5311C-3.05176e-05 46.0677 0.340531 43.2567 1.22548 40.1282C1.23476 40.1073 1.23707 40.0911 1.23939 40.068L1.62627 38.5524L1.72126 38.6474L1.90658 38.0912C2.21703 37.1573 2.54136 36.1747 2.6178 35.9453C2.66878 35.7437 2.95141 34.6197 3.17612 33.8364C3.24331 33.6024 3.30122 33.41 3.36145 33.2432L3.37536 33.1319C3.44718 32.5503 3.53984 31.9895 3.64871 31.4472C3.6881 31.1575 3.73676 30.8794 3.77613 30.6407L3.79467 30.5364L3.83636 30.4414C3.86186 30.3765 3.88502 30.3279 3.90354 30.2862C5.02251 25.7116 7.11908 23.0048 8.29825 21.7743L8.31448 21.7604L8.32837 21.7465C8.55774 21.5333 9.20641 20.9261 9.95236 20.4626C10.2952 20.0131 11.4095 18.5693 12.4312 17.4222C12.7787 17.0375 13.1123 16.6876 13.425 16.4025C13.5941 16.0155 13.9996 15.1882 14.764 14.2334C15.7741 12.9704 17.4259 11.478 19.9464 10.5534C21.8808 9.24172 23.9311 8.07606 26.0601 7.07263C26.4655 6.65318 28.0107 5.126 30.4085 3.58955C33.1977 1.80745 37.1615 0.00219619 41.8482 -0.00012207C42.0265 -0.00012207 42.2072 0.00219628 42.3856 0.00683281L44.093 0.055494L41.9802 2.89895C43.1038 2.81554 44.2413 2.7692 45.3903 2.7692C51.4507 2.7692 57.2354 3.9557 62.5012 6.09468L62.5267 6.10395L62.5499 6.11322C62.756 6.21286 63.1197 6.39594 63.495 6.62536C63.8147 6.83162 64.1391 7.03785 64.424 7.35302C64.7854 7.39244 65.5569 7.5199 66.421 7.90689L66.4464 7.91848L66.4696 7.93007C72.1709 10.9195 77.1355 15.0793 81.0113 20.0872L81.0461 20.1289L81.0739 20.1799C81.1341 20.2819 81.287 20.5901 81.4167 21.239C81.4816 21.2784 81.5743 21.3386 81.6785 21.4035C81.887 21.5472 82.121 21.7048 82.3503 21.9365L82.4013 21.9898L82.4453 22.0477C87.213 28.9745 90 37.3149 90 46.2856C90 54.7858 87.4956 62.7276 83.1681 69.4296L83.1519 69.4528L83.1357 69.4736C83.0662 69.564 83.0361 69.5941 82.9712 69.6521C82.9156 69.71 82.8461 69.7679 82.7558 69.8374C82.626 69.9371 82.4546 70.053 82.2368 70.1851C82.2183 70.2685 82.1951 70.3797 82.1627 70.5025C82.0909 70.7737 82.0098 71.0889 81.7943 71.4388L81.7828 71.4573L81.7666 71.4805C73.6837 82.574 60.3953 89.7997 45.3903 89.7997C25.7636 89.7997 9.08825 77.4386 3.12053 60.2364Z" fill="#FEFEFE"/>
<path d="M81.7127 22.5555C81.4555 22.2913 80.8532 21.9344 80.8532 21.9344C80.6308 21.851 80.5868 21.6493 80.5868 21.6493C80.4663 20.8985 80.3087 20.632 80.3087 20.632C76.5094 15.7261 71.6444 11.6497 66.0567 8.71587C65.0582 8.2686 64.1593 8.21994 64.1593 8.21994C63.9578 8.22458 63.8628 8.06698 63.8628 8.06698C63.5338 7.60119 62.54 7.09599 62.167 6.91989C57.0031 4.82262 51.3343 3.66159 45.3897 3.66159C43.585 3.66159 41.8128 3.77051 40.0683 3.97674L42.3595 0.894592C33.1902 0.621149 26.6085 7.7889 26.6085 7.7889L26.6132 7.79817C24.4147 8.82015 22.3088 10.0159 20.3258 11.3739L20.3304 11.3623C15.5511 13.0772 14.1704 16.9334 14.1704 16.9334C12.9588 17.9484 10.5587 21.1349 10.5587 21.1349C9.87067 21.5312 9.15713 22.187 8.94169 22.3932C7.84127 23.538 5.82345 26.122 4.74853 30.5714C4.72072 30.6432 4.68596 30.7151 4.65353 30.7915C4.61185 31.0372 4.56319 31.3176 4.52612 31.5934C4.42188 32.1241 4.3292 32.671 4.2574 33.2411L4.3014 33.1808C4.28519 33.3013 4.27131 33.3731 4.27131 33.3731C4.16007 33.4473 3.47204 36.1911 3.47204 36.1911C3.36083 36.5364 2.11216 40.2929 2.11216 40.2929L2.10289 40.286C2.10057 40.2929 2.10057 40.3022 2.10057 40.3092C-1.18677 51.7966 3.18014 58.7627 3.92379 59.8334C9.72934 76.732 26.1012 88.91 45.3897 88.91C60.1075 88.91 73.1271 81.821 81.0478 70.957C81.2725 70.6001 81.386 69.8817 81.386 69.8817C81.393 69.643 81.5713 69.5364 81.5713 69.5364C82.1829 69.2073 82.3938 68.9802 82.4192 68.9478C86.661 62.3825 89.1097 54.6146 89.1097 46.2835C89.1097 37.4981 86.383 29.3385 81.7127 22.5554" fill="#051821"/>
<path d="M27.0404 14.3005C27.154 14.18 27.2582 14.071 27.3486 13.9714C27.4968 13.8208 27.5524 13.7814 27.571 13.7929C27.5816 13.7834 27.5924 13.7742 27.6034 13.7651C27.6405 11.5775 28.1362 9.82091 28.1362 9.82091C32.1093 4.26838 38.6678 2.7945 38.6678 2.7945C39.4832 2.56277 38.9573 2.92196 38.9573 2.92196C34.8267 7.54984 35.2576 11.3712 35.2576 11.3712L39.1983 25.7554C39.1983 25.7554 36.0036 24.6338 33.5433 19.5772C32.4058 29.6626 41.9111 37.8361 41.9111 37.8361C42.3258 38.193 41.6748 37.8083 41.6748 37.8083C39.2933 36.6195 36.5527 34.112 35.8044 33.4075C36.0036 34.1862 40.6323 57.4553 40.6439 57.5202C40.6671 57.6291 40.7296 57.8562 40.7783 58.0023L42.3814 54.0209L43.7065 65.7702C37.6809 71.3807 31.2614 69.1583 30.8653 69.01C31.0205 69.2649 31.1409 69.448 31.1409 69.448C31.1409 69.448 36.3557 79.6886 57.5856 78.6017C57.5856 78.6017 58.093 78.5971 58.0165 78.662C58.0235 78.6805 57.9957 78.706 57.9007 78.7408C57.4999 78.8845 56.8767 78.9864 56.8767 78.9864C31.2452 85.8321 17.9638 63.9835 17.3892 63.0102C17.2271 62.7877 15.983 61.0334 15.288 59.2652C15.2672 59.2166 15.237 59.0428 15.3575 59.1748C15.3575 59.1748 18.0796 62.0137 25.7732 62.7159C25.8311 62.7112 25.8636 62.702 25.8636 62.702C19.9121 56.0672 17.3846 51.2586 17.0116 50.5239C17.0116 50.5216 17.0093 50.5216 17.0023 50.5216C17.0023 50.5216 16.2888 49.4464 15.4409 46.399C15.4409 46.399 15.4641 46.2437 15.5359 46.399C15.8255 47.0015 17.7946 49.9075 20.1901 50.5587H20.1947C18.163 47.2773 16.9004 42.0816 16.7383 41.3238C19.509 45.2055 24.4157 45.4859 24.4157 45.4859C24.4087 45.4697 24.4018 45.4604 24.3902 45.4442C24.4018 45.4627 24.4064 45.472 24.4064 45.472C16.3328 37.419 18.0726 28.6476 21.3484 22.3164C23.2782 18.5784 25.7431 15.6886 27.0404 14.3005Z" fill="#FEFEFE"/>
<path d="M51.196 67.6232L45.9001 73.1989L45.9117 73.1873L52.4493 68.1678L49.0646 56.495L50.5427 42.4561L47.9596 55.8646L51.196 67.6232ZM52.3724 33.2715C51.9114 35.67 51.1561 38.1265 49.8495 39.2203C49.9445 39.1716 50.0627 39.1114 50.197 39.0303C50.5909 38.7985 51.1121 38.4277 51.638 37.8831C52.6828 36.7963 53.7346 35.0188 53.7346 32.224C53.7346 30.9772 53.5238 29.5219 53.0095 27.8372C52.9585 28.8012 52.801 31.012 52.3724 33.2715V33.2715ZM52.317 15.3591C54.1634 12.5689 57.1959 12.3255 58.4816 12.3163C57.3696 11.9895 56.3387 11.8713 55.4167 11.8713C53.4684 11.8713 52.0182 12.4067 51.4205 12.6731C51.3324 12.7102 51.2629 12.745 51.212 12.7705C51.6869 13.4333 52.1548 14.8446 52.317 15.3591H52.317ZM52.2869 15.5746L52.3772 15.5491L52.2869 15.5746ZM47.6814 22.73L47.7624 22.6837L47.6814 22.7301L47.6814 22.73ZM49.9841 21.2168C50.0305 21.2214 50.0652 21.2585 50.0675 21.3048C50.0722 21.5644 50.0745 21.8193 50.0745 22.0835C50.0722 28.0856 48.4783 34.6624 47.8713 36.9497C50.1718 31.6868 50.7903 26.7739 50.7903 23.0012C50.7903 20.7904 50.5772 18.9735 50.3641 17.7082C50.2529 17.0501 50.1417 16.5449 50.0629 16.2088C49.4791 20.7278 47.7601 22.7764 47.7509 22.788C47.7323 22.8135 47.6999 22.8251 47.6721 22.8227C47.6397 22.8181 47.6142 22.7996 47.598 22.7718C44.7716 17.5529 40.6016 14.3688 38.695 13.1058C38.4443 12.938 38.1894 12.7765 37.9305 12.6215C43.3098 24.3128 44.8828 33.3345 45.2883 36.3055C45.2999 35.9648 45.3068 35.6172 45.3068 35.2649C45.3068 29.9233 43.9423 23.4832 43.2565 20.6004C43.0295 19.6386 42.8789 19.0755 42.8789 19.0755V19.0732C42.8697 19.0338 42.8836 18.9944 42.9183 18.9735C42.9484 18.9503 42.9924 18.9526 43.0272 18.9781C45.4435 20.8553 47.1416 26.1923 47.4404 27.1818C47.8922 26.6233 48.4853 25.2236 48.9648 23.9374C49.486 22.5493 49.8845 21.2817 49.8845 21.2793C49.8984 21.2376 49.9332 21.2145 49.9726 21.2145C49.9772 21.2145 49.9818 21.2168 49.9841 21.2168H49.9841Z" fill="#C4CDD3"/>
<path d="M4.72809 45.4631C4.73041 51.0225 5.6872 56.8415 10.4688 64.2665L10.4757 64.2758C14.9932 73.7981 23.3216 78.9219 27.2043 80.8847C28.497 81.5405 29.2917 81.8441 29.2986 81.8464C35.4679 84.7548 41.2711 85.8254 46.4697 85.8254C57.3603 85.8254 65.6146 81.1327 69.0572 78.7828C70.2085 78.0018 70.8201 77.4827 70.8201 77.4827L70.8804 77.5523L70.8201 77.4804C71.0495 77.2927 71.2209 77.1421 71.346 77.0308C71.2788 77.0679 71.2093 77.1096 71.1422 77.1513C70.8943 77.2973 70.6672 77.4457 70.6672 77.4457C62.2045 82.4142 54.4043 83.9321 48.0404 83.9321C38.0672 83.9321 31.6129 80.2127 31.6083 80.2103C10.4642 69.1169 10.1537 49.8916 10.1537 49.8777C10.1537 49.836 10.1815 49.7989 10.2255 49.7873C10.2672 49.7781 10.3089 49.7966 10.3298 49.836C13.0565 55.122 16.3647 56.925 17.8381 57.4974C18.0071 57.5637 18.1786 57.6232 18.3524 57.6758C12.204 49.9241 10.4433 43.4029 10.4433 38.483C10.4433 31.9711 13.5268 28.2841 13.5338 28.2748C13.5592 28.2424 13.6056 28.2308 13.6426 28.2493C13.6843 28.2679 13.7029 28.3119 13.6959 28.3513C13.2557 30.6455 13.0866 32.6733 13.0843 34.4275C13.0866 38.7171 14.0921 41.389 14.5925 42.4504C14.6064 42.4829 14.6203 42.513 14.6365 42.5408C14.4559 41.0397 14.3654 39.5291 14.3654 38.0172C14.3654 23.5195 22.8583 14.5858 24.6514 12.864C23.3078 13.4248 21.6791 14.8663 20.3517 16.2266C18.8806 17.7306 17.7709 19.128 17.7686 19.1303C17.7454 19.1604 17.7038 19.172 17.6667 19.1604C17.6319 19.1488 17.6041 19.1118 17.6064 19.0724C17.6203 17.9206 18.276 16.4722 18.6327 15.7724C17.5393 16.7665 16.6334 18.3238 15.9871 19.6842C15.2713 21.1928 14.8774 22.4535 14.8774 22.4581L14.8589 22.4906C11.4951 26.2981 9.86647 30.3651 9.26415 32.1565C9.06259 32.7567 8.97688 33.095 8.97688 33.095C8.90042 33.4033 8.85642 33.5562 8.81472 33.6327C8.79617 33.6559 8.79617 33.6975 8.70817 33.7091C8.63864 33.7068 8.62012 33.6559 8.61084 33.6396C8.60157 33.6188 8.59925 33.6025 8.59696 33.584C8.59232 33.5469 8.59 33.5029 8.59 33.4542C8.59 33.2758 8.61084 33.0325 8.61084 33.0325C8.67571 30.2956 9.8132 27.2181 10.2719 26.0802C7.04711 29.5494 6.25712 34.2514 6.25712 38.0103C6.25712 39.7877 6.43551 41.3543 6.61156 42.469C6.78764 43.5883 6.96138 44.258 6.96138 44.2603L6.96369 44.2835C6.97297 46.4943 7.40849 49.2242 7.8394 51.4026C8.27262 53.581 8.69887 55.1985 8.69887 55.1962C8.84251 55.618 8.89579 55.8126 8.90042 55.9169C8.89811 55.9378 8.89811 55.954 8.88883 55.9818C8.87958 56.0073 8.83556 56.0467 8.79156 56.0444C8.71973 56.0351 8.71046 56.0073 8.6873 55.9888C8.66485 55.9636 8.64469 55.9364 8.62707 55.9076C8.58536 55.8474 8.53902 55.7686 8.49502 55.6898C8.43936 55.5903 8.3853 55.4898 8.33285 55.3886C6.08106 51.9379 4.98296 46.2464 4.73275 44.8119C4.73043 45.0297 4.72811 45.2452 4.72811 45.4631" fill="#C4CDD3"/>
<path d="M54.327 18.3077L54.2807 18.266L54.3039 18.2057C55.3371 15.4434 60.1951 12.9869 61.138 12.5258C58.8769 11.2558 56.7109 10.8757 54.9108 10.8757C53.5486 10.8757 52.4019 11.0959 51.5957 11.3137C50.7895 11.5339 50.3285 11.7517 50.3285 11.7517L50.2636 11.7842L50.2196 11.7262C49.3833 10.6811 48.2944 9.64054 47.4141 8.86422C46.5709 8.12032 45.9245 7.61746 45.8689 7.57573C45.7461 7.49695 45.6674 7.44827 45.6581 7.3324C45.6581 7.26519 45.7067 7.21885 45.7438 7.20033C45.7832 7.17946 45.8226 7.16787 45.8689 7.1586C45.9593 7.14239 46.0658 7.13776 46.1608 7.13776C46.2766 7.13776 46.3763 7.14701 46.3994 7.14935C65.7713 7.15164 76.0689 20.9959 76.0712 21.0005C76.2056 21.1558 76.2728 21.3064 76.2728 21.4501C76.2566 21.8672 75.784 22.0665 75.3554 22.2009C74.9221 22.333 74.4913 22.3817 74.4913 22.3817C72.6194 22.6412 70.8842 22.7548 69.2811 22.7548C59.2106 22.7548 54.3386 18.317 54.327 18.3077H54.327ZM47.7243 74.2832C47.6919 74.2716 47.6687 74.2461 47.6618 74.2114C47.6548 74.1789 47.6687 74.1441 47.6942 74.121L54.1924 68.8906L50.8958 56.6755V56.6407L51.8063 48.451C51.8086 48.4209 51.8225 48.3953 51.8457 48.3814C51.8688 48.3652 51.8966 48.3606 51.9221 48.3698C53.4025 48.8241 54.0951 50.8356 54.4519 52.7127C54.7044 54.0591 54.7763 55.3476 54.7971 55.9779C56.523 52.24 57.086 49.2389 57.086 46.9122C57.086 43.6192 55.9577 41.6725 55.3994 40.9078C55.2141 40.6552 55.0936 40.5347 55.0936 40.5347C55.0589 40.4999 55.0589 40.442 55.0936 40.4049C55.1284 40.3678 55.1863 40.3678 55.2233 40.4026C62.9633 47.7372 64.5178 58.0057 64.5178 65.083C64.5178 69.8639 63.8089 73.1963 63.8089 73.1986L63.8066 73.2102C63.5517 73.9657 62.771 74.1557 62.7571 74.1604C59.6065 74.8579 56.8288 75.0873 54.5469 75.0873C50.2657 75.0873 47.7313 74.2855 47.7243 74.2832" fill="#007DC5"/>
<path d="M65.9237 73.396C65.8033 73.3009 65.7268 73.1387 65.7291 72.9116C65.7291 72.8097 65.7431 72.6892 65.7755 72.5524C65.7755 72.5501 66.028 71.5814 66.2805 69.9106C66.5284 68.2374 66.7809 65.8736 66.7809 63.0927C66.7809 55.7187 65.0133 45.4317 56.8007 37.432C56.7683 37.4135 56.6525 37.3324 56.5783 37.2489C56.5505 37.2165 56.5204 37.1864 56.5158 37.1192C56.5135 37.0751 56.5482 37.0218 56.5853 37.0079C56.6224 36.9894 56.6548 36.9871 56.6942 36.9871C56.7753 36.9871 56.8865 37.0056 57.0648 37.0496C57.0718 37.0543 59.2541 37.7171 60.7877 39.4389C60.7738 39.3323 60.7553 39.1979 60.7344 39.038C60.6649 38.5977 60.5491 37.9836 60.3429 37.2675C59.9352 35.833 59.173 33.9976 57.783 32.3963C57.7807 32.394 57.5884 32.1923 57.4842 32.0533C57.4517 31.9977 57.4216 31.9792 57.4123 31.9004C57.4123 31.8841 57.417 31.8494 57.4425 31.8239C57.4679 31.8007 57.5004 31.7961 57.5166 31.7961C57.5838 31.8007 57.6116 31.8239 57.6788 31.8633C57.7413 31.9027 57.8247 31.9606 57.9382 32.044C58.4294 32.2827 79.0592 42.2662 79.782 62.43C79.782 62.4346 79.7913 62.5482 79.7913 62.7289C79.789 63.2202 79.7125 64.2051 79.0615 64.7636C78.8623 65.0139 73.9742 71.0971 66.7809 73.433C66.7763 73.433 66.5631 73.5165 66.3245 73.5165C66.1902 73.5165 66.0419 73.491 65.9237 73.396Z" fill="#007DC5"/>
<path d="M81.4416 59.2018C81.386 59.0581 81.3559 58.8565 81.3489 58.5854C80.8787 39.184 59.6163 26.9735 54.2996 24.2274C53.542 23.8357 53.1135 23.6365 53.1135 23.6365L52.7405 23.465L53.1505 23.4603H53.2015C55.9884 23.4627 57.6958 25.1474 58.2031 25.7291V25.7268C58.2031 25.2169 58.1012 24.6816 58.0016 24.2737C57.8974 23.8636 57.7954 23.5878 57.7954 23.5878L57.7282 23.3978L57.9159 23.4673C60.1422 24.3154 63.0103 24.5959 65.8227 24.5959C68.5401 24.5959 71.2089 24.334 73.1943 24.0721C75.182 23.8079 76.4839 23.5461 76.4863 23.5461L76.4909 23.5437H76.4955C76.5998 23.5345 76.6994 23.5298 76.7921 23.5298C77.9226 23.5275 78.284 24.1671 78.3326 24.2761C80.9899 27.2424 84.2818 34.1158 84.8332 42.3681C84.9004 43.4063 84.9328 44.4097 84.9328 45.3807C84.9259 52.6227 83.1953 57.9017 82.176 59.1531C82.0277 59.3339 81.8933 59.4428 81.7335 59.4475C81.5968 59.4475 81.4949 59.3431 81.4416 59.2018Z" fill="#007DC5"/>
<path d="M36.1771 4.82252C36.1887 4.80632 36.2072 4.79009 36.2142 4.77155L36.2072 4.77386C35.971 4.84107 31.7361 6.09015 30.4805 12.5534C30.4805 12.5534 30.4712 12.6716 30.5407 12.5627C30.9206 11.9347 32.2434 9.93012 33.462 10.5234C33.462 10.5234 33.4689 10.4724 33.4782 10.3913C33.5454 9.84437 33.9415 7.5988 36.1771 4.82255V4.82252ZM32.9282 63.2329C32.0131 61.3929 26.1335 48.5429 26.1335 48.5429C24.3033 49.1268 22.033 47.6367 22.033 47.6367V47.6437C24.9288 55.3282 31.7375 62.0487 32.824 63.27C32.8333 63.2793 32.8356 63.2793 32.8402 63.2863C33.0255 63.4879 33.0255 63.416 33.0255 63.416C32.9977 63.3766 32.9723 63.3117 32.9282 63.2329ZM27.0993 21.3883C21.7895 33.5246 33.7365 38.5279 33.8941 38.5905L33.8987 38.5928L33.2662 35.798L32.9048 34.1967C32.6014 34.0993 32.328 33.9904 32.0546 33.8676C31.9619 33.8282 31.8739 33.7842 31.7836 33.7425C31.6724 33.6915 31.5612 33.6359 31.4569 33.5826C26.2375 30.8063 26.7425 24.1576 27.0645 22.0001C27.0645 21.9816 27.0645 21.97 27.0668 21.9538C27.0808 21.8912 27.09 21.8309 27.0993 21.773C27.1317 21.5714 27.1572 21.4324 27.1734 21.3605C27.1804 21.3281 27.185 21.3049 27.185 21.3049V21.298C27.1989 21.1381 27.1224 21.3188 27.0993 21.3883Z" fill="#051821"/>
<path d="M34.9578 55.5516L34.0983 40.3007L39.2251 57.3059C39.2251 57.3059 37.5432 53.2875 34.9578 55.5516ZM35.2678 11.7041L36.4029 20.8231C36.4029 20.8231 36.9589 23.3143 33.5441 19.5786C36.0044 24.6329 39.1991 25.7569 39.1991 25.7569L35.2886 11.4839C35.2816 11.5071 35.2538 11.5325 35.2678 11.704V11.7041ZM29.8199 28.3378C29.5002 27.5869 29.3728 26.901 29.3728 26.2869C29.3728 24.0714 31.0037 22.8246 31.0106 22.8177L31.0593 22.7806C31.0593 22.8015 30.9759 21.3739 31.1103 19.089C29.799 21.0194 27.0214 25.5916 30.3458 29.1674C30.2925 29.0955 30.2461 29.0284 30.1998 28.9635C30.0284 28.7155 29.9102 28.5139 29.8199 28.3378Z" fill="#C4CDD3"/>
<path d="M33.2949 30.1939C32.7296 29.2044 31.2887 26.0457 31.064 22.8477C31.0617 22.8269 31.0593 22.8014 31.0593 22.7828L31.0107 22.8176C31.0037 22.8245 29.3728 24.069 29.3728 26.2867C29.3728 26.9008 29.5025 27.5891 29.8199 28.3377C29.9103 28.5138 30.0307 28.7154 30.1998 28.9634C30.2462 29.0282 30.2948 29.0955 30.3481 29.1719C30.4084 29.2507 30.4802 29.3226 30.5589 29.406C31.1173 30.0178 32.0625 30.6481 33.6146 30.7153C33.6146 30.7153 33.4872 30.5299 33.2949 30.1939Z" fill="#051821"/>
<path d="M37.9328 59.1569C38.4633 59.1638 38.8664 59.6459 39.1977 60.3203C39.529 60.9969 39.7954 61.8938 40.0016 62.786C40.2587 63.8937 40.4232 65.006 40.5113 65.6827C40.5089 65.9886 40.5066 66.2134 40.4997 66.3455V66.3571C40.6109 65.6202 41.6904 58.4918 38.0695 57.4884C38.0695 57.4884 35.5489 56.8441 35.7111 62.0977C35.7273 61.9749 35.7413 61.8706 35.7505 61.7733C36.5776 59.9147 37.2702 59.1708 37.9328 59.1569Z" fill="#C4CDD3"/>
<path d="M40.4983 66.3562V66.3585V66.3562ZM40.5119 65.6839C40.498 65.4614 40.2571 63.8948 40 62.7848C39.7938 61.8926 39.5297 60.9981 39.1961 60.3214C38.8671 59.647 38.4617 59.165 37.9335 59.158C37.2686 59.1696 36.5783 59.9158 35.7512 61.7744C35.7002 61.9088 35.7118 61.9273 35.7118 62.0965L36.9582 64.845C36.9582 64.845 37.6764 57.4849 40.4934 66.3327C40.4957 66.3513 40.4957 66.3652 40.498 66.3698V66.3536V66.3582V66.3443C40.5073 66.2146 40.5374 66.0523 40.5119 65.6839" fill="#051821"/>
</g>
<defs>
<clipPath id="clip0_2_2687">
<rect width="90" height="90" fill="white"/>
</clipPath>
</defs>
</svg>
