<svg width="90" height="90" viewBox="0 0 90 90" fill="none" xmlns="http://www.w3.org/2000/svg">
<g clip-path="url(#clip0_5_304)">
<circle cx="45" cy="45" r="45" fill="black"/>
<path d="M76.1833 67.655C75.647 68.0275 75.1161 68.4216 74.5209 68.8318C72.9657 69.9224 71.4534 70.8455 69.8338 71.8172C69.0884 72.2815 68.3108 72.7404 67.5118 73.2424C61.9882 76.6866 55.3706 80.498 48.2757 82.6844C46.2217 83.3268 44.3287 83.791 42.4893 84.088C40.7786 84.3363 39.1805 84.4659 37.5878 84.4659H37.2821C35.1852 84.4496 33.1527 84.2499 31.2007 83.8882C38.6227 86.5388 46.8653 87.1111 55.0756 85.0597C59.7733 83.8882 64.0904 81.9447 67.9032 79.4021C71.566 76.5193 74.5262 72.4219 76.4247 67.4769C76.3442 67.5363 76.2691 67.5956 76.1833 67.655ZM38.6067 82.3766C43.3205 81.8152 47.2246 80.6167 51.6703 78.371C52.3192 78.0525 52.9573 77.7178 53.5901 77.383C54.1318 77.1023 54.668 76.8162 55.2097 76.5409C58.9851 74.5543 63.0339 72.3949 67.9301 69.7496C69.6515 68.8211 71.3729 67.8278 73.0408 66.8722L74.9982 65.7764C75.7543 65.3661 76.4622 64.9827 77.1808 64.5455C77.2451 64.5023 77.331 64.4483 77.4167 64.3943C78.0442 62.0892 78.4517 59.5843 78.6395 56.9391C73.8291 59.363 66.6001 61.4899 55.998 63.6332C42.4196 66.3486 29.1361 65.1339 17.2737 60.0972C9.30468 56.7177 5.54007 52.0372 3.95804 49.4568C4.16183 51.2923 4.47822 53.1277 4.93946 54.9686C7.55645 65.3768 13.9006 73.8794 22.2128 79.3859L22.1753 79.3157L23.3444 80.0067C24.2882 80.5736 25.4626 81.0648 26.8408 81.4643C29.431 82.2417 31.9783 82.625 34.649 82.625C35.9038 82.625 37.2124 82.5386 38.6067 82.3766ZM80.924 64.8586C80.8918 64.6912 80.8542 64.6858 80.7685 64.6858C80.6397 64.6858 80.3555 64.7452 79.7763 65.1177C79.6744 65.1987 79.5618 65.2688 79.4439 65.3499C79.3473 65.4146 79.2454 65.4794 79.1597 65.5442C78.13 68.292 76.7625 70.8887 75.1966 73.2047C77.4704 70.7753 79.4331 68.0761 81.0473 65.1879H80.9937L80.924 64.8586ZM82.506 54.5421C82.3612 54.6447 82.2271 54.7472 82.0823 54.8552C81.8571 55.0226 81.6265 55.1953 81.3798 55.3627C81.1868 58.0025 80.6988 60.6154 79.9587 63.1419C81.2565 62.683 81.7016 63.2121 81.8357 63.5144C81.8464 63.5576 81.8571 63.6062 81.8678 63.6493C84.0075 59.4223 85.418 54.8282 86.0025 50.0452C85.3429 51.6431 84.2703 53.3058 82.506 54.5421ZM81.5085 52.2801C81.6104 52.2046 81.7123 52.129 81.8035 52.0642C85.2785 49.6349 86.1741 45.6886 86.2974 45.0408C86.2974 41.7315 85.8952 38.3737 85.0426 35.0212C85.0104 34.8863 84.9782 34.7567 84.9353 34.6217C84.6189 37.6989 83.112 40.5493 80.4521 43.0974C81.1599 46.1691 81.5085 49.2516 81.5085 52.2801ZM19.628 57.3115C29.4203 60.5614 34.8581 61.6033 42.0066 61.6033C44.6076 61.6033 47.5678 61.4468 51.3378 61.1337C61.779 60.2267 72.7887 56.7555 78.7038 53.8673C78.6931 50.9737 78.4303 48.0423 77.9209 45.1272C76.1672 46.1961 74.183 46.6981 71.7376 46.6981C69.2815 46.6981 66.3106 46.2285 61.4895 45.0624C55.7942 43.702 47.6429 38.8164 40.4568 34.5138C36.5152 32.1439 32.7935 29.9089 29.7099 28.3811C17.9762 22.54 11.3157 23.3605 9.54065 23.7438C5.35234 30.7564 3.24482 39.0053 3.78642 47.5025C4.57476 48.6362 8.59152 53.6513 19.628 57.3115ZM25.6128 23.5117C29.6027 25.1906 34.8366 28.014 40.3656 31.0102C49.0908 35.7284 58.1163 40.614 64.2245 42.1418C69.6676 43.4968 74.1348 43.378 77.2719 41.7909C77.2612 41.7315 77.2505 41.6668 77.2344 41.6128C77.1969 41.3806 77.154 41.1647 77.0843 40.9379C74.4351 29.7415 60.5134 5.22708 36.4026 5.22708C35.389 5.22708 34.3486 5.28105 33.319 5.37283C23.9986 8.09368 16.3245 13.8539 11.128 21.3091C12.0076 21.0284 13.1605 20.7747 14.7265 20.7747C17.6706 20.7747 21.3333 21.6924 25.6128 23.5117ZM79.653 40.031C80.2858 39.3724 80.7792 38.649 81.16 37.8932C84.0719 32.2572 81.4603 25.941 80.3662 23.7439C72.2578 10.2801 56.9526 2.34968 40.9931 3.89363C57.5156 4.78982 73.5234 19.6734 79.653 40.031Z" fill="#FEFEFE"/>
<path d="M61.3466 53.4416C61.3466 50.4131 61.3466 45.9108 57.7857 42.4179C58.1835 41.7181 58.5071 40.978 58.751 40.21C59.3463 38.4069 59.3946 36.4311 59.3624 35.1462L59.3463 26.811V26.6814C59.2498 23.5827 58.7832 20.3058 56.2681 17.4608C54.0104 14.9019 50.6157 13.5578 46.4435 13.5578L35.2032 13.5847C33.9806 13.5847 32.7632 14.0652 31.8676 14.9667C31.0043 15.8467 30.4894 17.0452 30.4894 18.3138L30.5967 73.0543C30.5967 74.6792 31.4225 76.1908 32.8061 77.0276C33.5676 77.4918 34.4364 77.751 35.3534 77.751L46.7814 77.7293C50.9107 77.7186 54.3643 76.5363 57.0618 74.1987L57.0993 74.1772C60.8693 70.7707 61.2715 66.7596 61.3681 62.9214V62.8781L61.3466 53.4416V53.4416Z" fill="#FEFEFE"/>
<path d="M46.2038 39.9165C45.2385 40.1917 44.772 40.2727 42.6751 40.3483L40.589 40.3537C40.2297 40.3645 40.1332 40.1917 40.1332 39.9165C40.1332 39.7491 40.1117 22.3228 40.1117 22.3228C40.1117 22.0421 40.2083 21.8747 40.5032 21.8424H43.9943C45.5388 21.891 47.2549 21.9395 48.3596 22.6251C48.8744 22.9382 49.1801 23.3161 49.3678 23.8182C49.518 24.3418 49.6682 25.2487 49.7539 26.7981L49.7754 33.611C49.7539 33.7244 49.7539 33.9025 49.7539 34.1293C49.7003 35.8892 49.6681 38.8745 46.2038 39.9165V39.9165ZM50.1508 68.3394C49.3088 68.9386 48.2899 69.2895 45.6729 69.3867C45.6729 69.3867 41.1843 69.3975 40.8357 69.3975C40.4335 69.3975 40.2726 69.1491 40.2726 68.7605C40.2726 65.4296 40.2297 47.0748 40.2297 46.9182C40.2297 46.7455 40.2726 46.5133 40.6212 46.5133C40.9591 46.5133 42.8789 46.4918 42.8789 46.4918C45.26 46.6106 47.7483 46.7941 49.3678 47.8252C50.3009 48.3974 50.9337 49.1964 51.336 50.2707C51.6952 51.372 51.765 52.5866 51.765 53.7204L51.781 61.818C51.781 65.5106 51.5505 67.2489 50.1508 68.3394V68.3394ZM58.4308 53.8175C58.4308 50.7512 58.4308 47.01 55.2668 44.3702C54.6072 43.8141 53.8135 43.3337 52.875 42.9504C54.3391 41.957 55.3419 40.5912 55.8943 38.8745C56.4037 37.336 56.3769 35.4357 56.3608 34.6907L56.3394 25.9992C56.2536 23.5914 55.9962 20.849 54.0602 18.6248C52.3495 16.7138 49.7539 15.7313 46.4613 15.7421L34.7437 15.7745C34.3951 15.7745 34.0679 15.9094 33.7998 16.174C33.537 16.4223 33.4191 16.757 33.4191 17.1025L33.521 74.2237C33.521 74.6772 33.7515 75.1307 34.1484 75.3628C34.373 75.5005 34.6308 75.5734 34.8938 75.5734L46.8205 75.5409C48.0808 75.5409 51.9688 75.5302 55.2078 72.7499C58.0769 70.1371 58.3665 67.0545 58.4523 63.5887L58.4308 53.8175V53.8175Z" fill="black"/>
</g>
<defs>
<clipPath id="clip0_5_304">
<rect width="90" height="90" fill="white"/>
</clipPath>
</defs>
</svg>
