<svg width="90" height="90" viewBox="0 0 90 90" fill="none" xmlns="http://www.w3.org/2000/svg">
<g clip-path="url(#clip0_2_2458)">
<path d="M45.0121 0C57.0025 0 68.2915 4.68372 76.808 13.2022C85.3098 21.7021 90 33.0096 90 44.9898C90 69.8149 69.8279 90 45.0121 90C32.9929 90 21.69 85.3255 13.1781 76.8034C4.69578 68.2998 0 57.0006 0 44.9898C0 33.0096 4.69578 21.7021 13.1781 13.2022C21.69 4.68372 32.9929 0 45.0121 0" fill="#FFC627"/>
<path fill-rule="evenodd" clip-rule="evenodd" d="M45.0118 1.69813C33.4449 1.69813 22.5713 6.20379 14.3791 14.4023C6.2151 22.5834 1.69813 33.4621 1.69813 44.99C1.69813 56.548 6.21519 67.4185 14.3792 75.6033C22.5711 83.805 33.4445 88.3019 45.0118 88.3019C68.8901 88.3019 88.3019 68.8783 88.3019 44.99C88.3019 33.4617 83.7901 22.5834 75.6076 14.4026L75.6074 14.4025C67.4102 6.20337 56.5499 1.69813 45.0119 1.69813V0C57.0021 0 68.2937 4.68541 76.8082 13.2017C85.3083 21.7 90 33.0099 90 44.99C90 69.8152 69.8289 90 45.0118 90C32.9944 90 21.6886 85.3244 13.1777 76.8034L13.1773 76.803C4.69715 68.3015 0 57.0002 0 44.99C0 33.0097 4.69724 21.7002 13.1775 13.2024L13.1779 13.202C21.6883 4.68503 32.9939 0 45.0118 0V1.69813Z" fill="white"/>
<path d="M45.0182 86.3997C67.8383 86.3997 86.4006 67.8365 86.4006 44.9877C86.4006 22.1806 67.8383 3.59973 45.0182 3.59973C22.1712 3.59973 3.5997 22.1805 3.5997 44.9877C3.5997 67.8365 22.1712 86.3997 45.0182 86.3997" fill="#8B2332"/>
<path d="M6.75034 44.9895C6.75034 23.9091 23.9153 6.75061 45.0142 6.75061C66.1086 6.75061 83.2503 23.9091 83.2503 44.9895C83.2503 66.0866 66.1086 83.2497 45.0142 83.2497C23.9153 83.2497 6.75034 66.0866 6.75034 44.9895" fill="#0D2240"/>
<path d="M75.1839 28.9477L76.0384 28.4699L73.2846 24.1981L72.5135 24.7548C67.8289 18.8454 59.5137 12.256 51.5992 11.2585C57.5578 13.979 64.2614 20.9275 68.355 26.2839L64.0545 29.4098L64.5713 30.204L45.1443 42.8253L25.7173 30.204L26.2378 29.4098L21.9122 26.2839C26.0327 20.9275 32.7196 13.979 38.6856 11.2585C30.7805 12.255 22.4578 18.8297 17.8112 24.7335L17.0049 24.1527L14.2502 28.4151L15.1093 28.9125L15.0871 28.9477C11.6661 35.6671 9.15263 46.0542 11.6012 53.6532C11.5372 47.0878 15.0648 38.0572 18.2333 32.0457L22.8735 34.6604L23.3531 33.9274L41.394 45.2674L17.5978 60.7298L17.5616 60.6824L14.3717 61.5425L14.406 61.6214C14.2502 62.2143 14.5424 63.3129 15.2207 64.3613C15.8971 65.4395 16.7516 66.1493 17.3918 66.2671L17.4465 66.3552L19.5648 63.7953L19.5462 63.748L66.9447 33.9274L67.4077 34.6604L72.0608 32.0457C75.2247 38.0572 78.7569 47.0878 78.7161 53.6532C81.1628 46.0542 78.6187 35.6671 75.1839 28.9477Z" fill="#FFC627"/>
<path d="M72.7376 60.6825L72.7014 60.7298L50.8045 46.5061L46.9697 48.7765L70.7474 63.7481L70.7214 63.7945L72.8341 66.3553L72.8981 66.2671C73.5374 66.1493 74.3929 65.4395 75.0702 64.3614C75.728 63.312 76.0398 62.2134 75.8839 61.6215L75.9228 61.5426L72.7376 60.6825L72.7376 60.6825ZM48.9002 15.0886L47.2542 17.2393L44.9755 11.8004V36.9205L52.6282 27.1254L60.3274 29.1101L48.9002 15.0886Z" fill="#FFC627"/>
<path d="M48.9001 20.9777V15.0887L47.2542 17.2403L48.9001 20.9777ZM44.9754 11.8004L31.0876 28.7296L37.2168 27.1709L44.9754 36.9215V11.8004Z" fill="white"/>
<path d="M36.8237 75.1523C38.7888 73.2633 41.2921 72.1099 43.9921 71.8557V68.0906H33.618C33.8648 70.8323 35.0162 73.2892 36.8237 75.1523V75.1523ZM43.9927 78.6417V74.1881C41.9783 74.434 40.1143 75.2802 38.5816 76.6701C40.1765 77.7334 42.0145 78.4292 43.9927 78.6417Z" fill="#FFC627"/>
<path d="M46.296 55.5729V60.0135C48.3057 59.7704 50.1837 58.9363 51.6849 57.5482C50.1122 56.4766 48.2853 55.7752 46.296 55.5729V55.5729ZM53.4559 59.0667C51.4871 60.9326 48.9912 62.1091 46.2968 62.3476V65.7722H56.6524C56.3378 63.1771 55.1734 60.8352 53.456 59.0667H53.4559ZM43.9928 60.0127V55.5731C42.0146 55.7753 40.1766 56.4759 38.6076 57.5494C40.1144 58.9365 41.9784 59.7697 43.9928 60.0127Z" fill="white"/>
<path d="M46.2959 68.0917V71.8569C48.9903 72.1102 51.5048 73.2635 53.4551 75.1535C55.2671 73.2904 56.4603 70.8326 56.6756 68.0917H46.2959Z" fill="#FFC627"/>
<path d="M33.6422 65.773H43.9931V62.3483C41.2922 62.1099 38.8074 60.9315 36.8237 59.0666C35.1109 60.835 33.9465 63.1769 33.6422 65.773Z" fill="white"/>
<path d="M46.2959 78.6423C48.2852 78.4298 50.1121 77.7339 51.6848 76.6706C50.1836 75.2807 48.3056 74.4345 46.2959 74.1887V78.6423Z" fill="#FFC627"/>
</g>
<defs>
<clipPath id="clip0_2_2458">
<rect width="90" height="90" fill="white"/>
</clipPath>
</defs>
</svg>
