<svg width="90" height="90" viewBox="0 0 90 90" fill="none" xmlns="http://www.w3.org/2000/svg">
<mask id="mask0_6_300" style="mask-type:alpha" maskUnits="userSpaceOnUse" x="0" y="3" width="90" height="84">
<path d="M90 3.14999H0V86.7556H90V3.14999Z" fill="white"/>
</mask>
<g mask="url(#mask0_6_300)">
<path d="M82.8721 14.8124C76.6565 7.30778 67.7408 3.16615 57.7618 3.14883L18.3731 3.15169L0 86.735L35.5648 86.7552L40.2474 67.2294L54.9983 67.2323H55.3383C66.5536 67.2323 75.7862 63.3559 82.0105 56.0474C93.5283 43.4926 91.4939 25.2243 82.8721 14.8124" fill="#FEFEFE"/>
</g>
<path d="M81.7637 15.7335C75.842 8.58368 67.3153 4.60639 57.7599 4.59198L19.5296 4.59486L1.79333 85.2911L34.4275 85.3142L39.1101 65.7855C43.4931 65.7855 55.0195 65.7884 55.0051 65.7884C65.9408 65.8662 74.9083 62.163 80.9482 55.0708C91.9156 43.1188 89.9878 25.6666 81.7637 15.7335" fill="#BEC0C2"/>
<path d="M37.4407 63.6589L32.7581 83.1847L4.43192 83.1963L21.2403 6.71953L57.7531 6.7455C66.8446 6.75992 74.6336 10.4517 80.1288 17.091C88.229 26.8713 89.0186 43.1293 79.3306 53.6941C73.3887 60.668 64.6776 63.731 55.0243 63.6618L37.4407 63.6589V63.6589Z" fill="#002D62"/>
<path d="M17.4761 23.7081L33.4806 23.7225C35.319 23.7225 37.2756 25.2656 36.4256 27.6046C35.904 29.0496 35.5006 30.7253 35.3161 32.2972C35.1692 33.5258 36.5408 34.3017 37.3246 34.3017L69.9444 34.3248C70.5582 34.3248 70.8809 34.1517 70.8809 33.8575C70.8809 33.5662 70.8521 32.4846 70.7368 31.7261C70.6216 31.0022 70.5034 30.8782 69.9185 30.8782C65.8525 30.8724 64.1956 29.0611 59.9337 26.3096C55.6718 23.5581 49.4216 21.9776 44.0503 21.9718L17.8651 21.9574L17.4761 23.7081V23.7081ZM37.2359 44.8511C36.6711 43.6427 36.1495 42.2034 35.8297 40.8796C35.4262 39.1837 33.9941 37.8051 31.5447 37.8051L14.3761 37.7935L14.8026 35.8669L70.4377 35.9044C70.9939 35.9044 70.8757 36.138 70.8469 36.7524C70.8152 37.3667 70.674 38.5059 70.5847 39.178C70.4954 39.8471 69.9421 39.6884 69.4119 39.7C68.1613 39.7288 65.8329 40.0259 64.4757 41.044C62.1704 42.7774 57.2544 45.8231 54.4909 46.7085C51.5257 47.6545 40.446 51.0463 37.2013 44.7963" fill="#FDBB30"/>
<path d="M11.3002 51.821L40.3525 51.8412C41.6348 51.8412 42.7385 52.1469 43.5943 52.8593C46.0495 54.8869 49.2336 56.3578 52.6109 57.3356C54.1266 57.774 56.7344 57.2087 59.0657 55.8877C64.8807 52.5969 68.6211 46.3353 69.8515 42.3033C70.1714 41.2505 69.5576 41.337 68.745 41.3947C66.2927 41.5707 63.7166 43.7886 60.3307 45.9517C56.939 48.1091 50.0462 50.154 43.505 50.1453L11.6719 50.1251L11.3002 51.821V51.821ZM53.9185 12.8786C54.3277 12.8065 55.7974 12.7171 56.6157 13.0373C62.134 15.2119 67.3555 20.9659 69.5397 27.0774C69.9605 28.2513 70.0642 29.004 69.5397 29.0646C67.0097 29.3444 65.8282 28.0955 62.8544 26.0766C59.8777 24.0606 57.1344 22.6819 53.3653 21.4821C49.6509 20.2996 42.8849 20.1294 42.0089 20.1006C41.1357 20.0718 41.2452 19.7055 41.6285 19.3248C44.8703 16.0858 49.2273 13.7352 53.9185 12.8786H53.9185ZM80.3968 33.8339C80.414 34.0675 80.1633 34.3328 79.8694 34.3328C79.8435 34.3328 73.5068 34.3271 73.5068 34.3271C72.6913 34.3271 72.6769 33.9464 72.6481 33.4791C72.6164 33.0119 72.4867 32.0774 72.4579 31.5208C72.4291 30.9814 72.2332 30.3642 72.9535 30.0614C74.7258 29.3115 76.4 27.5781 77.1636 26.0899C77.42 25.588 77.8033 24.7574 78.2384 25.4611C79.7455 27.8723 80.2181 30.8459 80.3968 33.8339V33.8339ZM78.1189 45.2786C78.0093 45.4949 77.603 45.6535 77.4705 45.3045C76.5426 42.8184 74.3353 41.1081 72.8167 40.2601C72.3585 40.0034 72.3182 39.7035 72.3758 39.2507C72.4392 38.7978 72.6294 37.35 72.6582 36.7385C72.6813 36.254 72.8772 35.905 73.2403 35.905L79.8709 35.9079C80.1072 35.9108 80.4011 36.1213 80.4011 36.2973C80.4011 39.4612 79.4386 42.5876 78.1188 45.2786" fill="#FDBB30"/>
<path d="M60.874 57.7335C60.4071 57.7999 59.3871 57.6384 60.995 56.7068C65.813 53.9034 70.1066 47.3246 71.2535 43.5463C71.6886 42.1042 71.7347 42.0292 72.288 42.1879C73.0257 42.3984 74.187 43.4021 75.0745 44.6308C75.9678 45.8565 76.3511 48.2475 75.8381 48.9339C72.3745 53.5861 66.8706 56.8539 60.874 57.7335ZM73.1323 27.9565C72.0114 28.5593 71.7924 28.4468 71.5532 27.6046C69.4612 20.2529 63.2859 14.8104 60.7616 13.2011C60.2803 12.8982 60.4043 12.6934 60.7529 12.7396C66.7956 13.5443 72.7173 16.8438 75.6998 21.3604C77.4 23.9504 74.2129 27.371 73.1323 27.9565" fill="#FDBB30"/>
</svg>
