<svg width="108" height="108" viewBox="0 0 108 108" fill="none" xmlns="http://www.w3.org/2000/svg">
<g clip-path="url(#clip0_2_2719)">
<mask id="mask0_2_2719" style="mask-type:alpha" maskUnits="userSpaceOnUse" x="0" y="32" width="109" height="44">
<path d="M0.00012207 75.3931H108V32.536H0.00012207V75.3931Z" fill="white"/>
</mask>
<g mask="url(#mask0_2_2719)">
<path d="M106.485 45.052C92.3195 36.7862 71.7325 32.6979 62.1421 32.5361C59.8158 32.5361 58.7409 33.6337 58.2463 34.558C58.0485 34.931 57.9149 35.3206 57.8457 35.7233C57.3165 35.3915 56.8812 35.172 56.8548 35.1571L55.427 34.4359L55.5524 35.2628C54.9786 34.9508 54.4378 34.6273 54.4329 34.624L54.0125 34.3698L53.5904 34.6207C53.5904 34.6207 53.0315 34.9508 52.4512 35.2644L52.5798 34.4309L51.1487 35.1571C51.1207 35.172 50.6855 35.3915 50.1562 35.7233C50.087 35.3206 49.9518 34.9294 49.754 34.5564C49.2627 33.6337 48.1877 32.5361 45.7229 32.5361C36.2677 32.6979 15.6824 36.7862 1.50042 45.0619L0.00012207 45.9895L0.250738 46.6316C0.306766 46.7735 1.51857 49.784 4.45485 51.2068L4.63622 51.5039C4.71206 51.6244 6.25852 54.0968 8.80243 55.2291L8.97884 55.5146C9.06293 55.65 10.8369 58.4625 14.2826 59.6508L14.6684 60.0684C14.7772 60.1856 17.0227 62.5756 20.6267 63.4619L20.5938 63.4866L21.555 64.1287C21.6654 64.203 23.9637 65.7148 27.5034 66.4526L27.0665 66.8421L28.3624 67.3159C28.6789 67.433 35.9117 70.0309 42.4322 68.0355C44.521 72.4655 49.0764 75.3935 54.0026 75.3935C58.9272 75.3935 63.4809 72.4655 65.5697 68.0355C72.0853 70.0309 79.323 67.433 79.6395 67.3159L80.9338 66.8421L80.4985 66.4543C84.0366 65.7149 86.3348 64.203 86.4453 64.1287L87.4065 63.4866L87.3751 63.4619C90.9775 62.5756 93.223 60.1856 93.3318 60.0684L93.7143 59.6525C97.1634 58.4641 98.9373 55.65 99.0198 55.5146L99.1962 55.2308C101.742 54.0985 103.29 51.6244 103.364 51.5039L103.547 51.2068C106.483 49.784 107.693 46.7735 107.75 46.6315L108 45.9895L106.485 45.052V45.052Z" fill="#FEFEFE"/>
</g>
<path d="M106.983 46.3302L106.069 45.7641C92.0224 37.5676 71.6283 33.5205 62.2654 33.3621H62.1418C60.6019 33.3621 59.5352 33.8952 58.9747 34.9449C58.5015 35.8378 58.5559 36.7324 58.7867 37.49C58.6251 37.3052 58.3911 37.1087 58.1355 36.9206C57.3755 36.3462 56.4819 35.894 56.4819 35.894C56.4819 35.894 56.5989 36.6334 56.3269 36.5426C56.1999 36.503 56.0433 36.4353 55.8702 36.3561C55.1102 35.9914 54.0089 35.3311 54.0089 35.3311C54.0089 35.3311 52.8911 35.9914 52.1327 36.3561C51.9596 36.4353 51.8013 36.503 51.6743 36.5426C51.4023 36.6334 51.521 35.894 51.521 35.894C51.521 35.894 50.6274 36.3462 49.8657 36.9206C49.6102 37.1087 49.3761 37.3052 49.2145 37.49C49.4453 36.7324 49.5014 35.8378 49.0265 34.9449C48.466 33.8952 47.3993 33.3621 45.8594 33.3621H45.7358C36.373 33.5205 15.9788 37.5676 1.93368 45.7641L1.01868 46.3302C1.01868 46.3302 2.39697 49.8458 5.80149 50.846L5.3382 51.0705C5.3382 51.0705 7.26222 54.1949 10.2529 54.8436L9.68082 55.0812C9.68082 55.0812 11.7895 58.4929 15.8766 59.2141L15.2732 59.5063C15.2732 59.5063 18.1897 62.6621 22.6625 62.9443L22.0129 63.4411C22.0129 63.4411 24.9773 65.4184 29.3479 65.9153L28.6456 66.5408C28.6456 66.5408 36.396 69.378 42.8869 67.0128C44.6773 71.5204 49.0777 74.5673 53.999 74.5673H54.0023C58.9236 74.5673 63.3239 71.5204 65.1144 67.0128C71.6052 69.378 79.3557 66.5408 79.3557 66.5408L78.6533 65.9153C83.024 65.4184 85.9883 63.4411 85.9883 63.4411L85.3387 62.9443C89.8116 62.6621 92.7264 59.5063 92.7264 59.5063L92.1247 59.2141C96.2117 58.4929 98.3187 55.0812 98.3187 55.0812L97.7483 54.8436C100.739 54.1949 102.663 51.0705 102.663 51.0705L102.2 50.846C105.604 49.8458 106.983 46.3302 106.983 46.3302Z" fill="#B6975B"/>
<path d="M105.504 46.7342C91.7644 38.7209 71.578 34.6442 62.2498 34.4857C61.1254 34.4676 60.3604 34.7416 59.968 35.4744C59.3184 36.6957 60.2351 38.0591 60.6258 38.6467C61.4716 39.9077 62.591 41.8817 62.591 44.2551C62.591 48.8584 58.8733 52.2634 54.2949 52.2634C54.196 52.2634 54.0987 52.2651 54.0014 52.2651C53.9025 52.2651 53.8052 52.2634 53.7063 52.2634C49.1296 52.2634 45.4101 48.8584 45.4118 44.2551C45.4118 41.8817 46.5312 39.9077 47.3754 38.6467C47.7661 38.0591 48.6844 36.6957 48.0332 35.4744C47.6425 34.7416 46.8775 34.4676 45.7514 34.4857C36.4232 34.6442 16.2384 38.721 2.4967 46.7342C2.50823 46.7689 4.69935 50.5222 9.07328 50.2019C8.39899 50.5304 7.72632 50.8671 7.05695 51.2137C7.06849 51.255 9.06339 54.5412 13.8808 54.0658C13.0779 54.4454 12.28 54.8317 11.4836 55.2327C11.4935 55.2773 13.7951 58.5074 18.8697 58.4232C17.7008 59.0157 16.9935 59.392 16.9985 59.3904C17.0018 59.4151 20.3519 62.6601 25.7678 61.7671C25.1825 62.1946 24.5923 62.6485 23.8933 63.1371C23.8949 63.1453 27.8715 65.3207 32.5505 64.644C31.9449 65.1026 31.342 65.5648 30.7419 66.0304C30.7303 65.9694 37.907 67.9978 43.0113 65.7482C47.4034 63.8105 49.8435 59.0636 50.4007 57.8686C51.2679 58.0601 52.0247 58.1707 52.6017 58.2383C52.6 58.3011 53.5315 58.3819 54.0014 58.3621C54.4696 58.3819 55.4028 58.301 55.4011 58.2383C55.9765 58.1707 56.7349 58.0601 57.6005 57.8686C58.1561 59.0636 60.5978 63.8105 64.9899 65.7482C70.0942 67.9978 77.2692 65.9694 77.2593 66.0304C76.6598 65.564 76.0569 65.1018 75.4507 64.644C80.1297 65.3207 84.1063 63.1453 84.1063 63.1371C83.4105 62.6485 82.8187 62.1946 82.2334 61.7671C87.6493 62.6601 90.9994 59.4151 91.0027 59.3904C91.0077 59.392 90.3004 59.0157 89.1315 58.4232C94.2061 58.5073 96.5076 55.2773 96.5175 55.2327C95.7229 54.8317 94.9233 54.4454 94.122 54.0658C98.9378 54.5412 100.933 51.255 100.943 51.2137C100.275 50.8682 99.6036 50.5309 98.9279 50.2019C103.302 50.5222 105.493 46.7689 105.504 46.7342Z" fill="#012B5F"/>
<path d="M50.0465 55.4449C50.0465 55.4449 37.7671 51.3301 43.1022 38.2382C43.1022 38.2382 30.1206 38.7779 12.3247 45.9659C12.3247 45.9659 11.0767 46.4859 10.3496 46.7466C9.62088 47.0074 8.45033 47.4729 6.77197 46.6674C6.77197 46.6674 23.0477 38.1491 43.9596 36.1734C46.7161 35.9126 47.0805 36.3302 46.3518 37.3717C45.755 38.225 38.2881 47.737 50.0465 55.4449Z" fill="#FEFEFE"/>
<path d="M39.1378 41.9455C28.6159 43.3154 18.3265 46.9845 18.3265 46.9845C20.079 50.104 24.8305 48.7951 24.8305 48.7951C33.7449 46.2682 37.7232 45.4115 38.9993 45.164C38.9498 44.1704 38.991 43.0975 39.1378 41.9454V41.9455ZM39.2159 47.0743C37.4584 47.4143 30.0921 48.9278 22.6615 51.7155C22.6615 51.7155 25.0043 54.3861 29.6519 53.0656C33.5609 51.9565 38.5729 50.3555 40.0683 49.8752C39.694 49.0318 39.4022 48.0992 39.2159 47.0743ZM40.8484 51.3521C39.2607 51.8654 31.3224 54.4402 27.9706 55.7276C27.9706 55.7276 29.893 58.309 35.4441 56.1221C39.3102 54.5987 41.4403 53.709 42.3801 53.3063C41.8211 52.727 41.3035 52.0767 40.8484 51.3521ZM43.6057 54.429C42.2191 55.0314 37.067 57.2844 34.0878 58.722C34.0878 58.722 37.8369 60.5673 42.5538 57.6492L45.4868 55.723C44.8488 55.35 44.214 54.9208 43.6057 54.429ZM46.9134 56.4728C45.9704 57.0621 42.063 59.523 40.1555 60.9342C40.1555 60.9342 43.3935 62.2744 46.7156 59.1417C47.7971 58.1233 48.3873 57.5456 48.7121 57.2155C48.14 57.0092 47.535 56.765 46.9134 56.4728Z" fill="#B6975B"/>
<path d="M57.9552 55.4449C57.9552 55.4449 70.2346 51.3301 64.8994 38.2382C64.8994 38.2382 77.8811 38.7779 95.6753 45.9659C95.6753 45.9659 96.9234 46.4859 97.6521 46.7466C98.3808 47.0074 99.5514 47.4729 101.228 46.6674C101.228 46.6674 84.9523 38.1491 64.0421 36.1734C61.2839 35.9126 60.9212 36.3302 61.6483 37.3717C62.2467 38.225 69.7136 47.737 57.9552 55.4449" fill="#FEFEFE"/>
<path d="M68.8631 41.9455C79.385 43.3154 89.6744 46.9845 89.6744 46.9845C87.9234 50.104 83.1703 48.7951 83.1703 48.7951C74.2559 46.2682 70.2793 45.4115 69.0032 45.164C69.0527 44.1704 69.0098 43.0975 68.8631 41.9454V41.9455ZM68.7858 47.0743C70.5416 47.4143 77.9079 48.9278 85.3402 51.7155C85.3402 51.7155 82.9957 54.3861 78.3497 53.0656C74.4407 51.9565 69.4287 50.3555 67.9334 49.8752C68.306 49.0318 68.5978 48.0992 68.7858 47.0743ZM67.1532 51.3521C68.7393 51.8654 76.6793 54.4402 80.0294 55.7276C80.0294 55.7276 78.1087 58.309 72.5576 56.1221C68.6915 54.5987 66.5614 53.709 65.6216 53.3063C66.1805 52.727 66.6982 52.0767 67.1533 51.3521H67.1532ZM64.396 54.429C65.7825 55.0314 70.9347 57.2844 73.9138 58.722C73.9138 58.722 70.1647 60.5673 65.4462 57.6492L62.5148 55.723C63.1529 55.35 63.786 54.9208 64.396 54.429ZM61.0882 56.4728C62.0313 57.0621 65.9387 59.523 67.8462 60.9342C67.8462 60.9342 64.6065 62.2744 61.2828 59.1417C60.2046 58.1233 59.6143 57.5456 59.2896 57.2155C59.8616 57.0092 60.4667 56.765 61.0882 56.4728Z" fill="#B6975B"/>
<path d="M64.0557 62.5923C64.0557 68.1545 59.5548 72.6621 54.0004 72.6621C48.446 72.6621 43.9451 68.1545 43.9451 62.5923C43.9451 57.0333 48.446 52.5241 54.0004 52.5241C59.5548 52.5241 64.0557 57.0333 64.0557 62.5923Z" fill="#FEFEFE"/>
<path d="M61.9756 64.6747C61.9756 69.0882 58.4045 72.6616 54.0009 72.6616C49.5956 72.6616 46.0262 69.0882 46.0262 64.6747C46.0262 60.2662 49.5956 56.6912 54.0009 56.6912C58.4045 56.6912 61.9756 60.2662 61.9756 64.6747Z" fill="#B6975B"/>
<path d="M59.293 70.2113C58.8891 69.8944 58.3154 69.3332 58.2131 68.64C58.2032 68.579 58.1983 68.5179 58.1901 68.4552C60.2344 67.5969 61.9606 66.118 63.1279 64.2232C62.6877 66.6941 61.2714 68.8282 59.293 70.2113H59.293ZM44.872 64.215C46.0393 66.1147 47.7655 67.5952 49.8131 68.4552C49.8049 68.5179 49.7999 68.579 49.79 68.6417C49.6862 69.3366 49.1141 69.8961 48.7102 70.2113C46.7285 68.8282 45.3106 66.6908 44.872 64.215ZM47.0087 56.5038C46.5949 58.7963 47.5445 60.9569 48.415 62.9325C49.0201 64.3091 49.6005 65.6295 49.7867 66.9664C47.3929 65.7698 45.5744 63.5795 44.8968 60.8347C45.2117 59.1974 45.9569 57.712 47.0087 56.5038ZM56.82 67.5111C56.1309 67.7322 55.4104 67.8775 54.6701 67.932V53.3348C56.1572 53.4421 57.5471 53.8992 58.7589 54.6271C60.5988 57.2878 59.5618 59.6629 58.3599 62.3912C57.6394 64.0285 56.9008 65.712 56.82 67.5111ZM54.6701 69.2738C55.4384 69.2276 56.1836 69.1038 56.9008 68.9074C57.0508 69.7706 57.5834 70.4572 58.0779 70.9276C57.036 71.4426 55.8852 71.7645 54.6701 71.8519V69.2738ZM51.1024 68.9074C51.8196 69.1038 52.5648 69.2276 53.3298 69.2738V71.8519C52.1163 71.7645 50.9656 71.4426 49.9236 70.9276C50.4198 70.4572 50.9524 69.7706 51.1024 68.9074ZM49.2443 54.6271C50.4545 53.8992 51.8459 53.4421 53.3298 53.3348V67.932C52.5895 67.8808 51.8707 67.7405 51.1832 67.5276C51.1073 65.7219 50.3654 64.0351 49.6417 62.3912C48.4381 59.6628 47.4028 57.2878 49.2443 54.6271ZM63.1064 60.843C62.4371 63.53 60.5988 65.7236 58.2197 66.935C58.411 65.608 58.9864 64.2975 59.5865 62.9325C60.457 60.9552 61.4066 58.7947 60.9912 56.5038C62.0463 57.7152 62.7915 59.2024 63.1064 60.843ZM54.0008 51.7404C48.026 51.7404 43.164 56.6094 43.164 62.5925C43.164 68.5757 48.026 73.443 54.0008 73.443C59.9772 73.443 64.8392 68.5757 64.8392 62.5925C64.8392 56.6094 59.9772 51.7404 54.0008 51.7404H54.0008Z" fill="#012B5F"/>
<path d="M57.2201 37.6555C57.2201 37.6555 57.1393 37.9972 56.9315 37.9972C56.7238 37.9972 55.423 37.3716 54.7981 37.0316C54.5311 36.888 54.1568 36.6701 54.0266 36.5942C54.0266 36.5942 53.4693 36.888 53.2022 37.0316C52.5774 37.3716 51.2782 37.9972 51.0689 37.9972C50.8611 37.9972 50.7803 37.6555 50.7803 37.6555C50.7803 37.6555 47.3659 39.7187 47.3659 45.4196C47.3659 49.663 49.5718 51.5892 49.5718 51.5892L49.8719 52.7891H58.1268L58.4269 51.5892C58.4269 51.5892 60.6345 49.663 60.6345 45.4196C60.6345 39.7187 57.2201 37.6555 57.2201 37.6555Z" fill="#012B5F"/>
<path d="M58.8471 43.9786C58.8471 42.2175 58.1315 40.7815 57.36 39.9265C57.36 39.9265 57.3336 40.4316 56.4927 39.8688C55.7673 39.3687 54.9133 39.0765 53.9966 39.0765C53.0751 39.0765 52.2194 39.3703 51.4923 39.8721C50.6812 40.425 50.6416 39.9266 50.6416 39.9266C49.8717 40.7815 49.1545 42.2175 49.1545 43.9786C49.1545 45.4426 49.5122 46.1622 49.6375 46.3685C50.3613 48.232 52.0397 49.5392 53.9966 49.5392C55.9289 49.5392 57.5908 48.26 58.3294 46.4263C58.3722 46.3669 58.8471 45.6654 58.8471 43.9786Z" fill="#FEFEFE"/>
<path d="M55.8242 47.9585C55.8192 47.9486 55.811 47.9387 55.806 47.9288C55.806 47.9288 55.3263 47.0276 56.116 46.4037C56.116 46.4037 57.9032 46.7767 57.946 44.4049C57.946 44.4049 57.9032 44.1524 58.1537 43.6556C58.1537 43.6556 57.6954 43.238 56.698 43.989C55.6989 44.735 55.1598 46.8592 54.619 46.3608C54.0848 45.8656 54.281 43.101 54.0024 42.9954H53.9925C53.7172 43.1026 53.9133 45.8656 53.3775 46.3608C52.8384 46.8592 52.296 44.735 51.2985 43.989C50.2994 43.238 49.8444 43.6556 49.8444 43.6556C50.0934 44.1524 50.0505 44.4049 50.0505 44.4049C50.0934 46.7767 51.8805 46.4037 51.8805 46.4037C52.6719 47.0276 52.1938 47.9321 52.1938 47.9321C52.1888 47.942 52.1822 47.9519 52.1773 47.9601C50.0439 45.6659 48.8041 45.9778 49.4158 48.5477C50.0175 51.073 52.3257 61.9103 52.6917 64.424C52.6422 66.6852 52.3801 67.4923 52.3125 67.6657L52.0784 68.1328L52.3356 68.6461C52.7428 69.2386 53.0231 69.9005 53.1236 70.153L54.004 72.3911L54.8762 70.1579C54.98 69.9005 55.262 69.2386 55.6659 68.6461L55.9346 68.1575L55.6923 67.6673C55.623 67.4973 55.3691 66.7199 55.3114 64.5396C55.6148 62.2866 57.974 51.1159 58.5857 48.5477C59.1957 45.9778 57.9576 45.6659 55.8242 47.9585Z" fill="#012B5F"/>
<path d="M52.5541 59.2574C51.7875 55.2252 51.1841 52.241 50.6961 50.0772C50.3251 48.425 51.3176 49.0852 51.8518 50.1185L52.5541 59.2574ZM55.4474 59.2574C56.2141 55.2252 56.8175 52.241 57.3055 50.0772C57.6764 48.425 56.6839 49.0852 56.1498 50.1185L55.4474 59.2574H55.4474ZM51.3427 45.5987C51.1927 45.5574 51.102 45.4006 51.1465 45.2471C51.163 45.1894 51.1993 45.1431 51.2438 45.1052C51.1432 44.9929 51.0262 44.8791 50.8844 44.7784C50.8844 44.7784 50.6354 45.9453 51.6757 45.8198C51.6757 45.8198 51.6395 45.7159 51.562 45.5673C51.4977 45.6053 51.4202 45.6185 51.3427 45.5987V45.5987ZM57.1154 44.7784C56.9736 44.8791 56.8565 44.9929 56.756 45.1052C56.8021 45.1431 56.8384 45.1894 56.8566 45.2488C56.8978 45.4006 56.8071 45.5574 56.6571 45.5987C56.5796 45.6185 56.5021 45.6069 56.4394 45.569C56.3619 45.7142 56.3257 45.8198 56.3257 45.8198C57.366 45.9453 57.1154 44.7784 57.1154 44.7784ZM54.4879 60.7532C54.8176 54.5242 55.3139 50.1107 55.3139 49.5594C55.3139 49.3647 55.2924 49.1105 55.21 48.8332L54.849 50.0183L54.7368 47.9238C54.5555 47.6894 54.3082 47.455 53.9949 47.2305H53.9751C53.6635 47.455 53.4443 47.6894 53.2613 47.9238L53.1541 50.0183L52.7898 48.8316C52.709 49.1105 52.6859 49.3647 52.6859 49.5594C52.6859 50.1107 53.1805 54.5242 53.5102 60.7532C53.8416 66.984 53.07 68.1426 53.07 68.1426C53.5168 68.7896 53.9999 69.9417 53.9999 69.9417C53.9999 69.9417 54.4829 68.7896 54.9297 68.1426C54.9297 68.1426 54.1582 66.984 54.4879 60.7532Z" fill="#C8102E"/>
<path d="M105.504 46.7342C91.7644 38.7209 71.578 34.6442 62.2498 34.4857C61.1254 34.4676 60.3604 34.7416 59.968 35.4744C59.3184 36.6957 60.2351 38.0591 60.6258 38.6467C61.4716 39.9077 62.591 41.8817 62.591 44.2551C62.591 48.8584 58.8733 52.2634 54.2949 52.2634C54.196 52.2634 54.0987 52.2651 54.0014 52.2651C53.9025 52.2651 53.8052 52.2634 53.7063 52.2634C49.1296 52.2634 45.4101 48.8584 45.4118 44.2551C45.4118 41.8817 46.5312 39.9077 47.3754 38.6467C47.7661 38.0591 48.6844 36.6957 48.0332 35.4744C47.6425 34.7416 46.8775 34.4676 45.7514 34.4857C36.4232 34.6442 16.2384 38.721 2.4967 46.7342C2.50823 46.7689 4.69935 50.5222 9.07328 50.2019C8.39899 50.5304 7.72632 50.8671 7.05695 51.2137C7.06849 51.255 9.06339 54.5412 13.8808 54.0658C13.0779 54.4454 12.28 54.8317 11.4836 55.2327C11.4935 55.2773 13.7951 58.5074 18.8697 58.4232C17.7008 59.0157 16.9935 59.392 16.9985 59.3904C17.0018 59.4151 20.3519 62.6601 25.7678 61.7671C25.1825 62.1946 24.5923 62.6485 23.8933 63.1371C23.8949 63.1453 27.8715 65.3207 32.5505 64.644C31.9449 65.1026 31.342 65.5648 30.7419 66.0304C30.7303 65.9694 37.907 67.9978 43.0113 65.7482C47.4034 63.8105 49.8435 59.0636 50.4007 57.8686C51.2679 58.0601 52.0247 58.1707 52.6017 58.2383C52.6 58.3011 53.5315 58.3819 54.0014 58.3621C54.4696 58.3819 55.4028 58.301 55.4011 58.2383C55.9765 58.1707 56.7349 58.0601 57.6005 57.8686C58.1561 59.0636 60.5978 63.8105 64.9899 65.7482C70.0942 67.9978 77.2692 65.9694 77.2593 66.0304C76.6598 65.564 76.0569 65.1018 75.4507 64.644C80.1297 65.3207 84.1063 63.1453 84.1063 63.1371C83.4105 62.6485 82.8187 62.1946 82.2334 61.7671C87.6493 62.6601 90.9994 59.4151 91.0027 59.3904C91.0077 59.392 90.3004 59.0157 89.1315 58.4232C94.2061 58.5073 96.5076 55.2773 96.5175 55.2327C95.7229 54.8317 94.9233 54.4454 94.122 54.0658C98.9378 54.5412 100.933 51.255 100.943 51.2137C100.275 50.8682 99.6036 50.5309 98.9279 50.2019C103.302 50.5222 105.493 46.7689 105.504 46.7342Z" fill="#012B5F"/>
<path d="M50.0465 55.4449C50.0465 55.4449 37.7671 51.3301 43.1022 38.2382C43.1022 38.2382 30.1206 38.7779 12.3247 45.9659C12.3247 45.9659 11.0767 46.4859 10.3496 46.7466C9.62088 47.0074 8.45033 47.4729 6.77197 46.6674C6.77197 46.6674 23.0477 38.1491 43.9596 36.1734C46.7161 35.9126 47.0805 36.3302 46.3518 37.3717C45.755 38.225 38.2881 47.737 50.0465 55.4449Z" fill="#FEFEFE"/>
<path d="M39.1378 41.9455C28.6159 43.3154 18.3265 46.9845 18.3265 46.9845C20.079 50.104 24.8305 48.7951 24.8305 48.7951C33.7449 46.2682 37.7232 45.4115 38.9993 45.164C38.9498 44.1704 38.991 43.0975 39.1378 41.9454V41.9455ZM39.2159 47.0743C37.4584 47.4143 30.0921 48.9278 22.6615 51.7155C22.6615 51.7155 25.0043 54.3861 29.6519 53.0656C33.5609 51.9565 38.5729 50.3555 40.0683 49.8752C39.694 49.0318 39.4022 48.0992 39.2159 47.0743ZM40.8484 51.3521C39.2607 51.8654 31.3224 54.4402 27.9706 55.7276C27.9706 55.7276 29.893 58.309 35.4441 56.1221C39.3102 54.5987 41.4403 53.709 42.3801 53.3063C41.8211 52.727 41.3035 52.0767 40.8484 51.3521ZM43.6057 54.429C42.2191 55.0314 37.067 57.2844 34.0878 58.722C34.0878 58.722 37.8369 60.5673 42.5538 57.6492L45.4868 55.723C44.8488 55.35 44.214 54.9208 43.6057 54.429ZM46.9134 56.4728C45.9704 57.0621 42.063 59.523 40.1555 60.9342C40.1555 60.9342 43.3935 62.2744 46.7156 59.1417C47.7971 58.1233 48.3873 57.5456 48.7121 57.2155C48.14 57.0092 47.535 56.765 46.9134 56.4728Z" fill="#B6975B"/>
<path d="M57.9552 55.4449C57.9552 55.4449 70.2346 51.3301 64.8994 38.2382C64.8994 38.2382 77.8811 38.7779 95.6753 45.9659C95.6753 45.9659 96.9234 46.4859 97.6521 46.7466C98.3808 47.0074 99.5514 47.4729 101.228 46.6674C101.228 46.6674 84.9523 38.1491 64.0421 36.1734C61.2839 35.9126 60.9212 36.3302 61.6483 37.3717C62.2467 38.225 69.7136 47.737 57.9552 55.4449" fill="#FEFEFE"/>
<path d="M68.8631 41.9455C79.385 43.3154 89.6744 46.9845 89.6744 46.9845C87.9234 50.104 83.1703 48.7951 83.1703 48.7951C74.2559 46.2682 70.2793 45.4115 69.0032 45.164C69.0527 44.1704 69.0098 43.0975 68.8631 41.9454V41.9455ZM68.7858 47.0743C70.5416 47.4143 77.9079 48.9278 85.3402 51.7155C85.3402 51.7155 82.9957 54.3861 78.3497 53.0656C74.4407 51.9565 69.4287 50.3555 67.9334 49.8752C68.306 49.0318 68.5978 48.0992 68.7858 47.0743ZM67.1532 51.3521C68.7393 51.8654 76.6793 54.4402 80.0294 55.7276C80.0294 55.7276 78.1087 58.309 72.5576 56.1221C68.6915 54.5987 66.5614 53.709 65.6216 53.3063C66.1805 52.727 66.6982 52.0767 67.1533 51.3521H67.1532ZM64.396 54.429C65.7825 55.0314 70.9347 57.2844 73.9138 58.722C73.9138 58.722 70.1647 60.5673 65.4462 57.6492L62.5148 55.723C63.1529 55.35 63.786 54.9208 64.396 54.429ZM61.0882 56.4728C62.0313 57.0621 65.9387 59.523 67.8462 60.9342C67.8462 60.9342 64.6065 62.2744 61.2828 59.1417C60.2046 58.1233 59.6143 57.5456 59.2896 57.2155C59.8616 57.0092 60.4667 56.765 61.0882 56.4728Z" fill="#B6975B"/>
<path d="M64.0557 62.5923C64.0557 68.1545 59.5548 72.6621 54.0004 72.6621C48.446 72.6621 43.9451 68.1545 43.9451 62.5923C43.9451 57.0333 48.446 52.5241 54.0004 52.5241C59.5548 52.5241 64.0557 57.0333 64.0557 62.5923Z" fill="#FEFEFE"/>
<path d="M61.9756 64.6747C61.9756 69.0882 58.4045 72.6616 54.0009 72.6616C49.5956 72.6616 46.0262 69.0882 46.0262 64.6747C46.0262 60.2662 49.5956 56.6912 54.0009 56.6912C58.4045 56.6912 61.9756 60.2662 61.9756 64.6747Z" fill="#B6975B"/>
<path d="M59.293 70.2113C58.8891 69.8944 58.3154 69.3332 58.2131 68.64C58.2032 68.579 58.1983 68.5179 58.1901 68.4552C60.2344 67.5969 61.9606 66.118 63.1279 64.2232C62.6877 66.6941 61.2714 68.8282 59.293 70.2113H59.293ZM44.872 64.215C46.0393 66.1147 47.7655 67.5952 49.8131 68.4552C49.8049 68.5179 49.7999 68.579 49.79 68.6417C49.6862 69.3366 49.1141 69.8961 48.7102 70.2113C46.7285 68.8282 45.3106 66.6908 44.872 64.215ZM47.0087 56.5038C46.5949 58.7963 47.5445 60.9569 48.415 62.9325C49.0201 64.3091 49.6005 65.6295 49.7867 66.9664C47.3929 65.7698 45.5744 63.5795 44.8968 60.8347C45.2117 59.1974 45.9569 57.712 47.0087 56.5038ZM56.82 67.5111C56.1309 67.7322 55.4104 67.8775 54.6701 67.932V53.3348C56.1572 53.4421 57.5471 53.8992 58.7589 54.6271C60.5988 57.2878 59.5618 59.6629 58.3599 62.3912C57.6394 64.0285 56.9008 65.712 56.82 67.5111ZM54.6701 69.2738C55.4384 69.2276 56.1836 69.1038 56.9008 68.9074C57.0508 69.7706 57.5834 70.4572 58.0779 70.9276C57.036 71.4426 55.8852 71.7645 54.6701 71.8519V69.2738ZM51.1024 68.9074C51.8196 69.1038 52.5648 69.2276 53.3298 69.2738V71.8519C52.1163 71.7645 50.9656 71.4426 49.9236 70.9276C50.4198 70.4572 50.9524 69.7706 51.1024 68.9074ZM49.2443 54.6271C50.4545 53.8992 51.8459 53.4421 53.3298 53.3348V67.932C52.5895 67.8808 51.8707 67.7405 51.1832 67.5276C51.1073 65.7219 50.3654 64.0351 49.6417 62.3912C48.4381 59.6628 47.4028 57.2878 49.2443 54.6271ZM63.1064 60.843C62.4371 63.53 60.5988 65.7236 58.2197 66.935C58.411 65.608 58.9864 64.2975 59.5865 62.9325C60.457 60.9552 61.4066 58.7947 60.9912 56.5038C62.0463 57.7152 62.7915 59.2024 63.1064 60.843ZM54.0008 51.7404C48.026 51.7404 43.164 56.6094 43.164 62.5925C43.164 68.5757 48.026 73.443 54.0008 73.443C59.9772 73.443 64.8392 68.5757 64.8392 62.5925C64.8392 56.6094 59.9772 51.7404 54.0008 51.7404H54.0008Z" fill="#012B5F"/>
<path d="M57.2201 37.6555C57.2201 37.6555 57.1393 37.9972 56.9315 37.9972C56.7238 37.9972 55.423 37.3716 54.7981 37.0316C54.5311 36.888 54.1568 36.6701 54.0266 36.5942C54.0266 36.5942 53.4693 36.888 53.2022 37.0316C52.5774 37.3716 51.2782 37.9972 51.0689 37.9972C50.8611 37.9972 50.7803 37.6555 50.7803 37.6555C50.7803 37.6555 47.3659 39.7187 47.3659 45.4196C47.3659 49.663 49.5718 51.5892 49.5718 51.5892L49.8719 52.7891H58.1268L58.4269 51.5892C58.4269 51.5892 60.6345 49.663 60.6345 45.4196C60.6345 39.7187 57.2201 37.6555 57.2201 37.6555Z" fill="#012B5F"/>
<path d="M58.8471 43.9786C58.8471 42.2175 58.1315 40.7815 57.36 39.9265C57.36 39.9265 57.3336 40.4316 56.4927 39.8688C55.7673 39.3687 54.9133 39.0765 53.9966 39.0765C53.0751 39.0765 52.2194 39.3703 51.4923 39.8721C50.6812 40.425 50.6416 39.9266 50.6416 39.9266C49.8717 40.7815 49.1545 42.2175 49.1545 43.9786C49.1545 45.4426 49.5122 46.1622 49.6375 46.3685C50.3613 48.232 52.0397 49.5392 53.9966 49.5392C55.9289 49.5392 57.5908 48.26 58.3294 46.4263C58.3722 46.3669 58.8471 45.6654 58.8471 43.9786Z" fill="#FEFEFE"/>
<path d="M55.8242 47.9585C55.8192 47.9486 55.811 47.9387 55.806 47.9288C55.806 47.9288 55.3263 47.0276 56.116 46.4037C56.116 46.4037 57.9032 46.7767 57.946 44.4049C57.946 44.4049 57.9032 44.1524 58.1537 43.6556C58.1537 43.6556 57.6954 43.238 56.698 43.989C55.6989 44.735 55.1598 46.8592 54.619 46.3608C54.0848 45.8656 54.281 43.101 54.0024 42.9954H53.9925C53.7172 43.1026 53.9133 45.8656 53.3775 46.3608C52.8384 46.8592 52.296 44.735 51.2985 43.989C50.2994 43.238 49.8444 43.6556 49.8444 43.6556C50.0934 44.1524 50.0505 44.4049 50.0505 44.4049C50.0934 46.7767 51.8805 46.4037 51.8805 46.4037C52.6719 47.0276 52.1938 47.9321 52.1938 47.9321C52.1888 47.942 52.1822 47.9519 52.1773 47.9601C50.0439 45.6659 48.8041 45.9778 49.4158 48.5477C50.0175 51.073 52.3257 61.9103 52.6917 64.424C52.6422 66.6852 52.3801 67.4923 52.3125 67.6657L52.0784 68.1328L52.3356 68.6461C52.7428 69.2386 53.0231 69.9005 53.1236 70.153L54.004 72.3911L54.8762 70.1579C54.98 69.9005 55.262 69.2386 55.6659 68.6461L55.9346 68.1575L55.6923 67.6673C55.623 67.4973 55.3691 66.7199 55.3114 64.5396C55.6148 62.2866 57.974 51.1159 58.5857 48.5477C59.1957 45.9778 57.9576 45.6659 55.8242 47.9585Z" fill="#012B5F"/>
<path d="M52.5541 59.2574C51.7875 55.2252 51.1841 52.241 50.6961 50.0772C50.3251 48.425 51.3176 49.0852 51.8518 50.1185L52.5541 59.2574ZM55.4474 59.2574C56.2141 55.2252 56.8175 52.241 57.3055 50.0772C57.6764 48.425 56.6839 49.0852 56.1498 50.1185L55.4474 59.2574H55.4474ZM51.3427 45.5987C51.1927 45.5574 51.102 45.4006 51.1465 45.2471C51.163 45.1894 51.1993 45.1431 51.2438 45.1052C51.1432 44.9929 51.0262 44.8791 50.8844 44.7784C50.8844 44.7784 50.6354 45.9453 51.6757 45.8198C51.6757 45.8198 51.6395 45.7159 51.562 45.5673C51.4977 45.6053 51.4202 45.6185 51.3427 45.5987V45.5987ZM57.1154 44.7784C56.9736 44.8791 56.8565 44.9929 56.756 45.1052C56.8021 45.1431 56.8384 45.1894 56.8566 45.2488C56.8978 45.4006 56.8071 45.5574 56.6571 45.5987C56.5796 45.6185 56.5021 45.6069 56.4394 45.569C56.3619 45.7142 56.3257 45.8198 56.3257 45.8198C57.366 45.9453 57.1154 44.7784 57.1154 44.7784ZM54.4879 60.7532C54.8176 54.5242 55.3139 50.1107 55.3139 49.5594C55.3139 49.3647 55.2924 49.1105 55.21 48.8332L54.849 50.0183L54.7368 47.9238C54.5555 47.6894 54.3082 47.455 53.9949 47.2305H53.9751C53.6635 47.455 53.4443 47.6894 53.2613 47.9238L53.1541 50.0183L52.7898 48.8316C52.709 49.1105 52.6859 49.3647 52.6859 49.5594C52.6859 50.1107 53.1805 54.5242 53.5102 60.7532C53.8416 66.984 53.07 68.1426 53.07 68.1426C53.5168 68.7896 53.9999 69.9417 53.9999 69.9417C53.9999 69.9417 54.4829 68.7896 54.9297 68.1426C54.9297 68.1426 54.1582 66.984 54.4879 60.7532Z" fill="#C8102E"/>
</g>
<defs>
<clipPath id="clip0_2_2719">
<rect width="108" height="108" fill="white"/>
</clipPath>
</defs>
</svg>
