<svg width="99" height="99" viewBox="0 0 99 99" fill="none" xmlns="http://www.w3.org/2000/svg">
<g clip-path="url(#clip0_6_330)">
<path d="M99 49.5C99 76.8374 76.8374 99 49.5 99C22.1605 99 0 76.8374 0 49.5C0 22.1615 22.1605 0 49.5 0C76.8374 0 99 22.1615 99 49.5" fill="#B4B2B2"/>
<path d="M97.579 49.5004C97.579 76.0541 76.0527 97.5804 49.5001 97.5804C22.9455 97.5804 1.42017 76.0541 1.42017 49.5004C1.42017 22.9457 22.9455 1.42049 49.5001 1.42049C76.0527 1.42049 97.579 22.9457 97.579 49.5004" fill="#1D428A"/>
<path d="M49.5001 90.4977C26.8559 90.4977 8.50067 72.1424 8.50067 49.5003C8.50067 26.8561 26.8559 8.50197 49.5001 8.50197C72.1432 8.50197 90.4995 26.8561 90.4995 49.5003C90.4995 72.1424 72.1432 90.4977 49.5001 90.4977Z" fill="#C8102E"/>
<path d="M49.4997 88.1461C33.1245 88.1461 19.1057 77.9048 13.4864 63.4962C20.3576 72.9001 33.9216 79.3155 49.4997 79.3155C65.0788 79.3155 78.6418 72.9001 85.514 63.4962C79.8947 77.9048 65.8749 88.1461 49.4997 88.1461V88.1461ZM49.4997 10.8519C65.8749 10.8519 79.8957 21.0943 85.514 35.505C78.6418 26.101 65.0798 19.6846 49.4997 19.6846C33.9206 19.6846 20.3576 26.101 13.4864 35.505C19.1046 21.0943 33.1245 10.8519 49.4997 10.8519V10.8519ZM10.8825 50.7056H18.4281V48.2935H10.8825C10.9114 47.3808 10.9598 46.4723 11.0506 45.5772C13.7246 32.1152 29.9431 21.7265 49.4997 21.7265C69.0553 21.7265 85.2748 32.1152 87.9498 45.5782C88.0406 46.4733 88.0901 47.3808 88.118 48.2935H80.5713V50.7056H88.1179C88.0901 51.6193 88.0406 52.5268 87.9498 53.4229C85.2748 66.8848 69.0553 77.2726 49.4997 77.2726C29.9431 77.2726 13.7246 66.8859 11.0506 53.4229C10.9598 52.5268 10.9114 51.6193 10.8825 50.7056V50.7056ZM49.4997 8.50066C26.8937 8.50066 8.50134 26.893 8.50134 49.5001C8.50134 72.1061 26.8937 90.4974 49.4997 90.4974C72.1067 90.4974 90.4991 72.1061 90.4991 49.5001C90.4991 26.893 72.1067 8.50066 49.4997 8.50066" fill="#FEFEFE"/>
<path d="M32.1751 63.5952H35.076V50.5705H32.1761L32.1751 63.5952ZM43.2867 50.5767H43.199C42.3843 50.5706 39.4236 50.5592 38.8554 50.5706L38.7079 50.5788C37.8324 50.5788 37.2766 50.9944 37.1404 51.7482C37.1167 51.8709 37.1157 51.9648 37.1167 51.9648C37.1136 51.9916 36.9156 54.4326 37.1559 55.1214C37.5447 56.2424 38.4491 56.657 39.2813 56.9148C39.3092 56.922 39.337 56.9313 39.3679 56.9396C39.4205 56.953 39.4762 56.9674 39.5288 56.9901C39.6206 57.0272 39.6845 57.0767 39.7227 57.1386L39.7351 61.8287L37.3415 61.8359L37.3508 63.5715L40.4982 63.5746H40.5003C41.5934 63.5272 42.3462 63.0487 42.6257 62.2226C42.705 61.5864 42.7154 57.219 42.6525 56.3074C42.6329 55.963 42.4751 55.6866 42.1575 55.436C42.0337 55.3401 41.8811 55.2411 41.6862 55.1328C41.514 55.0431 41.3283 54.9513 41.1489 54.8688C40.4693 54.5367 39.6979 54.1593 39.6979 53.292L39.7 52.5505H41.977C42.4442 52.5505 42.8164 52.3216 43.0588 51.8905C43.2423 51.5605 43.2918 51.2306 43.2908 51.212C43.3104 50.9965 43.3001 50.7964 43.2918 50.6644L43.2867 50.5767H43.2867ZM55.5846 53.5023C55.5981 53.1589 55.6269 52.9011 55.6744 52.6979L55.7259 52.6474C55.8559 52.6267 55.9817 52.6185 56.1353 52.6185L56.1941 52.6196C57.1769 52.6309 57.2047 52.9258 57.2047 54.7047V60.1435C57.2047 60.3065 57.2047 60.4591 57.1944 60.62C57.1872 60.7757 57.1697 60.9232 57.1408 61.0603L57.0882 61.1119C56.916 61.1366 56.75 61.15 56.5705 61.15C56.2096 61.15 55.959 61.0717 55.8033 60.9118C55.5723 60.6736 55.565 60.2755 55.5795 59.8166V54.3242C55.5795 54.3242 55.5743 53.7137 55.5846 53.5023V53.5023ZM56.5406 50.5653C55.8878 50.5653 55.2072 50.5869 54.6596 50.7416C53.2396 51.084 52.5487 52.0328 52.5487 53.6425V61.3903C52.5487 63.3755 53.9687 63.7828 56.1003 63.7828C58.6836 63.7828 60.1644 62.8702 60.1644 61.281L60.1686 53.2053C60.1686 50.5653 58.4866 50.5653 56.5406 50.5653V50.5653ZM66.8882 56.1057C65.5032 51.0907 63.2809 50.5307 62.3599 50.5307C62.1207 50.5307 61.9763 50.5689 61.9712 50.571L61.9021 50.5895L61.901 63.6039L64.837 63.608V58.3724L66.882 63.6081H69.8664V50.5834H66.8882V56.1057V56.1057ZM27.4745 56.3494L25.8431 56.3514V52.5688C25.8431 52.5688 26.73 52.5513 26.862 52.5688C27.1837 52.6101 27.4817 52.7349 27.4817 53.1216C27.4817 53.2474 27.4745 56.3494 27.4745 56.3494ZM28.646 50.5661L21.3283 50.5754L21.2386 50.5765L21.2344 50.6651C21.2334 50.6806 21.1715 52.2151 22.8834 52.5719V63.5991H25.8843V58.0571H28.4088C29.7412 58.0571 30.5054 57.1806 30.5054 55.6523L30.5126 55.1861C30.5126 51.4963 30.3631 50.7569 28.646 50.5661V50.5661ZM51.648 50.5863H44.8603V52.6344H46.7949V63.6182L49.7783 63.6162L49.7804 52.622C49.8175 52.6241 49.8536 52.6251 49.8887 52.6251C50.4218 52.6251 50.8467 52.4622 51.1509 52.1404C51.6923 51.5712 51.6542 50.7121 51.6531 50.675L51.648 50.5863L51.648 50.5863ZM77.7706 50.5767H77.683C76.8673 50.5706 73.9076 50.5592 73.3383 50.5706L73.1919 50.5788C72.3164 50.5788 71.7605 50.9944 71.6244 51.7482C71.6007 51.8709 71.6007 51.9648 71.6007 51.9648C71.5976 51.9916 71.3985 54.4326 71.6399 55.1214C72.0286 56.2424 72.9331 56.657 73.7642 56.9148C73.7931 56.922 73.8209 56.9313 73.8508 56.9396C73.9045 56.953 73.9592 56.9674 74.0117 56.9901C74.1035 57.0272 74.1685 57.0767 74.2066 57.1386L74.219 61.8287L71.8255 61.8359L71.8337 63.5715L74.9821 63.5746H74.9853C76.0763 63.5272 76.8301 63.0487 77.1096 62.2226C77.189 61.5864 77.1993 57.219 77.1375 56.3074C77.1158 55.963 76.9591 55.6866 76.6404 55.436C76.5166 55.3401 76.365 55.2411 76.1701 55.1328C75.9969 55.0431 75.8123 54.9513 75.6339 54.8688C74.9522 54.5367 74.1829 54.1593 74.1829 53.292L74.184 52.5505H76.4599C76.9281 52.5505 77.3004 52.3216 77.5417 51.8905C77.7253 51.5605 77.7758 51.2306 77.7748 51.212C77.7943 50.9965 77.7851 50.7964 77.7758 50.6644L77.7706 50.5767V50.5767ZM51.1475 37.2173L51.6415 37.2163L51.7198 37.2173C52.4788 37.2297 52.7614 37.2338 52.7418 38.5703C52.7439 39.6366 52.7418 39.7037 52.7202 40.2296L52.7181 40.3296C52.7202 40.4833 52.6552 40.6524 52.5572 40.7535C52.4881 40.8236 52.4066 40.8587 52.3149 40.8587H51.1475V37.2173V37.2173ZM51.1392 42.5334H51.6425C52.1272 42.5437 52.9398 42.6922 52.9398 43.5626C52.9398 43.9782 52.9769 45.2807 52.9914 45.7695L52.9975 45.9654C53.0006 46.0376 53.0326 46.6749 53.0635 46.7956C53.2719 47.5546 53.8617 48.0094 54.7827 48.1083H55.6324V43.4729C55.6324 43.0748 55.4158 42.5179 55.1034 42.1199L55.0415 42.0353C55.5076 41.5125 55.6881 40.9855 55.6881 40.1811L55.6912 39.7284C55.6912 36.1273 55.5478 35.4064 53.8762 35.2208H48.2414V47.933H51.1392V42.5334ZM69.132 35.2208H66.3053L66.296 47.9258L69.132 47.9279V35.2208ZM41.9896 47.9448L44.8987 47.9407L44.9029 37.2023C44.939 37.2033 44.974 37.2043 45.0091 37.2043C45.5309 37.2043 45.9465 37.0455 46.2435 36.731C46.7705 36.1761 46.7323 35.3398 46.7302 35.3058L46.7261 35.2202H40.1024V37.2157H41.9896V47.9448ZM72.5077 47.9448L75.4189 47.9407V37.2023C75.455 37.2033 75.4921 37.2043 75.5261 37.2043C76.05 37.2043 76.4656 37.0445 76.7636 36.731C77.2906 36.1751 77.2535 35.3398 77.2514 35.3058L77.2462 35.2202H70.6215V37.2157H72.5077V47.9448ZM38.5791 45.8893H35.5328V42.8007H37.6211V40.0338H35.5328V37.1732H38.5791V35.221H32.7062L32.6959 47.926H38.5791V45.8893ZM28.0058 45.8893H26.3961V37.2134C27.3933 37.1722 27.6047 37.2598 27.6212 37.2681C27.9965 37.4155 27.9893 38.1116 27.9893 38.1302C28.0945 39.1346 28.0172 45.0901 28.0058 45.8893V45.8893ZM29.0103 35.221H21.7647L21.7544 35.2984C21.7492 35.3293 21.6626 36.0594 22.1329 36.6153C22.4309 36.97 22.8857 37.168 23.49 37.2072V47.9106H28.8855C30.1158 47.9106 30.9418 46.8649 30.9418 45.3097L30.9439 39.4131C30.9459 36.1594 30.947 35.285 29.0103 35.221V35.221ZM60.2011 38.0955C60.2156 37.7593 60.2444 37.5077 60.2908 37.3066L60.3435 37.2581C60.4703 37.2386 60.5961 37.2303 60.7477 37.2303H60.8055C61.7821 37.2427 61.8099 37.5325 61.8099 39.2722V44.5945C61.8099 44.7543 61.8099 44.9038 61.7996 45.0616C61.7913 45.2132 61.7738 45.3576 61.747 45.4916L61.6934 45.5422C61.5232 45.5679 61.3582 45.5803 61.1798 45.5803C60.824 45.5803 60.5744 45.503 60.4198 45.3463C60.1898 45.1132 60.1826 44.7244 60.197 44.2748V38.8989C60.197 38.8989 60.1919 38.3018 60.2011 38.0955V38.0955ZM61.1509 35.2214C60.5033 35.2214 59.8278 35.241 59.2833 35.3936C57.8736 35.7288 57.1889 36.6569 57.1889 38.2316V45.8155C57.1889 47.7583 58.5986 48.1554 60.7137 48.1554C63.2763 48.1554 64.7469 47.2633 64.7469 45.7082L64.751 37.8037C64.751 35.2214 63.0825 35.2214 61.1509 35.2214" fill="#FEFEFE"/>
</g>
<defs>
<clipPath id="clip0_6_330">
<rect width="99" height="99" fill="white"/>
</clipPath>
</defs>
</svg>
