<svg width="91" height="91" viewBox="0 0 91 91" fill="none" xmlns="http://www.w3.org/2000/svg">
<g clip-path="url(#clip0_5_266)">
<path d="M59.7397 87.0956C59.4623 87.0956 59.1972 86.9643 59.031 86.7342L58.8629 86.5015C58.5436 86.0351 58.6145 85.6291 58.6845 85.427C58.9085 84.7795 59.5822 84.566 60.2341 84.3612C60.4581 84.2903 60.8335 84.1722 60.9341 84.0944C61.1563 83.9053 61.4013 83.7382 61.6489 83.5737C62.1836 83.2159 62.6246 82.7985 63.0279 82.396C63.1881 82.2341 63.3701 82.0845 63.5521 81.9366C63.5521 81.9366 63.7901 81.7415 63.8408 81.703L64.4621 81.0599L64.9512 80.5419L65.3134 80.1656C65.5733 79.8979 65.834 79.6319 66.0738 79.3458C66.6268 78.7044 67.1964 78.0123 67.7757 77.279C67.9778 77.0288 68.1467 76.768 68.3182 76.5064L68.6209 76.0523C68.6804 75.9613 68.7399 75.872 68.8082 75.7819C69.1485 75.3085 69.4137 74.8859 69.6324 74.4659C69.9527 73.8727 70.3123 73.3241 70.6605 72.7929L70.9659 72.3266C71.2083 71.9477 71.462 71.5399 71.6388 71.1226C71.7342 70.8924 71.8575 70.6702 71.9827 70.448C72.0649 70.3036 72.148 70.1592 72.2163 70.0078C72.3878 69.6316 72.5461 69.2509 72.7045 68.8712L72.9556 68.2727C72.9784 68.2071 73.0291 68.0618 73.1385 67.914C73.548 67.2542 73.8429 66.4414 74.1553 65.5795L74.3556 65.0256C74.7188 64.0255 75.0626 63.0814 75.2543 62.0882C75.3727 61.4565 75.5611 60.8399 75.816 60.2499C75.8816 60.0933 75.9245 59.8745 75.97 59.6418L76.1931 58.5716C76.4005 57.5864 76.6079 56.6012 76.796 55.6107C76.908 55.0148 77.0025 54.3831 77.0935 53.6218C77.1338 53.2963 77.1565 52.9708 77.181 52.6453L77.2422 51.8473C77.2799 51.3503 77.3166 50.8568 77.363 50.3607C77.3779 50.1708 77.391 49.9617 77.4033 49.7491C77.4269 49.372 77.4505 48.9878 77.4899 48.63C77.5214 48.3027 77.5695 47.7996 78.0297 47.482C78.2896 47.3192 78.5399 47.2493 78.8102 47.2493C78.9214 47.2493 79.0395 47.2615 79.1664 47.2842C79.5015 47.3411 80.0457 47.468 80.4228 47.5948C80.8936 47.762 81.3547 47.9256 81.7948 48.1146C82.8536 48.574 83.8371 49.1611 84.8057 49.9092C84.8985 49.981 84.9842 50.0518 85.0831 50.1078C85.1137 50.1245 85.1426 50.1437 85.1715 50.1638C85.4226 50.345 85.6518 50.5681 85.8968 50.8026L86.1864 51.0791C86.2906 51.1552 86.4831 51.3127 86.6554 51.5166C86.7745 51.6557 87.0912 52.0573 87.2085 52.2349C87.2347 52.2734 87.2741 52.3259 87.3161 52.3802C87.415 52.5132 87.5199 52.6567 87.604 52.7967C87.7011 52.9586 87.7894 53.1283 87.8752 53.2972C87.9706 53.4827 88.0616 53.6673 88.1736 53.8248C88.4195 54.1739 88.4728 54.5782 88.3354 55.0306C87.9417 56.4025 87.2058 59.0546 87.2058 59.0546L86.5732 61.089C86.5627 61.1205 86.5522 61.152 86.5382 61.1818L85.9625 62.4916L84.8871 64.6826L84.2448 65.891L83.1572 68.047L82.6567 68.88L80.9881 71.2844L80.1061 72.3756L79.8576 72.7177L79.0684 73.7755L77.5949 75.4748L76.3007 76.7225L75.2744 77.8268L74.584 78.5101L73.9356 79.1191C73.9092 79.143 73.8818 79.1658 73.8534 79.1874L72.4403 80.2304L71.3763 81.0004L70.6728 81.5586L69.1302 82.6471L68.2385 83.2307L67.5114 83.6332L66.9838 83.9587L66.6749 84.1705C66.6303 84.2002 66.5831 84.2273 66.5349 84.2483L66.2462 84.3761C66.2453 84.3787 65.8419 84.5913 65.7702 84.6316L65.7649 84.622C65.4998 84.7672 64.7797 85.1102 62.5143 86.1908L61.18 86.7132L60.7573 86.8952C60.6996 86.9215 60.6374 86.9398 60.5753 86.9521L59.9033 87.0798C59.8494 87.0903 59.7946 87.0955 59.7397 87.0956" fill="#CE1141"/>
<path d="M78.8113 46.375C78.3773 46.375 77.9731 46.4879 77.6108 46.711C77.5851 46.7268 77.5597 46.7432 77.5347 46.76C76.7367 47.3104 76.6553 48.1705 76.6256 48.4942L76.6203 48.5459C76.5809 48.9072 76.5556 49.3045 76.5319 49.6965C76.5188 49.9021 76.5057 50.1077 76.4908 50.3046C76.4462 50.7806 76.4094 51.2785 76.3718 51.779L76.3517 52.0354C76.3357 52.2222 76.3214 52.4091 76.3088 52.5962C76.2852 52.9033 76.2642 53.2105 76.2266 53.5141C76.1373 54.2605 76.0455 54.8738 75.937 55.4487C75.7514 56.4296 75.5406 57.4314 75.3358 58.4L75.1669 59.205C75.1486 59.2882 75.1311 59.3792 75.1127 59.4719C75.0768 59.6522 75.0401 59.8394 75.0033 59.9295C74.7347 60.5499 74.5256 61.2324 74.3943 61.9315C74.2176 62.8494 73.8842 63.7638 73.5325 64.7315L73.3889 65.1279L73.3338 65.2784C73.0416 66.0851 72.766 66.8472 72.3766 67.4799C72.2401 67.6864 72.1692 67.8754 72.1342 67.9725C72.0555 68.1571 71.9785 68.3417 71.9015 68.5272C71.7457 68.9009 71.59 69.2745 71.4228 69.642C71.3616 69.7759 71.2907 69.8975 71.2216 70.0182C71.0965 70.2405 70.9547 70.4916 70.8305 70.7882C70.6826 71.1373 70.4516 71.5092 70.2276 71.8583L69.9397 72.2985C69.5775 72.8497 69.2039 73.4193 68.8687 74.0423C68.6587 74.4422 68.4146 74.8307 68.0882 75.2848C68.0305 75.3618 67.9631 75.4624 67.8957 75.563L67.8257 75.6672C67.7382 75.7976 67.663 75.9122 67.5886 76.0259C67.4206 76.2814 67.2631 76.522 67.1039 76.7189C66.5202 77.4583 65.9594 78.1408 65.4195 78.7655C65.1938 79.0333 64.9514 79.2835 64.6941 79.5487C64.5672 79.6799 64.4395 79.8112 64.3152 79.9433L63.7858 80.5024L63.3038 81.0125C63.2407 81.0615 63.1909 81.1018 63.1463 81.1403L63.0036 81.2575C62.8216 81.4045 62.6143 81.5725 62.4086 81.779C62.0403 82.1465 61.6386 82.5271 61.2046 82.8176L61.1477 82.8561C60.929 83.0023 60.6858 83.1659 60.4408 83.3663C60.3349 83.4118 60.1205 83.48 59.9718 83.5264C59.235 83.7591 58.2262 84.0776 57.8586 85.1416C57.6478 85.7497 57.7466 86.4191 58.1282 86.9765C58.1369 86.9896 58.1457 87.0019 58.1553 87.0141L58.3233 87.2469C58.4856 87.4708 58.6987 87.6532 58.9451 87.7789C59.1915 87.9047 59.4641 87.9703 59.7408 87.9705C59.8501 87.9705 59.9604 87.96 60.0706 87.9399L60.7426 87.8104C60.8669 87.7867 60.9885 87.7491 61.1049 87.7001L61.5266 87.5181L62.7735 87.0316C62.8138 87.0159 62.8531 86.9992 62.8916 86.9809C64.9706 85.9886 65.8036 85.5914 66.1851 85.3831L66.1939 85.3971C66.263 85.3586 66.536 85.2151 66.6524 85.153L66.8903 85.048C66.988 85.0047 67.0817 84.9529 67.1704 84.8931L67.4792 84.6814L67.9692 84.3804L68.6027 84.033C68.643 84.0111 68.6815 83.9875 68.7191 83.963L69.5853 83.3969C69.6029 83.3855 69.6195 83.3741 69.637 83.3619L71.1393 82.3023C71.1656 82.2838 71.1913 82.2645 71.2163 82.2445L71.9207 81.688L72.9462 80.946L73.9245 80.2189L74.3698 79.8943C74.4278 79.8524 74.4827 79.8065 74.5343 79.7569L75.1669 79.1663C75.1783 79.1549 75.1888 79.1435 75.2011 79.133L75.867 78.4751C75.8836 78.4575 75.9002 78.44 75.9159 78.4225L76.9432 77.3192L78.1481 76.1624C78.1855 76.126 78.2214 76.0881 78.2557 76.0487L79.6889 74.4002C79.717 74.3674 79.7441 74.3339 79.7703 74.2996L80.5543 73.2505L80.8159 72.8917L81.6305 71.8881C81.6577 71.854 81.683 71.8198 81.7084 71.784L83.3473 69.425C83.3683 69.3944 83.3875 69.3629 83.4077 69.3313L83.8749 68.5587C83.8976 68.5202 83.9195 68.4817 83.9388 68.4415L85.036 66.2671L85.6468 65.1191C85.6563 65.1025 85.6654 65.0856 85.6739 65.0684L86.7335 62.9107C86.744 62.8888 86.7545 62.8669 86.765 62.8433L87.3408 61.5343C87.367 61.4739 87.3906 61.4127 87.4099 61.3488L88.0346 59.3398L88.0504 59.2891C88.0504 59.2882 88.7854 56.6396 89.1817 55.2562C89.4451 54.3838 89.173 53.7241 88.8956 53.3286C88.8256 53.2306 88.739 53.0608 88.655 52.8964C88.5596 52.7117 88.4634 52.5262 88.3584 52.3504C88.2385 52.1526 88.1151 51.9872 88.0163 51.8551C87.983 51.8105 87.9506 51.7693 87.9244 51.7309C87.773 51.5034 87.4405 51.0869 87.3154 50.9407C87.1264 50.7159 86.9164 50.5356 86.7283 50.3877C86.6544 50.3181 86.5812 50.2478 86.5087 50.1768C86.2523 49.9292 85.9872 49.6738 85.6844 49.455C85.6275 49.4131 85.5679 49.3751 85.5059 49.3412C85.4534 49.3089 85.4035 49.2651 85.3528 49.2249C84.315 48.4225 83.2703 47.7995 82.1477 47.313C81.648 47.0986 81.1353 46.9184 80.7249 46.7731C80.2664 46.6183 79.6732 46.4835 79.3074 46.4205C79.1403 46.3908 78.9732 46.375 78.8113 46.375V46.375ZM78.8113 48.125C78.8734 48.125 78.9399 48.1329 79.0117 48.1451C79.3372 48.2011 79.835 48.3201 80.1422 48.4243C80.5849 48.5809 81.0285 48.7375 81.452 48.9186C82.474 49.3622 83.3814 49.9126 84.2722 50.6012C84.3955 50.6975 84.5189 50.7946 84.6598 50.8725C84.9476 51.0807 85.2469 51.401 85.5916 51.7204C85.7316 51.828 85.8717 51.9435 85.988 52.0808C86.0974 52.2086 86.3765 52.5612 86.4798 52.7178C86.5839 52.871 86.7431 53.0608 86.8543 53.2463C87.0686 53.6042 87.2349 54.0128 87.4633 54.3331C87.5621 54.474 87.5472 54.6157 87.4991 54.7758C87.1019 56.1645 86.3634 58.8209 86.3634 58.8209L85.7386 60.8299L85.1629 62.1398L84.1033 64.2966L83.4733 65.4796L82.3769 67.6531L81.9097 68.4266L80.2708 70.7847L79.4282 71.8242L79.1525 72.2031L78.3686 73.2522L76.9353 74.9007L75.6954 76.0916L74.6358 77.2308L73.9699 77.8888L73.3382 78.4803L72.8815 78.8146L71.9198 79.5285L70.8646 80.2924L70.1313 80.8725L68.6272 81.9321L67.761 82.4983L67.0907 82.8666L66.5272 83.2131L66.1825 83.4476L65.8894 83.5771C65.8894 83.5771 65.3451 83.8641 65.3311 83.8746C65.3241 83.8816 62.1383 85.4015 62.1383 85.4015L60.8625 85.8985L60.4127 86.0927L59.7408 86.2205L59.5728 85.9878C59.116 85.3219 60.9299 85.251 61.5021 84.761C61.7121 84.5816 61.9449 84.4294 62.1768 84.2736C62.7166 83.9123 63.1891 83.4722 63.6468 83.0154C63.8401 82.8211 64.0667 82.6514 64.2785 82.4755C64.3599 82.402 64.457 82.3408 64.5323 82.2603C64.8857 81.8884 65.234 81.5157 65.5875 81.1438C65.9751 80.7343 66.382 80.3405 66.7451 79.9083C67.3331 79.2275 67.9089 78.524 68.4636 77.8205C68.7593 77.4565 69.0009 77.0549 69.2651 76.6638C69.3473 76.5448 69.42 76.4267 69.5092 76.3068C69.8409 75.8457 70.1453 75.3776 70.4087 74.8709C70.7946 74.1561 71.2592 73.4867 71.7019 72.8016C71.9758 72.3746 72.2445 71.9388 72.4457 71.4628C72.6023 71.0866 72.8447 70.7445 73.0145 70.3691C73.2778 69.7916 73.5123 69.201 73.7617 68.6165C73.7836 68.5605 73.8028 68.4887 73.8439 68.4336C74.3698 67.5927 74.6988 66.6486 75.0357 65.7211C75.4434 64.5871 75.8818 63.4558 76.1146 62.2535C76.2213 61.6848 76.3876 61.1344 76.6203 60.598C76.7559 60.2708 76.8041 59.9138 76.8793 59.5629C77.1436 58.3021 77.4166 57.0412 77.6572 55.7724C77.7849 55.0917 77.882 54.4118 77.9634 53.7258C78.0273 53.2096 78.0518 52.6881 78.0973 52.1675C78.1402 51.59 78.1813 51.0177 78.2356 50.4411C78.2793 49.8864 78.3003 49.2756 78.3607 48.7261C78.3834 48.5135 78.3878 48.2982 78.5287 48.2011C78.6179 48.1451 78.7098 48.125 78.8113 48.125" fill="white"/>
<path d="M88.759 52.9141C88.4668 52.9141 88.1842 52.7758 87.9812 52.5335C87.8499 52.3794 87.6845 52.1301 87.5288 51.8851C87.4238 51.7214 87.3258 51.5578 87.2462 51.4703C87.0852 51.3294 86.9277 51.1615 86.8026 50.9943C86.4027 50.4685 85.8374 50.0554 85.2398 49.6179L84.1784 48.8322L83.6981 48.5618C83.3489 48.3693 83.0199 48.1873 82.6901 48.0517C81.9621 47.756 81.151 47.4882 80.4466 47.2599C80.3424 47.2275 80.1998 47.196 80.0747 47.1671C79.9732 47.1426 79.8804 47.1216 79.8087 47.1015L79.6984 47.0822C79.5663 47.0586 79.4351 47.0315 79.2968 46.9895C79.0702 46.9204 78.7228 46.8162 78.4857 46.4426C78.2967 46.1521 78.2477 45.8144 78.2407 45.5834C78.2407 45.5834 78.2372 45.1266 78.232 44.942L78.176 43.801C78.1523 43.3285 78.1287 42.856 78.1086 42.3835C78.0465 40.6458 77.7621 38.9684 77.4602 37.1913L77.4007 36.8404C77.3543 36.5613 77.3062 36.3478 77.2598 36.1378C77.1995 35.8657 77.1417 35.5988 77.0866 35.2366L77.0612 35.0887C76.9982 34.7326 76.9107 34.2452 77.2196 33.8033C77.644 33.2494 78.2941 33.2494 78.6432 33.2494C79.0623 33.2494 79.3485 33.2538 79.7098 33.2591L80.0187 33.2634C80.8359 33.2774 81.4624 33.3072 82.0531 33.3597C82.7986 33.4297 83.6604 33.5154 84.5022 33.6598C84.9948 33.7421 85.4568 33.8733 85.903 34.0002C86.1078 34.0579 86.3125 34.1166 86.5208 34.1699C86.715 34.2172 86.932 34.2951 87.1447 34.3738C87.2505 34.4132 87.3556 34.4526 87.4562 34.4841C87.6303 34.5374 87.8105 34.6197 87.9768 34.7002C88.2498 34.8323 89.0382 35.2173 89.2482 36.2253C89.5229 37.5982 89.8729 40.1593 89.8886 40.2678L90.1958 43.2191L90.208 43.6881L90.1967 46.2912L90.0094 48.939C90.0094 48.939 89.676 51.9507 89.6603 52.0662C89.6375 52.5973 89.1878 52.9141 88.759 52.9141" fill="#CE1141"/>
<path d="M78.56 32.5196C78.1689 32.5196 77.1268 32.5196 76.4635 33.3876C76.4493 33.4062 76.4356 33.4252 76.4224 33.4445C75.9018 34.183 76.0409 34.9652 76.1153 35.3852L76.138 35.5156C76.1984 35.912 76.264 36.2104 76.3218 36.4737C76.3655 36.6706 76.411 36.8701 76.4548 37.1308L76.5143 37.4835C76.8109 39.23 77.09 40.8811 77.1504 42.554C77.1714 43.0476 77.195 43.5279 77.2195 44.0092C77.2379 44.3854 77.2571 44.7608 77.2738 45.1379C77.2781 45.2884 77.2799 45.4153 77.2808 45.5737L77.2825 45.7207C77.2939 46.1013 77.3709 46.6079 77.6745 47.0751C78.0761 47.7095 78.7018 47.895 78.9065 47.9554C78.9135 47.958 78.945 47.9676 78.952 47.9694C79.1576 48.0333 79.3309 48.0648 79.4569 48.0875C79.484 48.0919 79.5103 48.0963 79.5374 48.1024C79.6091 48.1216 79.6975 48.1417 79.792 48.1636C79.8935 48.1873 80.0099 48.2118 80.1 48.2398C80.7807 48.4603 81.5717 48.721 82.2761 49.008C82.5605 49.1235 82.8694 49.295 83.1957 49.4761C83.3252 49.5479 83.4556 49.6196 83.586 49.6905L84.2422 50.1761L84.4496 50.3301L84.6404 50.4701C85.1855 50.8683 85.7 51.2454 86.0281 51.675C86.1593 51.8509 86.3274 52.0364 86.5207 52.2157C86.5785 52.2954 86.6415 52.3995 86.7088 52.5036C86.8733 52.76 87.0431 53.0251 87.2382 53.2535C87.597 53.6822 88.1255 53.9342 88.6758 53.9342C89.4765 53.9342 90.3541 53.3524 90.4512 52.2717C90.4669 52.1387 90.4853 51.9594 90.4853 51.9594L90.7925 49.2162C90.795 49.1927 90.797 49.169 90.7986 49.1454L90.9832 46.5563C90.986 46.5175 90.9874 46.4787 90.9876 46.4399L90.9998 43.8578L90.9919 43.4238C90.9909 43.3738 90.9877 43.3239 90.9823 43.2742L90.6778 40.35C90.6762 40.3315 90.6742 40.3132 90.6717 40.2948C90.656 40.1854 90.3025 37.5981 90.0242 36.206C89.8229 35.2443 89.2411 34.5286 88.2908 34.0649C88.1176 33.9817 87.891 33.8724 87.6206 33.7901C87.5497 33.7674 87.4596 33.7332 87.3668 33.6991C87.1516 33.6195 86.9083 33.5294 86.6388 33.4629C86.4533 33.4156 86.2565 33.3596 86.0596 33.3036C85.5897 33.1706 85.1041 33.0324 84.5572 32.9414C83.6945 32.7935 82.8116 32.7051 82.053 32.6343C81.4352 32.5782 80.7886 32.5476 79.9521 32.5345L79.6109 32.5293C79.2591 32.524 78.973 32.5196 78.56 32.5196V32.5196ZM78.56 34.2696C79.0859 34.2696 79.4 34.2766 79.9233 34.2836C80.5821 34.295 81.2349 34.3177 81.8911 34.3772C82.6821 34.4507 83.4862 34.533 84.2702 34.6677C84.9387 34.7789 85.5626 34.9941 86.2215 35.163C86.5067 35.233 86.8261 35.3747 87.1096 35.464C87.2531 35.5077 87.3931 35.5751 87.5235 35.6381C87.9128 35.828 88.2086 36.0738 88.3083 36.5498C88.5787 37.9035 88.9366 40.5311 88.9366 40.5311L89.242 43.4553L89.2498 43.8499L89.2376 46.432L89.053 49.022L88.7441 51.7896C88.7441 51.7896 88.724 51.9874 88.7099 52.095C88.7073 52.1466 88.7003 52.1842 88.6758 52.1842C88.654 52.1842 88.6128 52.1702 88.5691 52.1177C88.3145 51.8194 87.9688 51.1649 87.7658 50.982C87.6398 50.8709 87.5182 50.7475 87.4193 50.6145C86.8917 49.9215 86.1803 49.4315 85.4926 48.9258C85.2021 48.7087 84.9072 48.4891 84.6141 48.2739C84.5607 48.2328 84.5056 48.1916 84.447 48.1654C83.943 47.8976 83.4574 47.5993 82.9367 47.3875C82.1982 47.0865 81.3915 46.8188 80.632 46.5729C80.4238 46.5073 80.1184 46.4469 79.9547 46.4032C79.7946 46.3655 79.6398 46.3507 79.4726 46.299C79.3352 46.2535 79.2162 46.2378 79.141 46.1188C79.071 46.0112 79.0369 45.8519 79.0325 45.7031C79.0299 45.4573 79.0299 45.3007 79.022 45.0592C78.9835 44.1999 78.9354 43.3477 78.8995 42.4919C78.8313 40.5836 78.497 38.7146 78.1794 36.8395C78.0735 36.2068 77.9641 35.8875 77.8679 35.2505C77.8189 34.9346 77.7305 34.6266 77.853 34.4507C77.9843 34.2801 78.2818 34.2696 78.56 34.2696" fill="white"/>
<path d="M67.0646 21.6494C66.5046 21.6494 65.9998 21.6206 65.5658 21.5637C64.4519 21.4246 62.3545 20.8882 62.267 20.8654L60.2134 20.1269C60.034 20.0622 59.8809 19.9397 59.7768 19.7796L59.1862 18.8661L57.4878 18.482C57.3259 18.482 57.1671 18.4372 57.0291 18.3524C56.8912 18.2675 56.7795 18.1461 56.7064 18.0016L56.2304 17.46C56.1253 17.4089 56.0313 17.3375 55.9539 17.25L55.2373 16.4397L54.6038 16.3977C54.3221 16.3785 54.0657 16.2236 53.917 15.9821L53.6256 15.5079L51.5256 14.7991L49.9768 15.402C49.8745 15.4422 49.7669 15.4615 49.6592 15.4615C49.5061 15.4615 49.3521 15.4212 49.2165 15.3407C49.0852 15.2646 48.9793 15.1561 48.905 15.0292L46.1557 13.6914C46.0499 13.6747 45.9483 13.645 45.8687 13.5986L44.033 12.5372L40.498 12.3307C40.4105 12.3596 40.3195 12.3736 40.2268 12.3736C40.218 12.3736 38.7568 12.3343 38.7568 12.3343C38.6658 12.3655 38.5703 12.3815 38.4741 12.3815C38.251 12.3815 38.0314 12.2966 37.8643 12.1339L36.8642 11.1644C36.7767 11.1294 36.6953 11.0795 36.6218 11.0174L35.5762 10.1205L32.8077 9.977C32.7569 9.98665 32.7062 9.99188 32.6563 9.99188C32.637 9.99188 30.2072 9.79589 30.2072 9.79589C30.1542 9.79147 30.1018 9.78211 30.0506 9.76791C30.0506 9.76791 28.9892 9.68476 28.9874 9.68476C28.9253 9.68476 27.1727 9.6419 27.1727 9.6419C27.123 9.64117 27.0734 9.6356 27.0248 9.62527L26.4272 9.87115L25.1681 10.3113C25.0905 10.3383 25.0095 10.3542 24.9274 10.3585L24.847 10.3629L22.6052 11.2221L21.606 11.5791C21.0328 11.8031 20.8579 11.8644 20.7327 11.881C20.5586 11.9335 20.2007 12.056 20.2007 12.056L18.9206 12.5582C18.8182 12.5976 18.7106 12.6186 18.6012 12.6186L17.5521 13.0447C17.4471 13.0874 17.3348 13.1094 17.2214 13.1095C17.2065 13.1095 17.1654 13.1077 17.1592 13.1077C16.9256 13.19 16.5126 13.3423 16.5126 13.3423L16.0016 13.498C15.9198 13.5222 15.8349 13.5346 15.7496 13.5347C15.5285 13.5348 15.3155 13.451 15.1538 13.3002C14.9271 13.0894 14.8282 12.7735 14.8956 12.4707C14.9595 12.1829 15.0785 12.0219 15.8529 11.3586L16.2974 10.985L17.5364 10.0076L18.8725 9.10552L20.115 8.12464C20.1377 8.10628 20.1622 8.08876 20.1867 8.07302L20.3731 7.95491L21.5701 7.31791L21.9175 7.11666L22.9946 6.5549L24.0367 5.86979L25.379 5.14004L26.0212 4.8303L27.9121 4.09005L29.3348 3.49855L29.8756 3.28944L30.2824 3.05143C30.3489 3.01293 30.4207 2.98318 30.4951 2.96307L31.3473 2.73206L31.6413 2.55182C31.7123 2.50886 31.7888 2.47588 31.8688 2.45381L32.5268 2.27445L33.5698 1.89382C33.6652 1.8597 33.7658 1.84218 33.8673 1.84218C33.876 1.84218 34.0685 1.84832 34.0685 1.84832L35.1133 1.64444L35.8036 1.43096C35.8334 1.42133 35.8632 1.41433 35.8929 1.40821L36.8633 1.2157L37.8791 1.1002L39.021 1.06871L40.3291 0.918196L41.7956 0.875336L42.6733 0.891079L43.2184 0.947066L44.516 1.03283C44.551 1.03545 44.5851 1.03982 44.6192 1.04596L45.6622 1.24195L46.1934 1.25947C46.2362 1.26033 46.2791 1.26556 46.3211 1.27257L47.5671 1.49921L48.219 1.66633L48.3406 1.68732L49.2147 1.89469C49.2523 1.90345 49.29 1.91482 49.3267 1.92795L51.4223 2.71719L52.8267 3.22731L53.2038 3.38569L55.0116 4.35954L57.5333 5.89168L58.2526 6.27317C58.2963 6.29592 58.3374 6.32304 58.3759 6.35279L60.4838 7.98116L63.1184 10.4136L63.8543 11.1346L66.2264 13.7377C66.2465 13.7596 66.2666 13.7832 66.2841 13.8077L66.6796 14.3441L67.0699 14.8043L69.1743 17.831L69.6782 18.6176C69.9985 19.1811 70.1919 19.5346 70.2715 19.6973C70.506 20.1051 70.5436 20.4866 70.3896 20.8427C70.1263 21.4674 69.5286 21.5234 69.3326 21.5427C69.1935 21.5584 69.0378 21.5672 68.8706 21.5751L68.5941 21.5908C68.1733 21.6206 67.6316 21.6494 67.0655 21.6494H67.0646V21.6494Z" fill="#CE1141"/>
<path d="M41.8197 0H41.7724L40.3803 0.0376286C40.3306 0.0392439 40.2809 0.0430391 40.2316 0.0490033L38.9234 0.19599L37.9329 0.220492C37.8829 0.22135 37.833 0.224858 37.7833 0.231002L36.8418 0.335128C36.7919 0.34036 36.743 0.347368 36.6939 0.357878L35.7236 0.5495C35.6641 0.561739 35.6046 0.576617 35.5468 0.594999L34.9011 0.794516L33.9972 0.970372L33.9228 0.967733C33.9044 0.966868 33.8861 0.966868 33.8686 0.966868C33.6654 0.967033 33.4637 1.00256 33.2727 1.07186L32.2289 1.44898L31.6391 1.60912C31.4798 1.65287 31.3267 1.71848 31.1858 1.80511L30.9977 1.91975L30.2662 2.11835C30.1177 2.15833 29.9753 2.21808 29.8427 2.29598L29.4962 2.49723L29.0403 2.67399C29.0263 2.67923 29.0124 2.68448 28.9992 2.6906L27.5581 3.2891L25.7644 3.98912C25.7231 4.00497 25.6826 4.02248 25.6428 4.0416L25.0381 4.33212C25.0127 4.34435 24.9874 4.3566 24.9629 4.37059L23.6827 5.0627C23.6399 5.08545 23.5987 5.10996 23.5585 5.1371L22.5146 5.81784L21.5478 6.32184C21.525 6.33321 21.5031 6.34545 21.4804 6.35858L21.133 6.55896L20.0235 7.14695C19.9824 7.16882 19.9422 7.19245 19.9028 7.21782L19.7164 7.33596C19.6676 7.3672 19.6203 7.40078 19.5747 7.43658L18.3304 8.41569L17.311 9.10255L17.1028 9.24256C17.066 9.26723 17.0301 9.2932 16.9952 9.32043L15.7771 10.2803L15.7352 10.3153L15.2968 10.6828C14.5434 11.3286 14.1803 11.661 14.042 12.2762C13.9754 12.5744 13.9878 12.8849 14.0782 13.1769C14.1687 13.4688 14.3338 13.732 14.5574 13.9404C14.8814 14.2418 15.3075 14.4094 15.75 14.4094C15.9204 14.4092 16.0899 14.3845 16.2532 14.3359L16.7134 14.1977C16.7475 14.1871 16.7808 14.1758 16.8149 14.1635C16.98 14.1023 17.1453 14.0419 17.311 13.9824C17.5076 13.9719 17.701 13.9288 17.8833 13.8547L18.7941 13.4828C18.9464 13.4662 19.0969 13.4294 19.2395 13.3725L20.5223 12.8703C20.6063 12.8414 20.8093 12.7731 20.944 12.732C21.175 12.6865 21.4358 12.5859 21.9258 12.3943L22.8813 12.053L25.0355 11.2279C25.179 11.2148 25.3208 11.1851 25.4564 11.1378L26.6717 10.7143C26.7015 10.7037 26.731 10.6923 26.7601 10.6802L27.1582 10.5174C27.2615 10.5192 28.5915 10.5516 28.9625 10.5603L29.9337 10.6364C30.0028 10.6513 30.072 10.6627 30.1367 10.6679L32.5281 10.8613C32.5762 10.8648 32.6226 10.8665 32.6698 10.8665C32.7355 10.8665 32.7993 10.8639 32.8641 10.8561L35.2327 10.9786L36.0526 11.6812C36.1463 11.7618 36.2484 11.8321 36.3571 11.8912L37.2566 12.7627C37.5899 13.0864 38.0292 13.2562 38.4746 13.2562C38.6049 13.2562 38.7353 13.2413 38.8639 13.2124L40.179 13.2483C40.1957 13.2483 40.2114 13.2492 40.2272 13.2492C40.3471 13.2492 40.4669 13.236 40.5824 13.2124L43.7744 13.3988L45.4308 14.356C45.583 14.4435 45.7467 14.5083 45.9147 14.5468L48.3279 15.7219C48.4539 15.868 48.6026 15.9949 48.7733 16.0955C49.0454 16.2556 49.3525 16.3361 49.6596 16.3361C49.8749 16.3361 50.0901 16.2968 50.2949 16.2172L51.547 15.7298L53.0467 16.2355L53.1727 16.4412C53.4694 16.9233 53.9812 17.233 54.5465 17.2706L54.8212 17.289L55.2981 17.8289C55.4066 17.9528 55.5324 18.0604 55.6717 18.1483L55.9885 18.5087C56.2807 18.9953 56.8005 19.3199 57.3858 19.354L58.645 19.6401L59.0422 20.2544C59.2494 20.5753 59.5562 20.8193 59.9155 20.9491L61.8886 21.664C61.9419 21.6832 61.9953 21.699 62.0496 21.713C62.2771 21.7716 64.3088 22.2887 65.4629 22.4322C65.9241 22.4926 66.4657 22.5241 67.0642 22.5241C67.5498 22.5241 68.0696 22.504 68.6549 22.4637C68.7442 22.4576 68.8299 22.4532 68.9122 22.4488C69.1003 22.4401 69.2753 22.4296 69.4319 22.4112C70.5607 22.3054 71.0253 21.5887 71.2012 21.1713C71.3779 20.7636 71.4995 20.089 71.0463 19.2875C70.9772 19.1501 70.8284 18.871 70.467 18.2287C70.4504 18.2008 70.4338 18.1719 70.4154 18.1439L69.9289 17.3852C69.9173 17.3673 69.9053 17.3495 69.893 17.3319L67.8386 14.3709C67.8078 14.3261 67.7748 14.2828 67.7397 14.2414L67.3503 13.7794L66.9898 13.2894C66.9539 13.2395 66.9154 13.1932 66.8743 13.1477L66.1962 12.403L64.5354 10.5804C64.5138 10.556 64.491 10.5327 64.4672 10.5104L63.7514 9.80693C63.7392 9.79467 63.7269 9.78243 63.7138 9.77106L61.1387 7.38933C61.1005 7.35442 61.0608 7.32114 61.0197 7.28957L58.9118 5.66034C58.8338 5.59993 58.7506 5.54635 58.6633 5.50021L57.945 5.11871L55.5046 3.63383C55.4797 3.61855 55.4543 3.60397 55.4285 3.59011L53.6951 2.65211C53.6461 2.62499 53.5963 2.60138 53.5455 2.57949L53.2113 2.4386C53.1831 2.42617 53.1545 2.41479 53.1255 2.40448L51.7115 1.89174L49.6351 1.10949C49.5623 1.08216 49.4878 1.05966 49.412 1.04212L49.2502 1.0045L48.5895 0.845248C48.5607 0.838241 48.5309 0.832121 48.502 0.826001L48.3822 0.803251L47.851 0.665865C47.809 0.655288 47.7667 0.645957 47.7242 0.637883L46.4773 0.412114C46.393 0.396316 46.3076 0.386961 46.2218 0.384131L45.7572 0.369253L44.7816 0.185502C44.7133 0.173114 44.6443 0.164638 44.5751 0.160113L43.2783 0.0726172L42.8461 0.026253C42.7944 0.0201105 42.7428 0.0174943 42.6903 0.0157426L41.8529 0H41.8197V0ZM41.8197 1.74999L42.657 1.76573L43.1243 1.81648L44.4586 1.90573L45.5673 2.11398L46.1649 2.13323L47.4109 2.35986L47.9998 2.51297L48.1783 2.54623L48.8564 2.70985L49.0183 2.74748L51.1147 3.53674L52.5287 4.04947L52.863 4.1912L54.5955 5.12923L57.0796 6.63945L57.8417 7.04544L59.9496 8.67381L62.5256 11.0556L63.2422 11.7591L64.9021 13.5817L65.5802 14.3263L65.9748 14.8627L66.4009 15.3684L68.4563 18.3294L68.9428 19.0889C68.9428 19.0889 69.4415 19.9735 69.4967 20.1039C69.5352 20.1756 69.6542 20.3392 69.5868 20.495C69.5212 20.6516 69.3829 20.6586 69.2333 20.6726C69.032 20.6962 68.7949 20.6997 68.5333 20.7181C68.129 20.7461 67.6093 20.7741 67.0642 20.7741C66.6022 20.7741 66.1218 20.754 65.6791 20.6962C64.6028 20.5615 62.4845 20.0181 62.4845 20.0181L60.5122 19.3041L59.7273 18.0914L57.595 17.6075H57.4882L57.476 17.5515L56.706 16.6739L56.6097 16.6704L55.656 15.5906L54.6629 15.5242L54.2061 14.7804L51.505 13.8686L49.6596 14.5862L49.636 14.412L46.3872 12.83L46.3075 12.8414L44.4674 11.7774L44.4438 11.6847L40.3094 11.4432L40.2272 11.4992L38.5831 11.4537L38.4746 11.5062L37.2811 10.3494L37.1918 10.3529L36.0202 9.34843L36.0009 9.26619L32.697 9.09557L32.6698 9.11657L30.2785 8.92319L30.24 8.90568L29.0587 8.81206C29.0342 8.81206 27.195 8.76745 27.195 8.76745L27.0567 8.66683L26.0951 9.06145L24.8806 9.48493L24.6628 9.49719L22.2933 10.4045L21.3124 10.7546C21.3124 10.7546 20.6544 11.0118 20.6124 11.0118C20.6115 11.0118 20.6106 11.0118 20.6106 11.0109C20.6106 11.0101 20.6098 11.0101 20.6071 11.0101C20.5599 11.0101 19.9203 11.227 19.9203 11.227L18.6017 11.7433H18.4249L17.2218 12.2342C17.2218 12.2342 17.0765 12.2272 17.0599 12.2202H17.059C17.0275 12.2202 16.2094 12.5221 16.2094 12.5221L15.75 12.6594C15.7667 12.5842 16.4229 12.0233 16.4229 12.0233L16.8613 11.6549L18.0784 10.695L18.2893 10.5542L19.3611 9.83141L20.6561 8.81206L20.8425 8.69394L21.9809 8.09107L22.3554 7.87406L23.3993 7.3307L24.5149 6.60182L25.7959 5.9097L26.4005 5.61921L28.2301 4.90521L29.6712 4.30584L30.2566 4.08009L30.7239 3.80709L31.6968 3.54372L32.0985 3.29786L32.7573 3.11848L33.8677 2.71685L34.139 2.72561L35.3281 2.49461L36.0631 2.26623L37.0343 2.0746L37.9758 1.96961L39.0433 1.94336L40.4275 1.78761L41.8197 1.74999V1.74999Z" fill="white"/>
<path d="M87.5089 34.8114C87.3548 34.8114 87.1807 34.7756 87.0678 34.7423L86.927 34.7021C86.6837 34.6312 86.4457 34.5594 86.2226 34.4579C85.8096 34.2654 85.3599 34.1176 84.9215 34.0275L84.4656 33.9303C84.0255 33.8358 83.5827 33.7413 83.1417 33.6591C82.9029 33.6206 82.3726 33.5654 82.3682 33.5646C81.6691 33.4998 80.8125 33.429 80.6655 33.4281C79.8806 33.4421 79.0958 33.4648 78.31 33.4911C78.0878 33.5016 77.8506 33.5103 77.6135 33.5103C76.966 33.5103 76.4786 33.1288 76.3281 32.5146L76.217 32.0885C76.168 31.8977 76.119 31.7096 76.0665 31.5215L75.7542 30.5126L75.4558 29.572C75.3149 29.1284 75.174 28.6839 75.0297 28.242C74.9439 27.9821 74.831 27.7196 74.7164 27.4615C74.5808 27.1474 74.46 26.8403 74.3401 26.534C74.1205 25.9731 73.914 25.4438 73.6419 24.9485C73.4258 24.5469 73.2359 24.1357 73.0478 23.7262L72.801 23.1968C72.7354 23.0646 72.682 22.9019 72.6479 22.726C72.5849 22.3734 72.6505 22.0811 72.8404 21.8169C73.0661 21.5413 73.2998 21.4468 73.4249 21.396C73.5562 21.3418 74.0076 21.1327 74.0076 21.1327L74.6114 20.7818C74.6088 20.7818 75.0192 20.5105 75.1189 20.4362C75.2449 20.3425 75.8154 19.8718 75.8399 19.8525H75.839C75.8373 19.8525 76.546 19.1989 76.8855 18.8236C77.1086 18.5759 77.7167 17.6371 78.0764 17.0499C78.1844 16.8729 78.3519 16.7402 78.5489 16.6754C78.6434 16.6431 78.7458 16.6247 78.8438 16.6247C79.1981 16.6247 79.4895 16.7866 79.7109 17.1059C79.8369 17.2529 80.1274 17.6012 80.1274 17.6012L83.2948 21.8825L83.7665 22.6464L84.428 23.9694L85.0833 25.0351C85.1017 25.0666 85.1192 25.099 85.1341 25.1323L85.7099 26.4124L86.1823 27.5481L87.1842 29.7802L87.5342 30.7515L87.8895 31.8102L88.0146 32.2897L88.1143 32.5531C88.1563 32.6677 88.3742 33.2732 88.439 33.6468C88.5081 34.0555 88.3182 34.5796 87.8352 34.7554L87.8343 34.7537C87.7293 34.7913 87.613 34.8114 87.5089 34.8114" fill="#CE1141"/>
<path d="M78.8453 15.7494C78.6572 15.7494 78.4647 15.7818 78.2827 15.8421C77.8925 15.969 77.5521 16.2315 77.3324 16.592C76.8985 17.299 76.3848 18.0707 76.2335 18.2431C75.9893 18.5117 75.46 19.0114 75.2482 19.2082C75.1205 19.3123 74.7197 19.6414 74.6051 19.728C74.508 19.7997 74.242 19.9765 74.1326 20.0491L73.5735 20.3702C73.4501 20.4271 73.2025 20.5408 73.1202 20.5759C72.9347 20.6511 72.5392 20.8103 72.2093 21.2058C72.1814 21.24 72.1542 21.2741 72.128 21.31C71.8016 21.7667 71.6852 22.2865 71.7832 22.8552C71.8392 23.1466 71.9188 23.3855 72.0273 23.6024C72.0956 23.7468 72.177 23.9218 72.2575 24.0977C72.4465 24.5072 72.6407 24.9307 72.8691 25.3559C73.122 25.8153 73.3189 26.3193 73.5271 26.8522C73.6505 27.1681 73.7747 27.4857 73.9103 27.7989C74.0153 28.036 74.1256 28.2924 74.2026 28.5225C74.3408 28.9434 74.4773 29.3757 74.6138 29.807C74.7178 30.1375 74.8228 30.4677 74.9288 30.7975C74.9682 30.9296 75.0207 31.0968 75.0723 31.263C75.1266 31.4345 75.1808 31.606 75.2307 31.7784C75.278 31.9411 75.3235 32.1205 75.369 32.3008C75.4075 32.4495 75.4459 32.6 75.4871 32.7505C75.7382 33.7296 76.5852 34.385 77.6037 34.385C77.8671 34.385 78.1182 34.3762 78.3693 34.364C79.1209 34.3395 79.9023 34.3168 80.6907 34.3027C80.8193 34.3071 81.6383 34.3762 82.3007 34.4366C82.2998 34.4366 82.7854 34.4874 83.0243 34.5259C83.411 34.5985 83.8398 34.6904 84.2668 34.7814L84.7393 34.8829C85.1138 34.9599 85.5084 35.0903 85.8558 35.2504C86.1611 35.3904 86.4499 35.4735 86.6826 35.5417L86.8165 35.5802C86.9346 35.6152 87.2129 35.6861 87.5113 35.6861C87.7222 35.6861 87.9426 35.6468 88.1465 35.5724L88.1474 35.5732C89.0731 35.2294 89.4345 34.2459 89.3033 33.4951C89.2289 33.0716 89.0224 32.4836 88.9366 32.2491L88.8439 31.9901L88.7546 31.648C88.7442 31.6095 88.7336 31.571 88.7205 31.5334L88.3723 30.4913L88.0363 29.5489C88.0205 29.506 88.0039 29.464 87.9846 29.422L86.9828 27.1899L86.5295 26.0997C86.5234 26.0848 86.5173 26.0682 86.5103 26.0533L85.9345 24.7732C85.903 24.7058 85.8698 24.6419 85.8313 24.5789L85.1794 23.5123L85.0525 23.2533L84.587 22.3206C84.5643 22.2759 84.5397 22.2321 84.5136 22.1893L84.0848 21.4893C84.0584 21.4463 84.0304 21.4042 84.0008 21.3633L83.8188 21.1175L80.8657 17.1214C80.8447 17.0934 80.8237 17.0654 80.8009 17.0391C80.8009 17.0391 80.5638 16.7556 80.4037 16.5692C79.8988 15.8588 79.2119 15.7494 78.8453 15.7494V15.7494ZM78.8453 17.4994C78.9398 17.4994 78.9617 17.5659 79.0299 17.6551C79.1752 17.8222 79.4578 18.1608 79.4578 18.1608L82.4109 22.1578L82.5929 22.4028L83.0208 23.1028L83.4837 24.0286L83.6455 24.3567L84.3377 25.4907L84.9143 26.7717L85.3763 27.8838L86.3878 30.1387L86.7124 31.046L87.0615 32.0881L87.17 32.5081L87.2934 32.8503C87.2934 32.8503 87.5244 33.4811 87.5786 33.7961C87.5857 33.8373 87.5576 33.9256 87.5384 33.9326C87.5331 33.9352 87.5235 33.9361 87.5113 33.9361C87.4658 33.9361 87.3765 33.9213 87.3179 33.9038C87.0668 33.8285 86.8165 33.7655 86.589 33.6614C86.1218 33.4461 85.6038 33.2737 85.0998 33.1705C84.503 33.0445 83.9019 32.9097 83.3043 32.7986C83.0278 32.754 82.4625 32.6945 82.4625 32.6945C82.4625 32.6945 80.9261 32.5528 80.6679 32.5528H80.6583C79.8621 32.5676 79.0737 32.5904 78.2836 32.6158C78.0613 32.6271 77.8391 32.635 77.6159 32.635H77.6037C77.3832 32.635 77.2345 32.5344 77.1802 32.3069C77.0857 31.9613 77.0052 31.6183 76.9089 31.2805C76.8075 30.9384 76.6963 30.5998 76.5948 30.2603C76.3498 29.5017 76.1127 28.7317 75.8633 27.9696C75.7662 27.679 75.6437 27.3885 75.5168 27.1051C75.145 26.2423 74.8658 25.3559 74.4117 24.5273C74.1133 23.9735 73.864 23.3881 73.5927 22.8202C73.5516 22.7371 73.5253 22.6478 73.5079 22.5595C73.4886 22.4466 73.5035 22.3958 73.5516 22.3285C73.6076 22.262 73.7047 22.2278 73.787 22.1937C73.8692 22.1613 74.3776 21.9269 74.3776 21.9269L75.0522 21.5392C75.0522 21.5392 75.5396 21.2163 75.6481 21.1341C75.7601 21.0527 76.398 20.5269 76.398 20.5269C76.398 20.5269 77.1583 19.8277 77.5363 19.4112C77.9161 18.9877 78.8243 17.5064 78.8243 17.5064C78.8305 17.5064 78.8383 17.4994 78.8453 17.4994" fill="white"/>
<path d="M72.0924 21.1989C71.668 21.1989 71.2306 20.9522 70.9794 20.5698L70.877 20.4254C70.7134 20.1918 70.527 19.9267 70.3818 19.6205C70.2077 19.2433 69.9609 18.8732 69.6013 18.4462C69.1848 17.9413 68.8593 17.4102 68.5443 16.8966C68.4446 16.7338 68.3448 16.5711 68.2433 16.4101C68.21 16.3611 68.1768 16.3016 68.1444 16.2412C67.867 15.9009 67.6273 15.592 67.3884 15.2831C67.0201 14.808 66.6727 14.3591 66.2754 13.9662C65.8484 13.5383 65.481 13.0746 65.1773 12.6782C64.8789 12.2897 64.5228 11.9389 64.144 11.5679L63.9576 11.3833C63.3705 10.8241 62.9233 10.3753 62.5182 9.93864C62.2767 9.67788 61.9792 9.44952 61.6642 9.20714C61.5006 9.08113 61.3361 8.95514 61.176 8.82301C61.176 8.82301 60.8102 8.51152 60.7551 8.46165C60.7078 8.41877 60.6632 8.37065 60.6107 8.33826C60.1102 8.05914 59.7226 7.72315 59.3971 7.42915C59.0243 7.07653 58.6192 6.76941 58.1782 6.50255C57.3724 6.0248 56.563 5.5514 55.7422 5.08068C55.5979 4.99403 55.4439 4.93017 55.2278 4.86542C54.9434 4.78316 54.6809 4.66243 54.4481 4.55566C54.337 4.50493 54.2259 4.45418 54.1121 4.40868C53.8514 4.3028 53.5906 4.20393 53.3308 4.10506C53.0516 3.99918 52.7734 3.8933 52.4977 3.78217C52.4138 3.75243 52.1714 3.63168 52.1714 3.63168C52.0725 3.58354 51.9911 3.51968 51.9176 3.43831L51.8503 3.36305C51.5388 3.0183 51.551 2.48893 51.88 2.15906L52.0323 2.00682C52.1977 1.84143 52.4208 1.74956 52.6517 1.74956C52.6797 1.74956 52.7086 1.75045 52.7375 1.75393L53.0079 1.78018C53.042 1.78369 53.0744 1.78805 53.1068 1.79595L54.8322 2.16693L56.6426 2.62457C56.7152 2.64643 58.9876 3.43567 59.1941 3.49955V3.50219C59.3236 3.54068 59.545 3.61855 59.9921 3.7743L59.9895 3.78217C60.2415 3.86618 60.7691 4.07268 62.0728 4.58542L65.9884 6.43603L70.9567 9.41539C71.0022 9.44251 71.0451 9.47402 71.0844 9.50815L72.06 10.3656C72.2805 10.5371 72.4433 10.6631 72.5623 10.7699L72.5675 10.7646C72.6262 10.8136 75.3859 13.0475 75.3859 13.0475L75.5775 13.212L76.1611 13.786C76.1997 13.8236 76.2346 13.8656 76.2662 13.9102L76.526 14.2865L76.9224 14.7406C76.96 14.7844 76.9942 14.8316 77.023 14.8823L77.1761 15.151C77.4474 15.5631 77.4876 15.7565 77.5051 15.8387C77.562 16.1275 77.4973 16.446 77.3127 16.7916L76.6433 17.9142C76.6284 17.9413 76.6109 17.9667 76.5925 17.9912L76.2119 18.4978C76.12 18.6081 75.6116 19.1978 75.3325 19.4612C75.14 19.6327 74.8898 19.8226 74.6912 19.9722C74.5993 20.0413 74.5205 20.0991 74.4803 20.1341C74.3009 20.3038 73.9308 20.5024 73.7269 20.6039L73.0759 20.8918L72.7067 21.044C72.585 21.0966 72.3847 21.1709 72.2018 21.1928C72.1677 21.1972 72.1274 21.1989 72.0924 21.1989" fill="#CE1141"/>
<path d="M52.6521 0.875336C52.1882 0.875601 51.7434 1.05966 51.4149 1.38721L51.2626 1.54031C50.6037 2.19831 50.5766 3.25793 51.1996 3.94918L51.2679 4.02444C51.4114 4.18455 51.5846 4.31668 51.7771 4.4138C51.8891 4.47068 52.0466 4.5468 52.191 4.60194C52.4649 4.71216 52.7414 4.81715 53.0187 4.92306C53.2742 5.02017 53.5297 5.11729 53.7844 5.21967C53.885 5.2608 53.983 5.3063 54.0819 5.3518C54.3295 5.46555 54.6383 5.60642 54.9945 5.70879C55.1196 5.74728 55.215 5.78491 55.285 5.82604C56.1059 6.29824 56.9235 6.77629 57.7376 7.26015C58.113 7.48765 58.4682 7.75628 58.7806 8.05202C59.1638 8.3985 59.5856 8.76341 60.1211 9.06789C60.1368 9.08189 60.1508 9.09588 60.1666 9.10903C60.2322 9.16938 60.2978 9.22801 60.3652 9.28402L60.4501 9.35577L60.5822 9.46777C60.5944 9.47826 60.6067 9.48877 60.6181 9.49839C60.7861 9.63751 60.9584 9.77052 61.1308 9.90266C61.4283 10.1302 61.6847 10.327 61.8746 10.5326C62.2946 10.9841 62.7539 11.4453 63.3664 12.0297L63.5362 12.1969C63.8897 12.5451 64.2239 12.8732 64.4821 13.211C64.8041 13.6301 65.1934 14.1192 65.6484 14.5777C66.0159 14.9417 66.3467 15.3687 66.6984 15.822C66.9189 16.1072 67.1464 16.4012 67.3949 16.6952C67.4387 16.774 67.4763 16.8379 67.5165 16.9C67.6049 17.0382 67.702 17.1975 67.8 17.3567C68.1299 17.8957 68.472 18.4531 68.9235 18.9991C69.2403 19.3762 69.4468 19.6842 69.5833 19.9791C69.7688 20.3711 69.9875 20.6826 70.1643 20.9328L70.2675 21.0807C70.6656 21.6835 71.3718 22.0747 72.0928 22.0747C72.1147 22.0747 72.1444 22.0747 72.1672 22.0729C72.2116 22.0712 72.256 22.0677 72.3002 22.0624C72.5338 22.0362 72.7928 21.9618 73.0701 21.8411L73.3843 21.7124C73.4 21.7063 73.4149 21.6993 73.4306 21.6932C73.4315 21.6932 73.8734 21.4972 74.0318 21.4281C74.061 21.4155 74.0899 21.4021 74.1184 21.3878C74.5217 21.1857 74.835 20.9879 75.0503 20.7998C75.0914 20.7666 75.1509 20.7219 75.22 20.6703C75.4265 20.5146 75.6846 20.3203 75.8955 20.1322C75.9074 20.1219 75.919 20.1114 75.9305 20.1007C76.2306 19.8189 76.7031 19.2721 76.8422 19.1111C76.8659 19.0831 76.8886 19.0542 76.9114 19.0245L77.2911 18.5187C77.3287 18.4688 77.3629 18.4172 77.3952 18.3638L78.0445 17.2771C78.0576 17.2535 78.0716 17.229 78.0839 17.2053C78.279 16.8405 78.4855 16.2778 78.363 15.6689C78.3201 15.4571 78.2317 15.1736 77.9106 14.6748L77.7855 14.4526C77.7269 14.3502 77.6586 14.2549 77.5816 14.1656L77.2176 13.7482L76.9858 13.4131C76.9238 13.3241 76.8538 13.2409 76.7766 13.1646L76.2394 12.6335C76.2101 12.6041 76.1798 12.5758 76.1484 12.5486L75.9804 12.4051C75.9664 12.3922 75.9518 12.38 75.9366 12.3684L74.3678 11.0979C73.743 10.5921 73.2014 10.1538 73.127 10.0925L73.12 10.1013C72.9695 9.96476 72.7945 9.8274 72.5985 9.67516L71.6614 8.85177C71.5825 8.7825 71.4976 8.72042 71.4077 8.66627L66.5155 5.72806C66.4665 5.69833 66.4149 5.67032 66.3633 5.64668L62.5019 3.81882C62.4663 3.80129 62.4298 3.78552 62.3926 3.77157C61.1938 3.30083 60.6084 3.07072 60.2759 2.95872L60.2794 2.94908C59.869 2.80559 59.6232 2.71896 59.4552 2.66734L59.4561 2.66559C59.3038 2.61659 58.0771 2.19398 57.0026 1.82034C56.9551 1.80404 56.9069 1.78974 56.8582 1.77746L55.0785 1.32685C55.0582 1.32167 55.0377 1.317 55.0172 1.31284L53.2908 0.940969C53.2259 0.926854 53.1602 0.916621 53.094 0.910325L52.8227 0.883207C52.766 0.877985 52.7091 0.875359 52.6521 0.875336ZM52.6521 2.62532L52.9234 2.65155L54.6489 3.02344L56.4277 3.47405C56.4277 3.47405 58.925 4.3403 58.9503 4.3403C58.9573 4.3403 59.7037 4.60105 59.7037 4.60105C59.7177 4.60105 61.7529 5.39991 61.7529 5.39991L65.6143 7.22778L70.5064 10.1669L71.4829 11.0235C71.4829 11.0235 72.0018 11.4286 72.0018 11.4321C72.007 11.44 73.89 12.9616 74.835 13.7272C74.8901 13.7754 75.0091 13.8769 75.0091 13.8769L75.5464 14.4089L75.8343 14.8254L76.2621 15.3162L76.4152 15.5848C76.4152 15.5848 76.6244 15.9042 76.6471 16.0162C76.6716 16.1361 76.5413 16.3802 76.5413 16.3802L75.8929 17.467L75.5123 17.9736C75.5123 17.9736 74.9864 18.5861 74.7326 18.825C74.4693 19.0603 74.0116 19.3788 73.8996 19.4795C73.7938 19.5801 73.484 19.7481 73.3361 19.8225C73.1743 19.8925 72.7219 20.0928 72.7219 20.0928L72.3754 20.2346C72.3754 20.2346 72.1934 20.3133 72.0998 20.3247H72.0928C71.9921 20.3247 71.8128 20.2468 71.7095 20.0893C71.5232 19.8181 71.3149 19.5477 71.1723 19.2467C70.9421 18.7471 70.6228 18.3008 70.2719 17.8835C69.7732 17.2806 69.3978 16.5972 68.9813 15.9419C68.9139 15.8386 68.8675 15.7179 68.7853 15.6286C68.1413 14.877 67.597 14.044 66.89 13.3449C66.5199 12.9721 66.1909 12.5626 65.8707 12.1461C65.4839 11.6404 65.0246 11.209 64.5731 10.7619C64.0892 10.3008 63.6123 9.83263 63.1599 9.3444C62.7338 8.88326 62.2114 8.54465 61.7346 8.15003C61.6497 8.07652 61.5631 8.00477 61.4799 7.93477C61.3277 7.80878 61.1868 7.65129 61.0153 7.56379C60.6329 7.35028 60.3057 7.07203 59.9846 6.78154C59.5672 6.38692 59.1157 6.04831 58.6309 5.75518C57.8146 5.27042 57.0026 4.79529 56.1783 4.32194C55.9587 4.19156 55.7295 4.10317 55.4792 4.02792C55.1187 3.92381 54.7871 3.73743 54.4389 3.59742C53.9016 3.38043 53.3591 3.18706 52.8262 2.9718C52.7422 2.94118 52.5672 2.85282 52.5672 2.85282L52.4999 2.77756L52.6521 2.62532" fill="white"/>
<path d="M2.10829 51.4329C1.99805 51.4329 1.88694 51.4127 1.78017 51.369C1.76637 51.3637 1.75292 51.3576 1.73993 51.3506C1.46782 51.2351 1.20007 50.9621 1.14056 50.3444L1.04433 48.8744L0.951553 48.6696C0.898182 48.5497 0.871928 48.4194 0.875432 48.2872L1.02767 42.4615C1.02867 42.4305 1.03101 42.3996 1.03468 42.3688L1.38906 39.7123L1.47043 38.4891C1.47306 38.4452 1.47921 38.4016 1.48881 38.3587L1.72594 37.2938L2.12668 34.878L2.39531 33.6171C2.40755 33.5611 2.4242 33.5068 2.44781 33.4543L3.00692 32.1567L3.06729 31.6615C3.08155 31.5421 3.1203 31.4269 3.18113 31.3231C3.24196 31.2194 3.32356 31.1293 3.4208 31.0586L4.87504 29.9981L8.0924 27.6068L10.9694 25.5339L12.7868 24.1453C12.8742 24.0088 12.9985 23.8968 13.1481 23.825L14.0179 23.4077L14.3898 23.0279C14.5595 22.8538 14.787 22.7646 15.0154 22.7646C15.2052 22.7646 15.396 22.8267 15.5552 22.9518L15.5579 22.9536C16.0557 23.0349 17.2554 23.2327 17.6797 23.2983C18.147 23.1469 18.9117 22.9536 20.1884 22.6307C20.2584 22.6126 20.3304 22.6035 20.4027 22.6036C20.4867 22.6036 20.5707 22.6158 20.6521 22.6403L20.947 22.7278C20.975 22.7243 21.0038 22.7234 21.0327 22.7234C21.1613 22.7234 21.2891 22.7514 21.409 22.8083L22.3881 23.2738L23.1178 22.6972C23.1686 22.6149 23.2298 22.5423 23.2981 22.4898L27.0553 19.5874C27.2119 19.4667 27.4009 19.4046 27.5899 19.4046C27.7422 19.4046 27.8953 19.4448 28.0327 19.5253L28.1508 19.5945L28.9549 19.6207C29.0302 19.6233 29.1045 19.6356 29.1763 19.6566L32.4016 19.6364C32.4951 19.6033 32.5937 19.5864 32.6929 19.5866C32.72 19.5866 32.7472 19.5874 32.7743 19.5901L34.4394 19.7467C34.4893 19.6994 34.5444 19.6574 34.6057 19.6224L38.6359 17.2958C38.7715 17.2171 38.9229 17.1795 39.0734 17.1795C39.1714 17.1795 39.2694 17.1961 39.363 17.2285L41.6826 17.0535C41.7867 16.9983 41.9023 16.9651 42.0204 16.9555C42.0204 16.9555 43.1509 16.8671 43.1736 16.8671C43.2707 16.8671 43.3679 16.8837 43.4597 16.9152C43.4597 16.9152 48.9915 16.6247 49.0072 16.6247C49.1201 16.6247 49.2312 16.6466 49.3371 16.6895L50.8027 17.2862C50.8027 17.2862 52.4722 17.1646 52.4932 17.1646C52.6892 17.1646 52.8791 17.2311 53.034 17.3518L53.4128 17.4822C53.4312 17.4812 53.4495 17.4806 53.4679 17.4805C53.5117 17.4805 53.5546 17.4839 53.5983 17.4901L54.5687 17.6362C54.8854 17.6835 55.1479 17.8996 55.2582 18.1936L55.7219 18.6127C55.8357 18.6416 55.9424 18.6932 56.0369 18.7649L57.1561 19.6163L59.3077 19.7843C59.3999 19.752 59.4969 19.7354 59.5947 19.7353C59.69 19.7353 59.7854 19.7511 59.8764 19.7826L62.7674 20.7731H62.7665C62.7805 20.7731 64.4465 21.1869 65.15 21.2884L67.1914 21.5544H67.9334C68.0165 21.5544 68.0988 21.5658 68.1784 21.5894C69.0052 21.5229 69.5635 21.4809 69.7639 21.4809C69.8872 21.4809 70.2915 21.4477 70.8252 21.3864L70.9259 21.3707C71.044 21.3514 71.142 21.34 71.2304 21.34C71.4369 21.34 71.632 21.3917 71.8087 21.4941C72.136 21.6734 72.2769 21.9386 72.3451 22.0663L71.6215 22.5712L72.3897 22.1521C72.4309 22.2273 72.4589 22.2833 72.4868 22.3507L72.7774 22.9002C73.1676 23.6448 73.5368 24.3483 73.8387 25.2067C73.8711 25.3038 73.9087 25.3843 73.9455 25.4674C73.9892 25.5689 74.0347 25.6713 74.0741 25.7772C74.1318 25.9382 74.18 26.0895 74.2281 26.2409C74.299 26.4658 74.3672 26.6907 74.4661 26.9015C74.6997 27.3723 74.8633 27.8632 75.0217 28.3365C75.0891 28.5378 75.1565 28.7399 75.23 28.9402C75.4216 29.4688 75.5756 29.978 75.7322 30.4951C75.818 30.7812 75.9055 31.0691 76 31.3631C76.1566 31.8522 76.0306 32.1987 75.8976 32.4035C75.7646 32.61 75.4951 32.869 74.9718 32.9285C74.5475 32.9749 74.1249 33.0151 73.704 33.0554L73.1589 33.1096C72.4335 33.184 71.7107 33.2575 70.9871 33.3117C69.9231 33.4001 67.9255 33.6425 67.3226 33.7169L67.2859 33.7387C67.1524 33.8161 67.0009 33.8569 66.8466 33.8569C66.6745 33.8569 66.5061 33.806 66.3628 33.7107C66.3628 33.7107 65.8526 33.7457 65.8325 33.7457C65.7249 33.7457 65.619 33.7265 65.5184 33.6871L64.2934 33.2164L63.0456 33.0291C62.9177 33.0098 62.7955 32.9626 62.6878 32.8909L62.6694 32.8777L62.651 32.8821C62.5863 32.897 62.5207 32.9049 62.4541 32.9049C62.3798 32.9049 62.3054 32.8952 62.2336 32.876L60.6149 32.4542L60.2929 32.5304C60.2807 32.5365 59.7592 32.7789 59.7592 32.7789C59.7078 32.8022 59.6545 32.8209 59.5999 32.8349C59.4337 32.9993 59.2105 33.0869 58.9839 33.0869C58.8387 33.0869 58.6908 33.051 58.556 32.9749L57.758 32.526L57.7012 32.5242C57.576 32.5216 57.4518 32.491 57.3389 32.4359L56.5987 32.0736L56.4771 32.1121C56.4246 32.148 56.3703 32.1786 56.3143 32.1996L53.4994 33.2741C53.4093 33.3712 53.2964 33.4474 53.1696 33.4955L52.2622 33.8385C52.1939 33.9006 52.1152 33.9514 52.0312 33.989L50.9978 34.4501C50.9086 34.49 50.8134 34.5149 50.7161 34.5236L50.2208 34.7458C50.1062 34.8675 49.9592 34.955 49.7947 34.9961L49.4491 35.0818C49.3791 35.0994 49.3082 35.1072 49.2373 35.1072C49.1367 35.1072 49.0361 35.0897 48.9398 35.0556L47.1382 34.969C46.9948 35.0706 46.824 35.1264 46.6482 35.1291L44.165 35.172C44.0416 35.235 43.9051 35.2665 43.7686 35.2665C43.5674 35.2665 43.3661 35.1982 43.2016 35.0582L42.1998 34.2051L41.4263 34.3364C41.3221 34.3985 41.2066 34.4387 41.085 34.4536L40.0026 34.5866C39.8617 34.675 39.7007 34.7196 39.538 34.7196C39.4089 34.7197 39.2813 34.6914 39.1644 34.6365L37.76 33.9724L35.2908 34.2891L33.5714 35.9262C33.5173 35.9779 33.4567 36.0223 33.3912 36.0583L31.1171 38.3788C30.9944 38.5048 30.8363 38.5906 30.6638 38.6247L29.3399 38.8898C29.283 38.9012 29.2262 38.9064 29.1684 38.9064C29.1407 38.9066 29.1129 38.9054 29.0853 38.9029L27.3887 38.742C27.2784 38.7306 27.1734 38.6999 27.0781 38.6518L23.3768 38.6002L22.0643 39.4997L20.73 40.3265L20.4412 40.7072C20.2715 40.9294 20.0116 41.0519 19.7439 41.0519C19.6432 41.0519 19.54 41.0344 19.4411 40.9977L19.4087 40.9863H18.6344C18.5377 41.0364 18.4328 41.0685 18.3246 41.0808L15.3382 41.4159L14.22 42.6987C14.1429 42.7874 14.0487 42.8596 13.943 42.9108C13.8373 42.9621 13.7223 42.9914 13.6049 42.997L11.7858 43.0907L9.75139 43.9105L2.73742 51.166C2.56943 51.3401 2.34105 51.4328 2.10829 51.4328" fill="#CE1141"/>
<path d="M49.0074 15.7494C48.9768 15.7494 48.9461 15.7502 48.9155 15.752L43.5535 16.0338C43.4289 16.0058 43.3015 15.9917 43.1738 15.9918C43.1274 15.9918 43.0819 15.9935 43.0355 15.997L41.9514 16.0828C41.7854 16.0956 41.6221 16.1325 41.4667 16.1921L39.4472 16.3444C39.3242 16.3171 39.1986 16.3033 39.0727 16.3032C38.7726 16.3032 38.4707 16.3811 38.1977 16.5378L34.2016 18.8451L32.8558 18.7191C32.8015 18.7139 32.7469 18.7112 32.6922 18.7112C32.5513 18.7112 32.4113 18.7278 32.2748 18.7611L29.2771 18.7803C29.1809 18.7611 29.0829 18.7489 28.9831 18.7462L28.396 18.7261C28.1422 18.5948 27.8657 18.5292 27.5892 18.5292C27.2021 18.5292 26.826 18.6579 26.52 18.895L22.7628 21.7973C22.6455 21.8883 22.5405 21.9925 22.4504 22.108L22.2719 22.2497L21.7837 22.0178C21.5544 21.9093 21.3085 21.8524 21.0618 21.8481L20.8999 21.8008C20.7386 21.7528 20.5712 21.7284 20.4029 21.7282C20.2585 21.7282 20.1142 21.7466 19.9733 21.7816C19.9733 21.7816 19.3004 21.9522 18.6266 22.1263C18.232 22.2278 17.8951 22.3145 17.609 22.4002C17.2223 22.339 16.5555 22.2305 15.8827 22.1193C15.6132 21.9653 15.3139 21.8892 15.0147 21.8892C14.5579 21.8892 14.1038 22.0668 13.7626 22.416L13.5001 22.6854L12.7686 23.0355C12.5271 23.1518 12.3171 23.3207 12.1543 23.5272L10.4376 24.8379L7.5912 26.888L4.34586 29.3004L2.90472 30.3513C2.71054 30.4927 2.54756 30.6726 2.42592 30.8797C2.30429 31.0868 2.22661 31.3168 2.19772 31.5553L2.15311 31.9245L1.64385 33.1066C1.59749 33.2116 1.56336 33.3219 1.53886 33.4339L1.2781 34.6545C1.27198 34.6808 1.26673 34.7079 1.26325 34.7341L0.861621 37.15L0.634122 38.1667C0.615043 38.2532 0.602465 38.3409 0.596494 38.4292L0.513365 39.6516L0.167749 42.253C0.158883 42.3141 0.153914 42.3758 0.152871 42.4376L0.000628472 48.2641C-0.0063785 48.5267 0.0452411 48.7874 0.153735 49.0272L0.180876 49.0884L0.264868 50.3738C0.265733 50.3913 0.267484 50.4088 0.269236 50.4263C0.3515 51.2882 0.740864 51.7519 1.11885 52.0004C1.22123 52.0713 1.33323 52.1316 1.45137 52.1798C1.66485 52.2655 1.88712 52.3075 2.10761 52.3075C2.5731 52.3075 3.02984 52.122 3.36586 51.7738L10.2512 44.6522L11.9767 43.9557L13.6488 43.8708C14.1231 43.8463 14.5667 43.631 14.8782 43.2732L15.7742 42.2468L18.4219 41.9493C18.5544 41.9347 18.6848 41.9047 18.8104 41.8601H19.2663C19.4238 41.9056 19.5848 41.9266 19.744 41.9266C20.2795 41.9266 20.7993 41.6807 21.137 41.2362L21.3287 40.9851L22.4898 40.2658C22.5132 40.252 22.5359 40.2371 22.558 40.2212L23.6421 39.4783L26.8989 39.5238C27.0292 39.5693 27.1649 39.5991 27.3057 39.6122L29.0024 39.7732C29.1725 39.7894 29.3441 39.7805 29.5116 39.747L30.8355 39.4818C31.1794 39.4127 31.4961 39.2421 31.742 38.991L33.9408 36.7466C34.0239 36.6909 34.102 36.6283 34.1745 36.5594L35.6864 35.12L37.6167 34.8724L38.7901 35.4262C39.0236 35.5369 39.2789 35.5942 39.5373 35.5942C39.7897 35.5941 40.0392 35.5398 40.2688 35.435L41.191 35.3212C41.3696 35.2994 41.5437 35.2504 41.7056 35.176L41.9435 35.1357L42.6339 35.7237C42.9638 36.0037 43.3663 36.1411 43.7679 36.1411C43.9639 36.1411 44.1599 36.1087 44.3463 36.0431L46.6624 36.0028C46.8978 35.9994 47.1288 35.9477 47.3414 35.8541L48.7886 35.9232C48.9348 35.9626 49.0861 35.9819 49.2375 35.9819C49.3784 35.9819 49.5201 35.9653 49.6593 35.9302L50.0058 35.8445C50.2665 35.7789 50.508 35.6555 50.7101 35.4849L50.9621 35.3711C51.0971 35.3459 51.2286 35.3051 51.3541 35.2495L52.3875 34.7884C52.4973 34.7386 52.6019 34.6783 52.6999 34.6081L53.4786 34.3133C53.6561 34.2463 53.8215 34.1512 53.9686 34.0315L56.5752 33.0357L56.955 33.2213C57.1266 33.3051 57.3107 33.3604 57.5001 33.3849L58.1266 33.7375C58.3881 33.8846 58.6832 33.9617 58.9832 33.9615C59.3595 33.9615 59.7313 33.8407 60.0367 33.6106C60.0673 33.5984 60.0971 33.5861 60.1268 33.5721L60.5853 33.3595L60.6046 33.3551L62.0116 33.7226C62.156 33.7603 62.3047 33.7786 62.4535 33.7786C62.4692 33.7786 62.4849 33.7786 62.5007 33.7777C62.6328 33.8338 62.772 33.8722 62.9163 33.8941L64.0687 34.0665L65.2044 34.504C65.4049 34.581 65.6179 34.6205 65.8327 34.6204C65.8721 34.6204 65.9123 34.6186 65.9526 34.616C65.9526 34.616 66.0532 34.609 66.1818 34.6002C66.3931 34.687 66.6193 34.7316 66.8477 34.7315C67.1048 34.7316 67.3588 34.6749 67.5914 34.5653C68.3273 34.4751 70.0939 34.2634 71.0652 34.182C71.7975 34.1278 72.5439 34.0516 73.2667 33.9772L73.6245 33.9414L73.8161 33.923C74.2309 33.8836 74.65 33.8442 75.0674 33.797C75.9791 33.6938 76.4394 33.1766 76.6328 32.8783C76.8253 32.5799 77.107 31.9516 76.8323 31.0959C76.7404 30.8089 76.6555 30.528 76.5715 30.2489C76.4158 29.7335 76.2556 29.2024 76.0544 28.6468C75.98 28.4447 75.9153 28.2504 75.8505 28.0553C75.6904 27.5784 75.5101 27.0377 75.2441 26.4996C75.1916 26.3867 75.1287 26.1863 75.0604 25.9746C75.0105 25.8127 74.958 25.6517 74.9011 25.4924C74.8478 25.3481 74.7961 25.2291 74.7437 25.1109C74.7183 25.0532 74.6911 24.9972 74.6701 24.9368C74.3403 23.9971 73.9378 23.2306 73.5493 22.4895C73.453 22.3066 73.355 22.1202 73.2579 21.9295C73.2299 21.8673 73.1984 21.8061 73.159 21.7326L73.1345 21.688C73.1302 21.6801 73.1179 21.6565 73.1135 21.6486C73.0225 21.4788 72.7828 21.0291 72.2123 20.7167C71.9358 20.5566 71.5937 20.4647 71.2297 20.4647C71.0389 20.4647 70.8849 20.4901 70.7834 20.5067L70.7143 20.5181C70.2129 20.5759 69.8533 20.6039 69.7605 20.6047C69.5488 20.6047 69.1052 20.6371 68.2389 20.7062C68.1383 20.6887 68.0359 20.6791 67.9335 20.6791H67.2484L65.2499 20.4183C64.7949 20.3527 63.6461 20.0858 62.9802 19.9205L61.7578 19.4987L60.1592 18.9536C59.9775 18.8915 59.7868 18.8598 59.5948 18.86C59.4704 18.8599 59.3463 18.8731 59.2247 18.8994L57.4809 18.7637L56.5665 18.0672C56.4457 17.9762 56.3153 17.901 56.1762 17.8432L55.975 17.6621C55.7168 17.1896 55.2496 16.8519 54.6975 16.7696L53.7271 16.6244C53.6711 16.6165 53.616 16.6104 53.5591 16.6078L53.434 16.564C53.1527 16.3847 52.8261 16.2894 52.4925 16.2892C52.4499 16.2893 52.4072 16.291 52.3647 16.2945L50.9438 16.3986L49.6671 15.8789C49.4577 15.7933 49.2336 15.7494 49.0074 15.7494V15.7494ZM49.0065 17.4994L50.6629 18.174L52.4925 18.0392L52.5826 18.1215L53.3789 18.3962L53.4681 18.3551L54.4385 18.5004L54.4726 18.664L55.3441 19.4497L55.5069 19.4602L56.9051 20.5251L56.983 20.4805L59.4732 20.6738L59.5948 20.61L61.1873 21.1533L62.4823 21.6005C62.4823 21.6005 64.2542 22.0423 65.0242 22.1543L67.1347 22.4291H67.9335L68.0867 22.4737C68.7421 22.4212 69.5672 22.3547 69.764 22.3547C69.9793 22.3547 70.5086 22.3031 70.926 22.255C71.0608 22.2383 71.1518 22.2147 71.2297 22.2147C71.2795 22.2147 71.3242 22.2235 71.3714 22.2514C71.4913 22.3171 71.5306 22.4002 71.5788 22.4895C71.6252 22.5787 71.6514 22.6189 71.6733 22.675C72.165 23.6392 72.6507 24.4678 73.0129 25.4959C73.0803 25.6972 73.1791 25.8818 73.2544 26.083C73.397 26.4812 73.4959 26.8951 73.6744 27.2739C73.9876 27.9065 74.167 28.5829 74.4085 29.2418C74.699 30.045 74.9047 30.8159 75.1663 31.6305C75.2608 31.9245 75.1295 32.0287 74.874 32.0584C74.3972 32.1118 73.9203 32.1555 73.4478 32.2001C72.6034 32.285 71.7634 32.3751 70.9208 32.4381C69.6249 32.5458 67.0376 32.8704 67.0376 32.8704L66.8468 32.9815C66.8468 32.9815 66.6088 32.8179 66.5983 32.8179C66.5904 32.8179 65.8327 32.8704 65.8327 32.8704L64.5184 32.3646L63.1744 32.1634L62.8411 31.9394L62.4535 32.0286L60.6256 31.5527L59.9116 31.7206L59.8906 31.753L59.391 31.984L59.3621 31.9735L59.0567 32.1188L58.9841 32.2115L57.9962 31.6559L57.7232 31.6489L56.8351 31.214L56.682 31.046L56.5639 31.1659L56.0249 31.3365L56.0021 31.382L52.9431 32.5493L52.86 32.6761L51.7593 33.0926L51.6744 33.1898L50.641 33.6509L50.5369 33.6439L49.6435 34.0455L49.5831 34.1461L49.2375 34.2319L49.1133 34.1872L46.8724 34.0796L46.6327 34.2537L43.8467 34.3019L43.7688 34.3911L42.4064 33.2309L42.2944 33.3009L41.0458 33.5126L40.9776 33.5844L39.6467 33.748L39.5373 33.8442L38.0341 33.1338L37.9037 33.0069L37.7926 33.0856L34.8946 33.4575L32.9678 35.2915L32.9197 35.2889L30.4916 37.766L29.1677 38.0311L27.4711 37.8701L27.4422 37.7817L23.111 37.7213L21.5693 38.7775L20.1316 39.6673L19.744 40.1766L19.5655 40.1101H18.3624L18.2268 40.2107L15.0121 40.5712L14.8668 40.5047L14.7504 40.7576L13.5596 42.1234L11.5943 42.2232L9.25108 43.1682L2.10761 50.5575C2.10761 50.5505 2.10761 50.5575 2.1006 50.5505C2.03761 50.5391 2.01136 50.26 2.01136 50.26L1.90636 48.6597L1.74973 48.3096L1.90197 42.484L2.25548 39.8275L2.34212 38.5473L2.57924 37.4833L2.98874 35.0203L3.25036 33.7996L3.86022 32.3865L3.93547 31.7653L5.38971 30.7048L8.61408 28.3091L11.4806 26.244L13.5018 24.6997L13.5254 24.6131L14.5352 24.1292L15.0147 23.6392L15.1932 23.7801C15.1932 23.7801 17.665 24.1869 17.7202 24.1869H17.721C17.6939 24.1633 20.4029 23.4782 20.4029 23.4782L20.9454 23.6392L21.032 23.5981L22.5038 24.2981L23.8206 23.2559L23.8329 23.1816L27.5892 20.2792L27.899 20.4612L28.9254 20.4945L28.998 20.5321L32.5811 20.5093L32.6922 20.4612L34.7161 20.6511L34.8123 20.7176L34.9943 20.5505L35.0424 20.3798L39.0727 18.0532L39.1497 18.1215L41.975 17.908L42.0888 17.8275L43.1738 17.7417L43.2657 17.8012L49.0065 17.4993" fill="white"/>
<path d="M24.3473 78.4009C24.275 78.4008 24.203 78.392 24.1329 78.3746L21.2087 77.6361L21.1203 77.6921C21.0455 77.7407 20.9633 77.777 20.8771 77.7997L20.1184 78.2171C19.9896 78.2884 19.8448 78.3257 19.6975 78.3256C19.5269 78.3256 19.3563 78.2758 19.2093 78.1769C19.2093 78.1769 19.0527 78.0719 18.9153 77.98C18.759 77.9661 18.6092 77.9108 18.4813 77.8199C18.4507 77.812 18.4209 77.8015 18.3912 77.791L16.4181 77.0263C16.4128 77.0271 16.4084 77.0271 16.4076 77.0271C16.2352 77.0271 16.0681 76.965 15.9255 76.8653C15.3156 76.6763 14.9708 76.5678 14.7608 76.4864L14.7573 76.496C14.6961 76.4741 13.8867 76.202 13.7983 76.1714C13.6452 76.1556 13.5262 76.1382 13.3932 76.0769H13.3941C13.2462 76.0078 13.0353 75.8625 12.919 75.5694L11.2941 73.8063L10.161 72.3547L8.85636 70.3641L7.16586 68.0261C7.00661 67.8056 6.95849 67.523 7.03637 67.2631L7.15712 66.858C7.20525 66.6976 7.29813 66.5543 7.42487 66.445L8.68573 65.3582C8.82399 65.2392 8.99636 65.1666 9.17747 65.1491L12.2916 64.8656L14.4239 59.6961C14.4021 59.4056 14.5263 59.1204 14.7591 58.9393L18.5233 56.0098C18.6326 55.925 18.7603 55.8672 18.8961 55.8409L18.9179 55.8365L20.8998 54.3053C20.9295 54.2475 20.9654 54.1942 21.0074 54.1434C21.0896 54.0459 21.192 53.9675 21.3077 53.9136C21.4233 53.8598 21.5493 53.8319 21.6768 53.8319C21.7083 53.8319 21.7398 53.8337 21.7713 53.8372L21.955 53.8564L22.4328 53.6552C22.5413 53.6088 22.6568 53.5861 22.774 53.5861C22.7863 53.5861 23.362 53.6105 23.362 53.6105L24.1364 53.4548L25.8803 51.5674C25.9624 51.4789 26.0619 51.4083 26.1725 51.3599C26.2832 51.3116 26.4026 51.2866 26.5234 51.2866C26.5409 51.2866 28.3556 51.3959 28.3556 51.3959L28.6085 51.3084C28.7007 51.2761 28.7978 51.2595 28.8955 51.2594C28.9296 51.2594 28.9638 51.2612 28.9979 51.2656L30.6779 51.4642C33.246 50.038 34.2269 49.4928 34.618 49.2784C34.7921 49.0763 35.0476 48.9346 35.3031 48.9346C35.3153 48.9346 35.4466 48.9416 35.4466 48.9416L37.7347 48.5435C37.8749 48.4495 38.0393 48.3982 38.2081 48.3956L38.7086 48.3877C38.7086 48.3877 41.688 44.991 41.6897 44.9883C41.7256 44.9201 41.7702 44.8562 41.8227 44.7985L44.1642 42.247C44.2015 42.1366 44.2608 42.0348 44.3383 41.9478L44.8467 41.3755C44.9287 41.2832 45.0294 41.2092 45.142 41.1586C45.2547 41.1079 45.3768 41.0816 45.5003 41.0815C45.5204 41.0815 48.421 41.2793 48.421 41.2793L48.6223 41.1078C48.7544 40.9958 48.9154 40.9249 49.0869 40.9048L49.5122 40.8549L50.8859 40.0473C51.0207 39.9685 51.1738 39.9265 51.3295 39.9265H51.34L53.9694 37.8983C54.0901 37.8047 54.2354 37.7443 54.3885 37.7242L57.1369 37.361L58.3514 36.2323C58.487 36.1072 58.6567 36.0275 58.8387 36.0048L59.9587 35.1797C60.0218 35.0703 60.1075 34.9749 60.2125 34.9014C60.3612 34.7956 60.538 34.7413 60.7165 34.7413C60.8075 34.7413 60.8985 34.7553 60.9868 34.7833L61.441 34.9312L66.4136 35.065L69.9048 33.8479C69.9652 33.8278 70.0265 33.8129 70.0886 33.8059C70.6906 33.7333 71.2768 33.6799 71.8622 33.6266C72.5071 33.5679 73.1511 33.5093 73.8161 33.4236L73.9377 33.4087C74.1415 33.3842 74.39 33.3553 74.5738 33.3177C74.642 33.3046 74.7033 33.2958 74.7584 33.2879C74.9737 33.2599 75.118 33.2494 75.2423 33.2494C76.4052 33.2494 76.616 34.239 76.6957 34.6118C76.7963 35.0738 76.8768 35.5122 76.9608 35.9628L77.1419 36.9498C77.2242 37.4004 77.3064 37.8554 77.3746 38.3069C77.4945 39.0996 77.6074 39.8863 77.6914 40.6895C77.7317 41.1217 77.7527 41.5417 77.7737 41.9618L77.8078 42.5891L77.8227 42.7554C77.834 42.8726 77.8454 42.989 77.8498 43.1063L77.9294 44.5955C77.932 44.648 77.9382 44.6909 77.9443 44.7329C77.96 44.851 77.974 44.9656 77.974 45.11C77.974 45.3025 77.9679 45.3725 77.9574 45.502C77.932 45.7225 77.8874 46.0987 77.5409 46.4199C77.2224 46.6929 76.903 46.7384 76.7499 46.7611C76.5714 46.7882 76.2731 46.8267 76.2731 46.8267L75.6754 46.8635L74.761 47.0157L74.0024 47.1557C73.9123 47.1828 73.4424 47.3211 73.4424 47.3211C73.0548 47.4532 72.6523 47.5906 72.2498 47.7367C72.1063 47.7892 71.9628 47.8338 71.8167 47.8793C71.6653 47.9266 71.5096 47.9756 71.3538 48.0342C70.6494 48.3055 68.9169 49.1174 68.8994 49.1253C68.7822 49.1796 68.6562 49.2084 68.5276 49.2084C68.4935 49.2084 68.4593 49.2067 68.4252 49.2023L68.0183 49.1542L67.3428 49.0588C67.2597 49.0466 67.1801 49.0238 67.1048 48.9897C66.9456 48.967 66.705 48.9346 66.4993 48.9066L66.3891 49.0142C66.337 49.0645 66.2788 49.108 66.2158 49.1437L65.6908 49.765C65.564 49.9128 65.3933 50.0161 65.2026 50.0555L63.7037 50.3713C63.6224 50.4265 63.5305 50.4693 63.4342 50.4947L62.526 50.7388L62.1865 51.3846L62.1909 51.4834C62.2066 51.8413 62.0019 52.1729 61.6737 52.3199L59.2579 53.4014C59.1109 53.5589 58.9105 53.6587 58.6944 53.6771C58.6688 53.6795 58.6431 53.6807 58.6174 53.6805C58.4308 53.6805 58.2491 53.621 58.0985 53.5108L56.8245 53.4539L55.7623 54.1933C55.6458 54.2739 55.5116 54.3252 55.3711 54.3429L54.0543 54.5065L53.3044 54.8312L53.0139 55.8112C52.9738 55.9463 52.9014 56.0698 52.803 56.1708C52.6945 56.4954 52.4049 56.729 52.0593 56.7631L51.97 56.7719L48.3782 58.423C48.2907 58.528 48.1804 58.612 48.0553 58.6663L46.8714 59.1869C46.8128 59.2129 46.7515 59.2323 46.6885 59.2446C46.5118 59.3444 46.2388 59.508 46.237 59.5098C46.1399 59.5675 46.034 59.606 45.9238 59.6226C45.9028 59.6375 45.8809 59.6506 45.8582 59.6638L44.9902 60.1573L44.4459 61.2125C44.374 61.3515 44.2661 61.4687 44.1336 61.552L42.7738 63.7552C42.7458 64.1367 42.4719 64.4587 42.0957 64.5445L41.9014 64.5891C41.8498 64.6188 41.7973 64.6425 41.7492 64.6565L41.0142 64.8752L40.5846 66.4432L40.6721 66.7565C40.7377 66.9936 40.7018 67.2473 40.5715 67.4556C40.4656 67.6262 40.3046 67.7531 40.1173 67.8187L39.7026 68.2475C39.1006 68.8906 38.8722 69.1347 38.6841 69.2283L38.1573 69.7761L36.9402 70.889C36.9332 70.9039 36.9254 70.9179 36.9184 70.9328C36.8755 71.0142 36.8195 71.0877 36.7539 71.1516C36.7399 71.1647 35.9699 71.8787 35.9699 71.8787C35.9007 71.9425 35.8229 71.9951 35.7389 72.0335C35.5464 72.2278 35.2366 72.5428 35.0039 72.7729L32.8627 76.223C32.7919 76.3371 32.6958 76.4333 32.5819 76.5043C32.468 76.5753 32.3392 76.6192 32.2056 76.6325L27.0134 77.1444L24.7463 78.3055C24.6211 78.3685 24.4846 78.4009 24.3473 78.4009" fill="#CE1141"/>
<path d="M75.2424 32.3752C75.0814 32.3752 74.9073 32.3874 74.6929 32.4146C74.6851 32.4155 74.6527 32.4198 74.6448 32.4207C74.5704 32.4312 74.4926 32.4435 74.4129 32.4583C74.2397 32.4933 74.0227 32.5178 73.8424 32.5397L73.7112 32.5563C73.0619 32.6394 72.4416 32.6955 71.7844 32.7558C71.1903 32.8101 70.5953 32.8643 69.9846 32.9378C69.8595 32.9527 69.7361 32.9807 69.6171 33.0227L66.2772 34.1864L61.5899 34.0604L61.2574 33.9519C61.0825 33.8959 60.9002 33.867 60.7166 33.8662C60.3588 33.8662 60.0061 33.9765 59.7069 34.1873C59.5581 34.2921 59.4267 34.4197 59.3175 34.5653L58.4696 35.1901C58.2031 35.2657 57.9584 35.4037 57.7556 35.5926L56.7459 36.5314L54.274 36.8578C53.9682 36.8982 53.6784 37.0187 53.434 37.2069L51.0015 39.0838C50.8055 39.1205 50.6165 39.1923 50.4433 39.2938L49.2279 40.0078L48.9847 40.0367C48.6735 40.0733 48.3779 40.193 48.1289 40.3832L45.6203 40.2116C45.5804 40.2089 45.5404 40.2074 45.5004 40.2073C45.2532 40.2072 45.0088 40.2596 44.7833 40.361C44.5578 40.4623 44.3564 40.6103 44.1923 40.7953L43.684 41.3675C43.5769 41.4884 43.4869 41.6232 43.4162 41.7683L41.178 44.2069C41.1015 44.2911 41.033 44.3822 40.9732 44.479L38.3062 47.5196L38.1934 47.5214C37.9286 47.5257 37.6684 47.59 37.4321 47.7095L35.3942 48.0639L35.3864 48.063C35.3552 48.0613 35.324 48.0604 35.2927 48.0604C34.8036 48.0604 34.3442 48.266 34.0179 48.6116C33.5095 48.8908 32.5146 49.4429 30.4995 50.5629L29.1004 50.3975C29.0321 50.3896 28.9639 50.3852 28.8956 50.3852C28.7005 50.3852 28.5063 50.4185 28.3217 50.4824L28.2333 50.513L26.6294 50.4158C26.5935 50.4141 26.5585 50.4124 26.5227 50.4124C26.037 50.4124 25.5706 50.6154 25.2382 50.9741L23.6859 52.6541L23.293 52.7328L22.8512 52.7136C22.8249 52.7127 22.7995 52.7118 22.7742 52.7118C22.5397 52.7118 22.3078 52.7582 22.0925 52.8501L21.8231 52.9638C21.7745 52.9596 21.7257 52.9575 21.6769 52.9577C21.1642 52.9577 20.6742 53.1835 20.3391 53.5798C20.3032 53.6218 20.2699 53.6665 20.2384 53.7111L18.526 55.0349C18.3309 55.0971 18.1481 55.1942 17.9853 55.3193L14.222 58.2488C13.8203 58.5612 13.5806 59.0275 13.55 59.5219L11.6853 64.043L9.09799 64.2784C8.73492 64.3126 8.39135 64.4584 8.11449 64.6958L6.85362 65.7825C6.59994 66.0009 6.41437 66.2876 6.319 66.6085L6.19825 67.0128C6.12139 67.2699 6.10469 67.5412 6.14945 67.8058C6.19421 68.0704 6.29922 68.3212 6.45637 68.5387L8.146 70.8785L9.3876 72.7763C9.41351 72.8164 9.44125 72.8552 9.47073 72.8927L10.5549 74.2883C10.5846 74.3268 10.617 74.3644 10.6502 74.4012L12.1789 76.0575C12.381 76.4531 12.6977 76.7182 13.0223 76.8696C13.2437 76.9728 13.4467 77.0113 13.606 77.0314C13.6961 77.062 13.8037 77.0988 13.9341 77.1426C14.1572 77.2178 14.3917 77.2957 14.46 77.3211L14.4643 77.3105C14.7032 77.4007 15.0313 77.5048 15.4951 77.6492C15.7287 77.7883 15.9851 77.8688 16.2345 77.8942L18.0746 78.6073C18.0851 78.6117 18.0964 78.616 18.107 78.6195C18.2551 78.7064 18.4152 78.7709 18.5821 78.8112C18.6608 78.8628 18.7212 78.9039 18.7212 78.9039C19.0152 79.1017 19.3556 79.2014 19.6977 79.2014C19.992 79.2014 20.2815 79.1271 20.5394 78.9853L21.2254 78.6082C21.2595 78.5968 21.2937 78.5837 21.3269 78.5697L23.9195 79.2242C24.0592 79.2589 24.2026 79.2766 24.3465 79.2767C24.624 79.2768 24.8976 79.2108 25.1445 79.0842L27.2646 78L32.2915 77.5039C32.8331 77.4497 33.3196 77.1469 33.6066 76.6849L35.6935 73.3214C35.8857 73.1298 36.077 72.9373 36.2675 72.7439C36.3741 72.6804 36.4738 72.606 36.565 72.5217C36.565 72.5217 37.3674 71.7771 37.3822 71.7613C37.4802 71.6642 37.5651 71.5557 37.6368 71.4385L38.707 70.4628C38.735 70.4375 38.7621 70.4104 38.7883 70.3832L39.2521 69.9002C39.5417 69.7016 39.8541 69.3673 40.352 68.8354L40.6276 68.5501C40.909 68.4064 41.1461 68.189 41.3136 67.921C41.5735 67.5036 41.6469 66.997 41.5148 66.5236L41.4921 66.4422L41.7301 65.576L41.9987 65.4964C42.0718 65.4744 42.1434 65.4478 42.2131 65.4168L42.2901 65.3992C42.9603 65.2461 43.4687 64.7185 43.6113 64.0649L44.7899 62.1556C44.9676 62.0069 45.1163 61.8231 45.2239 61.6149L45.6492 60.7898L46.2556 60.4459C46.4055 60.4036 46.5493 60.3422 46.6834 60.263C46.6861 60.2613 46.8645 60.1545 47.0212 60.0635C47.0903 60.0434 47.1577 60.018 47.2242 59.9892L48.4081 59.4677C48.5874 59.3898 48.7511 59.2813 48.8937 59.15L52.2047 57.6284C52.804 57.5488 53.3124 57.1664 53.5609 56.6309C53.6919 56.4601 53.7906 56.2667 53.8523 56.0604L54.0264 55.4724L54.2863 55.3604L55.4789 55.2126C55.7608 55.1773 56.0298 55.074 56.2629 54.9116L57.0819 54.3419L57.8431 54.3752C58.0839 54.4944 58.3489 54.5564 58.6175 54.5563C58.67 54.5563 58.7225 54.5537 58.775 54.5485C59.1372 54.5161 59.4767 54.3717 59.7506 54.1407L62.0317 53.1196C62.6416 52.8466 63.0389 52.2525 63.0651 51.5936L63.122 51.4851L63.661 51.3416C63.7873 51.3074 63.9094 51.2593 64.025 51.1981L65.3821 50.9137C65.7636 50.8332 66.1083 50.6285 66.3595 50.3301L66.783 49.8296C66.8171 49.834 66.8512 49.8384 66.8827 49.8427C66.9912 49.8812 67.1041 49.9092 67.2187 49.925L67.875 50.0186L68.3212 50.072C68.3897 50.08 68.4587 50.0841 68.5277 50.0842C68.7841 50.0842 69.0378 50.0274 69.2715 49.918C69.7483 49.6949 71.1081 49.0675 71.6716 48.8505C71.8046 48.7998 71.9428 48.7577 72.0784 48.7149C72.2351 48.6667 72.3899 48.6169 72.5413 48.5626C72.9456 48.4165 73.3411 48.28 73.7374 48.147C73.8048 48.1251 73.8984 48.0989 73.9912 48.0717C74.0629 48.0516 74.1355 48.0306 74.2082 48.0087L74.9353 47.874L75.7709 47.7349L76.2636 47.7069C76.3042 47.7044 76.3448 47.7006 76.3852 47.6955C76.3852 47.6955 76.6932 47.6552 76.8095 47.6386C76.8314 47.6351 76.8533 47.6316 76.8743 47.6272C77.0939 47.5949 77.6084 47.5144 78.0835 47.1084C78.1014 47.0939 78.1186 47.0787 78.1352 47.0629C78.7205 46.5213 78.794 45.8895 78.8177 45.6813C78.8203 45.6646 78.8273 45.6078 78.8281 45.5903C78.8422 45.4266 78.8492 45.3444 78.8492 45.1108C78.8492 44.8929 78.8264 44.7258 78.8115 44.6146C78.8089 44.5936 78.8045 44.5727 78.8028 44.5481L78.7616 43.7834L78.724 43.0545C78.7188 42.9416 78.7065 42.8104 78.6943 42.68L78.6803 42.5182C78.668 42.3283 78.6575 42.1209 78.6479 41.9135C78.626 41.483 78.6042 41.0525 78.563 40.6185C78.4729 39.7549 78.3548 38.9351 78.2393 38.1738C78.171 37.7136 78.0844 37.2419 77.9995 36.7773L77.9173 36.3206L77.8201 35.8026C77.7362 35.3449 77.6539 34.8987 77.5515 34.4253C77.1709 32.6421 75.9415 32.3752 75.2424 32.3752V32.3752ZM75.2424 34.1252C75.6213 34.1252 75.7324 34.2836 75.8409 34.7946C75.9765 35.4228 76.0754 36.0003 76.1944 36.6286C76.3003 37.2236 76.4193 37.8334 76.5085 38.4363C76.6275 39.2186 76.7387 39.9921 76.8209 40.7804C76.8787 41.4052 76.8962 42.0238 76.9346 42.6442C76.9469 42.813 76.9688 42.9802 76.9758 43.1473C77.0029 43.6452 77.0292 44.1439 77.0554 44.6435C77.065 44.822 77.0992 44.9331 77.0992 45.1108C77.0992 45.2726 77.0939 45.3278 77.0843 45.4398C77.0703 45.543 77.0729 45.662 76.9469 45.7784C76.8209 45.886 76.6564 45.886 76.5523 45.907C76.4455 45.9236 76.1629 45.9595 76.1629 45.9595L75.5767 45.9936L74.6177 46.1538L73.7925 46.3051C73.5869 46.3708 73.3909 46.4206 73.1783 46.488C72.7688 46.6271 72.3593 46.7671 71.9507 46.9159C71.6602 47.02 71.3557 47.0987 71.0424 47.2169C70.2978 47.5047 68.5277 48.3342 68.5277 48.3342L68.1208 48.2861L67.4646 48.1934L67.4025 48.1479C67.4025 48.1479 66.2116 47.9842 66.1967 47.9842C66.1871 47.9921 65.7811 48.3859 65.7811 48.3859L65.6962 48.4051L65.0225 49.2005L63.2699 49.5689L63.2078 49.6511L61.9294 49.9932L61.302 51.1876L61.3169 51.5218L58.7146 52.6865L58.6175 52.8063L58.4364 52.6497L56.5674 52.5683L55.2628 53.4757L53.8234 53.6551L52.5818 54.1897L52.1749 55.5626L52.0218 55.6781L51.9736 55.8933L51.7392 55.917L47.8034 57.7247L47.7028 57.8664L46.5198 58.3871H46.4446C46.4139 58.3871 45.7892 58.7589 45.7892 58.7589L45.5713 58.7257L45.4261 58.9042L44.3314 59.5263L43.6682 60.8125L43.5212 60.8808L41.9086 63.4918L41.9016 63.693L41.5455 63.7735L41.5 63.819L40.2986 64.176L39.6765 66.4466L39.8296 66.9935L39.6721 67.0224L39.0745 67.6392C39.0745 67.6392 38.3526 68.4101 38.3333 68.4101C38.3141 68.4145 38.1715 68.5002 38.1715 68.5002L37.5266 69.1696L36.145 70.4313C36.145 70.4313 36.1529 70.5092 36.145 70.5241C36.131 70.5381 35.375 71.2381 35.375 71.2381L35.291 71.2407C35.291 71.2407 34.6662 71.8786 34.3154 72.2242L32.12 75.7618L26.7633 76.2912L24.3474 77.5267L21.0548 76.6963L20.6479 76.9571L20.605 76.9527L19.6977 77.4514C19.6977 77.4514 19.1981 77.1163 19.1841 77.1093H18.9898L18.8717 76.9684L18.7072 76.9754L16.5381 76.1346C16.5381 76.1346 16.4147 76.1529 16.4077 76.1529C16.3928 76.1529 16.3788 76.0899 16.3788 76.0899C16.3788 76.0899 15.0759 75.6874 15.0716 75.6813C15.0637 75.6734 14.0111 75.3235 14.0015 75.3173C13.9945 75.3086 13.7915 75.2972 13.7591 75.2832C13.7206 75.2718 13.711 75.1379 13.711 75.1379L11.9365 73.2138L10.8524 71.8191L9.58884 69.8871L7.87473 67.5141L7.99549 67.109L9.25724 66.0222L13.0967 65.6714L13.004 65.4351L15.328 59.8002L15.2965 59.6304L19.0607 56.7009L19.2882 56.6572L21.7014 54.7926L21.6769 54.7077L22.0864 54.7523L22.7742 54.4618L23.4295 54.4907L24.5863 54.2571L26.5235 52.1623L28.4765 52.2813L28.8956 52.1352L30.8556 52.3671C30.8556 52.3671 35.2087 49.9486 35.228 49.9416C35.2376 49.9329 35.2927 49.8103 35.2927 49.8103L35.4992 49.8217L38.1513 49.3606L38.2213 49.2714L39.1103 49.2565L42.3417 45.5736L42.4414 45.5509L42.4677 45.3908L45.0043 42.6266L44.9929 42.5295L45.5004 41.9573L48.4343 42.1577L48.5918 42.2837L49.1903 41.7744L49.7976 41.7027L51.3297 40.8023L51.6272 40.8111L54.5033 38.5929L57.6541 38.1764L57.7224 38.0128L58.9474 36.8744L59.1653 36.8526L60.714 35.7098L60.7166 35.6171L61.2906 35.8026L66.5502 35.9443L70.1928 34.6747C71.4616 34.5225 72.6577 34.456 73.9282 34.2923C74.1697 34.2626 74.5092 34.225 74.7489 34.176C74.8041 34.1655 74.86 34.1585 74.9108 34.1506C75.0412 34.1348 75.1497 34.1252 75.2424 34.1252" fill="white"/>
<path d="M44.3694 89.9262L43.8225 89.9044L42.6912 89.886L41.6665 89.837L40.1808 89.7153C39.1588 89.6025 38.4999 89.5307 38.4999 88.7135C38.4999 88.5481 38.5463 88.3853 38.6347 88.2454L38.9015 87.8245C38.976 87.7078 39.0767 87.6101 39.1956 87.5392L41.4443 86.2084C41.5743 86.1314 41.722 86.0892 41.873 86.0859L42.8399 85.5145C42.853 85.42 42.8819 85.2039 42.9064 85.0219C42.8233 84.8443 42.8005 84.6439 42.8452 84.4505C42.8985 84.2195 43.0438 84.0183 43.2485 83.8957C44.3064 83.264 44.8778 82.921 45.2129 82.7355C45.541 82.277 46.598 80.7843 46.9743 80.2523C46.9935 80.1333 47.0355 80.0187 47.102 79.9163L47.6786 79.0115C47.7611 78.882 47.8765 78.7767 48.0129 78.7062L49.986 75.5807C49.9799 75.4066 50.0245 75.2316 50.1207 75.0793L50.3062 73.8263C50.2791 73.6855 50.287 73.5393 50.3307 73.4028L50.9354 71.4665C50.9607 71.3877 50.9966 71.3134 51.0412 71.2433L51.4604 69.342C51.5488 68.9404 51.904 68.6542 52.3152 68.6542H52.5112L54.0932 67.8974C54.0514 67.7468 54.0511 67.5878 54.0923 67.4371L55.7452 61.327C55.7863 61.173 55.8693 61.0334 55.985 60.9237L56.2151 60.704L56.601 59.1641C56.6465 58.9847 56.7471 58.8228 56.8888 58.7047L57.532 58.1683C57.6405 58.0782 57.7682 58.0152 57.9038 57.9854L61.7748 55.4961L61.9726 55.1714C61.9902 55.0427 62.0364 54.9194 62.1077 54.8108C62.1789 54.7021 62.2736 54.6107 62.3847 54.5432L63.0479 53.3795C63.0707 53.219 63.1373 53.0679 63.2404 52.9428C63.2895 52.6217 63.5126 52.3478 63.8319 52.2428L65.6852 51.6295C65.8103 51.5481 65.9521 51.4939 66.0912 51.4851L66.3686 51.4685L67.2786 50.5007C67.3495 50.4256 67.433 50.3635 67.5253 50.317C68.2997 49.932 69.9998 49.1034 70.1792 49.0167C70.4775 48.8759 70.7917 48.7542 71.104 48.6352C71.3315 48.5486 71.5581 48.462 71.7725 48.3666C72.2284 48.1645 72.693 48.0315 73.141 47.9037L73.3659 47.8381C73.6993 47.7454 74.0265 47.671 74.3546 47.5966L74.7755 47.5004C74.8385 47.4759 74.9732 47.454 75.1115 47.4365L75.8588 47.3201C75.8771 47.3175 76.4249 47.2493 76.5404 47.2493C76.928 47.2493 77.2929 47.4059 77.5396 47.6806C77.8826 48.0437 77.8616 48.5364 77.852 48.7472L77.831 49.3886C77.8012 50.1306 77.7671 50.8674 77.705 51.598C77.6709 52.0083 77.6122 52.4161 77.551 52.823L77.4346 53.6358C77.3454 54.2553 77.2561 54.8766 77.1572 55.4961C77.0496 56.2153 76.9263 56.9372 76.802 57.6643L76.7591 57.9093C76.7364 58.0572 76.7066 58.2541 76.6279 58.4588C76.4144 59.0223 76.2796 59.6182 76.1379 60.2499C76.0583 60.6043 75.9786 60.9586 75.885 61.3095C75.472 62.8758 75.0774 64.1384 74.6425 65.282C74.2671 66.2568 73.8629 67.2193 73.4569 68.1826L73.1716 68.8599C72.8724 69.5774 72.49 70.2493 72.1208 70.8977L72.0508 71.022C71.699 71.6318 71.37 72.2461 71.041 72.8595L70.7462 73.4081C70.4338 73.9961 70.061 74.5412 69.7014 75.0688C69.5707 75.2582 69.4415 75.4487 69.3138 75.6402L69.0802 75.9998C68.8019 76.4268 68.5237 76.8547 68.2297 77.2729C68.0022 77.5976 67.7327 77.9187 67.4474 78.2039C67.3564 78.2958 67.2584 78.3868 67.1595 78.4795C66.9618 78.665 66.7737 78.84 66.6634 79.0159C66.5182 79.2408 66.3615 79.4053 66.2233 79.5497L66.0361 79.7404C65.91 79.8638 65.7911 79.9802 65.7561 80.0668C65.6694 80.2855 65.5198 80.429 65.4402 80.506L64.3272 81.6182C63.9457 81.9935 63.5694 82.3601 63.1862 82.725C62.1554 83.7024 61.0285 84.5564 59.9382 85.3833L59.5602 85.6702C58.792 86.2451 57.2126 87.0807 57.1461 87.1157L56.4863 87.4946C56.4487 87.5156 56.4102 87.5357 56.37 87.5506L54.4144 88.325L52.8043 88.7983L51.3764 89.1886L49.426 89.5351L46.2349 89.9201C46.2349 89.9201 45.2715 89.949 45.2636 89.949C45.2567 89.949 44.3694 89.9262 44.3694 89.9262" fill="#CE1141"/>
<path d="M76.5777 46.5494C76.499 46.5494 76.3669 46.5494 75.7981 46.6255L75.0246 46.7463C74.9161 46.7594 74.756 46.7822 74.5705 46.8329L74.217 46.9143C73.8679 46.993 73.5214 47.0727 73.1784 47.168L72.943 47.2354C72.4863 47.3675 71.9691 47.5154 71.4581 47.7403C71.2534 47.8322 71.0425 47.9118 70.8308 47.9923C70.5105 48.1148 70.1815 48.2408 69.8455 48.4C69.6565 48.491 67.9494 49.324 67.1724 49.7108C66.9876 49.8029 66.8205 49.927 66.6789 50.0774L66.0052 50.7932C65.7523 50.8185 65.5117 50.899 65.2964 51.0241L63.5946 51.5868C63.0354 51.7714 62.6216 52.2168 62.4632 52.7566C62.3704 52.9071 62.3013 53.0708 62.2567 53.2414L61.7553 54.1225C61.4769 54.3552 61.2776 54.6686 61.1848 55.0194L61.1699 55.0447L57.5781 57.3556C57.3725 57.4238 57.18 57.5297 57.0102 57.6706L56.3662 58.207C56.0818 58.4448 55.8797 58.7663 55.7887 59.1257L55.4641 60.4216L55.416 60.468C55.1867 60.6884 55.0205 60.9676 54.9382 61.2738L53.2845 67.3839C53.2722 67.4294 53.2626 67.4758 53.2538 67.523L52.35 67.9553C51.5292 67.9562 50.8205 68.5267 50.6429 69.3281L50.2526 71.1018C50.2058 71.1914 50.1675 71.2851 50.138 71.3818L49.5325 73.3172C49.4634 73.5377 49.4389 73.7679 49.4599 73.9954L49.3146 74.9762C49.2394 75.1364 49.1886 75.3052 49.165 75.4785L47.4141 78.2496C47.2411 78.3775 47.0931 78.5362 46.9775 78.7177L46.4018 79.6216C46.3147 79.7574 46.247 79.9046 46.2005 80.0591C45.8094 80.6121 45.0228 81.7233 44.6492 82.2483C44.2572 82.4714 43.6928 82.8083 42.8362 83.321C42.4284 83.5661 42.137 83.9659 42.0303 84.4297C41.9732 84.6761 41.9702 84.9319 42.0215 85.1795L41.6287 85.4123C41.4192 85.4484 41.2182 85.5225 41.0354 85.631L38.7867 86.9628C38.5484 87.1039 38.3469 87.2994 38.1987 87.5333L37.9327 87.9541C37.7559 88.2341 37.6614 88.5588 37.6614 88.8895C37.6614 90.4899 39.1883 90.6579 40.0992 90.7576C40.1149 90.7594 40.1307 90.7611 40.1473 90.7629L41.6015 90.8828C41.6213 90.8844 41.6412 90.8855 41.661 90.8863L42.6577 90.9353C42.6769 90.9361 42.6961 90.937 42.7154 90.937L43.8459 90.9545L44.3586 90.9746L45.2555 90.9991C45.2704 91 45.2862 91 45.301 91C45.3168 91 45.3325 91 45.3483 90.9991L46.2145 90.9755C46.2689 90.9748 46.3233 90.971 46.3773 90.9641L49.5211 90.5852C49.5526 90.5817 49.5832 90.5765 49.6148 90.5721L51.4855 90.244C51.5389 90.2344 51.5914 90.2221 51.6447 90.2081L53.0579 89.8222L54.6188 89.3681C54.6713 89.3524 54.7221 89.334 54.7737 89.3148L56.7294 88.5395C56.8093 88.5079 56.8868 88.4704 56.9612 88.4275L57.1012 88.347L57.6183 88.0521C57.8826 87.9113 59.343 87.129 60.1164 86.5507L60.5067 86.254C61.6144 85.414 62.7598 84.5452 63.8247 83.5363C64.2141 83.1662 64.5929 82.796 64.9736 82.4216L65.4504 81.9447C65.6473 81.7478 65.8433 81.5501 66.0428 81.3541C66.0559 81.3418 66.0682 81.3287 66.0804 81.3155C66.1933 81.2071 66.4094 80.9953 66.5652 80.6593C66.6028 80.62 66.6439 80.5823 66.6842 80.5438L66.776 80.4528C66.7918 80.4371 66.8084 80.4204 66.8242 80.4038L66.8977 80.3268C67.0438 80.1719 67.2451 79.9602 67.4271 79.6793C67.4918 79.5769 67.6528 79.4265 67.7945 79.2943C67.9013 79.1954 68.0072 79.0957 68.1078 78.9933C68.4228 78.6792 68.7255 78.3178 68.9828 77.9521C69.2847 77.5216 69.569 77.0841 69.8543 76.6466L70.0853 76.2922C70.2083 76.1075 70.3329 75.9237 70.4589 75.741C70.8334 75.1924 71.2201 74.6262 71.5588 73.9901L71.837 73.4712C72.1774 72.836 72.4994 72.2357 72.8433 71.6399L72.915 71.5121C73.2991 70.8384 73.6955 70.1419 74.0175 69.3701L74.2861 68.7323C74.6921 67.7698 75.1113 66.7749 75.4963 65.7748C75.9416 64.5997 76.3459 63.3082 76.7694 61.7052C76.8647 61.3482 76.947 60.9833 77.0292 60.6184C77.164 60.0173 77.2909 59.4495 77.4834 58.9428C77.5945 58.6523 77.6356 58.3881 77.6619 58.2131L77.6899 58.0486C77.8194 57.2952 77.9471 56.548 78.0609 55.7937C78.1624 55.1629 78.2551 54.5154 78.347 53.8679L78.3995 53.5039L78.4546 53.1303C78.515 52.7199 78.5771 52.2946 78.6147 51.8466C78.6786 51.0863 78.7136 50.3198 78.7434 49.6049L78.7521 49.3748L78.7626 48.9924C78.7757 48.701 78.8125 47.8926 78.2009 47.2424C77.815 46.8128 77.2147 46.5494 76.5777 46.5494V46.5494ZM76.5777 48.2994C76.6696 48.2994 76.8192 48.3222 76.926 48.4411C77.0424 48.5645 77.0188 48.7938 77.0135 48.9329C77.0083 49.0703 77.0039 49.2969 77.0039 49.2969C77.0039 49.2969 76.9969 49.4579 76.9943 49.5349C76.9645 50.2577 76.9312 50.9821 76.8709 51.7005C76.8271 52.222 76.7405 52.7383 76.6679 53.2554C76.5585 54.014 76.4518 54.7744 76.331 55.5339C76.2102 56.3371 76.072 57.1334 75.9346 57.9375C75.9145 58.0626 75.8953 58.1982 75.8471 58.3234C75.4858 59.2753 75.3388 60.2798 75.0771 61.2598C74.7315 62.5723 74.3456 63.8752 73.8617 65.1466C73.4041 66.3374 72.8984 67.5143 72.4031 68.6973C72.1048 69.4104 71.7102 70.092 71.3278 70.7649C70.8701 71.5576 70.4467 72.3652 70.0135 73.1685C69.611 73.9236 69.0956 74.6157 68.6214 75.3332C68.2679 75.874 67.9214 76.4173 67.5513 76.9458C67.3509 77.2311 67.1164 77.512 66.8662 77.7605C66.5564 78.0728 66.1959 78.3493 65.9588 78.7273C65.8424 78.9067 65.6876 79.0554 65.5423 79.2112C65.3297 79.4229 65.1022 79.6207 64.9832 79.9112C64.9543 79.9847 64.8721 80.0442 64.8143 80.1089C64.4555 80.4624 64.1047 80.8186 63.7486 81.172C63.3732 81.5404 63.0004 81.9044 62.6207 82.2658C61.5094 83.3193 60.2801 84.2275 59.0673 85.1489C58.3507 85.6862 56.7748 86.5183 56.7748 86.5183L56.2254 86.8315L56.0853 86.9129L54.1297 87.6873L52.5967 88.1335L51.1836 88.5203L49.312 88.8484L46.1681 89.2264L45.301 89.25L44.4295 89.2264L43.8949 89.2054L42.7425 89.187L41.745 89.1389L40.2908 89.0181C40.2908 89.0181 39.4114 88.9219 39.4114 88.8895L39.6783 88.4678L41.927 87.1369L42.0889 87.1728L43.6237 86.2654L43.9238 86.1718L43.7374 85.8568C43.7374 85.8568 43.8512 85.0238 43.8512 85.0002L43.7348 84.8225C43.7348 84.8225 45.8304 83.5687 45.8558 83.5687C45.861 83.5687 47.8604 80.7442 47.8604 80.7442L47.8761 80.5622L48.4528 79.6583L48.6278 79.6058L50.9824 75.8775L50.8975 75.7208L50.9902 75.6062L51.2361 73.9437L51.2029 73.8387L51.8075 71.9041L51.8827 71.8368L52.3517 69.7053H52.7472L55.1946 68.5336L54.9741 67.8407L56.627 61.7314L57.0391 61.3368L57.4871 59.5518L58.1302 59.0155L58.2203 59.0225L62.4536 56.2995C62.6671 55.9495 62.8578 55.638 62.8578 55.638L62.8771 55.4656L63.0074 55.4586L63.9489 53.8066L63.9516 53.6771L64.1607 53.4724L64.1432 53.2484L66.1469 52.586L66.181 52.5344L66.7988 52.4968L66.9301 52.5563L66.9659 52.3261L67.9538 51.277C68.7229 50.8929 70.4151 50.0678 70.5945 49.982C71.0976 49.7432 71.662 49.5655 72.1652 49.3415C72.6368 49.1333 73.1504 48.9994 73.6483 48.8542C74.0989 48.7282 74.5565 48.6354 75.0141 48.5269C75.0964 48.4998 75.1812 48.4902 75.2688 48.4788L76.0309 48.3598C76.0309 48.3598 76.4841 48.2994 76.5777 48.2994" fill="white"/>
</g>
<defs>
<clipPath id="clip0_5_266">
<rect width="91" height="91" fill="white"/>
</clipPath>
</defs>
</svg>
