<svg width="95" height="95" viewBox="0 0 95 95" fill="none" xmlns="http://www.w3.org/2000/svg">
<path d="M21.4181 50.6258C23.504 49.4929 29.0984 48.6142 34.2586 47.8364C34.2455 49.7953 34.2149 51.8901 34.1582 54.1799C25.0422 53.1785 21.7345 51.4102 21.4181 50.6258H21.4181ZM43.5491 20.604C48.9755 21.338 52.0804 22.7798 52.3378 24.7059C52.604 26.6955 52.1393 28.328 50.9872 29.6164C49.1239 31.3168 46.2896 32.2086 43.8873 32.6732C43.9135 28.0497 43.8044 24.1537 43.5491 20.604ZM43.704 42.1436C43.752 40.3074 43.8022 38.4141 43.8371 36.4815C48.2729 37.1367 50.8519 38.3659 50.8083 39.856L50.6687 54.811C48.334 54.8701 45.8728 54.8592 43.5578 54.7956L43.5906 53.7877C43.4902 50.4045 43.5949 46.3923 43.704 42.1436ZM60.1337 54.25L60.2079 47.9043C70.3079 49.2825 72.8564 50.3716 73.1728 50.9786C73.1728 50.9786 73.164 51.0246 73.1008 51.1254C71.2789 52.4532 66.5027 53.5992 60.1337 54.25ZM82.808 51.4058C82.7666 50.5272 82.3346 49.7055 81.5229 48.9604C78.4791 46.1754 69.8279 44.5254 60.245 44.8015L60.3279 37.7414C60.3257 36.2755 59.8457 35.0638 58.9053 34.1391C58.2442 33.4905 57.378 33.004 56.3132 32.6819C57.3104 32.0837 58.2878 31.3453 59.117 30.4403C61.4625 28.2579 62.5404 25.5079 62.3244 22.2693C62.1847 20.2161 61.2945 18.4763 59.6755 17.1002C56.4725 14.37 50.6556 13.3029 42.8356 14.0019C42.2422 9.87141 41.4087 6.29098 40.2937 3.07865L39.2246 0L38.8558 1.14381L38.6551 0.563142L37.6558 3.67029C36.2681 7.99792 35.3452 11.6573 34.7779 15.1128C28.3522 16.2741 23.9447 17.7116 23.7527 17.7729L14.5887 20.7815L16.1903 20.6346L14.0411 21.3402L23.624 20.4703C23.6764 20.4637 28.5333 20.0759 34.1822 20.0518C33.8658 24.1691 33.9662 28.317 34.0928 33.4532C34.1713 36.7247 34.2608 40.3994 34.2673 44.819C25.6117 44.7051 16.0812 46.0111 13.2883 49.2913C12.0796 50.3212 11.8527 51.362 11.8766 52.061C12.0665 57.5018 27.9943 59.5352 34.3044 60.1269L34.8281 76.9269L37.0056 76.9751L37.0492 76.3944L37.1976 76.3988L37.3045 80.6651L39.4842 80.7199L39.5278 80.1392L39.7744 80.1458L39.8835 84.1929L42.0654 84.1995L42.0851 83.632H42.6283L43.3702 60.6484C45.779 60.7141 48.286 60.7119 50.6926 60.6396L51.4476 84.6465L53.6273 84.6684L53.6557 84.0965L53.9262 89.8331L56.1059 89.8397L56.1321 89.27L56.3481 89.2722L56.5009 95L58.6828 94.9956L58.6958 94.4281H59.25L60.0486 60.0809C71.2614 59.0115 79.2319 56.7371 81.3243 54.0945C82.3084 53.2618 82.808 52.3744 82.808 51.4562V51.4058H82.808Z" fill="#FEFEFE"/>
<path d="M81.153 52.0227C81.153 56.0216 65.6288 59.6021 46.8928 59.6021C28.1546 59.6021 13.1061 56.0195 12.9665 52.0227C12.8399 48.4181 23.4505 46.056 35.6124 46.5227C27.7117 47.7148 19.7347 48.841 19.7347 50.9862C19.7347 54.2248 31.7133 56.5103 46.8928 56.5103C62.0679 56.5103 74.2625 54.2248 74.2625 50.9862C74.2625 48.8958 66.9444 47.6512 58.147 46.5249C70.4595 45.8676 80.9959 48.5452 81.153 52.0227" fill="#2D2925"/>
<path d="M40.5256 67.627L40.975 84.1641L41.9351 54.3877C41.5489 41.304 44.1955 19.8301 38.695 4.00739C32.8562 22.1966 35.9981 26.2898 35.2301 54.872L35.9174 76.8937L36.8316 64.8486C36.8622 63.3542 37.9946 63.4922 37.9946 64.7741L38.396 80.6363L39.3692 67.7278C39.3539 65.988 40.5714 66.0669 40.5256 67.627Z" fill="#2D2925"/>
<path d="M58.4272 59.1598L57.5915 94.9708L57.0286 73.8826C56.9981 72.386 55.7522 72.3181 55.702 73.8826L55.0169 89.793L54.3427 71.3736C54.3449 69.8924 53.2168 69.8069 53.2059 71.4788L52.5361 84.613L51.7222 58.6756L51.899 39.8662C52.0473 34.8374 37.3217 34.9009 37.3217 34.9009C37.3217 34.9009 54.8554 35.2669 53.4197 24.5606C52.3746 16.7555 23.5255 19.3806 23.5255 19.3806C23.5255 19.3806 31.6815 16.7007 41.9102 15.7037C53.3761 14.5884 60.2927 17.3559 60.668 22.9084C61.3291 32.7338 48.6588 34.1647 48.6588 34.1647C48.6588 34.1647 58.6563 32.2167 58.6738 38.3105L58.4272 59.1598Z" fill="#2D2925"/>
<path d="M81.7175 51.4564C81.7175 55.4553 66.1954 59.038 47.4595 59.038C28.7191 59.038 13.6706 55.4532 13.5331 51.4564C13.4044 47.854 24.0171 45.4875 36.1769 45.9564C28.2762 47.1507 20.2992 48.2769 20.2992 50.4199C20.2992 53.6608 32.28 55.9484 47.4595 55.9484C62.6346 55.9484 74.827 53.6608 74.827 50.4199C74.827 48.3317 67.5111 47.0871 58.7115 45.9564C71.0218 45.2991 81.5582 47.9767 81.7175 51.4564Z" fill="#C21F32"/>
<path d="M41.0914 67.0595L41.5387 83.5965L42.4988 53.8202C42.1126 40.7342 44.7592 19.2626 39.263 3.43982C33.4199 21.6291 36.5618 25.7222 35.796 54.3022L36.4833 76.3239L37.3975 64.2788C37.4259 62.7866 38.5583 62.9225 38.5583 64.2087L38.9641 80.0687L39.935 67.1602C39.9198 65.4182 41.1329 65.4993 41.0914 67.0595Z" fill="#C21F32"/>
<path d="M58.9918 58.5922L58.1584 94.4032L57.5932 73.3149C57.5649 71.8183 56.319 71.7482 56.2667 73.3149L55.5816 89.2231L54.9073 70.806C54.9095 69.3247 53.7815 69.2371 53.7728 70.9112L53.1007 84.0453L52.2869 58.1079L52.4636 39.2985C52.612 34.2675 37.8885 34.3376 37.8885 34.3376C37.8885 34.3376 55.4201 34.7014 53.9844 23.9929C52.9371 16.1878 24.0924 18.8151 24.0924 18.8151C24.0924 18.8151 32.2483 16.1309 42.4749 15.1361C53.9429 14.0185 60.8596 16.786 61.2348 22.343C61.8938 32.1662 49.2257 33.5992 49.2257 33.5992C49.2257 33.5992 59.221 31.6468 59.2384 37.7428L58.9918 58.5922Z" fill="#C21F32"/>
</svg>
