<svg width="94" height="94" viewBox="0 0 94 94" fill="none" xmlns="http://www.w3.org/2000/svg">
<path d="M0.997332 56.623C6.31859 82.0198 31.2317 98.3025 56.6521 92.9979C68.8975 90.5419 79.6223 83.2283 86.3738 72.7295C93.1197 62.2673 95.5173 49.5894 93.0571 37.3891C87.7311 12.0044 62.8422 -4.27993 37.4259 0.990614C25.2102 3.53835 14.5084 10.8319 7.67623 21.2658C0.844009 31.6997 -1.55857 44.4186 0.997365 56.623" fill="#006BB6"/>
<path d="M63.0295 10.3958C63.1942 12.2298 62.3235 14.0168 60.488 15.7097C51.6632 9.24359 43.262 6.06933 35.0256 6.02229C33.3 6.02314 31.577 6.15678 29.8719 6.42201C32.4991 5.31904 35.2256 4.46874 38.0142 3.88262C45.2587 2.36051 52.7707 2.69211 59.8526 4.84664C61.3822 6.32797 62.8647 8.25605 63.0295 10.3958H63.0295ZM53.8282 86.2965C63.1 77.7847 67.4065 59.5619 69.9716 48.6753L70.3716 46.9823C71.6895 41.4332 74.0192 37.2949 76.5372 34.826C85.8326 49.2631 84.5854 64.1705 82.2321 73.5288C73.8868 84.5658 60.8479 91.0582 47.0037 91.0697C49.4885 89.8016 51.7852 88.1952 53.8282 86.2965V86.2965ZM70.6776 24.4567C74.4428 21.3059 77.455 18.9076 79.5965 17.3322C84.2604 22.4268 87.6549 28.5495 89.5037 35.2022C87.7623 32.8744 85.5502 30.6642 83.1499 30.1704C81.079 29.7472 78.9611 30.335 76.9608 31.7458C75.0639 29.1528 72.9628 26.7154 70.6776 24.4567V24.4567ZM3.79773 45.0307C8.08069 33.5563 23.777 28.8536 29.6837 27.0901L29.9426 27.0196C32.5617 26.3374 35.2172 25.8036 37.8966 25.4207C45.4976 24.1275 54.8872 22.5286 60.5585 18.2962C63.0269 20.1815 65.3915 22.1987 67.6419 24.3391C54.8166 35.2257 34.9785 53.519 13.8227 75.9741C8.83901 70.2909 5.41716 63.4123 3.89188 56.0114C3.26472 53.0585 2.94922 50.048 2.95057 47.0294C3.44476 45.8537 3.79773 45.0307 3.79773 45.0307" fill="white"/>
<path d="M69.1949 23.0222C66.9497 20.8779 64.5931 18.8529 62.1351 16.9558C64.2766 14.8632 65.2649 12.6059 65.0531 10.2075C64.9068 8.77468 64.4053 7.40085 63.5941 6.21029C69.0336 8.44169 73.9825 11.7169 78.1608 15.8507C75.9487 17.4967 72.9131 19.9185 69.1949 23.0222V23.0222ZM58.8405 17.0264C53.5222 20.6944 44.7209 22.1993 37.5435 23.3985C34.7869 23.8043 32.0534 24.3537 29.3541 25.0444L29.0952 25.1149C23.4238 26.8079 9.16305 31.0637 3.27991 41.3391C4.13966 34.749 6.48078 28.4388 10.1279 22.8812C13.2629 18.0679 17.2693 13.8815 21.9413 10.5367C32.3898 6.13973 44.109 6.44541 58.8405 17.0264L58.8405 17.0264ZM82.7262 32.1689C85.8089 32.8037 89.1035 37.9767 90.6802 40.9393C92.0543 50.5547 90.1741 60.3532 85.3383 68.779C85.5736 67.2976 85.7619 65.7222 85.9031 64.0764C86.7773 53.2908 84.0371 42.521 78.1138 33.4621C79.714 32.3335 81.3142 31.8867 82.7262 32.1689V32.1689ZM69.1243 25.7733C71.4137 28.0148 73.5006 30.4539 75.3605 33.0624C72.3483 35.931 69.7832 40.6806 68.3948 46.512L67.9947 48.2284C65.4767 58.9034 61.2644 76.7499 52.4631 84.815C49.5228 87.5998 45.9676 89.6538 42.0853 90.8109C35.2285 90.0358 28.6503 87.6596 22.8826 83.8745C20.0882 82.0433 17.5071 79.906 15.1874 77.5024C36.5551 54.7886 56.4637 36.5188 69.1243 25.7733" fill="white"/>
<path d="M59.1937 60.0798L60.3938 59.7507C61.1233 59.5626 61.594 59.3275 61.594 58.2694C61.594 57.3993 61.3586 55.824 60.2997 55.824C59.1936 55.824 59.1936 57.7051 59.1936 58.7161V60.0798H59.1937ZM44.8622 59.4215C44.8622 55.6594 44.7211 52.4146 42.1795 52.4146C40.1087 52.4146 39.7322 55.6594 39.7322 59.4215C39.7322 63.1836 39.6145 66.452 42.1795 66.452C44.321 66.4285 44.8622 63.1836 44.8622 59.4215Z" fill="white"/>
<path d="M59.1936 60.0793L60.3937 59.7502C61.1233 59.562 61.5939 59.3269 61.5939 58.2688C61.5939 57.3988 61.3586 55.8234 60.2996 55.8234C59.1935 55.8234 59.1935 57.7045 59.1935 58.7156V60.0793H59.1936ZM39.4261 50.7916H39.4732C40.6969 48.887 43.0266 47.97 45.3093 47.97C50.4865 47.97 53.6634 52.4375 53.6634 58.4334C53.6634 65.5344 48.8392 69.7668 42.8854 69.7668C33.7312 69.7668 30.3896 62.3836 30.3896 53.8248C30.3896 43.9728 34.6726 35.8372 45.3328 35.8372C49.4981 35.8372 52.9104 38.5177 52.9104 42.609C52.9267 43.1382 52.8333 43.6651 52.6359 44.1564C52.4386 44.6478 52.1415 45.093 51.7635 45.464C51.3855 45.8351 50.9348 46.124 50.4396 46.3124C49.9444 46.5009 49.4155 46.5849 48.8862 46.5592C46.0153 46.5592 45.0975 44.1608 44.6739 42.0447C44.5092 41.1512 44.8387 39.176 43.3561 39.176C40.2498 39.176 39.7556 45.2424 39.6144 47.4762L39.4261 50.7916L39.4261 50.7916Z" fill="white"/>
<path d="M44.8623 59.4198C44.8623 55.6577 44.7211 52.4129 42.1795 52.4129C40.1087 52.4129 39.7322 55.6577 39.7322 59.4198C39.7322 63.1819 39.6145 66.4503 42.1795 66.4503C44.321 66.4268 44.8623 63.1819 44.8623 59.4198ZM74.537 52.7186C74.0899 52.7189 73.6481 52.8157 73.242 53.0023C72.8358 53.189 72.4748 53.4612 72.1837 53.8002C72.1131 53.6591 72.066 53.518 71.9954 53.4004L71.5012 52.4364L64.465 54.5056V58.3617H65.7593C65.8769 58.3617 65.9475 58.3852 65.9711 58.3617C66.1379 58.8934 66.1939 59.4535 66.1358 60.0076V64.4751L64.8415 64.6632V68.8956H74.584V64.6632L73.3132 64.4751V63.1584C73.3432 62.1391 73.4613 61.1242 73.6662 60.1252C74.0774 60.2538 74.5062 60.3172 74.937 60.3133C76.6784 60.3133 77.9021 58.7379 77.9021 56.5041C77.9256 54.2469 76.5608 52.7186 74.537 52.7186Z" fill="white"/>
<path d="M86.7503 57.2099C86.6797 57.0134 86.64 56.8072 86.6326 56.5986C86.6326 55.4464 86.1619 52.7659 81.9025 52.7659C79.5493 52.7659 74.9133 54.5764 74.9133 58.7853C74.8738 60.0556 75.2726 61.3009 76.0429 62.3123C75.5573 62.623 75.1624 63.0561 74.898 63.568C74.6336 64.0799 74.509 64.6525 74.5368 65.2279C74.5368 66.7328 75.2898 69.2722 80.3964 69.2722C84.7735 69.2722 87.268 67.015 87.268 63.0647C87.2915 59.3026 86.9621 58.0564 86.7503 57.2099V57.2099ZM35.2608 34.5902C35.1297 34.4372 34.9674 34.314 34.7847 34.2289C34.6021 34.1437 34.4034 34.0985 34.2018 34.0964C33.5664 34.0964 33.0487 34.4961 32.4369 35.1545C31.3909 36.2468 30.129 37.1097 28.7313 37.6886C27.3336 38.2674 25.8307 38.5495 24.3181 38.5169C20.0822 38.5169 15.611 36.5653 12.0576 33.1794C11.9213 33.0443 11.7597 32.9374 11.582 32.8647C11.4044 32.7921 11.2141 32.7552 11.0221 32.7561C9.28073 32.7561 8.83362 35.5307 8.83362 35.5777V49.5211L9.93966 49.6857C13.6455 50.3237 17.4435 50.1876 21.0941 49.2859C17.5172 52.4837 9.469 61.1836 9.58663 69.4603C9.61016 70.9887 10.5515 71.1533 10.9516 71.1533C11.3491 71.147 11.7287 70.9868 12.0105 70.7065C12.0811 70.6595 12.1517 70.589 12.2223 70.5419C13.7495 69.5891 15.5302 69.1217 17.3289 69.2017C18.9567 69.1788 20.5702 69.5077 22.0589 70.1657C22.326 70.3129 22.6247 70.3935 22.9296 70.4008C23.1237 70.4019 23.316 70.3628 23.4942 70.2859C23.6724 70.209 23.8328 70.096 23.9651 69.9541C24.1318 69.745 24.2499 69.5016 24.311 69.2413C24.372 68.9811 24.3744 68.7105 24.318 68.4492C23.7298 62.4298 25.0476 55.8697 27.6126 52.084L27.9892 51.5197C30.1777 48.2984 34.7195 41.5736 35.5667 36.0245C35.6272 35.7779 35.6312 35.5207 35.5782 35.2723C35.5252 35.0239 35.4167 34.7907 35.2608 34.5902V34.5902ZM67.6653 61.2307L67.5947 60.1726C67.5576 59.5058 67.4551 58.8443 67.2888 58.1975L67.2417 56.9748L67.0064 57.3275C66.1012 54.5549 63.5006 52.6894 60.582 52.7189C56.0637 52.7189 52.9103 56.2929 52.9103 61.3952C52.9103 65.3219 55.2165 69.2722 60.3231 69.2722C63.1838 69.3115 65.8551 67.8475 67.3594 65.416L67.5476 65.0868L67.4064 61.3012L67.6653 61.2307H67.6653ZM62.1822 63.6761C61.9632 63.6697 61.7504 63.6026 61.5675 63.4821C61.3846 63.3617 61.2389 63.1927 61.1468 62.9942L63.6412 62.3123C63.2554 62.8636 62.7584 63.3281 62.1821 63.6761H62.1822Z" fill="white"/>
<path d="M50.8396 48.8868C50.5808 48.5341 50.2984 48.1109 50.0631 47.7582C52.5378 47.3287 54.3159 45.1405 54.2284 42.6323C54.2284 38.0237 50.4161 34.5673 45.3565 34.5673C35.1904 34.5673 29.0955 41.7858 29.0955 53.8481C29.0955 64.8053 34.1314 71.0833 42.8856 71.0833C49.9925 71.0833 54.9578 65.8869 54.9578 58.4567C54.9814 54.7416 52.4869 51.2146 50.8396 48.8868Z" fill="white"/>
<path d="M62.2059 64.9938C60.6292 64.9938 59.6879 63.5594 59.5467 62.1016L66.3241 60.2676C66.1359 56.9522 64.2062 54.0366 60.6057 54.0366C56.7699 54.0366 54.2283 57.0228 54.2283 61.4198C54.2283 64.8527 56.2051 67.9799 60.3469 67.9799C62.7487 68.0309 64.9972 66.8046 66.2535 64.7586L64.9122 63.1597C64.2768 64.1943 63.5002 64.9938 62.2059 64.9938V64.9938ZM59.2172 58.7392C59.2172 57.7282 59.2172 55.8471 60.3233 55.8471C61.3587 55.8471 61.6176 57.4225 61.6176 58.2925C61.6404 58.4692 61.6271 58.6487 61.5784 58.8201C61.5298 58.9915 61.4469 59.1513 61.3347 59.2897C61.2225 59.4282 61.0834 59.5425 60.9257 59.6257C60.768 59.7089 60.5951 59.7593 60.4174 59.7738L59.2172 60.103V58.7392Z" fill="#006BB6"/>
<path d="M73.3366 67.6043H66.1827V65.7937L67.477 65.6057V60.0095C67.477 58.0108 67.2181 57.0468 65.7826 57.0468V55.4714L70.8656 53.9901C71.3953 55.1506 71.6835 56.4065 71.7128 57.6817H71.7599C72.2776 56.1533 72.913 54.0136 74.5603 54.0136C76.0193 54.0136 76.6547 55.1422 76.6547 56.506C76.6547 57.8933 76.0428 59.0219 74.9838 59.0219C74.3982 58.9837 73.8242 58.8403 73.2895 58.5987C72.3717 58.293 72.0658 62.3138 72.0658 63.1603V65.6057L73.3365 65.7938V67.6043H73.3366H73.3366Z" fill="#006BB6"/>
<path d="M85.3616 56.6224C85.3616 57.7275 84.3968 58.2918 83.3849 58.2918C82.1799 58.2247 81.1973 57.3025 81.0552 56.105C80.5374 56.105 80.1609 56.3637 80.1609 57.2572C80.1609 59.3264 86.0206 57.845 86.0206 63.0885C86.0206 67.0152 83.1731 68.0028 80.4433 68.0028C78.7725 68.0028 75.878 67.7911 75.878 65.2517C75.878 64.0996 76.5133 63.2295 77.6665 63.2295C79.4314 63.2295 79.7373 64.852 80.0433 66.0041C80.0837 66.123 80.165 66.2236 80.2727 66.2882C80.3804 66.3528 80.5076 66.3771 80.6315 66.3568C81.5729 66.3568 82.2553 65.9806 82.2553 65.3457C82.2553 62.9944 76.2545 63.9114 76.2545 58.7855C76.2545 55.5407 80.0903 54.0829 81.9494 54.0829C84.0438 54.0829 85.3616 54.7883 85.3616 56.6224V56.6224ZM45.3561 47.993C43.0734 47.993 40.7437 48.91 39.52 50.8146H39.4729L39.7083 47.5227C39.8495 45.2889 40.3437 39.2225 43.45 39.2225C44.9325 39.2225 44.6031 41.1976 44.7678 42.0912C45.1678 44.1838 46.0856 46.6057 48.9801 46.6057C49.5089 46.6296 50.037 46.5443 50.5313 46.3551C51.0257 46.166 51.4757 45.8771 51.8533 45.5064C52.2309 45.1357 52.528 44.6913 52.726 44.2008C52.924 43.7102 53.0187 43.1842 53.0042 42.6555C53.0042 38.5642 49.592 35.8837 45.4267 35.8837C34.7664 35.8837 30.4835 44.0193 30.4835 53.8713C30.4835 62.4301 33.8016 69.8133 42.9793 69.8133C48.9331 69.8133 53.7573 65.5809 53.7573 58.4799C53.7102 52.4605 50.5333 47.993 45.3561 47.993L45.3561 47.993ZM42.1792 66.4509C39.6377 66.4509 39.7318 63.1825 39.7318 59.4204C39.7318 55.6583 40.0848 52.4135 42.1792 52.4135C44.7443 52.4135 44.8619 55.6583 44.8619 59.4204C44.8854 63.1825 44.3442 66.4509 42.1792 66.4509Z" fill="#006BB6"/>
<path d="M10.1279 35.6963V48.3934C17.2348 49.4515 25.7301 48.7461 31.7545 39.9757C32.0133 39.5994 32.1545 39.8581 31.9898 40.1873C30.3189 43.5967 26.3419 46.7475 22.9062 49.4515C19.6116 52.0379 10.7633 61.3021 10.881 69.4613C10.881 70.0961 10.9045 69.908 11.4693 69.5083C14.152 67.5097 19.3998 67.4626 22.6238 68.991C23.0709 69.2026 23.118 69.132 23.0474 68.5677C22.4355 62.2427 23.8475 55.3533 26.5537 51.3325C28.4128 48.5579 33.4488 41.4099 34.3195 35.8138C34.4136 35.226 34.1077 35.32 33.3782 36.0959C27.6833 42.1153 17.3995 41.9507 10.7398 35.6022C10.3397 35.1554 10.1515 35.3435 10.1279 35.6962" fill="#ED174C"/>
<path d="M22.4647 40.2632C29.1967 40.2632 34.654 34.8103 34.654 28.0838C34.654 21.3574 29.1967 15.9045 22.4647 15.9045C15.7326 15.9045 10.2753 21.3574 10.2753 28.0838C10.2753 34.8103 15.7326 40.2632 22.4647 40.2632Z" fill="white"/>
<path d="M22.4591 16.3447L22.8591 17.638H24.2478L23.118 18.4374L23.518 19.7073L22.4591 18.9313L21.3534 19.7073L21.7768 18.4374L20.647 17.638H22.0357L22.4591 16.3447ZM30.5544 21.0708L30.9778 22.3406H32.3665L31.2367 23.1634L31.6368 24.4333L30.5544 23.6574L29.4721 24.4334L29.8955 23.1634L28.7663 22.3407H30.1544L30.5544 21.0708ZM27.072 17.4261L27.4954 18.696H28.8835L27.7543 19.5188L28.1543 20.7887L27.0954 20.0127L26.0124 20.7887L26.4131 19.5189L25.2833 18.696H26.6719L27.072 17.4261ZM31.8956 25.5148L32.2963 26.8081H33.6843L32.5551 27.6309L32.9786 28.9007L31.8956 28.1248L30.8133 28.9008L31.2133 27.6309L30.1076 26.8081H31.4722L31.8956 25.5148ZM31.3076 30.2408L31.731 31.5341H33.0963L31.9899 32.3569L32.3899 33.6268L31.3076 32.8274L30.2253 33.6268L30.6253 32.3335L29.5189 31.5341H30.9076L31.3076 30.2408ZM28.6955 34.0031L29.0955 35.2964H30.4841L29.3777 36.1192L29.7778 37.389L28.7189 36.6131L27.6131 37.3891L28.0366 36.1192L26.9068 35.2964H28.2954L28.6955 34.0031ZM24.601 36.1192L25.0244 37.4124H26.389L25.2599 38.2352L25.6833 39.5051L24.601 38.7291L23.518 39.5051L23.918 38.2352L22.8123 37.4124H24.1769L24.601 36.1192ZM14.1992 20.6477L13.7758 21.941H12.4112L13.5169 22.7404L13.1169 24.0102L14.1758 23.2343L15.2816 24.0103L14.8581 22.7404L15.9879 21.941H14.5993L14.1992 20.6477ZM17.588 17.4261L17.1646 18.696H15.7993L16.9057 19.5188L16.5057 20.7887L17.588 20.0127L18.6703 20.7887L18.2703 19.5189L19.3767 18.696H18.0114L17.588 17.4261ZM12.5991 24.9507L12.1992 26.2439H10.8105L11.9403 27.0433L11.5403 28.3366L12.5992 27.5373L13.6815 28.3366L13.2815 27.0433L14.4113 26.2439H13.046L12.5991 24.9507ZM13.0461 29.6533L12.6226 30.9466H11.2345L12.3637 31.7694L11.9637 33.0392L13.0226 32.2633L14.1049 33.0393L13.7049 31.7694L14.8113 30.9466H13.446L13.0461 29.6533ZM15.6348 33.5092L15.2347 34.8025H13.8461L14.9759 35.6252L14.5524 36.8951L15.6348 36.0957L16.7411 36.8951L16.3171 35.6253L17.4234 34.8025H16.0582L15.6348 33.5092ZM19.7292 35.9547L19.3292 37.248H17.9412L19.0703 38.0708L18.6703 39.3407L19.7292 38.5647L20.8356 39.3407L20.4122 38.0474L21.5413 37.248H20.1533L19.7292 35.9547Z" fill="#006BB6"/>
</svg>
