<svg width="96" height="96" viewBox="0 0 96 96" fill="none" xmlns="http://www.w3.org/2000/svg">
<g clip-path="url(#clip0_2_2712)">
<path d="M75.6026 -6.10352e-05L69.5918 10.6587L68.4827 18.8754L58.9409 35.8797H48.8261L57.6997 20.1783V-6.10352e-05H45.3955L39.6277 10.59L38.5924 18.8807L24.091 44.7439L27.0594 52.181H34.9294L32.3545 58.7036L23.6103 49.2447L24.6852 63.7277L9.00061 64.3858L21.5953 73.2527L12.7217 86.4908L27.2443 81.7416L33.1732 95.9999L37.647 80.6289L53.9284 84.8285L43.3778 72.6184L56.1442 62.0733L44.2599 62.8106L53.6643 52.181H69.5205L87.2677 20.7069L87.4367 20.403V-3.84483e-05L75.6026 -6.10352e-05Z" fill="#FEFEFE"/>
<path d="M76.375 1.32001L70.7393 11.3101L69.7595 19.2942L59.7133 37.1997H46.5588L56.3778 19.8281V1.32001H46.1785L40.7857 11.2229L39.8745 19.2942L25.55 44.8377L27.9559 50.8582H36.8718L32.8127 61.1416L25.2094 52.917L26.1046 64.9897L12.9395 65.542L23.4109 72.9157L15.9528 84.0422L27.9929 80.1043L32.9553 92.029L36.7371 79.0313L50.1663 82.4908L41.4934 72.4611L52.1655 63.6471L41.1554 64.3289L53.0713 50.8582H68.7506L86.1175 20.058V1.32001H76.375ZM76.375 2.26432V1.3208V2.26429V2.26432Z" fill="#FEFEFE"/>
<path d="M76.375 1.32001L70.7393 11.3101L69.7595 19.2942L59.7133 37.1997H46.5588L56.3778 19.8281V1.32001H46.1785L40.7857 11.2229L39.8745 19.2942L25.55 44.8377L27.9559 50.8582H36.8718L32.8127 61.1416L25.2094 52.917L26.1046 64.9897L12.9395 65.542L23.4109 72.9157L15.9528 84.0422L27.9929 80.1043L32.9553 92.029L36.7371 79.0313L50.1663 82.4908L41.4934 72.4611L52.1655 63.6471L41.1554 64.3289L53.0713 50.8582H68.7506L86.1175 20.058V1.32001H76.375Z" fill="black"/>
<path d="M74.2649 10.2306H79.0212L82.333 4.00926H77.7483L74.2649 10.2306ZM44.3543 10.2409L49.4777 10.2277L52.742 4.00635L47.8034 4.00899L44.3543 10.2409ZM43.1358 18.0765L47.7521 18.0897L48.1826 12.7432H43.7168L43.1358 18.0765ZM72.9468 18.0765L77.5658 18.0897L78.0015 12.7432H73.5251L72.9468 18.0765ZM31.0696 73.7861C29.8996 73.7861 28.9515 72.8399 28.9515 71.6718C28.9515 70.501 29.8996 69.5548 31.0696 69.5548C32.2395 69.5548 33.185 70.501 33.185 71.6718C33.185 72.8399 32.2395 73.7861 31.0696 73.7861V73.7861ZM71.9567 21.2747L61.5434 39.6216H36.5495L46.9681 21.2747H42.0664L29.5008 43.4802H43.4398L32.868 67.1392L28.492 62.2763L28.735 68.0087L21.6889 68.3972L27.3643 72.3959L23.321 78.4217L29.8441 76.2889L32.53 82.756L34.582 75.7101L41.8578 77.5839L37.1596 72.1475L42.9433 67.3692L34.0195 67.763L50.4541 43.4802H64.4221L76.7764 21.2747H71.9567H71.9567Z" fill="#C4CED4"/>
</g>
<defs>
<clipPath id="clip0_2_2712">
<rect width="96" height="96" fill="white"/>
</clipPath>
</defs>
</svg>
