<svg width="101" height="101" viewBox="0 0 101 101" fill="none" xmlns="http://www.w3.org/2000/svg">
<path d="M77.1234 9.59497L68.2146 18.457L53.8829 10.955L51.2937 25.1862L36.7521 28.334L44.8853 33.2311L35.7604 37.8054L43.1847 38.447L9.54903 64.5832L35.5079 50.8079L7.4102 72.1781L37.4145 56.5484L4.37867 81.365L38.6546 63.1163L0 91.0886L45.778 66.044L16.3998 89.7468L59.9359 64.7507L59.3785 68.6772L66.2171 64.8838L79.7308 77.6502L86.9007 56.1287L96.1831 54.801L92.1861 42.3998L101 34.7404L89.5626 29.9159L92.79 16.2354L81.9625 21.1891L77.1234 9.59497Z" fill="#FEFEFE"/>
<path d="M13.5754 82.5116L55.2009 59.7371L26.9739 82.5116L61.2236 62.8464L60.6621 66.8113L66.3738 63.6414L79.2734 75.8287L86.1403 55.2193L94.8552 53.9703L91.0219 42.0735L99.1167 35.0416L88.3842 30.5137L91.3329 18.0116L81.4304 22.5395L76.771 11.3691L68.4015 19.6945L54.6314 12.487L52.1674 26.0282L39.4515 28.7805L46.9748 33.3124L39.403 37.1078L45.8377 37.6647L19.3779 58.2237L45.9932 44.0994L17.4451 65.8126L47.8331 49.9852L15.3709 74.3699L51.1454 55.3242L13.5754 82.5116Z" fill="#F9A01B"/>
<path d="M89.7461 42.2575C89.2755 53.6861 79.6194 62.5683 68.178 62.0921C56.7405 61.624 47.8519 51.975 48.3266 40.5484C48.7971 29.1178 58.4532 20.2396 69.8906 20.7097C81.3301 21.1859 90.2207 30.8288 89.7461 42.2575" fill="#E56020"/>
<path d="M71.5741 59.2681C60.1387 58.7959 51.2481 49.1469 51.7186 37.7203C51.9368 32.4297 54.1221 27.696 57.5394 24.171C52.2195 27.7203 48.6063 33.6666 48.3256 40.5492C47.851 51.9738 56.7416 61.6208 68.177 62.0929C74.3249 62.3472 79.9537 59.8956 83.9224 55.8035C80.4001 58.1543 76.1325 59.4557 71.5741 59.2681Z" fill="#B95915"/>
<path d="M89.7572 41.6441C89.7673 40.9016 89.7369 40.1712 89.6683 39.4448C88.4726 38.6134 87.0508 37.9799 85.3684 37.7619C85.0493 37.7236 84.7423 37.7034 84.4333 37.6792C84.2326 36.3199 83.9247 34.9786 83.5123 33.6679C83.7244 33.6861 83.9425 33.6941 84.1586 33.7062C85.6168 33.8152 87.0528 33.9786 88.4706 34.1864C88.2747 33.6578 88.0505 33.1433 87.8142 32.6368C86.2227 32.3927 84.603 32.205 82.963 32.0819H82.9468C82.4217 30.7502 81.7815 29.4669 81.0301 28.2461C82.0884 28.0282 83.0337 27.5944 83.7991 26.872C83.4093 26.4766 83.0013 26.0932 82.5772 25.728C81.9127 26.3394 81.0503 26.6662 80.0607 26.7994C79.9072 26.5835 79.7577 26.3737 79.5982 26.1658C78.1905 24.3377 76.5666 22.774 74.7792 21.5048C73.218 21.0528 71.5861 20.7784 69.8896 20.7098C69.7967 20.7058 69.7038 20.7098 69.6089 20.7037C72.7596 21.9426 75.573 24.023 77.835 26.8055C75.678 26.5976 73.1918 25.8753 70.7318 25.1549C70.0047 24.939 69.2918 24.7292 68.6031 24.5395C64.4143 23.3833 61.1949 23.1977 58.7773 23.4096C56.9819 24.4306 55.356 25.7159 53.9443 27.211C56.5557 26.1255 61.819 24.2651 68.2072 26.0327C68.8858 26.2203 69.5907 26.4261 70.3077 26.636C73.1312 27.4673 76.296 28.3914 79.0367 28.4197C79.7921 29.5436 80.4444 30.73 80.9837 31.9669C80.4485 31.9427 79.9112 31.9286 79.3801 31.9165C66.0684 31.6885 54.6572 35.6675 48.3235 42.0154C48.3598 43.2765 48.5032 44.5094 48.7557 45.7099C50.5411 43.1474 53.1869 40.835 56.6001 38.9141C63.0429 35.2962 71.5922 33.3915 80.6747 33.5509C80.9857 33.5549 81.3008 33.567 81.6138 33.5791C82.0723 34.8927 82.4156 36.2506 82.6338 37.6469C76.7828 37.8931 72.9898 41.5392 68.6354 45.4194C64.7273 48.9162 59.9568 52.3968 52.9789 54.4913C53.6353 55.3004 54.3502 56.055 55.1238 56.7532C61.6998 54.1079 66.0684 49.9876 69.7603 46.6906C73.9491 42.9456 77.5482 39.358 82.8317 39.1804C82.967 40.6393 82.9731 42.1264 82.8398 43.6276C82.1288 51.741 77.427 58.6196 71.0146 62.0115C72.6566 61.8601 74.244 61.5111 75.7547 60.9905C76.2677 60.5668 76.7706 60.1188 77.2533 59.6446C81.4583 55.5082 84.0697 49.8726 84.603 43.783C84.7362 42.2575 84.7362 40.7442 84.6131 39.2531C84.8756 39.2813 85.1382 39.3055 85.4088 39.3499C87.2103 39.6445 88.6383 40.5505 89.7571 41.6441" fill="black"/>
</svg>
