<svg width="103" height="103" viewBox="0 0 103 103" fill="none" xmlns="http://www.w3.org/2000/svg">
<path d="M55.3268 35.1611V35.1633L55.3247 35.1654L55.3268 35.1611ZM58.5335 50.4434V50.4413H58.5356C58.5335 50.4413 58.5335 50.4434 58.5335 50.4434ZM102.977 39.2541C102.972 39.2348 102.979 39.2156 102.974 39.1963C102.962 39.147 102.932 39.1085 102.915 39.0614C102.889 38.9951 102.868 38.9287 102.831 38.8688C102.797 38.8153 102.754 38.7724 102.712 38.7253C102.665 38.6761 102.624 38.6247 102.569 38.5819C102.511 38.5412 102.449 38.5134 102.385 38.4834C102.332 38.4578 102.281 38.4278 102.223 38.4107C102.15 38.3914 102.076 38.3892 101.999 38.385C101.947 38.3807 101.9 38.3614 101.847 38.3657C95.6451 38.8645 89.2681 39.8192 82.8633 41.1657C83.238 40.1578 83.5939 39.1429 83.9307 38.1217C89.9961 37.0235 96.0999 36.0345 102.084 35.1847C102.131 35.1782 102.167 35.1525 102.212 35.1397C102.276 35.1226 102.338 35.1054 102.396 35.0776C102.458 35.0455 102.511 35.007 102.567 34.9663C102.618 34.9278 102.665 34.8914 102.708 34.8464C102.754 34.795 102.791 34.7394 102.827 34.6794C102.859 34.6259 102.893 34.5746 102.917 34.5146C102.942 34.4504 102.953 34.3819 102.966 34.3113C102.974 34.2642 102.998 34.2235 103 34.1743C103 34.155 102.991 34.1357 102.991 34.1165C102.991 34.0972 103 34.0779 102.998 34.0565C102.996 34.003 102.97 33.9559 102.959 33.9045C102.947 33.8403 102.936 33.7761 102.912 33.7161C102.885 33.6519 102.844 33.5963 102.806 33.5385C102.772 33.485 102.742 33.4336 102.697 33.3886C102.65 33.3372 102.59 33.3009 102.532 33.2602C102.481 33.2238 102.436 33.1853 102.379 33.1596C102.31 33.1275 102.238 33.1146 102.165 33.0996C102.114 33.0868 102.069 33.0611 102.016 33.0568C96.6955 32.6415 91.1575 32.5409 85.5383 32.7271C85.6899 32.1577 85.8394 31.5819 85.9846 30.9975C86.1041 30.5158 85.8778 30.0149 85.438 29.788C73.0938 23.4131 63.2624 20.8143 51.5074 20.8143C39.7503 20.8143 29.9189 23.4131 17.5683 29.788C17.1285 30.0149 16.9022 30.5158 17.0197 30.9975L17.7669 34.0159C18.8899 38.5434 20.4548 42.8697 22.3869 46.9499C14.5944 50.2936 7.22455 54.1469 0.49522 58.4368C0.0362191 58.73 -0.130303 59.323 0.108798 59.8132C0.294541 60.1878 0.672434 60.4105 1.06739 60.4105C1.18908 60.4105 1.31291 60.3891 1.43246 60.3463C7.85436 58.0065 14.5431 55.763 21.313 53.6331C20.0726 56.2618 18.8514 58.9035 17.6772 61.5557L17.4872 61.9796C16.8382 63.4096 15.9479 65.3704 16.5799 67.0166C16.8787 67.7958 17.4637 68.3781 18.4757 68.8041C18.5995 68.8362 18.7212 68.864 18.845 68.8855C14.114 72.1992 9.65839 75.7035 5.54009 79.3534C5.13231 79.7151 5.06187 80.3274 5.37569 80.7727C5.58278 81.0659 5.91156 81.2265 6.24889 81.2265C6.42983 81.2267 6.60777 81.1802 6.76553 81.0916C16.1144 75.9026 25.9949 70.8592 36.138 66.0961C40.4228 70.2576 45.3887 74.0423 50.9587 77.3882C51.2961 77.5895 51.7167 77.5895 52.0561 77.3882C65.186 69.4955 74.0994 60.1001 80.0067 47.9025C87.464 45.2052 94.9449 42.7027 102.246 40.4572C102.293 40.4422 102.328 40.4101 102.372 40.3908C102.43 40.3651 102.483 40.3394 102.535 40.3052C102.594 40.2624 102.643 40.2131 102.695 40.1618C102.735 40.1168 102.776 40.0761 102.81 40.0248C102.851 39.9648 102.876 39.9027 102.904 39.8364C102.927 39.7807 102.953 39.7251 102.966 39.663C102.981 39.5923 102.981 39.5217 102.983 39.4489C102.983 39.4018 103 39.3569 102.994 39.3098C102.991 39.2905 102.979 39.2734 102.977 39.2541V39.2541Z" fill="#FEFEFE"/>
<path d="M101.933 39.4341C94.5012 41.7182 86.9329 44.2528 79.2642 47.0335C79.9473 45.6014 80.5878 44.1243 81.1942 42.6023L101.933 39.4341ZM81.1946 42.6023C88.2826 41.0225 95.2297 39.9714 101.933 39.4341L81.1946 42.6023ZM6.24759 80.1552C12.1763 74.8998 18.8608 69.8992 26.1858 65.2967C27.5628 64.5968 28.942 63.9032 30.3276 63.216C30.8976 62.9334 32.0141 62.3897 33.4189 61.7132C34.3626 62.7772 35.3404 63.809 36.3523 64.8151C25.8335 69.7344 15.7694 74.8699 6.24759 80.1552Z" fill="#0070B9"/>
<path d="M101.933 34.1239C95.7736 34.9994 89.499 36.0163 83.1305 37.1786C83.4828 36.0869 83.8137 34.9716 84.1339 33.837" fill="#EF5133"/>
<path d="M84.1344 33.8369C90.2617 33.5778 96.216 33.6784 101.933 34.1237L84.1344 33.8369Z" fill="#ED2A37"/>
<path d="M1.06781 59.3404C7.94871 54.9541 15.5704 50.9596 23.8006 47.4896C24.0739 48.0418 24.3578 48.592 24.6439 49.1336C24.2041 50.0412 23.7622 50.9467 23.3267 51.8587C15.6751 54.2263 8.24762 56.7245 1.06781 59.3404Z" fill="#EF5133"/>
<path d="M51.5058 24.0161C63.1049 24.0161 72.2019 26.7369 82.4709 31.8703C77.4474 50.8582 68.2522 63.6123 51.5079 73.9754C45.2162 70.0729 39.8682 65.723 35.3998 60.7652C37.3874 59.819 39.6291 58.753 41.5975 57.8196C42.3939 57.8924 43.1582 57.931 43.8691 57.9502C43.8243 59.0441 43.4806 59.8469 42.9297 60.4227C43.25 60.7888 43.5766 61.157 43.9033 61.5166C44.7722 60.7374 45.3294 59.59 45.3742 57.9545C47.411 57.9224 49.3772 57.7126 51.2026 57.3251C51.1001 60.3157 50.6838 62.5184 49.8341 63.3918C49.8042 63.4197 49.7893 63.4411 49.7743 63.4711C49.563 63.6937 49.373 63.882 49.2086 64.0255C50.0305 63.8756 50.8354 63.6851 51.6317 63.4603C52.6565 61.3347 52.6693 57.612 52.6842 56.9655C54.5865 56.486 56.2774 56.0043 57.7996 55.482C57.8593 57.231 58.5554 58.9007 59.8875 59.5172C60.4874 59.0934 61.0682 58.6417 61.6297 58.175C61.2923 58.2264 59.1873 58.3719 59.2172 54.9747C63.6728 53.29 66.5742 51.2606 69.1275 48.2272C69.8022 46.7009 70.3466 45.0997 70.7309 43.4407C67.6779 48.2722 64.8641 51.0915 59.3709 53.3028C59.5267 52.3288 59.8085 51.1643 60.2633 49.7685C61.8645 49.0964 63.5361 48.2936 64.5438 47.8783L66.9456 45.348C67.5498 43.0104 68.1498 40.6706 68.7497 38.333L66.8709 38.9195L69.0784 36.5926C69.5439 34.7624 69.9986 32.9278 70.4534 31.0975C69.3475 31.2602 68.2394 31.425 67.1314 31.5984C67.3171 30.6822 67.4495 29.7767 67.5199 28.8712C66.9862 28.7363 66.4525 28.6057 65.9145 28.4859C65.8013 29.5027 65.6027 30.6308 65.3018 31.8874L65.1502 31.911C64.1126 32.0865 63.0494 32.429 62.1249 33.2104L62.4217 32.3091C60.6412 32.6324 58.867 32.9599 57.0929 33.3045L55.3252 35.1669L55.3828 35.0171L55.955 33.525C54.2001 33.8868 52.4494 34.2572 50.6966 34.6403C50.3316 32.2663 49.9643 30.1213 49.6463 28.3853C49.1488 28.443 48.6514 28.5137 48.1582 28.5843C48.4784 30.3397 48.8521 32.5382 49.2257 34.9657L47.9831 35.2462L46.4054 36.9137C45.2995 35.7407 43.0557 36.4813 41.6402 36.8388C40.1073 37.2263 38.5766 37.6287 37.0458 38.0419C36.589 38.1682 36.1342 38.3073 35.688 38.4615C34.5415 36.8046 33.4634 35.0942 32.5732 33.2532L32.413 32.9128C31.9496 33.1012 31.4891 33.2967 31.0317 33.4993L31.2281 33.9061C32.0949 35.7064 33.1389 37.389 34.264 39.0223C32.6137 39.7587 31.0894 40.7798 29.7678 42.2398C29.7678 42.2398 27.6222 44.4918 27.3703 44.7679C26.8131 45.4101 26.3327 46.093 25.9079 46.7887C23.6555 42.2419 21.8686 37.2948 20.5278 31.8724C30.799 26.7391 39.9002 24.014 51.5058 24.0161H51.5058ZM52.6394 52.7591C53.7069 52.2881 54.7744 51.8215 55.8376 51.3527L56.3371 50.8325C56.5464 50.8667 56.7876 50.8731 57.0588 50.8474C57.4751 50.7768 57.9832 50.6334 58.534 50.4407C58.1753 51.753 57.9576 52.8875 57.8593 53.8744C56.3414 54.4117 54.6377 54.919 52.7013 55.4092C52.6992 54.5615 52.6779 53.6753 52.6394 52.7591V52.7591ZM45.2525 56.0964L46.2538 55.6297L48.8243 53.5575L49.3965 51.9734C49.7679 52.727 49.9686 53.0224 50.3379 53.7823L51.1834 53.4098C51.2133 54.2254 51.2261 55.0196 51.2261 55.7774C49.3708 56.2034 47.3661 56.4325 45.2974 56.4646L45.2525 56.0964Z" fill="#FEFEFE"/>
<path d="M57.754 27.902C60.205 27.902 62.6238 28.0305 65.0086 28.2874C66.8233 28.6684 68.6209 29.1308 70.4036 29.6702C71.0825 32.0571 71.4497 34.5788 71.4497 37.1819C71.4497 39.3376 71.202 41.429 70.7302 43.4391C67.6772 48.2706 64.8634 51.092 59.3702 53.3034C59.526 52.3294 59.81 51.1627 60.2626 49.7691C61.8638 49.0948 63.5355 48.2942 64.541 47.8768L66.945 45.3465C67.5491 43.0088 68.1491 40.6691 68.749 38.3315L66.8702 38.918L69.0799 36.5911C69.5432 34.7608 70.0001 32.9284 70.4527 31.0981C69.3468 31.2586 68.2387 31.4235 67.1307 31.5969C67.3164 30.6828 67.4488 29.7751 67.5192 28.8696C66.9859 28.7343 66.4507 28.6066 65.9138 28.4864C65.8027 29.5011 65.6021 30.6314 65.301 31.888L65.1495 31.9115C64.1098 32.0871 63.0487 32.4296 62.1243 33.2088L62.421 32.3076C60.6405 32.6308 58.8664 32.9605 57.0922 33.303L55.3245 35.1654L55.3843 35.0155L55.9543 33.5256C54.2015 33.8852 52.4487 34.2577 50.6959 34.6409C50.3309 32.2669 49.9658 30.1219 49.6456 28.3858C52.3036 28.0626 55.0064 27.902 57.754 27.902ZM69.1269 48.2257C67.4168 52.1003 64.8335 55.4976 61.6311 58.1734C61.2916 58.2248 59.1845 58.3704 59.2165 54.9731C63.6742 53.2884 66.5735 51.259 69.1269 48.2257ZM59.8868 59.5156C57.4039 61.2689 54.6242 62.6153 51.6332 63.4588C52.6558 61.3331 52.6686 57.6104 52.6857 56.9661C54.5858 56.4866 56.2767 56.0028 57.7989 55.4826C57.8586 57.2294 58.5546 58.8991 59.8868 59.5156ZM49.21 64.0261C48.371 64.1823 47.5213 64.2979 46.6609 64.375C45.7128 63.4497 44.7929 62.496 43.9026 61.515C44.7693 60.7358 45.3287 59.5884 45.3735 57.9551C47.4103 57.9208 49.3765 57.7132 51.2019 57.3236C51.0994 60.3141 50.6831 62.5169 49.8356 63.3903C49.8035 63.4181 49.7886 63.4417 49.7758 63.4695C49.5602 63.6942 49.3723 63.8805 49.21 64.0261ZM42.9312 60.4211C42.2715 59.6633 41.6289 58.8884 41.0033 58.1007L41.5968 57.8181C42.3932 57.893 43.1575 57.9315 43.8684 57.9487C43.8257 59.0426 43.4799 59.8474 42.9312 60.4211ZM31.1378 40.9324C30.3073 38.8195 29.5729 36.6553 28.9452 34.444C29.6348 34.1164 30.3329 33.8017 31.0332 33.4978L31.2274 33.9067C32.0942 35.707 33.1382 37.3874 34.2633 39.0207C33.1574 39.5131 32.107 40.136 31.1378 40.9324V40.9324ZM32.4123 32.9112C37.5277 30.8112 42.7582 29.3641 48.1596 28.5849C48.4777 30.3403 48.8513 32.5366 49.225 34.9663L47.9824 35.2446L46.4047 36.9143C45.2967 35.7412 43.0528 36.4819 41.6395 36.8373C40.1066 37.229 38.5738 37.6272 37.0451 38.0403C36.5883 38.1666 36.1335 38.3058 35.6873 38.4599C34.5408 36.803 33.4627 35.0926 32.5725 33.2516L32.4123 32.9112ZM52.6409 52.7575C53.7062 52.2866 54.7737 51.8199 55.8369 51.3532L56.3364 50.833C56.5457 50.8651 56.7869 50.8758 57.0581 50.8459C57.4722 50.7752 57.9803 50.6318 58.5354 50.4413C58.1746 51.7514 57.959 52.8859 57.8587 53.8728C56.3407 54.4122 54.637 54.9175 52.7007 55.4098C52.6985 54.56 52.6772 53.6759 52.6409 52.7575ZM45.2519 56.0948L46.2531 55.6303L48.8236 53.556L49.3958 51.9719C49.7673 52.7275 49.9701 53.0208 50.3373 53.7829L51.1827 53.4083C51.2126 54.226 51.2254 55.0202 51.2254 55.7801C49.3702 56.2018 47.3655 56.4309 45.2967 56.463L45.2519 56.0948L45.2519 56.0948Z" fill="#EF5133"/>
<path d="M52.007 70.8157C47.0774 67.4676 42.6837 63.5266 38.8857 59.104L41.0035 58.1C41.6291 58.8878 42.2717 59.6606 42.9314 60.4205C43.2517 60.7889 43.5755 61.1543 43.9028 61.5165C46.7166 64.6141 49.8315 67.4505 53.226 69.9979C52.8222 70.2742 52.4158 70.5468 52.007 70.8157V70.8157ZM28.781 43.2779C27.3399 40.1161 26.1273 36.828 25.1602 33.4265C33.7554 29.3592 42.656 27.165 52.1031 26.9102C56.5203 26.9488 60.8136 27.4111 65.0109 28.2867C62.624 28.032 60.2052 27.9014 57.7542 27.9014C55.0045 27.9014 52.3037 28.0641 49.6458 28.3852C49.1483 28.443 48.653 28.5114 48.1598 28.5843C42.7563 29.3634 37.5279 30.8106 32.4125 32.9106C31.9493 33.1011 31.4902 33.2959 31.0312 33.4993C30.3331 33.8011 29.635 34.1158 28.9454 34.4433C29.5731 36.6546 30.3053 38.8188 31.138 40.9317C30.6619 41.3213 30.2029 41.758 29.7695 42.2375L28.781 43.2779H28.781Z" fill="#FCB424"/>
<path d="M18.0565 30.7396C29.1667 25.0047 38.9128 21.8835 51.5067 21.8835C64.0943 21.8835 73.8425 25.0047 84.9484 30.7396C79.7883 51.5855 69.9355 65.3908 51.5067 76.4688C44.5511 72.2902 38.473 67.3945 33.4196 61.7131C32.0148 62.3895 30.8982 62.9311 30.326 63.2137C28.586 64.0828 26.8461 64.9562 25.1146 65.8403C23.1612 66.84 20.9921 68.3513 18.7419 67.7669C16.2824 66.6966 17.9028 63.6932 18.6543 61.9871C20.5672 57.6651 22.5634 53.3794 24.645 49.1323C22.145 44.4271 20.1787 39.3108 18.8016 33.7579L18.0565 30.7396ZM51.5067 24.0157C39.8991 24.0135 30.8 26.7386 20.5267 31.872C21.8695 37.29 23.6543 42.2457 25.9088 46.7883C26.3316 46.0925 26.8119 45.4096 27.3713 44.7653C27.6211 44.4913 29.7688 42.2393 29.7688 42.2393C31.0882 40.7772 32.6147 39.7561 34.2629 39.0219C33.1377 37.3885 32.0959 35.7059 31.227 33.9056L31.0327 33.4989C31.4917 33.2955 31.9507 33.1007 32.414 32.9102L32.5741 33.2527C33.4644 35.0916 34.5404 36.802 35.689 38.461C36.1352 38.3069 36.5878 38.1677 37.0468 38.0414C38.5754 37.6261 40.1062 37.2258 41.6412 36.8362C43.0545 36.4809 45.2984 35.7402 46.4042 36.9133L47.9841 35.2457L49.2245 34.9653C48.853 32.5377 48.4773 30.3392 48.1592 28.5839C48.6523 28.5132 49.1498 28.4426 49.6451 28.3848C49.9653 30.1209 50.3304 32.2659 50.6955 34.6399C52.4482 34.2567 54.201 33.8864 55.956 33.5246L55.3838 35.0145L55.324 35.1643L57.0917 33.302C58.8659 32.9594 60.6421 32.6298 62.4205 32.3065L62.1238 33.2099C63.0482 32.4286 64.1114 32.086 65.149 31.9105L65.3027 31.887C65.6016 30.6304 65.8023 29.5022 65.9133 28.4854C66.4513 28.6053 66.9872 28.7359 67.5209 28.8686C67.4483 29.7741 67.316 30.6817 67.1302 31.5958C68.2382 31.4246 69.3484 31.2597 70.4522 31.0971C69.9996 32.9273 69.5427 34.7598 69.0794 36.5922L66.8697 38.917L68.7485 38.3304C68.1507 40.6702 67.5487 43.0078 66.9466 45.3476L64.5427 47.8757C63.5371 48.2932 61.8633 49.0959 60.2621 49.7681C59.8095 51.1617 59.5256 52.3284 59.3697 53.3023C64.8629 51.091 67.6768 48.2696 70.7297 43.4381C70.3454 45.0992 69.801 46.7005 69.1264 48.2268C66.573 51.2601 63.6738 53.2895 59.2181 54.9742C59.1861 58.3715 61.2933 58.2238 61.6306 58.1724C61.0691 58.6412 60.4863 59.0929 59.8864 59.5146C58.5542 58.9002 57.8582 57.2305 57.7984 55.4816C56.2762 56.0039 54.5875 56.4855 52.6852 56.9651C52.6681 57.6094 52.6554 61.3342 51.6327 63.4599C50.8341 63.6853 50.0255 63.8739 49.2095 64.025C49.3718 63.8816 49.5618 63.6932 49.7753 63.4685C49.7881 63.4406 49.8031 63.4192 49.8351 63.3914C50.6827 62.518 51.099 60.3152 51.2014 57.3247C49.3761 57.7122 47.4098 57.9198 45.3752 57.9541C45.3304 59.5874 44.771 60.7369 43.9042 61.514C43.5755 61.1587 43.251 60.7883 42.9307 60.4201C43.4815 59.8464 43.8252 59.0437 43.8679 57.9476C43.157 57.9305 42.3948 57.892 41.5964 57.817C39.628 58.7504 37.3884 59.8207 35.3986 60.7648C39.8671 65.7226 45.2172 70.0725 51.5067 73.9728C68.2511 63.6119 77.4462 50.8556 82.4719 31.8698C72.2007 26.7365 63.1059 24.0157 51.5067 24.0157ZM52.6404 52.7565C52.6788 53.6748 52.698 54.5611 52.7002 55.4088C54.6387 54.9164 56.3403 54.4112 57.8582 53.8718C57.9585 52.8849 58.1742 51.7504 58.535 50.4403C57.982 50.6351 57.4739 50.7763 57.0597 50.8449C56.7886 50.8727 56.5473 50.8641 56.336 50.8299L55.8385 51.3522C54.7732 51.8189 53.7057 52.2855 52.6404 52.7565ZM45.2514 56.096L45.2962 56.4641C47.365 56.4342 49.3697 56.203 51.2271 55.777C51.2271 55.0192 51.2143 54.225 51.1822 53.4072L50.3368 53.7819C49.9696 53.0219 49.7668 52.7265 49.3974 51.973L48.8231 53.5571L46.2527 55.6314L45.2514 56.096Z" fill="#081E3F"/>
<path d="M37.2398 38.9161C34.6266 39.629 32.2953 40.7485 30.4294 42.8186C29.3576 44.0495 28.5933 45.4602 27.8802 46.903C25.7923 51.1608 23.7897 55.455 21.8725 59.7878C21.3729 60.918 19.8358 63.6667 21.4712 64.3774C23.2816 64.8483 25.5446 63.3242 27.1416 62.5086C28.8772 61.6245 30.6151 60.7468 32.3593 59.8798C35.329 58.4027 37.9913 56.611 39.7975 53.7318C40.5169 52.5159 41.0528 51.2122 41.5801 49.9106C42.7138 47.1128 43.8688 44.3149 45.0451 41.5277C45.4871 40.4831 46.2578 39.1666 46.0123 38.0256C45.517 36.495 42.938 37.4305 41.815 37.7109C40.2906 38.1005 38.7642 38.5008 37.2398 38.9161H37.2398ZM33.9371 54.9027C32.5557 55.5214 31.1808 56.1422 29.8038 56.778C31.8 52.137 33.8709 47.5281 36.0336 42.9556C37.2419 42.5702 38.4546 42.1956 39.6736 41.821C37.6945 46.1538 35.7859 50.5165 33.9371 54.9027ZM57.5708 34.121C55.6579 36.6277 53.7685 39.1537 51.9026 41.6968C52.7736 39.3699 53.6575 37.0452 54.5477 34.7289C52.5644 35.1357 50.5874 35.5702 48.6126 36.0198C48.1024 37.2186 47.59 38.4152 47.0861 39.6161C47.5131 39.4962 47.9422 39.3785 48.3671 39.2607C46.8107 43.0326 45.2971 46.8174 43.8111 50.6085C43.2033 52.1507 42.597 53.6934 41.9922 55.2367C43.9755 54.2991 45.9589 53.3679 47.9486 52.4517C48.8496 49.9577 49.7569 47.466 50.6771 44.9807C51.5204 46.6761 52.3594 48.3758 53.1921 50.0798C54.4709 49.5039 55.7561 48.9388 57.0435 48.3779C56.26 46.5883 55.4658 44.803 54.6652 43.0176C56.0892 40.8513 57.5238 38.6935 58.9735 36.5442C59.3808 36.4459 59.7885 36.3495 60.1968 36.2552L61.1127 33.4552C59.9321 33.6714 58.7493 33.8898 57.5708 34.121V34.121ZM65.2481 32.8045C64.1827 32.9821 63.2199 33.3246 62.4257 34.1253C61.7745 34.8317 61.4286 35.6687 61.1383 36.5635C60.2907 39.2351 59.4367 41.9088 58.5849 44.5825C58.2519 45.64 57.7075 47.5645 59.3962 47.421C59.9726 47.3268 60.5149 47.0892 61.055 46.8559C62.763 46.1259 64.4752 45.4045 66.1917 44.6938C66.6294 43.0177 67.0649 41.3372 67.494 39.6546C66.5909 39.9372 65.6921 40.2262 64.7912 40.5152C64.5777 41.273 64.3685 42.0329 64.1571 42.7886C63.5316 43.0198 62.906 43.2467 62.2805 43.48C63.0726 40.7678 63.8646 38.0577 64.6503 35.3433C65.2053 35.2234 65.7583 35.1057 66.3155 34.9901C66.1832 35.4653 66.0551 35.9406 65.9227 36.4179C66.7318 36.2231 67.5431 36.0305 68.3522 35.8464C68.66 34.6236 68.9667 33.4005 69.2724 32.1772C67.9317 32.3763 66.5888 32.584 65.2481 32.8045Z" fill="#FEFEFE"/>
<path d="M72.4576 30.3245C73.271 30.5921 74.031 30.8639 74.791 31.1487C76.6954 31.8593 78.3799 32.5829 79.7719 33.2529C75.4721 48.0515 66.6655 60.461 54.238 69.2935L53.2239 69.9978C49.586 67.2663 47.4382 65.1213 47.4382 65.1213L49.1504 64.8387C54.3469 63.9696 59.3554 61.6084 63.4972 57.7359C70.5553 51.1319 73.4204 41.7065 71.9665 32.8248C71.9302 32.6236 71.8897 32.4224 71.8576 32.2211L71.8406 32.1334L71.8235 32.0392L71.8021 31.9407L71.7829 31.8487L71.7658 31.7459L71.7445 31.6496L71.721 31.5425L71.6975 31.4419L71.6762 31.3456L71.6612 31.2643L71.6313 31.1508L71.61 31.0438L71.5886 30.9645L71.5737 30.8854L71.5545 30.8083C71.4755 30.4893 71.405 30.2174 71.3282 29.9542C71.7049 30.0767 72.0814 30.2001 72.4576 30.3245ZM72.5942 30.4979C73.3542 30.759 74.1377 31.0352 74.885 31.3156C74.1249 31.0245 73.3606 30.7548 72.5942 30.4979Z" fill="#0070B9"/>
</svg>
