<svg width="91" height="91" viewBox="0 0 91 91" fill="none" xmlns="http://www.w3.org/2000/svg">
<g clip-path="url(#clip0_2_2520)">
<circle cx="45.5001" cy="45.4999" r="45.5" fill="#C4CDD3"/>
<path d="M83.2195 56.4942C82.2232 59.9162 80.7957 63.0946 79.024 65.9971C76.9424 58.4631 72.1393 50.6806 65.9598 43.5713C66.5172 42.6234 67.1552 41.6679 67.8841 40.6489C69.5704 38.8184 70.3648 40.5161 70.3648 40.5161C71.7184 36.8449 70.8577 34.9964 70.2018 34.2059C69.9563 33.8428 69.6605 33.712 69.6605 33.712C69.0927 31.1299 66.7523 29.7743 66.7523 29.7743C66.7523 29.7743 67.559 26.1467 67.1684 22.391C79.824 27.6766 83.5636 37.2382 84.6509 42.2556C85.0395 46.9203 84.6063 51.7319 83.2195 56.4942ZM66.3466 78.7873C66.0641 74.206 65.302 70.5035 65.302 70.5035C65.7134 70.6703 66.7447 71.4116 66.7447 71.4116C66.5485 62.8415 62.9455 59.8233 63.044 55.1491C63.1256 51.2352 63.6602 48.5127 64.6934 46.0671C70.9468 53.4315 75.6182 61.413 77.1168 68.8332C74.1593 72.8401 70.4871 76.1957 66.3466 78.7873ZM7.01934 37.643C9.68015 34.0362 16.5364 25.9723 24.1008 26.7799C23.5026 27.8586 22.9993 28.7866 22.6998 29.38C20.7167 32.4465 18.856 36.1254 17.473 40.4773C16.0331 45.0102 15.2842 49.728 15.2027 54.6022C13.5912 55.9293 11.9286 57.1616 10.2271 58.2384C10.2271 58.2384 13.2566 60.9409 16.271 62.0045C16.271 62.0045 14.1998 65.2605 12.8775 67.3848C7.19186 58.8934 4.83912 48.253 7.01934 37.643ZM16.3971 19.1112C17.2653 19.0515 18.4996 19.006 19.9755 19.0468C23.5652 19.3691 24.8658 20.3587 26.9502 21.7256C26.432 22.6326 25.9163 23.541 25.4032 24.4509C18.7309 23.1456 12.7248 27.5534 8.73129 31.6967C10.5153 26.9353 13.141 22.6953 16.3971 19.1112ZM34.1364 7.9078C33.9458 9.11168 33.9222 10.6321 34.508 12.127C34.8786 13.0692 35.4492 13.8863 36.2009 14.5821C34.4757 15.3139 32.9221 15.9964 31.6443 16.5708C28.6185 16.4485 23.3235 16.2959 19.6048 16.5159C19.4039 16.513 19.1915 16.5045 19.001 16.5045C23.3406 12.5479 28.5238 9.61123 34.1364 7.9078H34.1364ZM36.8749 7.18265C41.4799 6.14186 46.3171 5.91815 51.1799 6.63381C52.9478 6.89355 54.7175 7.2784 56.4816 7.79313C56.548 7.81208 56.6115 7.83483 56.6778 7.85378C54.1981 8.23675 51.0074 8.95905 47.4157 10.2691C44.573 11.2208 41.6221 12.3507 38.9073 13.4569C37.9176 12.8796 37.2143 12.1393 36.8522 11.2246C36.2502 9.70791 36.6095 8.03959 36.8749 7.18265ZM46.8233 26.6349C45.4858 25.7296 44.1435 24.867 42.8041 24.0603C41.7984 22.9294 39.7708 20.809 38.7082 19.7027C39.2314 18.8743 39.9281 17.8865 40.7737 16.9519C44.9189 18.3813 48.3589 18.6487 50.5221 18.7956C50.9429 18.825 51.3183 18.8496 51.6434 18.8819L51.9572 18.9084C52.5279 18.9567 53.0777 19.0183 53.6303 19.079C51.5524 21.2554 49.3675 23.592 46.8233 26.6349ZM33.9904 34.968C30.5087 38.463 24.7596 45.9979 17.8512 52.3035C18.4531 43.0082 21.5926 35.1775 25.9104 29.1032C26.3654 28.6558 26.9066 28.2122 27.5048 27.7799C30.1987 29.1374 32.3107 31.7289 33.9904 34.968ZM35.9005 33.2797C34.2966 30.3374 32.3259 27.8728 29.8717 26.2614C31.0064 25.6064 32.1837 25.0073 33.2596 24.4944C34.7999 24.7039 39.2921 25.3571 41.1747 26.0339C42.5169 26.8377 43.8611 27.7013 45.2033 28.6113C44.8602 29.0359 44.5132 29.4701 44.1578 29.9232C44.1578 29.9232 40.1756 29.9725 35.9005 33.2797ZM62.0658 9.9316L62.0677 9.88514C71.0141 14.0323 77.8277 21.2895 81.5692 29.9421C77.4732 24.8528 71.9289 21.6583 66.6367 19.6534C65.9968 17.5538 64.7873 15.6987 62.6052 14.7849C62.1795 13.8105 61.5833 13.1289 60.4136 12.69C59.1263 12.9763 57.0276 14.4702 55.7271 16.8343C54.3147 16.6182 53.0994 16.4855 52.1667 16.4059L51.8833 16.3812C51.5392 16.348 51.1392 16.3215 50.6927 16.2902C48.794 16.1603 46.1493 15.9698 42.9463 15.0323C43.1207 14.9138 43.297 14.801 43.4771 14.6958C53.6985 9.74012 61.9568 9.92874 62.0658 9.9316ZM82.9759 24.9371C77.4799 14.9271 68.4159 7.65659 57.4504 4.46308C55.5612 3.91422 53.6218 3.48957 51.6889 3.20516H51.688L51.6842 3.20422C30.6973 0.113068 10.3901 13.163 4.45238 33.5603C1.25981 44.5249 2.52811 56.0752 8.02319 66.0862C13.5192 76.0971 22.5841 83.3676 33.5477 86.5602C35.4388 87.1109 37.3783 87.5347 39.3139 87.819C43.6042 88.4513 47.8622 88.3982 51.979 87.7574C52.0302 87.7821 52.0795 87.8115 52.1307 87.8352L52.18 87.7262C68.1154 85.1639 81.8412 73.625 86.5476 57.463C89.7402 46.4994 88.4719 34.9481 82.9759 24.9371Z" fill="#002A5B"/>
<path d="M38.9075 13.4566C41.6223 12.3503 44.5722 11.2213 47.4159 10.2687C51.0067 8.95869 54.1973 8.23637 56.678 7.85436C56.6108 7.83444 56.5482 7.81073 56.4828 7.79274C54.7168 7.27898 52.9489 6.89411 51.1801 6.63439C46.3164 5.91776 41.4792 6.14241 36.8751 7.18325C36.6097 8.0392 36.2495 9.70753 36.8514 11.2242C37.2145 12.1399 37.9178 12.8802 38.9075 13.4566ZM17.4724 40.4773C18.8564 36.1245 20.7171 32.4465 22.6992 29.38C22.9997 28.7866 23.5021 27.8577 24.1003 26.7799C16.5368 25.9722 9.68055 34.0362 7.01974 37.643C4.83858 48.2531 7.19225 58.8934 12.8779 67.3848C14.1993 65.2606 16.2704 62.0045 16.2704 62.0045C13.2561 60.9409 10.2275 58.2393 10.2275 58.2393C11.929 57.1616 13.5916 55.9293 15.2021 54.6022C15.2837 49.728 16.0325 45.0102 17.4724 40.4773V40.4773ZM19.0012 16.5048C19.1908 16.5058 19.4031 16.5124 19.6031 16.5162C23.3237 16.2954 28.6178 16.448 31.6436 16.5703C32.9223 15.9958 34.476 15.3133 36.2012 14.5825C35.4495 13.8858 34.8788 13.0696 34.5082 12.1264C33.9224 10.6316 33.9461 9.1111 34.1366 7.90821C28.523 9.61067 23.3408 12.5473 19.0012 16.5048H19.0012ZM66.3466 78.7868C70.4871 76.1962 74.1603 72.8405 77.1159 68.8328C75.6182 61.4125 70.9468 53.431 64.6944 46.0667C63.6602 48.5132 63.1246 51.2347 63.0441 55.1487C62.9455 59.8238 66.5485 62.842 66.7438 71.4121C66.7438 71.4121 65.7124 70.6698 65.3001 70.504C65.3001 70.504 66.0632 74.2046 66.3466 78.7868ZM33.2593 24.4937C32.1844 25.0065 31.0061 25.6056 29.8714 26.2625C32.3256 27.8721 34.2963 30.3385 35.8992 33.2809C40.1743 29.9717 44.1575 29.9234 44.1575 29.9234C44.5139 29.4703 44.8599 29.0361 45.2021 28.6105C43.8627 27.7024 42.5167 26.8379 41.1744 26.0341C39.2918 25.3582 34.7997 24.7041 33.2593 24.4937ZM53.6302 19.0792C53.0776 19.0185 52.5278 18.9569 51.9562 18.9086L51.6434 18.882C51.3182 18.8489 50.9429 18.8242 50.522 18.7967C48.3579 18.6479 44.9189 18.3825 40.7736 16.953C39.9281 17.8858 39.2323 18.8744 38.709 19.7029C39.7707 20.8082 41.7983 22.9296 42.804 24.0605C44.1444 24.8662 45.4857 25.7298 46.8223 26.636C49.3675 23.5913 51.5533 21.2556 53.6302 19.0792" fill="#004F83"/>
<path d="M8.73102 31.6968C12.7246 27.5535 18.7306 23.1457 25.403 24.45C25.9309 23.5135 26.4637 22.5769 26.95 21.7248C24.8655 20.3579 23.5649 19.3682 19.9752 19.0459C18.4993 19.0052 17.2642 19.0526 16.3968 19.1123C13.1407 22.6954 10.515 26.9354 8.73102 31.6968ZM83.2193 56.4939C84.6061 51.7316 85.0393 46.92 84.6507 42.2553C83.5634 37.238 79.8239 27.6763 67.1682 22.3908C67.5588 26.1464 66.7521 29.7741 66.7521 29.7741C66.7521 29.7741 69.0925 31.1296 69.6603 33.7117C69.6603 33.7117 69.9561 33.8425 70.2016 34.2056C70.8576 34.9962 71.7183 36.8446 70.3646 40.5159C70.3646 40.5159 69.5703 38.8182 67.8839 40.6486C67.155 41.6676 66.517 42.6231 65.9597 43.571C72.1391 50.6804 76.9422 58.4628 79.0239 65.9968C80.7955 63.0943 82.2231 59.9159 83.2193 56.4939" fill="#004F83"/>
<path d="M60.4139 12.6909C61.5818 13.1288 62.1789 13.8104 62.6064 14.7848C64.7867 15.6996 65.9971 17.5537 66.636 19.6543C71.9282 21.6582 77.4736 24.8526 81.5686 29.942C77.8281 21.2904 71.0135 14.0322 62.0671 9.88599L62.0652 9.93244C61.9571 9.92865 53.6979 9.74001 43.4775 14.6957C43.2964 14.8009 43.1201 14.9137 42.9467 15.0332C46.1487 15.9697 48.7924 16.1612 50.6921 16.2911C51.1395 16.3224 51.5386 16.3489 51.8827 16.3821L52.1671 16.4067C53.0979 16.4844 54.3141 16.6181 55.7274 16.8352C57.028 14.4711 59.1266 12.9771 60.4139 12.6909ZM33.9907 34.9679C32.311 31.7288 30.1991 29.1382 27.5041 27.7798C26.907 28.213 26.3657 28.6566 25.9098 29.1031C21.592 35.1774 18.4534 43.0081 17.8496 52.3043C24.7599 45.9978 30.5071 38.4628 33.9907 34.9679Z" fill="#004F83"/>
<path d="M37.8448 16.039L35.128 19.9795C35.128 19.9795 37.1812 21.4061 38.8695 23.3361C35.9148 22.7323 32.671 22.1863 32.671 22.1863L27.5286 24.9826L29.9391 20.9824C29.9391 20.9824 28.3172 19.5975 26.447 18.3908C28.4974 18.4505 32.3971 18.7738 32.3971 18.7738L37.8448 16.039V16.039ZM42.9255 33.4681C42.9255 33.4681 42.3501 35.0596 42.2743 36.5384C42.2743 36.5384 38.6684 37.0702 36.9328 38.2513C36.9328 38.2513 40.533 34.6634 42.9255 33.4681Z" fill="#7AC142"/>
<path d="M67.2189 33.3081C67.6199 33.2104 67.9194 33.1943 68.1431 33.2104C68.0758 33.0265 67.9517 32.7507 67.728 32.4786C67.4095 32.0928 66.9459 31.8037 66.9459 31.8037C67.2445 32.2644 67.253 32.9004 67.2189 33.3081H67.2189ZM63.9659 34.9493C64.4314 34.6289 64.856 34.3635 65.2419 34.1473C65.1717 33.9805 65.0627 33.7397 64.8996 33.4487C64.5906 32.8952 63.7849 32.4127 63.7849 32.4127C64.1176 33.3975 64.0465 34.3967 63.9659 34.9493Z" fill="#FEFEFE"/>
<path d="M25.2853 59.2891C22.2197 60.5423 14.9653 58.8341 14.9653 58.8341C22.2937 58.4123 29.4618 53.1618 29.4618 53.1618C29.4561 53.1741 29.4495 53.1874 29.4457 53.1988C27.2968 56.4947 24.3355 58.4009 24.3355 58.4009C24.6615 58.818 24.9905 59.0958 25.2853 59.2891Z" fill="#C4CDD3"/>
<path d="M61.8264 15.5634C61.8264 15.5634 60.0244 14.151 57.9797 16.3417C60.1704 12.349 61.4358 14.6383 61.8264 15.5634Z" fill="#7AC142"/>
<path d="M68.9413 34.9281C68.9413 34.9281 68.7527 34.8001 68.7129 34.7783C67.5697 34.1698 65.5203 35.9462 64.1818 36.6827C62.8453 37.4192 60.8973 38.988 59.9456 36.8268C58.9949 34.6655 61.1817 31.2853 61.94 29.1581C63.6122 24.4555 63.6728 21.6867 63.3202 20.1899C64.8653 21.935 65.3516 25.2802 65.3516 25.2802C65.3516 25.2802 65.926 18.9974 62.8538 17.3423C62.9249 17.5651 62.8443 18.3481 62.7818 18.9652C62.7818 18.9652 62.7761 18.9566 62.7723 18.9519C61.3409 19.2136 58.1853 18.8552 57.1606 18.3187C53.2808 22.4801 49.0512 28.2709 45.8672 33.5887C44.4861 36.4012 43.1343 39.6999 42.7959 42.3816C42.7959 42.3816 42.3561 41.1692 42.2518 39.552C40.4906 40.2317 34.5016 43.175 33.221 52.1991C33.221 52.1991 37.0269 48.2719 41.2347 46.742C41.2347 46.742 38.5701 53.7206 43.6566 66.0909C43.6566 66.0909 45.7155 58.5056 50.0228 56.5918C52.6305 69.5441 60.2755 69.7565 62.505 78.5692C62.505 78.5692 64.8416 74.0041 62.0291 66.2444C62.0291 66.2444 62.9988 66.5155 63.8216 67.4843C63.8216 67.4843 63.6937 65.214 61.5722 60.318C60.1902 57.6971 59.757 54.1595 59.757 54.1595C58.5152 55.2846 58.1967 59.0848 58.1967 59.0848C54.4012 48.7876 65.1743 38.5823 67.1412 37.078C68.1005 36.3414 68.692 36.3291 69.0504 36.5054C69.42 35.7386 69.3869 35.2485 68.9413 34.9281" fill="#C4CDD3"/>
</g>
<defs>
<clipPath id="clip0_2_2520">
<rect width="91" height="91" fill="white"/>
</clipPath>
</defs>
</svg>
