<svg width="91" height="91" viewBox="0 0 91 91" fill="none" xmlns="http://www.w3.org/2000/svg">
<g clip-path="url(#clip0_2_2666)">
<mask id="mask0_2_2666" style="mask-type:alpha" maskUnits="userSpaceOnUse" x="-1" y="0" width="92" height="91">
<path d="M90.9998 0H-0.000244141V91H90.9998V0Z" fill="white"/>
</mask>
<g mask="url(#mask0_2_2666)">
<path d="M45.5009 0C20.4121 0 -0.000671387 20.4122 -0.000671387 45.5027C-0.000671387 70.5908 20.4121 91.0005 45.5009 91.0005C70.5896 91.0005 90.9999 70.5908 90.9999 45.5027C90.9999 20.4123 70.5896 0 45.5009 0Z" fill="#FEFEFE"/>
</g>
<path d="M45.501 1.24744C21.0536 1.24744 1.24713 21.0658 1.24713 45.5026C1.24713 69.9394 21.0536 89.7529 45.501 89.7529C69.941 89.7529 89.7525 69.9394 89.7525 45.5026C89.7525 21.0658 69.941 1.24744 45.501 1.24744Z" fill="#1D428A"/>
<path d="M79.4193 61.503C72.6874 59.996 66.452 57.6905 60.7631 54.9559C59.8873 54.5318 59.024 54.0976 58.1731 53.656C54.0088 51.4977 50.1687 49.1249 46.6755 46.6997C45.9719 46.2082 45.2782 45.7166 44.607 45.2251C44.5621 45.1952 44.5222 45.1627 44.4823 45.1353C43.584 44.4791 42.7182 43.8229 41.8724 43.1667C40.4951 42.0963 39.1851 41.0334 37.9475 39.9854C36.5846 38.8311 35.2485 37.6456 33.9403 36.43C32.8524 35.4219 31.8394 34.4464 30.9087 33.5182C30.7091 33.3236 30.5219 33.1315 30.3323 32.9394C28.8652 31.4548 27.5976 30.095 26.5646 28.9422C26.5347 28.064 26.5122 27.2955 26.4923 26.6243C26.4399 24.9451 26.4149 23.9646 26.4149 23.9646L25.2297 23.4281L24.4063 24.1467L24.1269 24.3887C24.1269 24.3887 24.1393 25.0374 24.1643 26.1552C23.9098 25.8433 23.7152 25.5988 23.548 25.3917C23.538 24.4486 23.533 23.7225 23.528 23.241C23.5231 22.8118 23.5231 22.5748 23.5231 22.5748H21.8813L21.8513 23.5503L20.8632 23.7949C20.8632 23.7949 20.8233 25.8658 20.7634 29.1668C18.408 34.5487 15.9428 38.8178 13.7171 42.1187C12.5893 43.7904 11.5214 45.2101 10.5632 46.3978C9.45292 47.7676 8.48231 48.833 7.73127 49.599C7.59154 48.6334 7.49421 47.6553 7.42935 46.6698C7.36947 45.8164 7.33204 44.9581 7.33204 44.0899C7.33204 43.2166 7.36947 42.3558 7.42935 41.495C8.02318 32.6674 11.6087 24.6607 17.1978 18.4903C18.4105 17.1505 19.7229 15.8955 21.1127 14.7402C27.1285 9.73761 34.7088 6.55638 43.0101 6.02744C43.8286 5.97504 44.6469 5.93762 45.4778 5.93762C46.4435 5.93762 47.3966 5.98753 48.3448 6.05737C56.696 6.67615 64.2888 9.98213 70.2796 15.1145C71.6108 16.2536 72.8621 17.4824 74.0248 18.7923C79.3869 24.8403 82.8527 32.6025 83.5039 41.1507C83.5787 42.1237 83.6262 43.1018 83.6262 44.0899C83.6262 44.8059 83.6012 45.5145 83.5638 46.2182C83.2594 51.7023 81.7972 56.8771 79.4193 61.503ZM8.61954 53.9354C8.46735 53.3641 8.3301 52.7877 8.20533 52.2088C8.60456 51.6499 9.0512 51.0137 9.55521 50.2851L8.61954 53.9354ZM12.6093 46.2406L10.3586 59.0079C9.9245 57.9825 9.53525 56.9295 9.19092 55.8591L10.8801 48.314C11.3043 47.6753 11.7559 46.9842 12.21 46.2706C12.3922 45.9886 12.5693 45.7141 12.754 45.4197L12.6093 46.2406ZM19.8003 35.9284L18.6375 42.4755L18.0337 45.8963L14.4282 66.2412C13.8793 65.4752 13.3528 64.6967 12.8638 63.8908L16.0351 46.0136L16.6888 42.3458L17.2378 39.2344L17.6245 37.0612C18.7024 35.0402 19.7479 32.9244 20.716 30.7612L19.8003 35.9284ZM37.5807 43.1467L38.2294 45.1952L44.2253 64.1104C43.4019 64.1652 42.596 64.2177 41.795 64.275L35.8066 45.2351L35.1404 43.1143L34.841 42.1612L32.7875 35.6365C33.2042 36.0457 33.6184 36.4424 34.0301 36.8392C34.7762 37.5527 35.5147 38.2539 36.2408 38.93L37.5807 43.1467ZM40.762 43.1667L41.3933 45.1553L44.5122 54.9809L47.3492 63.9083L47.3517 63.9232H47.3492C46.5757 63.9656 45.8097 64.0106 45.0537 64.058L44.3525 61.8348L39.0928 45.1802L38.4515 43.1542L37.4709 40.0503C38.5538 41.0334 39.6217 41.979 40.6697 42.8847L40.762 43.1667ZM53.9738 63.6089C53.1754 63.6388 52.3844 63.6737 51.5984 63.7087L46.708 48.2017L46.5558 47.7227C46.6032 47.7626 46.6506 47.7925 46.698 47.83C47.6718 48.5883 48.6558 49.3336 49.6497 50.0656L53.9738 63.6089ZM60.6733 63.4192C59.8125 63.4367 58.9542 63.4541 58.1033 63.4766L55.0417 53.8381C56.1895 54.5942 57.2924 55.2977 58.3628 55.9515L60.6733 63.4192ZM67.3104 60.8069C70.2397 62.1817 72.4529 62.9976 73.8052 63.4367C71.899 63.3918 70.0051 63.3668 68.1213 63.3568L67.3104 60.8069ZM63.3481 58.8133C64.324 59.3383 65.3106 59.8432 66.3073 60.3278L67.268 63.3568C66.9785 63.3568 66.6916 63.3593 66.4021 63.3593C65.8582 63.3593 65.3143 63.3593 64.7728 63.3618L63.7748 60.1781L63.3481 58.8133ZM59.4132 56.5827C60.3732 57.1576 61.3431 57.7158 62.3226 58.2569L63.927 63.3718C63.4878 63.3768 63.0537 63.3843 62.612 63.3893C62.2502 63.3943 61.8859 63.3968 61.5241 63.4018L60.0595 58.6761L59.4133 56.5827H59.4132ZM53.9913 53.1345C54.0387 53.1619 54.0786 53.1944 54.126 53.2243L54.0088 53.1894L57.2674 63.4991C56.4415 63.524 55.6231 63.5515 54.8097 63.5789L50.8324 50.9339C51.9128 51.7123 52.9608 52.4384 53.9863 53.1295L54.0038 53.1869L54.0087 53.1894L53.9913 53.1345V53.1345ZM41.7925 43.8478C42.3165 44.2919 42.8305 44.7186 43.342 45.1403C43.7662 45.4896 44.1854 45.8289 44.6046 46.1658C44.859 46.3704 45.116 46.5849 45.3705 46.7845L46.7828 51.2283L50.7651 63.7436C49.8943 63.7835 49.0334 63.8309 48.1826 63.8758L47.1695 60.6946L44.5497 52.4958L42.2067 45.1478L41.7925 43.8478ZM67.7745 70.2033C63.2957 69.9838 56.7609 69.7966 47.7384 69.8041C46.5558 69.8066 45.3307 69.8116 44.0606 69.8191C41.2037 69.8391 38.1521 69.874 34.8385 69.9364C37.945 69.7941 41.0415 69.6894 44.0681 69.6145C45.3007 69.5821 46.5158 69.5571 47.716 69.5347C55.1341 69.395 61.9533 69.4174 67.1432 69.4798C69.8754 69.5122 72.1584 69.5596 73.8477 69.597C73.5632 69.9114 73.2688 70.2183 72.9743 70.5227C71.6993 70.4254 69.9802 70.3106 67.7745 70.2034V70.2033ZM28.6581 71.2862C33.0944 71.1864 38.4191 71.1141 44.0007 71.124C45.2732 71.1265 46.5533 71.134 47.8383 71.1465C55.3237 71.2188 63.0013 71.4634 69.4637 72.0347C70.07 72.0896 70.6838 72.142 71.2677 72.2019C70.9832 72.4664 70.6863 72.7159 70.3919 72.9704C63.7074 78.744 55.0043 82.2446 45.4779 82.2446C39.7365 82.2446 34.2946 80.9671 29.4091 78.6941C29.1421 76.6506 28.8901 74.1306 28.6581 71.2862ZM25.9034 76.8377C25.6065 76.6631 25.3171 76.476 25.0276 76.2913C24.9228 74.7818 24.8255 73.1326 24.7332 71.3835C25.0127 71.3735 25.3046 71.3685 25.5915 71.3586C25.6963 73.5068 25.7986 75.3656 25.9034 76.8377ZM27.912 60.3178C27.7698 57.8951 27.64 55.42 27.5178 52.9449L29.2145 58.2918L30.25 61.5429L31.3952 65.1433C30.2974 65.2506 29.2469 65.3579 28.2289 65.4652C28.2139 65.2681 28.204 65.066 28.189 64.8689C28.0942 63.3843 28.0018 61.8648 27.912 60.3178ZM27.0687 42.8997C27.0487 42.3832 27.0262 41.8468 27.0038 41.3403L27.5003 42.9172L28.2888 45.4347L31.1732 54.6191L32.1438 57.718L34.3869 64.8664C33.6533 64.9312 32.9297 64.9986 32.2236 65.066L30.8014 60.5449L29.7834 57.3163L27.3581 49.599C27.2957 48.2067 27.2333 46.8294 27.1759 45.4746C27.1394 44.6163 27.1037 43.758 27.0686 42.8997L27.0687 42.8997ZM18.1585 66.6578L20.3941 54.0303C20.3467 58.4665 20.3193 62.748 20.3218 66.3784C19.5433 66.4757 18.8297 66.568 18.1585 66.6578ZM20.3742 72.8057C19.9126 72.4015 19.4609 71.9898 19.0218 71.5607C19.421 71.5482 19.8577 71.5332 20.3542 71.5158C20.3592 71.9724 20.3667 72.4015 20.3742 72.8057V72.8057ZM19.4534 42.5279L20.6461 35.7862C20.6112 37.9071 20.5738 40.2025 20.5388 42.5903C20.5239 43.6333 20.5089 44.6937 20.4964 45.764C20.4765 47.0989 20.459 48.4463 20.4416 49.7986L20.3293 49.7786L17.3126 66.7726C16.4693 66.8874 15.7332 66.9922 15.0944 67.082L18.8621 45.8489L19.4535 42.5279H19.4534ZM28.0917 30.8984C28.5907 31.4224 29.0947 31.9388 29.5912 32.4503C30.1227 32.9942 30.6467 33.5282 31.1707 34.0497C31.2355 34.117 31.3079 34.1894 31.3728 34.2543L31.6348 35.0801L33.1768 39.9131L34.1923 43.0993L34.8785 45.2551L34.9059 45.3424L40.9616 64.3349C40.1682 64.3923 39.3872 64.4522 38.6162 64.5096L34.3071 50.7467L33.339 47.6628L32.6029 45.3075L31.8993 43.0494L28.5009 32.2008L28.0917 30.8984ZM26.5721 29.299C26.6395 29.3689 26.7019 29.4338 26.7667 29.5011L27.5477 31.9837L31.0185 43.0294L31.7445 45.3299L33.0071 49.3545L33.9527 52.3585L37.7953 64.5769C36.917 64.6468 36.0587 64.7192 35.2128 64.7915L32.6403 56.5103L31.6847 53.4439L29.1845 45.4048L28.4185 42.9496L26.8765 37.9819C26.7917 35.7064 26.7168 33.628 26.657 31.7816C26.627 30.8984 26.5971 30.055 26.5721 29.299H26.5721ZM23.558 26.0155C23.7651 26.2475 23.9722 26.4671 24.1768 26.6967C24.2117 28.0565 24.2591 29.9677 24.314 32.2557C24.3914 35.2423 24.4862 38.8751 24.596 42.7974C24.6209 43.7081 24.6459 44.6338 24.6733 45.5719C24.8455 51.4878 25.0476 57.8377 25.2597 63.4816C25.2871 64.2601 25.317 65.0285 25.347 65.7771C25.0501 65.812 24.7681 65.8444 24.4787 65.8769C24.4587 65.3679 24.4413 64.8414 24.4188 64.3249C24.1868 58.2993 24.0096 51.7273 23.8749 45.6044C23.8549 44.6437 23.8374 43.6956 23.8175 42.7625C23.7426 39.0623 23.6877 35.6141 23.6428 32.6399C23.6029 29.9952 23.5779 27.7147 23.558 26.0155H23.558ZM14.7227 42.1986C15.2816 41.2554 15.848 40.2924 16.4119 39.2818L16.1823 40.6042L15.8854 42.2884L15.2242 46.0634L12.2824 62.8803C11.7884 62.012 11.3268 61.1237 10.9026 60.2131L13.3828 46.1882L13.8244 43.6931C13.9317 43.521 14.0415 43.3314 14.1463 43.1592C14.3401 42.84 14.5322 42.5198 14.7227 42.1986ZM45.4778 3.39014C22.9916 3.39014 4.76202 21.6117 4.76202 44.0998C4.76202 66.5905 22.9916 84.812 45.4778 84.812C56.9106 84.812 67.233 80.0963 74.6287 72.5088C74.8782 72.3766 75.1751 72.0173 75.4371 71.6605C82.1091 64.4098 86.1862 54.7363 86.1862 44.0998C86.1862 21.6117 67.9641 3.39014 45.4778 3.39014Z" fill="#FDB927"/>
<path d="M7.33185 44.0916C7.33185 44.9599 7.36926 45.8182 7.42916 46.669C7.97309 46.6166 9.03103 46.5193 10.5631 46.397C11.5212 45.2119 12.5891 43.7922 13.7169 42.118C10.316 41.8385 8.1702 41.5865 7.42916 41.4967C7.36926 42.355 7.33185 43.2183 7.33185 44.0916ZM83.626 44.0916C83.626 43.101 83.5785 42.123 83.5037 41.1524C74.4139 42.0082 65.9478 42.5371 58.2079 42.8366C58.5996 36.8733 61.4765 31.4989 65.5461 26.2867C68.8347 22.065 72.298 19.7696 74.0246 18.794C72.8619 17.4816 71.6118 16.254 70.2794 15.1137C67.3052 18.0504 57.5866 28.6969 56.8954 42.8915C53.3049 43.0187 49.8816 43.096 46.6279 43.136C46.4308 21.0121 48.1699 7.36402 48.3446 6.05662C47.3964 5.98674 46.4457 5.93933 45.4776 5.93933C44.6468 5.93933 43.8283 5.97675 43.0099 6.02667C43.1971 7.80565 44.5345 21.3789 44.5993 43.1559C43.6786 43.1609 42.7679 43.1659 41.8721 43.1659C42.718 43.8221 43.5838 44.4783 44.4821 45.1345H44.6068V45.2243C45.278 45.7184 45.9717 46.2099 46.6753 46.6989C46.6678 46.17 46.6603 45.6485 46.6504 45.1295C49.8916 45.1295 53.2974 45.152 56.868 45.2118C56.9254 47.9215 57.3246 50.746 58.173 53.6577C59.0238 54.0994 59.8871 54.5335 60.7629 54.9577C59.1386 51.5169 58.3251 48.2958 58.1829 45.2368C65.9453 45.3815 74.4438 45.6859 83.5636 46.2174C83.601 45.5138 83.6259 44.8077 83.6259 44.0916H83.626ZM21.1125 14.7395C19.7227 15.8972 18.4103 17.1497 17.1977 18.4921C18.1832 19.0036 20.3615 20.2711 22.8367 22.5765H23.5229C23.5229 22.5765 23.5229 22.8111 23.5278 23.2402C23.8173 23.5296 24.1117 23.829 24.4061 24.1459L25.2295 23.4298L26.4147 23.9638C26.4147 23.9638 26.4397 24.9468 26.4921 26.626C28.2037 28.8516 29.6933 31.1097 30.8636 33.4301L33.8852 36.2296C31.0307 24.7897 23.1261 16.6632 21.1125 14.7395" fill="#FEFEFE"/>
</g>
<defs>
<clipPath id="clip0_2_2666">
<rect width="91" height="91" fill="white"/>
</clipPath>
</defs>
</svg>
