<svg width="90" height="90" viewBox="0 0 90 90" fill="none" xmlns="http://www.w3.org/2000/svg">
<g clip-path="url(#clip0_6_363)">
<path d="M45.0435 1.00272H44.9668C20.715 1.00556 1.04358 20.6587 1.00098 44.9294V45.0061C1.0038 69.2825 20.6525 88.9726 44.9185 89.001H44.9782C69.2357 88.9925 88.9042 69.3337 88.9355 45.0545V44.9976C88.9298 20.7326 69.2954 1.04821 45.0435 1.00272" fill="#FEFEFE"/>
<path d="M88.9347 45.0299V45.0555C88.9063 69.3347 69.2377 88.9935 44.9802 88.9991H44.9206C20.6545 88.9736 1.00302 69.2806 1.00018 45.0071V44.9304C1.04281 20.6597 20.717 1.00371 44.966 1.00371H45.0427C69.2974 1.0492 88.929 20.7308 88.9347 44.9986V45.0298L88.9347 45.0299ZM89.932 44.9019C89.8752 20.091 69.7606 0.00284329 44.9688 0H44.8722C20.0749 0.0568659 0.00850573 20.1877 0.00281914 44.9787L0 45.027V45.0555C0.0312527 69.8834 20.1459 89.9887 44.9547 90H45.0172C69.8259 89.9687 89.915 69.8493 89.932 45.0299C89.932 45.0128 89.9349 44.9957 89.9349 44.9702C89.932 44.9702 89.9349 44.9531 89.932 44.9019V44.9019Z" fill="#C4CED4"/>
<path d="M30.2692 35.0085C34.8383 30.4392 36.7591 25.0966 36.7591 25.0966L37.7792 21.3861L38.0207 20.5217L33.3409 17.9001C33.3409 17.9001 30.6131 16.0036 24.5096 19.5464C17.3605 23.7631 11.5469 29.2166 8.54064 35.0028C6.87271 38.2073 5.55143 41.8979 4.86664 46.0918C5.07977 54.0332 7.58591 61.4003 11.76 67.5447C10.5694 56.1032 21.6199 43.5697 30.2693 35.0085H30.2692ZM65.4905 19.5453C59.3871 16.0025 56.6564 17.899 56.6564 17.899L51.9794 20.5206L52.2181 21.3878L53.2381 25.0983C53.2381 25.0983 55.159 30.4381 59.7309 35.0073C68.3547 43.543 79.3653 56.0253 78.2543 67.4412C82.4455 61.2229 84.9346 53.7677 85.0795 45.7352C84.3777 41.6863 83.0791 38.1151 81.4595 35.0017C78.4504 29.2183 72.6339 23.762 65.4905 19.5453" fill="#002B5C"/>
<path d="M50.8098 12.687C66.847 14.5011 77.3859 23.6083 82.8302 31.6862C78.7356 20.0285 69.4157 10.836 57.6833 6.91506C55.0947 7.67993 52.2249 9.28926 50.8098 12.687V12.687ZM39.1894 12.687C37.7658 9.2722 34.8732 7.66287 32.2761 6.90369C20.4699 10.8417 11.1073 20.1195 7.04401 31.8767C12.4485 23.7533 23.0272 14.5125 39.1894 12.687V12.687ZM41.8146 12.2344L44.997 7.54571L48.1852 12.2344C49.4638 8.73992 51.4784 6.81214 53.4987 5.76294C50.7624 5.17154 47.9237 4.85024 45.0112 4.8474C42.0845 4.84456 39.2317 5.16585 36.4812 5.75725C38.5072 6.80645 40.5303 8.7257 41.8146 12.2344" fill="#E31837"/>
<path d="M66.7939 47.4093C60.2728 36.8491 45.4631 26.1866 45 25.8539C44.5368 26.1866 29.7272 36.8491 23.206 47.4093C14.4032 61.66 15.5454 69.8801 17.8243 74.5716C23.4959 79.792 30.6762 83.3945 38.6351 84.6569L42.0676 35.9819L44.9289 33.1101L44.9659 33.0703V33.0732L44.9687 33.0703L45.0056 33.1101L47.8642 35.9819L51.3222 84.62L51.2739 84.6455C59.2953 83.3774 66.5297 79.7436 72.2296 74.4607C74.4715 69.7522 75.5342 61.552 66.7939 47.4093" fill="#002B5C"/>
<path d="M47.8645 35.9808L45.006 33.109L45.0373 88.2014L51.2743 84.6444L51.3197 84.6188L47.8645 35.9808ZM44.9819 22.1579L43.7345 23.0791L38.5034 26.9404L39.8729 21.9617L40.1088 21.1002L40.5691 19.4311L39.0489 18.6094L34.1275 15.9566C36.6109 15.4078 39.1484 15.0524 41.7113 14.8875L42.9644 14.8107L43.0156 14.7055L43.5157 13.6791L43.5952 13.5198L44.9989 10.6651L46.4481 13.6165L46.4793 13.6791L46.9851 14.7055L47.0334 14.8107L48.2893 14.8875C50.8495 15.0524 53.3897 15.4078 55.8703 15.9566L50.9518 18.6094L49.4287 19.4311L49.8891 21.1002L50.1277 21.9617L51.4973 26.9404L46.2662 23.0791L45.0188 22.1579V22.1323L44.9989 22.1465L44.9819 22.1323V22.1579V22.1579Z" fill="#C4CED4"/>
<path d="M45.0184 22.133V22.1586L46.2658 23.0798L51.4969 26.941L50.1273 21.9624L49.8915 21.098L49.4311 19.4318L50.9513 18.6129L55.8727 15.9573C53.3865 15.4113 50.8519 15.0531 48.2889 14.8882L47.0358 14.8085L46.9847 14.7062L46.4789 13.6826L46.4476 13.6172L44.9985 10.6686L43.5977 13.5205H43.5948L43.5152 13.6826L43.0152 14.7062L42.964 14.8085L41.7109 14.8882C39.1479 15.0531 36.6105 15.4113 34.1271 15.9573L39.0485 18.6129L40.5715 19.4318L40.1084 21.098L39.8725 21.9624L38.5029 26.941L43.734 23.0798L44.9814 22.1586V22.133L44.9985 22.1472L45.0184 22.133H45.0184Z" fill="#C4CED4"/>
</g>
<defs>
<clipPath id="clip0_6_363">
<rect width="90" height="90" fill="white"/>
</clipPath>
</defs>
</svg>
